<svg width="12" height="12" viewBox="0 0 12 12" fill="none" xmlns="http://www.w3.org/2000/svg">
<path fill-rule="evenodd" clip-rule="evenodd" d="M6.0001 0.600098C6.22101 0.600098 6.4001 0.779184 6.4001 1.0001V11.0001C6.4001 11.221 6.22101 11.4001 6.0001 11.4001C5.77918 11.4001 5.6001 11.221 5.6001 11.0001V1.0001C5.6001 0.779184 5.77918 0.600098 6.0001 0.600098Z" fill="#1A1A18"/>
<path fill-rule="evenodd" clip-rule="evenodd" d="M11.4001 6.0001C11.4001 6.22101 11.2211 6.4001 11.0001 6.4001L1.00015 6.4001C0.779232 6.4001 0.600145 6.22101 0.600145 6.0001C0.600145 5.77918 0.779232 5.6001 1.00015 5.6001L11.0001 5.6001C11.2211 5.6001 11.4001 5.77918 11.4001 6.0001Z" fill="#1A1A18"/>
</svg>
