<svg width="24" height="20" viewBox="0 0 24 20" fill="none" xmlns="http://www.w3.org/2000/svg">
<path d="M1 0.25C0.585786 0.25 0.25 0.585786 0.25 1C0.25 1.41421 0.585786 1.75 1 1.75V0.25ZM6.41444 2.45056L5.6933 2.6566V2.6566L6.41444 2.45056ZM7.14286 5L6.42171 5.20604L7.14286 5ZM9.58556 13.5494L10.3067 13.3434V13.3434L9.58556 13.5494ZM21.3787 13.4851L22.1063 13.667L21.3787 13.4851ZM22.8787 7.48507L23.6063 7.66697L22.8787 7.48507ZM11 18.25C10.5858 18.25 10.25 18.5858 10.25 19C10.25 19.4142 10.5858 19.75 11 19.75V18.25ZM12 19.75C12.4142 19.75 12.75 19.4142 12.75 19C12.75 18.5858 12.4142 18.25 12 18.25V19.75ZM19 18.25C18.5858 18.25 18.25 18.5858 18.25 19C18.25 19.4142 18.5858 19.75 19 19.75V18.25ZM20 19.75C20.4142 19.75 20.75 19.4142 20.75 19C20.75 18.5858 20.4142 18.25 20 18.25V19.75ZM1 1.75H4.4914V0.25H1V1.75ZM5.6933 2.6566L6.42171 5.20604L7.864 4.79396L7.13559 2.24452L5.6933 2.6566ZM6.42171 5.20604L8.86441 13.7555L10.3067 13.3434L7.864 4.79396L6.42171 5.20604ZM11.5086 15.75H19.4384V14.25H11.5086V15.75ZM22.1063 13.667L23.6063 7.66697L22.1511 7.30317L20.6511 13.3032L22.1063 13.667ZM20.9384 4.25H7.14286V5.75H20.9384V4.25ZM11 19.75H12V18.25H11V19.75ZM19 19.75H20V18.25H19V19.75ZM23.6063 7.66697C24.0403 5.93132 22.7275 4.25 20.9384 4.25V5.75C21.7517 5.75 22.3484 6.51424 22.1511 7.30317L23.6063 7.66697ZM19.4384 15.75C20.7003 15.75 21.8003 14.8912 22.1063 13.667L20.6511 13.3032C20.512 13.8596 20.012 14.25 19.4384 14.25V15.75ZM8.86441 13.7555C9.20172 14.9361 10.2808 15.75 11.5086 15.75V14.25C10.9505 14.25 10.46 13.88 10.3067 13.3434L8.86441 13.7555ZM4.4914 1.75C5.0495 1.75 5.53998 2.11997 5.6933 2.6566L7.13559 2.24452C6.79828 1.06394 5.71922 0.25 4.4914 0.25V1.75Z" fill="#293644"/>
</svg>
