<svg width="24" height="22" viewBox="0 0 24 22" fill="none" xmlns="http://www.w3.org/2000/svg">
<path d="M0.558871 7.92045C0.223882 8.16408 0.149819 8.63314 0.393448 8.96813C0.637077 9.30312 1.10614 9.37719 1.44113 9.13356L0.558871 7.92045ZM10.8237 1.38253L10.3825 0.775976V0.775976L10.8237 1.38253ZM13.1763 1.38253L12.7352 1.98908V1.98908L13.1763 1.38253ZM22.5589 9.13356C22.8939 9.37719 23.3629 9.30312 23.6066 8.96813C23.8502 8.63314 23.7761 8.16408 23.4411 7.92045L22.5589 9.13356ZM3.25 6.34519V18.527H4.75V6.34519H3.25ZM20.75 18.527V6.34519H19.25V18.527H20.75ZM1.44113 9.13356L4.44113 6.95174L3.55887 5.73864L0.558871 7.92045L1.44113 9.13356ZM4.44113 6.95174L11.2648 1.98908L10.3825 0.775976L3.55887 5.73864L4.44113 6.95174ZM12.7352 1.98908L19.5589 6.95174L20.4411 5.73864L13.6175 0.775976L12.7352 1.98908ZM19.5589 6.95174L22.5589 9.13356L23.4411 7.92045L20.4411 5.73864L19.5589 6.95174ZM6 21.277H9V19.777H6V21.277ZM15 21.277H18V19.777H15V21.277ZM15.75 20.527V13.527H14.25V20.527H15.75ZM13 10.777H11V12.277H13V10.777ZM8.25 13.527V20.527H9.75V13.527H8.25ZM9 21.277H15V19.777H9V21.277ZM15.75 13.527C15.75 12.0082 14.5188 10.777 13 10.777V12.277C13.6904 12.277 14.25 12.8366 14.25 13.527H15.75ZM11 10.777C9.48122 10.777 8.25 12.0082 8.25 13.527H9.75C9.75 12.8366 10.3096 12.277 11 12.277V10.777ZM11.2648 1.98908C11.7031 1.67031 12.2969 1.67031 12.7352 1.98908L13.6175 0.775976C12.6532 0.0746744 11.3468 0.0746751 10.3825 0.775976L11.2648 1.98908ZM19.25 18.527C19.25 19.2174 18.6904 19.777 18 19.777V21.277C19.5188 21.277 20.75 20.0458 20.75 18.527H19.25ZM3.25 18.527C3.25 20.0458 4.48122 21.277 6 21.277V19.777C5.30964 19.777 4.75 19.2174 4.75 18.527H3.25Z" fill="url(#paint0_linear_792_2260)"/>
<defs>
<linearGradient id="paint0_linear_792_2260" x1="31.3111" y1="25.9511" x2="-33.2835" y2="16.9339" gradientUnits="userSpaceOnUse">
<stop stop-color="#00B2FF"/>
<stop offset="1" stop-color="#5200FF"/>
</linearGradient>
</defs>
</svg>
