<svg width="22" height="19" viewBox="0 0 22 19" fill="none" xmlns="http://www.w3.org/2000/svg">
<path d="M12.3459 2.36669L12.3463 2.36637C14.2814 0.395623 17.3708 0.11644 19.4138 1.8347C21.7965 3.8421 21.9232 7.44909 19.7862 9.62578L19.786 9.62592L11.4719 18.0993C11.2092 18.3669 10.7872 18.3669 10.5245 18.0993L2.21059 9.62622C2.21052 9.62615 2.21045 9.62607 2.21037 9.626C2.21035 9.62597 2.21032 9.62595 2.2103 9.62592C0.0773657 7.44917 0.204201 3.84206 2.5868 1.8347C4.63009 0.116209 7.7235 0.396025 9.65389 2.36587L9.6547 2.36669L10.5012 3.22762L11.0003 3.73529L11.4995 3.22762L12.3459 2.36669Z" stroke="#FF3139" stroke-width="1.4"/>
</svg>
