<svg width="24" height="24" viewBox="0 0 24 24" fill="none" xmlns="http://www.w3.org/2000/svg">
<path d="M2.63343 9.63388C2.36164 9.83633 2.30544 10.2208 2.50789 10.4926C2.71034 10.7643 3.09478 10.8206 3.36657 10.6181L2.63343 9.63388ZM11.0375 4.13892L10.671 3.6468V3.6468L11.0375 4.13892ZM12.9625 4.13892L12.5959 4.63103V4.63103L12.9625 4.13892ZM20.6334 10.6181C20.9052 10.8206 21.2897 10.7643 21.4921 10.4926C21.6946 10.2208 21.6384 9.83633 21.3666 9.63388L20.6334 10.6181ZM4.84091 8.29763V18.506H6.06818V8.29763H4.84091ZM19.1591 18.506V8.29763H17.9318V18.506H19.1591ZM3.36657 10.6181L5.82112 8.78974L5.08798 7.80551L2.63343 9.63388L3.36657 10.6181ZM5.82112 8.78974L11.4041 4.63103L10.671 3.6468L5.08798 7.80551L5.82112 8.78974ZM12.5959 4.63103L18.1789 8.78974L18.912 7.80551L13.329 3.6468L12.5959 4.63103ZM18.1789 8.78974L20.6334 10.6181L21.3666 9.63388L18.912 7.80551L18.1789 8.78974ZM7.09091 20.7956H9.54545V19.5684H7.09091V20.7956ZM14.4545 20.7956H16.9091V19.5684H14.4545V20.7956ZM15.0682 20.182V14.316H13.8409V20.182H15.0682ZM12.8182 12.0264H11.1818V13.2536H12.8182V12.0264ZM8.93182 14.316V20.182H10.1591V14.316H8.93182ZM9.54545 20.7956H14.4545V19.5684H9.54545V20.7956ZM15.0682 14.316C15.0682 13.0654 14.0746 12.0264 12.8182 12.0264V13.2536C13.3693 13.2536 13.8409 13.7153 13.8409 14.316H15.0682ZM11.1818 12.0264C9.92542 12.0264 8.93182 13.0654 8.93182 14.316H10.1591C10.1591 13.7153 10.6307 13.2536 11.1818 13.2536V12.0264ZM11.4041 4.63103C11.7604 4.36565 12.2396 4.36565 12.5959 4.63103L13.329 3.6468C12.5377 3.05736 11.4623 3.05736 10.671 3.6468L11.4041 4.63103ZM17.9318 18.506C17.9318 19.1066 17.4602 19.5684 16.9091 19.5684V20.7956C18.1655 20.7956 19.1591 19.7566 19.1591 18.506H17.9318ZM4.84091 18.506C4.84091 19.7566 5.83451 20.7956 7.09091 20.7956V19.5684C6.53983 19.5684 6.06818 19.1067 6.06818 18.506H4.84091Z" fill="#1890FF"/>
</svg>
