<svg width="18" height="18" viewBox="0 0 18 18" fill="none" xmlns="http://www.w3.org/2000/svg">
<path d="M13.2427 5.50725C15.5857 7.85025 15.5857 11.6497 13.2427 13.9927C10.8997 16.3357 7.10025 16.3357 4.75725 13.9927C2.41425 11.6497 2.41425 7.85025 4.75725 5.50725C7.10025 3.16425 10.8997 3.16425 13.2427 5.50725" stroke="#323232" stroke-width="1.5" stroke-linecap="round" stroke-linejoin="round"/>
<path d="M9.375 9.7485C9.375 9.5415 9.207 9.37425 9 9.375C8.793 9.37575 8.625 9.54375 8.625 9.75075C8.625 9.95775 8.79225 10.125 8.99925 10.125C9.20625 10.125 9.37425 9.957 9.375 9.74925" stroke="#323232" stroke-width="1.5" stroke-linecap="round" stroke-linejoin="round"/>
<path d="M9 6.75V9.75" stroke="#323232" stroke-width="1.5" stroke-linecap="round" stroke-linejoin="round"/>
<path d="M7.5 1.5H10.5" stroke="#323232" stroke-width="1.5" stroke-linecap="round" stroke-linejoin="round"/>
<path d="M15.7499 4.5L14.2499 3L14.9999 3.75L13.2427 5.50725" stroke="#323232" stroke-width="1.5" stroke-linecap="round" stroke-linejoin="round"/>
</svg>
