<svg width="24" height="24" viewBox="0 0 24 24" fill="none" xmlns="http://www.w3.org/2000/svg">
<path d="M18.9775 16.6553H8.57587C8.02485 16.6553 7.5475 16.2785 7.42669 15.747L5.12537 5.7384H20.9341C21.6884 5.7384 22.2512 6.43348 22.0832 7.16361L20.1267 15.7441C20.0059 16.2756 19.5285 16.6553 18.9775 16.6553Z" stroke="#002930" stroke-width="1.5" stroke-miterlimit="10" stroke-linecap="round" stroke-linejoin="round"/>
<path d="M2.04309 2H4.29432L6.69288 12.5168" stroke="#002930" stroke-width="1.5" stroke-miterlimit="10" stroke-linecap="round" stroke-linejoin="round"/>
<path d="M9.25966 21.2414C10.0115 21.2414 10.621 20.6799 10.621 19.9872C10.621 19.2945 10.0115 18.7329 9.25966 18.7329C8.50781 18.7329 7.89832 19.2945 7.89832 19.9872C7.89832 20.6799 8.50781 21.2414 9.25966 21.2414Z" fill="#002930"/>
<path d="M18.6716 21.2414C19.4235 21.2414 20.033 20.6799 20.033 19.9872C20.033 19.2945 19.4235 18.7329 18.6716 18.7329C17.9198 18.7329 17.3103 19.2945 17.3103 19.9872C17.3103 20.6799 17.9198 21.2414 18.6716 21.2414Z" fill="#002930"/>
</svg>
