<svg width="24" height="24" viewBox="0 0 24 24" fill="none" xmlns="http://www.w3.org/2000/svg">
<path d="M7.09091 9H3.90909C2.84 9 2 8.13455 2 7.09091V3.90909C2 2.84 2.86545 2 3.90909 2H7.09091C8.16 2 9 2.86545 9 3.90909V7.09091C9 8.13455 8.13455 9 7.09091 9Z" stroke="#002930" stroke-width="1.5" stroke-miterlimit="10" stroke-linecap="round" stroke-linejoin="round"/>
<path d="M20.0909 9H16.9091C15.84 9 15 8.13455 15 7.09091V3.90909C15 2.84 15.8655 2 16.9091 2H20.0909C21.16 2 22 2.86545 22 3.90909V7.09091C22 8.13455 21.1345 9 20.0909 9Z" stroke="#002930" stroke-width="1.5" stroke-miterlimit="10" stroke-linecap="round" stroke-linejoin="round"/>
<path d="M7.09091 22H3.90909C2.84 22 2 21.1345 2 20.0909V16.9091C2 15.84 2.86545 15 3.90909 15H7.09091C8.16 15 9 15.8655 9 16.9091V20.0909C9 21.1345 8.13455 22 7.09091 22Z" stroke="#002930" stroke-width="1.5" stroke-miterlimit="10" stroke-linecap="round" stroke-linejoin="round"/>
<path d="M20.0909 22H16.9091C15.84 22 15 21.1345 15 20.0909V16.9091C15 15.84 15.8655 15 16.9091 15H20.0909C21.16 15 22 15.8655 22 16.9091V20.0909C22 21.1345 21.1345 22 20.0909 22Z" stroke="#002930" stroke-width="1.5" stroke-miterlimit="10" stroke-linecap="round" stroke-linejoin="round"/>
</svg>
