<svg width="24" height="24" viewBox="0 0 24 24" fill="none" xmlns="http://www.w3.org/2000/svg">
<path fill-rule="evenodd" clip-rule="evenodd" d="M6.16656 5.10572C5.87367 4.81282 5.39879 4.81282 5.1059 5.10572C4.81301 5.39861 4.81301 5.87348 5.1059 6.16638L10.9396 12.0001L5.10601 17.8337C4.81312 18.1266 4.81312 18.6014 5.10601 18.8943C5.39891 19.1872 5.87378 19.1872 6.16667 18.8943L12.0003 13.0607L17.8338 18.8943C18.1267 19.1872 18.6016 19.1872 18.8945 18.8943C19.1874 18.6014 19.1874 18.1265 18.8945 17.8336L13.0609 12.0001L18.8946 6.1664C19.1875 5.87351 19.1875 5.39863 18.8946 5.10574C18.6017 4.81285 18.1268 4.81285 17.8339 5.10574L12.0003 10.9394L6.16656 5.10572Z" fill="#FF0000"/>
</svg>
