<svg width="24" height="20" viewBox="0 0 24 20" fill="none" xmlns="http://www.w3.org/2000/svg">
<path d="M12.6272 2.49828L12.0001 2.99998L11.3729 2.49828C8.88347 0.506693 5.2946 0.705462 3.04027 2.95978C0.752089 5.24797 0.583999 8.90584 2.77235 11.2897C5.93464 14.7345 10.2115 19 12.0001 19C13.7887 19 18.0655 14.7345 21.2278 11.2897C23.4162 8.90585 23.2481 5.24797 20.9599 2.95978C18.7056 0.705461 15.1167 0.506693 12.6272 2.49828Z" fill="#C4C4C4" fill-opacity="0.16"/>
<path d="M12.0001 2.99998L11.3754 3.78085L12.0001 4.28061L12.6248 3.78085L12.0001 2.99998ZM12.6272 2.49828L13.2519 3.27915V3.27915L12.6272 2.49828ZM21.2278 11.2897L21.9645 11.9659V11.9659L21.2278 11.2897ZM2.77235 11.2897L2.03568 11.9659H2.03568L2.77235 11.2897ZM11.3729 2.49828L11.9976 1.71741V1.71741L11.3729 2.49828ZM20.9599 2.95978L21.667 2.25268V2.25268L20.9599 2.95978ZM12.6248 3.78085L13.2519 3.27915L12.0025 1.71741L11.3754 2.21911L12.6248 3.78085ZM20.4911 10.6134C18.918 12.3271 17.0852 14.2253 15.4353 15.6884C14.6086 16.4216 13.8502 17.0253 13.2089 17.4399C12.5167 17.8873 12.1305 18 12.0001 18V20C12.764 20 13.5831 19.5795 14.2947 19.1195C15.0571 18.6266 15.901 17.9486 16.7623 17.1848C18.4886 15.654 20.3753 13.697 21.9645 11.9659L20.4911 10.6134ZM12.0001 18C11.8697 18 11.4835 17.8873 10.7912 17.4399C10.1499 17.0253 9.39159 16.4216 8.56483 15.6884C6.91495 14.2253 5.08218 12.3271 3.50902 10.6134L2.03568 11.9659C3.62481 13.697 5.5116 15.654 7.23785 17.1848C8.09917 17.9486 8.94305 18.6266 9.7055 19.1195C10.4171 19.5795 11.2362 20 12.0001 20V18ZM10.7483 3.27915L11.3754 3.78085L12.6248 2.21911L11.9976 1.71741L10.7483 3.27915ZM3.74738 3.66689C5.6414 1.77287 8.65666 1.60587 10.7483 3.27915L11.9976 1.71741C9.11027 -0.592488 4.94779 -0.361951 2.33317 2.25268L3.74738 3.66689ZM3.50902 10.6134C1.70149 8.64443 1.81825 5.59602 3.74738 3.66689L2.33317 2.25268C-0.314068 4.89991 -0.533491 9.16726 2.03568 11.9659L3.50902 10.6134ZM20.2528 3.66689C22.1819 5.59602 22.2987 8.64443 20.4911 10.6134L21.9645 11.9659C24.5336 9.16726 24.3142 4.89991 21.667 2.25268L20.2528 3.66689ZM13.2519 3.27915C15.3435 1.60587 18.3588 1.77287 20.2528 3.66689L21.667 2.25268C19.0524 -0.361951 14.8899 -0.592489 12.0025 1.71741L13.2519 3.27915Z" fill="#C1C1C1"/>
</svg>
