<svg width="19" height="16" viewBox="0 0 19 16" fill="none" xmlns="http://www.w3.org/2000/svg">
<path fill-rule="evenodd" clip-rule="evenodd" d="M0 0.761905C0 0.341116 0.335776 0 0.749977 0H3.53481C4.57807 0 5.50033 0.697649 5.78939 1.71772L6.21422 3.21693H16.6534C18.1723 3.21693 19.3011 4.65986 18.9283 6.16351L17.7318 10.9889C17.4695 12.0469 16.5291 12.7831 15.457 12.7831H9.13192C8.08865 12.7831 7.16639 12.0854 6.87733 11.0654L4.34797 2.13926C4.24569 1.7783 3.91604 1.52381 3.53481 1.52381H0.749977C0.335776 1.52381 0 1.18269 0 0.761905ZM6.64601 4.74074L8.31875 10.6438C8.42103 11.0048 8.75068 11.2593 9.13192 11.2593H15.457C15.8488 11.2593 16.1846 10.9908 16.2773 10.6167L17.4738 5.79131C17.6044 5.2646 17.2102 4.74074 16.6534 4.74074H6.64601ZM7.97626 15.2381C7.97626 14.8173 8.31204 14.4762 8.72624 14.4762H9.52387C9.93807 14.4762 10.2738 14.8173 10.2738 15.2381C10.2738 15.6589 9.93807 16 9.52387 16H8.72624C8.31204 16 7.97626 15.6589 7.97626 15.2381ZM14.3573 15.2381C14.3573 14.8173 14.693 14.4762 15.1072 14.4762H15.9049C16.3191 14.4762 16.6549 14.8173 16.6549 15.2381C16.6549 15.6589 16.3191 16 15.9049 16H15.1072C14.693 16 14.3573 15.6589 14.3573 15.2381Z" fill="white"/>
</svg>
