<svg width="19" height="19" viewBox="0 0 19 19" fill="none" xmlns="http://www.w3.org/2000/svg">
<path fill-rule="evenodd" clip-rule="evenodd" d="M17.8976 2.51668C18.2882 2.12615 18.2882 1.49299 17.8976 1.10246C17.5071 0.711939 16.8739 0.711939 16.4834 1.10246L9.50005 8.08583L2.51668 1.10246C2.12615 0.711939 1.49299 0.711939 1.10247 1.10246C0.711941 1.49299 0.711941 2.12615 1.10247 2.51668L8.08583 9.50005L1.10246 16.4834C0.711939 16.8739 0.711939 17.5071 1.10246 17.8976C1.49299 18.2882 2.12615 18.2882 2.51668 17.8976L9.50005 10.9143L16.4834 17.8976C16.8739 18.2882 17.5071 18.2882 17.8976 17.8976C18.2882 17.5071 18.2882 16.8739 17.8976 16.4834L10.9143 9.50005L17.8976 2.51668Z" fill="#1E1E1E"/>
</svg>
