<svg width="27" height="28" viewBox="0 0 27 28" fill="none" xmlns="http://www.w3.org/2000/svg">
<g clip-path="url(#clip0_248_1579)">
<path d="M9.34409 21C9.34409 22.2886 8.35824 23.3333 7.14212 23.3333C5.92601 23.3333 4.94016 22.2886 4.94016 21M9.34409 21C9.34409 19.7113 8.35824 18.6666 7.14212 18.6666C5.92601 18.6666 4.94016 19.7113 4.94016 21M9.34409 21H15.95M4.94016 21H3.83917C2.62306 21 1.63721 19.9553 1.63721 18.6666V6.99996C1.63721 5.71129 2.62306 4.66663 3.83917 4.66663H13.748C14.9641 4.66663 15.95 5.71129 15.95 6.99996V8.16663M22.5559 21C22.5559 22.2886 21.57 23.3333 20.3539 23.3333C19.1378 23.3333 18.152 22.2886 18.152 21M22.5559 21C22.5559 19.7113 21.57 18.6666 20.3539 18.6666C19.1378 18.6666 18.152 19.7113 18.152 21M22.5559 21H23.6569C24.873 21 25.8588 19.9553 25.8588 18.6666V14.8184C25.8588 14.2886 25.6887 13.7746 25.3763 13.3608L22.116 9.04234C21.6982 8.48884 21.0655 8.16663 20.3966 8.16663H15.95M18.152 21H15.95M15.95 8.16663V21" stroke="#474A4E" stroke-width="2"/>
</g>
<defs>
<clipPath id="clip0_248_1579">
<rect width="26.4236" height="28" fill="white" transform="translate(0.536133)"/>
</clipPath>
</defs>
</svg>
