<svg width="35" height="24" viewBox="0 0 35 24" fill="none" xmlns="http://www.w3.org/2000/svg">
<path fill-rule="evenodd" clip-rule="evenodd" d="M7.13761 7.74763L5.60238 6.24489L0 11.7288L5.59576 17.2062L7.29623 15.5886L3.21159 11.5905L7.13761 7.74763ZM16.7827 18.7231L15.3275 17.2989L12.1855 20.3744L8.29604 16.5673L6.61953 18.2083L11.9828 23.458L16.7827 18.7231ZM19.4404 16.215L17.9376 14.744L21.0683 11.6797L12.0944 2.89569L8.11848 6.78752L6.58326 5.28478L11.9824 0L24.0743 11.7734L19.4404 16.215ZM27.5545 15.7103L29.0896 17.2131L34.6921 11.7292L29.0962 6.25187L27.3958 7.86938L31.4804 11.8675L27.5545 15.7103ZM17.9094 4.73485L19.3645 6.15913L22.5066 3.08362L26.396 6.89074L28.0725 5.24978L22.7092 0L17.9094 4.73485ZM15.2516 7.24303L16.7544 8.71398L13.6238 11.7784L22.5976 20.5623L26.5736 16.6704L28.1087 18.1732L22.7097 23.458L10.6177 11.6845L15.2516 7.24303Z" fill="#026BA2"/>
</svg>
