<svg width="22" height="22" viewBox="0 0 22 22" fill="none" xmlns="http://www.w3.org/2000/svg">
<path d="M2.62915 14.2978L3.3314 14.5611L2.62915 14.2978ZM1.12915 18.2978L0.426904 18.0344H0.426904L1.12915 18.2978ZM21.1025 18.2978L21.8047 18.0344L21.1025 18.2978ZM19.6025 14.2978L20.3047 14.0344L19.6025 14.2978ZM11.1158 17L10.6357 17.5762C10.9138 17.8079 11.3178 17.8079 11.5959 17.5762L11.1158 17ZM7.45219 13L8.06182 12.5631L7.45219 13ZM1.9269 14.0344L0.426904 18.0344L1.8314 18.5611L3.3314 14.5611L1.9269 14.0344ZM3.00181 21.75H19.2298V20.25H3.00181V21.75ZM21.8047 18.0344L20.3047 14.0344L18.9002 14.5611L20.4002 18.5611L21.8047 18.0344ZM20.3047 14.0344C19.9022 12.9611 18.8761 12.25 17.7298 12.25V13.75C18.2509 13.75 18.7173 14.0732 18.9002 14.5611L20.3047 14.0344ZM19.2298 21.75C21.1499 21.75 22.4789 19.8322 21.8047 18.0344L20.4002 18.5611C20.7067 19.3783 20.1026 20.25 19.2298 20.25V21.75ZM0.426904 18.0344C-0.247276 19.8322 1.08174 21.75 3.00181 21.75V20.25C2.12905 20.25 1.52495 19.3783 1.8314 18.5611L0.426904 18.0344ZM4.50181 12.25C3.35549 12.25 2.32941 12.9611 1.9269 14.0344L3.3314 14.5611C3.51435 14.0732 3.98075 13.75 4.50181 13.75V12.25ZM5.86581 7C5.86581 4.10051 8.21631 1.75 11.1158 1.75V0.25C7.38789 0.25 4.36581 3.27208 4.36581 7H5.86581ZM11.1158 1.75C14.0153 1.75 16.3658 4.1005 16.3658 7H17.8658C17.8658 3.27208 14.8437 0.25 11.1158 0.25V1.75ZM12.3658 7C12.3658 7.69036 11.8062 8.25 11.1158 8.25V9.75C12.6346 9.75 13.8658 8.51878 13.8658 7H12.3658ZM11.1158 8.25C10.4255 8.25 9.86581 7.69036 9.86581 7H8.36581C8.36581 8.51878 9.59703 9.75 11.1158 9.75V8.25ZM9.86581 7C9.86581 6.30964 10.4255 5.75 11.1158 5.75V4.25C9.59703 4.25 8.36581 5.48122 8.36581 7H9.86581ZM11.1158 5.75C11.8062 5.75 12.3658 6.30964 12.3658 7H13.8658C13.8658 5.48122 12.6346 4.25 11.1158 4.25V5.75ZM11.1158 17C11.5959 16.4238 11.596 16.4239 11.5961 16.4239C11.5961 16.424 11.5962 16.424 11.5962 16.424C11.5962 16.4241 11.5962 16.4241 11.5962 16.4241C11.5962 16.424 11.5961 16.4239 11.5958 16.4237C11.5953 16.4233 11.5943 16.4224 11.5928 16.4212C11.5899 16.4187 11.5851 16.4147 11.5785 16.4091C11.5654 16.398 11.5452 16.3807 11.5183 16.3575C11.4647 16.311 11.3848 16.2409 11.283 16.149C11.0794 15.9651 10.7888 15.6944 10.4464 15.3516C9.75997 14.6643 8.87346 13.6957 8.06182 12.5631L6.84257 13.4369C7.71575 14.6553 8.66104 15.6867 9.38517 16.4116C9.74808 16.775 10.0575 17.0635 10.2776 17.2622C10.3877 17.3616 10.4755 17.4387 10.5367 17.4916C10.5672 17.5181 10.5911 17.5385 10.6078 17.5527C10.6162 17.5598 10.6227 17.5653 10.6274 17.5692C10.6297 17.5712 10.6316 17.5727 10.633 17.5739C10.6336 17.5745 10.6342 17.575 10.6347 17.5753C10.6349 17.5755 10.6351 17.5757 10.6353 17.5758C10.6353 17.5759 10.6354 17.576 10.6355 17.576C10.6356 17.5761 10.6357 17.5762 11.1158 17ZM8.06182 12.5631C6.84319 10.8626 5.86581 8.8924 5.86581 7H4.36581C4.36581 9.36478 5.56326 11.6517 6.84257 13.4369L8.06182 12.5631ZM7.45219 12.25H4.50181V13.75H7.45219V12.25ZM16.3658 7C16.3658 8.8924 15.3884 10.8626 14.1698 12.5631L15.389 13.4369C16.6684 11.6517 17.8658 9.36478 17.8658 7H16.3658ZM14.1698 12.5631C13.3582 13.6957 12.4716 14.6643 11.7852 15.3516C11.4428 15.6944 11.1522 15.9651 10.9486 16.149C10.8469 16.2409 10.7669 16.311 10.7133 16.3575C10.6865 16.3807 10.6662 16.398 10.6531 16.4091C10.6465 16.4147 10.6418 16.4187 10.6388 16.4212C10.6374 16.4224 10.6364 16.4233 10.6358 16.4237C10.6356 16.4239 10.6354 16.424 10.6354 16.4241C10.6354 16.4241 10.6354 16.4241 10.6354 16.424C10.6355 16.424 10.6355 16.424 10.6355 16.4239C10.6356 16.4239 10.6357 16.4238 11.1158 17C11.5959 17.5762 11.596 17.5761 11.5961 17.576C11.5962 17.576 11.5963 17.5759 11.5964 17.5758C11.5965 17.5757 11.5967 17.5755 11.5969 17.5753C11.5974 17.575 11.598 17.5745 11.5987 17.5739C11.6001 17.5727 11.6019 17.5712 11.6042 17.5692C11.6089 17.5653 11.6155 17.5598 11.6238 17.5527C11.6405 17.5385 11.6644 17.5181 11.695 17.4916C11.7561 17.4387 11.8439 17.3616 11.954 17.2622C12.1741 17.0635 12.4835 16.775 12.8464 16.4116C13.5706 15.6867 14.5159 14.6553 15.389 13.4369L14.1698 12.5631ZM17.7298 12.25H14.7794V13.75H17.7298V12.25Z" fill="#293644"/>
</svg>
