<svg width="24" height="20" viewBox="0 0 24 20" fill="none" xmlns="http://www.w3.org/2000/svg">
<path d="M3.44333 7.75L4.17826 7.07186C3.98895 6.86669 3.72249 6.75 3.44333 6.75C3.16416 6.75 2.89771 6.86669 2.7084 7.07186L3.44333 7.75ZM20.0524 12.25L19.3175 12.9281C19.5068 13.1333 19.7733 13.25 20.0524 13.25C20.3316 13.25 20.5981 13.1333 20.7874 12.9281L20.0524 12.25ZM22.8635 10.6781C23.238 10.2723 23.2126 9.6396 22.8067 9.26507C22.4008 8.89054 21.7682 8.91597 21.3936 9.32186L22.8635 10.6781ZM18.7112 9.32186C18.3367 8.91597 17.7041 8.89054 17.2982 9.26507C16.8923 9.6396 16.8668 10.2723 17.2414 10.6781L18.7112 9.32186ZM4.78454 10.6781C5.15906 11.084 5.79172 11.1095 6.19761 10.7349C6.6035 10.3604 6.62892 9.72775 6.2544 9.32186L4.78454 10.6781ZM0.632256 9.32186C0.257729 9.72775 0.283154 10.3604 0.689046 10.7349C1.09494 11.1095 1.72759 11.084 2.10212 10.6781L0.632256 9.32186ZM4.78688 3.36322C4.4352 3.78906 4.49531 4.41936 4.92115 4.77105C5.34698 5.12273 5.97729 5.06262 6.32897 4.63678L4.78688 3.36322ZM18.7089 16.6368C19.0606 16.2109 19.0005 15.5806 18.5746 15.229C18.1488 14.8773 17.5185 14.9374 17.1668 15.3632L18.7089 16.6368ZM11.7479 18C7.78789 18 4.44333 14.4955 4.44333 10H2.44333C2.44333 15.4456 6.53492 20 11.7479 20V18ZM11.7479 2C15.7079 2 19.0524 5.50448 19.0524 10H21.0524C21.0524 4.55439 16.9608 0 11.7479 0V2ZM4.44333 10V7.75H2.44333V10H4.44333ZM19.0524 10V12.25H21.0524V10H19.0524ZM20.7874 12.9281L22.8635 10.6781L21.3936 9.32186L19.3175 11.5719L20.7874 12.9281ZM20.7874 11.5719L18.7112 9.32186L17.2414 10.6781L19.3175 12.9281L20.7874 11.5719ZM2.7084 8.42814L4.78454 10.6781L6.2544 9.32186L4.17826 7.07186L2.7084 8.42814ZM2.7084 7.07186L0.632256 9.32186L2.10212 10.6781L4.17826 8.42814L2.7084 7.07186ZM6.32897 4.63678C7.67828 3.00296 9.6148 2 11.7479 2V0C8.96191 0 6.47881 1.31454 4.78688 3.36322L6.32897 4.63678ZM17.1668 15.3632C15.8175 16.997 13.881 18 11.7479 18V20C14.5339 20 17.017 18.6855 18.7089 16.6368L17.1668 15.3632Z" fill="#474A4E"/>
</svg>
