<svg width="18" height="16" viewBox="0 0 18 16" fill="none" xmlns="http://www.w3.org/2000/svg">
<path d="M7.40771 2.75C7.82193 2.75 8.15771 2.41421 8.15771 2C8.15771 1.58579 7.82193 1.25 7.40771 1.25V2.75ZM6.40771 14.75C6.82193 14.75 7.15771 14.4142 7.15771 14C7.15771 13.5858 6.82193 13.25 6.40771 13.25V14.75ZM12.4077 1H13.1577C13.1577 0.6695 12.9414 0.377955 12.6251 0.282181C12.3087 0.186407 11.967 0.308982 11.7837 0.583975L12.4077 1ZM6.40771 10L5.78368 9.58397C5.63025 9.81412 5.61594 10.11 5.74646 10.3539C5.87697 10.5978 6.13112 10.75 6.40771 10.75V10ZM10.4077 10H11.1577V9.25H10.4077V10ZM10.4077 15H9.65771C9.65771 15.3305 9.87406 15.622 10.1904 15.7178C10.5067 15.8136 10.8484 15.691 11.0318 15.416L10.4077 15ZM16.4077 6L17.0318 6.41603C17.1852 6.18588 17.1995 5.88997 17.069 5.64611C16.9385 5.40224 16.6843 5.25 16.4077 5.25V6ZM12.4077 6H11.6577V6.75H12.4077V6ZM2.15771 12V4H0.657715V12H2.15771ZM3.40771 2.75H7.40771V1.25H3.40771V2.75ZM6.40771 13.25H3.40771V14.75H6.40771V13.25ZM11.7837 0.583975L5.78368 9.58397L7.03175 10.416L13.0318 1.41603L11.7837 0.583975ZM6.40771 10.75H10.4077V9.25H6.40771V10.75ZM9.65771 10V15H11.1577V10H9.65771ZM11.0318 15.416L17.0318 6.41603L15.7837 5.58397L9.78368 14.584L11.0318 15.416ZM16.4077 5.25H12.4077V6.75H16.4077V5.25ZM13.1577 6V1H11.6577V6H13.1577ZM0.657715 12C0.657715 13.5188 1.88893 14.75 3.40771 14.75V13.25C2.71736 13.25 2.15771 12.6904 2.15771 12H0.657715ZM2.15771 4C2.15771 3.30964 2.71736 2.75 3.40771 2.75V1.25C1.88893 1.25 0.657715 2.48122 0.657715 4H2.15771Z" fill="#293644"/>
</svg>
