<svg width="31" height="21" viewBox="0 0 31 21" fill="none" xmlns="http://www.w3.org/2000/svg">
<path d="M4.86274 5.53762L6.19528 6.87016L2.78759 10.2778L6.33296 13.8231L4.85699 15.2575L0 10.4004L4.86274 5.53762ZM13.3039 15.3397L14.567 16.6026L10.4008 20.8012L5.7456 16.1461L7.20077 14.6909L10.5767 18.0669L13.3039 15.3397ZM15.5694 13.0742L16.8738 14.3786L20.896 10.44L10.4004 0L5.71411 4.68624L7.04666 6.01879L10.4976 2.56773L18.2868 10.3569L15.5694 13.0742Z" fill="#026BA2"/>
<path d="M25.249 15.2636L23.9165 13.9311L27.3241 10.5235L23.7788 6.97815L25.2547 5.54383L30.1118 10.4008L25.249 15.2636ZM16.8078 5.46159L15.5448 4.19861L19.711 0L24.3661 4.65523L22.911 6.11034L19.5351 2.73439L16.8078 5.46159ZM14.5423 7.72709L13.2379 6.42273L9.21582 10.3612L19.7114 20.8013L24.3976 16.115L23.0651 14.7825L19.6141 18.2335L11.825 10.4444L14.5423 7.72709Z" fill="#2C9A43"/>
</svg>
