<svg width="15" height="21" viewBox="0 0 15 21" fill="none" xmlns="http://www.w3.org/2000/svg">
<path fill-rule="evenodd" clip-rule="evenodd" d="M9.31222 0.0407413C9.70157 0.164972 9.96868 0.550331 9.96868 0.987808V6.7945H13.9655C14.3016 6.7945 14.6108 6.99266 14.7712 7.31089C14.9316 7.62912 14.9175 8.01639 14.7344 8.32011L7.36401 20.5501C7.14288 20.917 6.72407 21.0835 6.33472 20.9593C5.94538 20.835 5.67827 20.4497 5.67827 20.0122V14.2055H1.68145C1.34534 14.2055 1.03617 14.0073 0.875771 13.6891C0.715376 13.3709 0.729474 12.9836 0.91251 12.6799L8.28294 0.449929C8.50406 0.0830083 8.92288 -0.0834893 9.31222 0.0407413ZM3.36981 12.23H7.51187V16.6771L12.2771 8.76996H8.13507V4.32289L3.36981 12.23Z" fill="black"/>
</svg>
