<svg width="24" height="24" viewBox="0 0 24 24" fill="none" xmlns="http://www.w3.org/2000/svg">
<path d="M18.8623 17H8.45313C7.90171 17 7.42401 16.5859 7.30311 16.0016L5.00012 5H20.8203C21.5751 5 22.1384 5.76405 21.9703 6.56661L20.0123 15.9984C19.8914 16.5827 19.4137 17 18.8623 17Z" stroke="#919EAB" stroke-width="1.5" stroke-miterlimit="10" stroke-linecap="round" stroke-linejoin="round"/>
<path d="M2.4411 2H4.37773L6.4411 12" stroke="#919EAB" stroke-width="1.5" stroke-miterlimit="10" stroke-linecap="round" stroke-linejoin="round"/>
<path d="M9.29006 21.174C10.0364 21.174 10.6413 20.6166 10.6413 19.9291C10.6413 19.2415 10.0364 18.6841 9.29006 18.6841C8.54377 18.6841 7.93878 19.2415 7.93878 19.9291C7.93878 20.6166 8.54377 21.174 9.29006 21.174Z" fill="#919EAB"/>
<path d="M18.6327 21.174C19.379 21.174 19.984 20.6166 19.984 19.9291C19.984 19.2415 19.379 18.6841 18.6327 18.6841C17.8864 18.6841 17.2814 19.2415 17.2814 19.9291C17.2814 20.6166 17.8864 21.174 18.6327 21.174Z" fill="#919EAB"/>
</svg>
