<svg width="295" height="46" viewBox="0 0 295 46" fill="none" xmlns="http://www.w3.org/2000/svg">
<path d="M36.1224 16.8969C37.8277 9.9481 37.9524 0.362043 27.9621 0.0243686C14.9688 -0.416562 5.52465 5.2374 1.73701 7.97787C1.4736 8.16763 1.70374 8.58066 2.0032 8.45229C6.28716 6.61042 16.5021 2.89879 26.5535 4.34716C32.1157 5.1481 29.1267 16.8942 29.1267 16.8969C26.462 25.8886 21.7649 31.6374 18.1547 33.8951C18.0688 33.9481 17.9634 33.9509 17.8747 33.8979C14.8218 32.0505 11.1312 28.2467 8.60799 22.1128C15.576 21.0328 19.8766 17.7676 21.5098 16.2942C21.7205 16.1044 21.5375 15.7528 21.263 15.8253C19.469 16.2858 15.5566 17.1983 12.0185 17.4383C9.66997 17.5946 7.26041 17.5416 5.21409 17.4188L0.303478 16.9332C0.112155 16.9137 -0.0403482 17.0979 0.00956205 17.2821C4.16043 32.9407 16.455 41.0616 17.8802 41.9602C17.9634 42.0133 18.066 42.0133 18.1519 41.9602C19.5882 41.0588 32.0769 32.8067 36.1224 16.8969Z" fill="#05C832"/>
<path d="M70.8317 9.98315V9.98596L60.5076 23.9834L50.1863 9.98596H50.1835V9.98315H46.2495V38.7521H50.1835V16.6495L58.839 28.3837H62.179L70.8317 16.6495V38.7521H74.7657V9.98315H70.8317Z" fill="#1F222A"/>
<path d="M164.892 29.5531C164.992 28.953 165.041 28.336 165.041 27.7106C165.041 21.2685 159.629 16.0269 152.977 16.0269C146.321 16.0269 140.912 21.2657 140.912 27.7106C140.912 34.1554 146.324 39.3943 152.977 39.3943C157.938 39.3943 162.212 36.4775 164.061 32.3212H159.408C157.983 34.3685 155.634 35.7063 152.977 35.7063C149.25 35.7063 146.134 33.0813 145.313 29.5531H164.892ZM152.977 19.7148C156.701 19.7148 159.82 22.3427 160.638 25.8708H145.31C146.134 22.3427 149.25 19.7148 152.977 19.7148Z" fill="#1F222A"/>
<path d="M117.576 15.9512C114.778 16.1363 112.526 17.3647 111.269 19.7878V16.6383H107.335V38.7156H111.269V25.0379C112.219 20.8872 114.976 19.3867 117.576 19.6139V15.9512Z" fill="#1F222A"/>
<path d="M98.6985 16.6384V20.5535C96.6597 17.8051 93.4633 16.0298 89.8663 16.0298C83.711 16.0298 78.7217 21.2154 78.7217 27.6125C78.7217 34.0097 83.711 39.1953 89.8663 39.1953C93.4633 39.1953 96.6624 37.4228 98.6985 34.6715V38.7886H102.633V16.6384H98.6985ZM90.8056 35.6251C86.4461 35.6251 82.9099 32.0381 82.9099 27.6097C82.9099 23.1814 86.4433 19.5944 90.8056 19.5944C95.165 19.5944 98.7013 23.1814 98.7013 27.6097C98.7013 32.0381 95.165 35.6251 90.8056 35.6251Z" fill="#1F222A"/>
<path d="M237.243 16.6384V20.5535C235.205 17.8051 232.008 16.0298 228.411 16.0298C222.256 16.0298 217.267 21.2154 217.267 27.6125C217.267 34.0097 222.256 39.1953 228.411 39.1953C232.008 39.1953 235.207 37.4228 237.243 34.6715V38.7886H241.177V16.6384H237.243ZM229.348 35.6251C224.988 35.6251 221.452 32.0381 221.452 27.6097C221.452 23.1814 224.985 19.5944 229.348 19.5944C233.707 19.5944 237.243 23.1814 237.243 27.6097C237.243 32.0381 233.707 35.6251 229.348 35.6251Z" fill="#1F222A"/>
<path d="M185.419 16.6384V20.5535C187.458 17.8051 190.654 16.0298 194.251 16.0298C200.406 16.0298 205.396 21.2154 205.396 27.6125C205.396 34.0097 200.406 39.1953 194.251 39.1953C190.654 39.1953 187.455 37.4228 185.419 34.6716V45.0764H181.485V16.6384H185.419ZM193.315 35.6251C197.674 35.6251 201.21 32.0381 201.21 27.6097C201.21 23.1814 197.677 19.5944 193.315 19.5944C188.955 19.5944 185.419 23.1814 185.419 27.6097C185.419 32.0381 188.955 35.6251 193.315 35.6251Z" fill="#1F222A"/>
<path d="M140.227 38.7127H134.832L127.323 30.5852L124.9 33.2102V38.752H120.963V9.98584H124.9V27.3712L134.713 16.7476H140.106L130.022 27.6656L140.227 38.7127Z" fill="#1F222A"/>
<path d="M178.04 20.2899V16.6048H173.854V11.5342H169.917V16.6048H167.533V20.2928H169.917V33.5807C169.917 36.4385 172.199 38.7522 175.012 38.7522H178.04V35.1147H175.556C174.614 35.1147 173.851 34.3407 173.851 33.3843V20.2899H178.04Z" fill="#1F222A"/>
<path d="M213.36 10.0701H209.426V38.839H213.36V10.0701Z" fill="#1F222A"/>
<path d="M294.851 29.4523C294.95 28.8521 295 28.2351 295 27.6097C295 21.1677 289.588 15.926 282.935 15.926C276.28 15.926 270.871 21.1649 270.871 27.6097C270.871 34.0546 276.283 39.2934 282.935 39.2934C287.897 39.2934 292.171 36.3767 294.019 32.2204H289.367C287.941 34.2677 285.593 35.6055 282.935 35.6055C279.208 35.6055 276.092 32.9804 275.272 29.4523H294.851ZM282.935 19.614C286.659 19.614 289.778 22.2418 290.596 25.77H275.272C276.092 22.2418 279.208 19.614 282.935 19.614Z" fill="#1F222A"/>
<path d="M264.144 30.8966C262.909 33.6731 260.16 35.6055 256.963 35.6055C252.612 35.6055 249.087 32.0241 249.087 27.6097C249.087 23.1926 252.615 19.614 256.963 19.614C260.16 19.614 262.909 21.5463 264.144 24.3228H268.539C267.069 19.4766 262.436 15.926 256.963 15.926C250.311 15.926 244.899 21.1677 244.899 27.6097C244.899 34.0518 250.311 39.2934 256.963 39.2934C262.439 39.2934 267.069 35.7429 268.539 30.8966H264.144Z" fill="#1F222A"/>
</svg>
