<svg width="20" height="20" viewBox="0 0 20 20" fill="none" xmlns="http://www.w3.org/2000/svg">
<path d="M15.8138 6.99517C15.8138 7.13043 15.8138 7.2657 15.8138 7.38164C15.8138 11.3816 12.8668 16 7.49509 16C5.83508 16 4.30563 15.4976 3 14.6473C3.22382 14.6667 3.4663 14.686 3.69012 14.686C5.0517 14.686 6.32003 14.2029 7.32722 13.3913C6.04025 13.372 4.95844 12.4831 4.60406 11.285C4.79058 11.3237 4.95844 11.343 5.16361 11.343C5.42474 11.343 5.68586 11.3043 5.92834 11.2271C4.58541 10.9565 3.57821 9.73913 3.57821 8.27053C3.57821 8.25121 3.57821 8.25121 3.57821 8.23188C3.9699 8.46377 4.41754 8.59903 4.90249 8.61836C4.11911 8.07729 3.59686 7.14976 3.59686 6.08696C3.59686 5.52657 3.74607 5.00483 3.98855 4.56039C5.42474 6.39614 7.58835 7.5942 10.0131 7.72947C9.95713 7.51691 9.93848 7.2657 9.93848 7.03382C9.93848 5.35266 11.2441 4 12.8668 4C13.7062 4 14.4709 4.36715 14.9931 4.94686C15.6646 4.81159 16.2801 4.56039 16.8583 4.21256C16.6345 4.92754 16.1682 5.50725 15.5713 5.89372C16.1682 5.81643 16.7277 5.66184 17.25 5.41063C16.877 6.02899 16.392 6.57005 15.8138 6.99517Z" fill="white"/>
</svg>
