<svg width="18" height="18" viewBox="0 0 18 18" fill="none" xmlns="http://www.w3.org/2000/svg">
<path d="M15 9L17 9M15 9C15 8.46957 14.7893 7.96086 14.4142 7.58579C14.0391 7.21071 13.5304 7 13 7C12.4696 7 11.9609 7.21071 11.5858 7.58579C11.2107 7.96086 11 8.46957 11 9M15 9C15 9.53043 14.7893 10.0391 14.4142 10.4142C14.0391 10.7893 13.5304 11 13 11C12.4696 11 11.9609 10.7893 11.5858 10.4142C11.2107 10.0391 11 9.53043 11 9M11 9L1 9M3 3C3 3.53043 3.21071 4.03914 3.58579 4.41421C3.96086 4.78929 4.46957 5 5 5C5.53043 5 6.03914 4.78929 6.41421 4.41421C6.78929 4.03914 7 3.53043 7 3M3 3C3 2.46957 3.21071 1.96086 3.58579 1.58579C3.96086 1.21071 4.46957 0.999999 5 0.999999C5.53043 0.999999 6.03914 1.21071 6.41421 1.58579C6.78929 1.96086 7 2.46957 7 3M3 3L1 3M7 3L17 3M3 15C3 15.5304 3.21071 16.0391 3.58579 16.4142C3.96086 16.7893 4.46957 17 5 17C5.53043 17 6.03914 16.7893 6.41421 16.4142C6.78929 16.0391 7 15.5304 7 15M3 15C3 14.4696 3.21071 13.9609 3.58579 13.5858C3.96086 13.2107 4.46957 13 5 13C5.53043 13 6.03914 13.2107 6.41421 13.5858C6.78929 13.9609 7 14.4696 7 15M3 15L0.999999 15M7 15L17 15" stroke="#637381" stroke-width="1.5" stroke-linecap="round" stroke-linejoin="round"/>
</svg>
