<svg width="24" height="16" viewBox="0 0 24 16" fill="none" xmlns="http://www.w3.org/2000/svg">
<rect width="24" height="16" rx="2" fill="#E31D1C"/>
<path fill-rule="evenodd" clip-rule="evenodd" d="M8.99402 3.28465L8.4342 3.62261L8.56189 2.96312L8.0957 2.46955L8.72695 2.44286L8.99402 1.82706L9.26109 2.44286H9.89126L9.42614 2.96312L9.56617 3.62261L8.99402 3.28465Z" fill="#FECA00"/>
<path fill-rule="evenodd" clip-rule="evenodd" d="M4.56186 6.0882L2.96535 6.9477L3.3295 5.27046L2 4.01522L3.80022 3.94735L4.56186 2.38123L5.3235 3.94735H7.12066L5.79422 5.27046L6.19355 6.9477L4.56186 6.0882Z" fill="#FECA00"/>
<path fill-rule="evenodd" clip-rule="evenodd" d="M10.1034 5.50139L9.54358 5.83935L9.67127 5.17985L9.20508 4.68629L9.83632 4.6596L10.1034 4.04379L10.3705 4.6596H11.0006L10.5355 5.17985L10.6755 5.83935L10.1034 5.50139Z" fill="#FECA00"/>
<path fill-rule="evenodd" clip-rule="evenodd" d="M9.5487 7.71809L8.98889 8.05605L9.11658 7.39656L8.65039 6.90299L9.28164 6.8763L9.5487 6.2605L9.81577 6.8763H10.4459L9.98083 7.39656L10.1209 8.05605L9.5487 7.71809Z" fill="#FECA00"/>
<path fill-rule="evenodd" clip-rule="evenodd" d="M7.8866 9.38066L7.32678 9.71862L7.45447 9.05912L6.98828 8.56556L7.61953 8.53887L7.8866 7.92307L8.15366 8.53887H8.78384L8.31872 9.05912L8.45875 9.71862L7.8866 9.38066Z" fill="#FECA00"/>
</svg>
