<svg width="18" height="19" viewBox="0 0 18 19" fill="none" xmlns="http://www.w3.org/2000/svg">
<path fill-rule="evenodd" clip-rule="evenodd" d="M6.0038 3.32123C6.93306 2.87457 7.9511 2.64327 8.98214 2.64454C12.7703 2.64491 15.8439 5.71001 15.8439 9.49262V9.73556L16.4773 9.10225C16.6969 8.88258 17.0531 8.88258 17.2727 9.10225C17.4924 9.32192 17.4924 9.67808 17.2727 9.89775L15.7259 11.4446C15.5096 11.6608 15.1603 11.6647 14.9393 11.4534L13.3221 9.90649C13.0976 9.69175 13.0897 9.33568 13.3045 9.11119C13.5192 8.88669 13.8753 8.87878 14.0998 9.09352L14.7189 9.68579V9.49262C14.7189 6.33351 12.1511 3.76954 8.98144 3.76954C8.11961 3.76848 7.26794 3.96182 6.49117 4.33519C5.7144 4.70855 5.03185 5.25231 4.49434 5.92598C4.30058 6.16882 3.94666 6.20861 3.70382 6.01485C3.46099 5.8211 3.4212 5.46717 3.61495 5.22434C4.25799 4.4184 5.07454 3.76789 6.0038 3.32123ZM3.26257 9.29653L3.90025 9.90649C4.12475 10.1212 4.48081 10.1133 4.69555 9.88881C4.91028 9.66432 4.90237 9.30825 4.67788 9.09351L3.06069 7.54664C2.83971 7.33527 2.49035 7.33915 2.27413 7.55538L0.727252 9.10225C0.507583 9.32192 0.507583 9.67808 0.727252 9.89775C0.946922 10.1174 1.30308 10.1174 1.52275 9.89775L2.13757 9.28292V9.50563C2.13757 13.2923 5.21009 16.3555 9.00008 16.3555H9.00089C10.0283 16.354 11.0424 16.1233 11.9694 15.6802C12.8964 15.2371 13.7128 14.5928 14.3592 13.7942C14.5546 13.5527 14.5173 13.1985 14.2758 13.0031C14.0344 12.8076 13.6802 12.8449 13.4847 13.0864C12.9436 13.7549 12.2602 14.2943 11.4842 14.6652C10.7085 15.036 9.85985 15.2291 9.00008 15.2305C5.82912 15.2305 3.26257 12.6687 3.26257 9.50563V9.29653Z" fill="#0D6992"/>
</svg>
