<svg width="24" height="24" viewBox="0 0 24 24" fill="none" xmlns="http://www.w3.org/2000/svg">
<path opacity="0.12" fill-rule="evenodd" clip-rule="evenodd" d="M12 2C7 2 3 5.5 3 10.5C3 18.352 10 22 12 22C14 22 21 18.352 21 10.5C21 5.5 17 2 12 2ZM12 14C12.394 14 12.7841 13.9224 13.1481 13.7716C13.512 13.6209 13.8427 13.3999 14.1213 13.1213C14.3999 12.8427 14.6209 12.512 14.7716 12.1481C14.9224 11.7841 15 11.394 15 11C15 10.606 14.9224 10.2159 14.7716 9.85195C14.6209 9.48797 14.3999 9.15726 14.1213 8.87868C13.8427 8.6001 13.512 8.37913 13.1481 8.22836C12.7841 8.0776 12.394 8 12 8C11.2044 8 10.4413 8.31607 9.87868 8.87868C9.31607 9.44129 9 10.2044 9 11C9 11.7956 9.31607 12.5587 9.87868 13.1213C10.4413 13.6839 11.2044 14 12 14Z" fill="#899499"/>
<path fill-rule="evenodd" clip-rule="evenodd" d="M3.75 10.5C3.75 5.97 7.357 2.75 12 2.75C16.643 2.75 20.25 5.97 20.25 10.5C20.25 14.18 18.616 16.869 16.734 18.65C15.8972 19.446 14.9481 20.1148 13.917 20.635C13.018 21.08 12.329 21.25 12 21.25C11.67 21.25 10.982 21.08 10.083 20.635C9.05188 20.1148 8.10276 19.446 7.266 18.65C5.384 16.869 3.75 14.18 3.75 10.5ZM12 1.25C6.643 1.25 2.25 5.03 2.25 10.5C2.25 14.67 4.116 17.733 6.234 19.739C7.17932 20.6378 8.25182 21.3926 9.417 21.979C10.393 22.463 11.329 22.749 12 22.749C12.67 22.749 13.607 22.463 14.583 21.979C15.7482 21.3926 16.8207 20.6378 17.766 19.739C19.884 17.733 21.75 14.671 21.75 10.5C21.75 5.03 17.357 1.25 12 1.25ZM9.75 11C9.75 10.4033 9.98705 9.83097 10.409 9.40901C10.831 8.98705 11.4033 8.75 12 8.75C12.5967 8.75 13.169 8.98705 13.591 9.40901C14.0129 9.83097 14.25 10.4033 14.25 11C14.25 11.5967 14.0129 12.169 13.591 12.591C13.169 13.0129 12.5967 13.25 12 13.25C11.4033 13.25 10.831 13.0129 10.409 12.591C9.98705 12.169 9.75 11.5967 9.75 11ZM12 7.25C11.5075 7.25 11.0199 7.347 10.5649 7.53545C10.11 7.72391 9.69657 8.00013 9.34835 8.34835C9.00013 8.69657 8.72391 9.10997 8.53545 9.56494C8.347 10.0199 8.25 10.5075 8.25 11C8.25 11.4925 8.347 11.9801 8.53545 12.4351C8.72391 12.89 9.00013 13.3034 9.34835 13.6517C9.69657 13.9999 10.11 14.2761 10.5649 14.4645C11.0199 14.653 11.5075 14.75 12 14.75C12.9946 14.75 13.9484 14.3549 14.6517 13.6517C15.3549 12.9484 15.75 11.9946 15.75 11C15.75 10.0054 15.3549 9.05161 14.6517 8.34835C13.9484 7.64509 12.9946 7.25 12 7.25Z" fill="#899499"/>
</svg>
