<svg width="24" height="24" viewBox="0 0 24 24" fill="none" xmlns="http://www.w3.org/2000/svg">
<path d="M16.0147 2.0001L16.014 2.00009C14.6205 1.98059 13.1578 2.36989 11.9976 3.45939C10.828 2.37247 9.35353 2 8 2C4.50234 2 1 4.89463 1 9C1 12.929 3.51029 16.18 5.95821 18.3702C7.20011 19.4814 8.47367 20.3635 9.5092 20.9717C10.0266 21.2755 10.4953 21.5173 10.8805 21.6868C11.0723 21.7712 11.2551 21.8429 11.4206 21.8953C11.5608 21.9398 11.7764 22 12 22C12.2236 22 12.4392 21.9398 12.5794 21.8953C12.7449 21.8429 12.9277 21.7712 13.1195 21.6868C13.5047 21.5173 13.9734 21.2755 14.4908 20.9717C15.5263 20.3635 16.7999 19.4814 18.0418 18.3702C20.4897 16.18 23 12.929 23 9C23 4.88281 19.4877 2.05104 16.0147 2.0001Z" fill="white"/>
<path d="M16.0147 2.0001L16.014 2.00009C14.6205 1.98059 13.1578 2.36989 11.9976 3.45939C10.828 2.37247 9.35353 2 8 2C4.50234 2 1 4.89463 1 9C1 12.929 3.51029 16.18 5.95821 18.3702C7.20011 19.4814 8.47367 20.3635 9.5092 20.9717C10.0266 21.2755 10.4953 21.5173 10.8805 21.6868C11.0723 21.7712 11.2551 21.8429 11.4206 21.8953C11.5608 21.9398 11.7764 22 12 22C12.2236 22 12.4392 21.9398 12.5794 21.8953C12.7449 21.8429 12.9277 21.7712 13.1195 21.6868C13.5047 21.5173 13.9734 21.2755 14.4908 20.9717C15.5263 20.3635 16.7999 19.4814 18.0418 18.3702C20.4897 16.18 23 12.929 23 9C23 4.88281 19.4877 2.05104 16.0147 2.0001Z" fill="#FF6D6D" fill-opacity="0.5"/>
<path d="M16.0147 2.0001L16.014 2.00009C14.6205 1.98059 13.1578 2.36989 11.9976 3.45939C10.828 2.37247 9.35353 2 8 2C4.50234 2 1 4.89463 1 9C1 12.929 3.51029 16.18 5.95821 18.3702C7.20011 19.4814 8.47367 20.3635 9.5092 20.9717C10.0266 21.2755 10.4953 21.5173 10.8805 21.6868C11.0723 21.7712 11.2551 21.8429 11.4206 21.8953C11.5608 21.9398 11.7764 22 12 22C12.2236 22 12.4392 21.9398 12.5794 21.8953C12.7449 21.8429 12.9277 21.7712 13.1195 21.6868C13.5047 21.5173 13.9734 21.2755 14.4908 20.9717C15.5263 20.3635 16.7999 19.4814 18.0418 18.3702C20.4897 16.18 23 12.929 23 9C23 4.88281 19.4877 2.05104 16.0147 2.0001Z" stroke="white" stroke-width="2"/>
<path fill-rule="evenodd" clip-rule="evenodd" d="M15.99 3.75001C14.679 3.73201 13.45 4.17701 12.624 5.41701C12.5555 5.51973 12.4627 5.60395 12.3539 5.6622C12.245 5.72046 12.1235 5.75093 12 5.75093C11.8765 5.75093 11.755 5.72046 11.6461 5.6622C11.5373 5.60395 11.4445 5.51973 11.376 5.41701C10.554 4.18401 9.303 3.75001 8 3.75001C5.373 3.75001 2.75 5.95501 2.75 9.00001C2.75 12.178 4.805 14.99 7.125 17.065C8.13485 17.968 9.22999 18.7707 10.395 19.462C10.869 19.74 11.276 19.948 11.585 20.084C11.7201 20.1444 11.8587 20.1968 12 20.241L12.05 20.226C12.138 20.199 12.26 20.152 12.415 20.084C12.724 19.948 13.131 19.74 13.605 19.462C14.77 18.7707 15.8652 17.968 16.875 17.065C19.195 14.99 21.25 12.18 21.25 9.00001C21.25 5.96301 18.634 3.78901 15.99 3.75001ZM11.998 3.81001C13.128 2.64501 14.598 2.23001 16.011 2.25001C19.366 2.30001 22.75 5.03901 22.75 9.00001C22.75 12.822 20.305 16.01 17.875 18.184C16.7912 19.1531 15.6156 20.0145 14.365 20.756C13.853 21.056 13.393 21.293 13.019 21.458C12.832 21.54 12.659 21.608 12.504 21.657C12.3416 21.713 12.1717 21.7444 12 21.75C11.8283 21.7444 11.6584 21.713 11.496 21.657C11.321 21.5998 11.149 21.5334 10.981 21.458C10.5198 21.2496 10.0707 21.0153 9.636 20.756C8.38503 20.0146 7.20916 19.1532 6.125 18.184C3.695 16.01 1.25 12.822 1.25 9.00001C1.25 5.04701 4.627 2.25001 8 2.25001C9.375 2.25001 10.86 2.64701 11.998 3.81001Z" fill="#FF6D6D"/>
</svg>
