<svg width="136" height="30" viewBox="0 0 136 30" fill="none" xmlns="http://www.w3.org/2000/svg">
<path d="M6.34062 8.68785L8.07815 10.4175L3.63479 14.8406L8.25768 19.4424L6.33313 21.3043L0 14.9998L6.34062 8.68785ZM17.3472 21.4108L18.9941 23.0502L13.5618 28.5L7.49172 22.4576L9.38915 20.5688L13.7911 24.9508L17.3472 21.4108ZM20.3012 18.4702L22.0021 20.1634L27.2466 15.0511L13.5613 1.5L7.45075 7.58276L9.18828 9.31241L13.6881 4.83292L23.8444 14.9432L20.3012 18.4702Z" fill="#0D6992"/>
<path d="M32.7215 21.3121L31.0011 19.5824L35.4008 15.1594L30.8234 10.5575L32.729 8.6958L39.0001 15.0002L32.7215 21.3121ZM21.8229 8.58913L20.1922 6.94979L25.5713 1.5L31.5817 7.54247L29.703 9.43121L25.3442 5.04924L21.8229 8.58913ZM18.8978 11.5298L17.2137 9.8367L12.0206 14.9489L25.5717 28.5L31.6223 22.4172L29.9019 20.6875L25.4461 25.167L15.3894 15.0569L18.8978 11.5298Z" fill="#289842"/>
<path d="M51.9703 8C53.8903 8 55.4836 8.67333 56.7503 10.02C58.0303 11.3667 58.6703 13.0267 58.6703 15C58.6703 16.96 58.0303 18.62 56.7503 19.98C55.4836 21.3267 53.8903 22 51.9703 22H46.4703V8H51.9703ZM51.9703 19.8C53.2903 19.8 54.3636 19.3467 55.1903 18.44C56.0303 17.5333 56.4503 16.3867 56.4503 15C56.4503 13.6 56.0303 12.4533 55.1903 11.56C54.3636 10.6533 53.2903 10.2 51.9703 10.2H48.7703V19.8H51.9703ZM68.5472 12H70.7072V22H68.5472V20.56C67.7339 21.6933 66.5672 22.26 65.0472 22.26C63.6739 22.26 62.5005 21.7533 61.5272 20.74C60.5539 19.7133 60.0672 18.4667 60.0672 17C60.0672 15.52 60.5539 14.2733 61.5272 13.26C62.5005 12.2467 63.6739 11.74 65.0472 11.74C66.5672 11.74 67.7339 12.3 68.5472 13.42V12ZM63.1272 19.3C63.7272 19.9 64.4805 20.2 65.3872 20.2C66.2939 20.2 67.0472 19.9 67.6472 19.3C68.2472 18.6867 68.5472 17.92 68.5472 17C68.5472 16.08 68.2472 15.32 67.6472 14.72C67.0472 14.1067 66.2939 13.8 65.3872 13.8C64.4805 13.8 63.7272 14.1067 63.1272 14.72C62.5272 15.32 62.2272 16.08 62.2272 17C62.2272 17.92 62.5272 18.6867 63.1272 19.3ZM80.0048 12H82.3648L78.4648 22H75.9648L72.0648 12H74.4248L77.2248 19.6L80.0048 12ZM85.8927 13.68C86.4393 12.44 87.466 11.82 88.9727 11.82V14.16C88.146 14.1067 87.426 14.3067 86.8127 14.76C86.1993 15.2 85.8927 15.9333 85.8927 16.96V22H83.7327V12H85.8927V13.68ZM98.9486 14.74C99.5619 15.06 100.042 15.5 100.389 16.06C100.735 16.62 100.909 17.2667 100.909 18C100.909 19.1467 100.502 20.1 99.6886 20.86C98.8753 21.62 97.8819 22 96.7086 22H90.7086V8H96.2686C97.4153 8 98.3819 8.37333 99.1686 9.12C99.9686 9.85333 100.369 10.7733 100.369 11.88C100.369 13.0933 99.8953 14.0467 98.9486 14.74ZM96.2686 10.16H93.0086V13.84H96.2686C96.7753 13.84 97.2019 13.6667 97.5486 13.32C97.8953 12.96 98.0686 12.52 98.0686 12C98.0686 11.48 97.8953 11.0467 97.5486 10.7C97.2019 10.34 96.7753 10.16 96.2686 10.16ZM96.7086 19.84C97.2419 19.84 97.6886 19.6533 98.0486 19.28C98.4219 18.8933 98.6086 18.4267 98.6086 17.88C98.6086 17.3333 98.4219 16.8733 98.0486 16.5C97.6886 16.1133 97.2419 15.92 96.7086 15.92H93.0086V19.84H96.7086ZM110.793 12H112.953V22H110.793V20.56C109.98 21.6933 108.813 22.26 107.293 22.26C105.92 22.26 104.747 21.7533 103.773 20.74C102.8 19.7133 102.313 18.4667 102.313 17C102.313 15.52 102.8 14.2733 103.773 13.26C104.747 12.2467 105.92 11.74 107.293 11.74C108.813 11.74 109.98 12.3 110.793 13.42V12ZM105.373 19.3C105.973 19.9 106.727 20.2 107.633 20.2C108.54 20.2 109.293 19.9 109.893 19.3C110.493 18.6867 110.793 17.92 110.793 17C110.793 16.08 110.493 15.32 109.893 14.72C109.293 14.1067 108.54 13.8 107.633 13.8C106.727 13.8 105.973 14.1067 105.373 14.72C104.773 15.32 104.473 16.08 104.473 17C104.473 17.92 104.773 18.6867 105.373 19.3ZM120.731 11.74C121.878 11.74 122.804 12.1067 123.511 12.84C124.218 13.5733 124.571 14.58 124.571 15.86V22H122.411V16.08C122.411 15.3333 122.211 14.76 121.811 14.36C121.411 13.96 120.864 13.76 120.171 13.76C119.411 13.76 118.798 14 118.331 14.48C117.864 14.9467 117.631 15.6667 117.631 16.64V22H115.471V12H117.631V13.28C118.284 12.2533 119.318 11.74 120.731 11.74ZM135.737 22H133.157L129.057 17.38V22H126.897V8H129.057V16.42L132.937 12H135.577L131.177 16.9L135.737 22Z" fill="#262A2F"/>
</svg>
