<svg width="24" height="24" viewBox="0 0 24 24" fill="none" xmlns="http://www.w3.org/2000/svg">
<path opacity="0.12" d="M19.8521 2H4.55229C2.8112 2 1.90155 4.07045 3.07923 5.35281L8.47317 11.2262C8.81207 11.5952 9.00011 12.0745 9.00011 12.5755V19.2196C9.00011 20.8257 10.7976 21.7767 12.1254 20.8731L15.3254 18.6953C15.8726 18.3229 16.2001 17.7038 16.2001 17.0419V12.4988C16.2001 12.0463 16.3535 11.6073 16.6353 11.2533L21.417 5.24549C22.4599 3.93517 21.5268 2 19.8521 2Z" fill="#0D6992"/>
<path fill-rule="evenodd" clip-rule="evenodd" d="M2.52684 5.86012C0.907535 4.09687 2.1583 1.25 4.5523 1.25H19.8521C22.1548 1.25 23.4378 3.91086 22.0038 5.71255L17.2221 11.7203C17.046 11.9416 16.9501 12.216 16.9501 12.4988V17.0419C16.9501 17.9521 16.4998 18.8033 15.7473 19.3154L12.5473 21.4931C10.7217 22.7356 8.25013 21.4279 8.25013 19.2196V12.5755C8.25013 12.2638 8.13355 11.9652 7.92079 11.7335L2.52684 5.86012ZM4.5523 2.75C3.46412 2.75 2.89559 4.04403 3.63164 4.84551L9.02559 10.7189C9.49061 11.2253 9.75013 11.8852 9.75013 12.5755V19.2196C9.75013 20.2234 10.8736 20.8178 11.7034 20.2531L14.9034 18.0753C15.2454 17.8425 15.4501 17.4556 15.4501 17.0419V12.4988C15.4501 11.8767 15.6611 11.273 16.0485 10.7862L20.8302 4.77843C21.482 3.95948 20.8988 2.75 19.8521 2.75H4.5523Z" fill="#0D6992"/>
</svg>
