<svg width="25" height="25" viewBox="0 0 25 25" fill="none" xmlns="http://www.w3.org/2000/svg">
<path d="M0 5C0 2.23858 2.23858 0 5 0H20C22.7614 0 25 2.23858 25 5V20C25 22.7614 22.7614 25 20 25H5C2.23858 25 0 22.7614 0 20V5Z" fill="url(#paint0_linear_603_1073)"/>
<path d="M12.5009 3C9.92082 3 9.59703 3.01128 8.58368 3.0574C7.57232 3.10371 6.88198 3.26382 6.27793 3.49875C5.6531 3.7414 5.12307 4.06598 4.59503 4.59422C4.06658 5.12226 3.742 5.65228 3.49856 6.27691C3.26303 6.88115 3.10272 7.57168 3.0572 8.58264C3.01188 9.59597 3 9.91996 3 12.5C3 15.08 3.01148 15.4028 3.0574 16.4162C3.10391 17.4275 3.26402 18.1179 3.49876 18.7219C3.7416 19.3467 4.06619 19.8768 4.59443 20.4048C5.12228 20.9332 5.65231 21.2586 6.27674 21.5013C6.88119 21.7362 7.57172 21.8963 8.58289 21.9426C9.59624 21.9887 9.91983 22 12.4997 22C15.08 22 15.4028 21.9887 16.4161 21.9426C17.4275 21.8963 18.1186 21.7362 18.7231 21.5013C19.3477 21.2586 19.8769 20.9332 20.4048 20.4048C20.9332 19.8768 21.2578 19.3467 21.5012 18.7221C21.7348 18.1179 21.8951 17.4273 21.9426 16.4164C21.9881 15.403 22 15.08 22 12.5C22 9.91996 21.9881 9.59617 21.9426 8.58283C21.8951 7.57148 21.7348 6.88115 21.5012 6.2771C21.2578 5.65228 20.9332 5.12226 20.4048 4.59422C19.8763 4.06578 19.3479 3.7412 18.7225 3.49875C18.1168 3.26382 17.4261 3.10371 16.4147 3.0574C15.4014 3.01128 15.0788 3 12.4979 3H12.5009ZM11.6487 4.71198C11.9016 4.71158 12.1838 4.71198 12.5009 4.71198C15.0374 4.71198 15.3381 4.72108 16.3397 4.7666C17.266 4.80896 17.7687 4.96373 18.1036 5.09376C18.5469 5.26595 18.863 5.47178 19.1953 5.80428C19.5278 6.13678 19.7336 6.45345 19.9062 6.89678C20.0362 7.23126 20.1912 7.73397 20.2334 8.66022C20.2789 9.66168 20.2888 9.96251 20.2888 12.4978C20.2888 15.0331 20.2789 15.334 20.2334 16.3354C20.191 17.2617 20.0362 17.7644 19.9062 18.0989C19.734 18.5422 19.5278 18.8579 19.1953 19.1902C18.8628 19.5227 18.5471 19.7285 18.1036 19.9007C17.7691 20.0313 17.266 20.1857 16.3397 20.2281C15.3383 20.2736 15.0374 20.2835 12.5009 20.2835C9.96417 20.2835 9.66353 20.2736 8.66206 20.2281C7.7358 20.1853 7.23309 20.0305 6.89801 19.9005C6.45467 19.7283 6.138 19.5225 5.8055 19.19C5.47299 18.8575 5.26716 18.5416 5.09457 18.0981C4.96454 17.7636 4.80957 17.2609 4.76741 16.3346C4.72189 15.3332 4.71279 15.0323 4.71279 12.4954C4.71279 9.95855 4.72189 9.6593 4.76741 8.65784C4.80977 7.73159 4.96454 7.22889 5.09457 6.89401C5.26676 6.45068 5.47299 6.13401 5.8055 5.80151C6.138 5.46901 6.45467 5.26318 6.89801 5.09059C7.23289 4.95997 7.7358 4.80559 8.66206 4.76304C9.53844 4.72346 9.87807 4.71158 11.6487 4.7096V4.71198ZM17.572 6.28937C16.9426 6.28937 16.432 6.79941 16.432 7.42898C16.432 8.05835 16.9426 8.56898 17.572 8.56898C18.2013 8.56898 18.712 8.05835 18.712 7.42898C18.712 6.7996 18.2013 6.28898 17.572 6.28898V6.28937ZM12.5009 7.62135C9.80662 7.62135 7.62219 9.80576 7.62219 12.5C7.62219 15.1942 9.80662 17.3777 12.5009 17.3777C15.1952 17.3777 17.3788 15.1942 17.3788 12.5C17.3788 9.80576 15.195 7.62135 12.5007 7.62135H12.5009ZM12.5009 9.33333C14.2497 9.33333 15.6676 10.751 15.6676 12.5C15.6676 14.2488 14.2497 15.6667 12.5009 15.6667C10.7519 15.6667 9.33419 14.2488 9.33419 12.5C9.33419 10.751 10.7519 9.33333 12.5009 9.33333Z" fill="white"/>
<path d="M12.5009 3C9.92082 3 9.59703 3.01128 8.58368 3.0574C7.57232 3.10371 6.88198 3.26382 6.27793 3.49875C5.6531 3.7414 5.12307 4.06598 4.59503 4.59422C4.06658 5.12226 3.742 5.65228 3.49856 6.27691C3.26303 6.88115 3.10272 7.57168 3.0572 8.58264C3.01188 9.59597 3 9.91996 3 12.5C3 15.08 3.01148 15.4028 3.0574 16.4162C3.10391 17.4275 3.26402 18.1179 3.49876 18.7219C3.7416 19.3467 4.06619 19.8768 4.59443 20.4048C5.12228 20.9332 5.65231 21.2586 6.27674 21.5013C6.88119 21.7362 7.57172 21.8963 8.58289 21.9426C9.59624 21.9887 9.91983 22 12.4997 22C15.08 22 15.4028 21.9887 16.4161 21.9426C17.4275 21.8963 18.1186 21.7362 18.7231 21.5013C19.3477 21.2586 19.8769 20.9332 20.4048 20.4048C20.9332 19.8768 21.2578 19.3467 21.5012 18.7221C21.7348 18.1179 21.8951 17.4273 21.9426 16.4164C21.9881 15.403 22 15.08 22 12.5C22 9.91996 21.9881 9.59617 21.9426 8.58283C21.8951 7.57148 21.7348 6.88115 21.5012 6.2771C21.2578 5.65228 20.9332 5.12226 20.4048 4.59422C19.8763 4.06578 19.3479 3.7412 18.7225 3.49875C18.1168 3.26382 17.4261 3.10371 16.4147 3.0574C15.4014 3.01128 15.0788 3 12.4979 3H12.5009ZM11.6487 4.71198C11.9016 4.71158 12.1838 4.71198 12.5009 4.71198C15.0374 4.71198 15.3381 4.72108 16.3397 4.7666C17.266 4.80896 17.7687 4.96373 18.1036 5.09376C18.5469 5.26595 18.863 5.47178 19.1953 5.80428C19.5278 6.13678 19.7336 6.45345 19.9062 6.89678C20.0362 7.23126 20.1912 7.73397 20.2334 8.66022C20.2789 9.66168 20.2888 9.96251 20.2888 12.4978C20.2888 15.0331 20.2789 15.334 20.2334 16.3354C20.191 17.2617 20.0362 17.7644 19.9062 18.0989C19.734 18.5422 19.5278 18.8579 19.1953 19.1902C18.8628 19.5227 18.5471 19.7285 18.1036 19.9007C17.7691 20.0313 17.266 20.1857 16.3397 20.2281C15.3383 20.2736 15.0374 20.2835 12.5009 20.2835C9.96417 20.2835 9.66353 20.2736 8.66206 20.2281C7.7358 20.1853 7.23309 20.0305 6.89801 19.9005C6.45467 19.7283 6.138 19.5225 5.8055 19.19C5.47299 18.8575 5.26716 18.5416 5.09457 18.0981C4.96454 17.7636 4.80957 17.2609 4.76741 16.3346C4.72189 15.3332 4.71279 15.0323 4.71279 12.4954C4.71279 9.95855 4.72189 9.6593 4.76741 8.65784C4.80977 7.73159 4.96454 7.22889 5.09457 6.89401C5.26676 6.45068 5.47299 6.13401 5.8055 5.80151C6.138 5.46901 6.45467 5.26318 6.89801 5.09059C7.23289 4.95997 7.7358 4.80559 8.66206 4.76304C9.53844 4.72346 9.87807 4.71158 11.6487 4.7096V4.71198ZM17.572 6.28937C16.9426 6.28937 16.432 6.79941 16.432 7.42898C16.432 8.05835 16.9426 8.56898 17.572 8.56898C18.2013 8.56898 18.712 8.05835 18.712 7.42898C18.712 6.7996 18.2013 6.28898 17.572 6.28898V6.28937ZM12.5009 7.62135C9.80662 7.62135 7.62219 9.80576 7.62219 12.5C7.62219 15.1942 9.80662 17.3777 12.5009 17.3777C15.1952 17.3777 17.3788 15.1942 17.3788 12.5C17.3788 9.80576 15.195 7.62135 12.5007 7.62135H12.5009ZM12.5009 9.33333C14.2497 9.33333 15.6676 10.751 15.6676 12.5C15.6676 14.2488 14.2497 15.6667 12.5009 15.6667C10.7519 15.6667 9.33419 14.2488 9.33419 12.5C9.33419 10.751 10.7519 9.33333 12.5009 9.33333Z" fill="white"/>
<defs>
<linearGradient id="paint0_linear_603_1073" x1="12.5" y1="0" x2="12.5" y2="25" gradientUnits="userSpaceOnUse">
<stop stop-color="#E400FF"/>
<stop offset="1" stop-color="#FEC000"/>
</linearGradient>
</defs>
</svg>
