<svg width="25" height="25" viewBox="0 0 25 25" fill="none" xmlns="http://www.w3.org/2000/svg">
<path d="M24.7863 5.06866C24.6097 4.86218 24.3473 4.7537 24.0706 4.7537H5.31879V2.88518C5.31879 2.38774 4.92008 2 4.40675 2H1.92945C1.41617 2.00001 1 2.4091 1 2.90655C1 3.40401 1.41617 3.8131 1.92945 3.8131H3.46185V21.552C3.46185 21.5585 3.47046 21.5648 3.47056 21.5713C3.46929 21.6089 3.47149 21.6464 3.47149 21.6843C3.47149 23.5127 5.00845 25 6.89524 25C8.45987 25 9.78351 23.9888 10.1896 22.5846H14.9993C15.4053 23.9888 16.7271 25 18.2917 25C20.1785 25 21.7135 23.5126 21.7135 21.6842C21.7135 19.8559 20.1785 18.3692 18.2917 18.3692C16.7271 18.3692 15.4054 19.4356 14.9993 20.7852H10.1896C9.78353 19.4356 8.45309 18.3692 6.88852 18.3692C6.32639 18.3692 5.82522 18.5014 5.31879 18.7351V16.9422C5.45946 16.9673 5.61365 17.0091 5.75769 17.0091H20.666C21.86 17.0091 22.8744 16.19 23.1903 14.9918C23.1952 14.9734 23.1994 14.9479 23.203 14.9292L24.9838 5.80874C25.0353 5.5452 24.9628 5.27519 24.7863 5.06866ZM18.2917 20.1698C19.1535 20.1698 19.8546 20.8492 19.8546 21.6843C19.8546 22.5194 19.1535 23.1988 18.2917 23.1988C17.43 23.1988 16.7289 22.5194 16.7289 21.6843C16.7289 20.8492 17.43 20.1698 18.2917 20.1698ZM6.89718 20.1698C7.75894 20.1698 8.46004 20.8492 8.46004 21.6843C8.46004 22.5194 7.75894 23.1988 6.89718 23.1988C6.0354 23.1988 5.33425 22.5194 5.33425 21.6843C5.33426 20.8492 6.0354 20.1698 6.89718 20.1698ZM21.3828 14.5734C21.3327 14.7469 21.1549 15.196 20.666 15.196H5.75769C5.52132 15.196 5.31879 14.993 5.31879 14.7548V6.55317H22.9488L21.3828 14.5734Z" fill="#353535"/>
</svg>
