<svg width="25" height="25" viewBox="0 0 25 25" fill="none" xmlns="http://www.w3.org/2000/svg">
<g clip-path="url(#clip0_3001_2542)">
<rect x="2.59062" y="12.9532" width="9.499" height="9.499" rx="1.07943" fill="#278B55"/>
<path d="M7.12425 5.30605L11.3426 0.798286C11.6102 0.51235 12.0896 0.701699 12.0896 1.09331V11.2261C12.0896 11.8222 11.6064 12.3055 11.0102 12.3055H2.63889C1.67261 12.3055 1.19312 11.1333 1.88239 10.4561L7.12425 5.30605Z" fill="#CA393C"/>
<path d="M17.7027 5.30605L13.4843 0.798286C13.2167 0.51235 12.7373 0.701699 12.7373 1.09331V11.2261C12.7373 11.8222 13.2205 12.3055 13.8167 12.3055H22.188C23.1543 12.3055 23.6338 11.1333 22.9445 10.4561L17.7027 5.30605Z" fill="#1659B9"/>
<rect x="12.7373" y="12.9532" width="9.499" height="9.499" rx="1.07943" fill="#FF8C00"/>
</g>
<defs>
<clipPath id="clip0_3001_2542">
<rect width="25" height="25" fill="white"/>
</clipPath>
</defs>
</svg>
