<svg width="24" height="24" viewBox="0 0 24 24" fill="none" xmlns="http://www.w3.org/2000/svg">
<path d="M18 12L20 12M18 12C18 11.4696 17.7893 10.9609 17.4142 10.5858C17.0391 10.2107 16.5304 10 16 10C15.4696 10 14.9609 10.2107 14.5858 10.5858C14.2107 10.9609 14 11.4696 14 12M18 12C18 12.5304 17.7893 13.0391 17.4142 13.4142C17.0391 13.7893 16.5304 14 16 14C15.4696 14 14.9609 13.7893 14.5858 13.4142C14.2107 13.0391 14 12.5304 14 12M14 12L4 12M6 6C6 6.53043 6.21071 7.03914 6.58579 7.41421C6.96086 7.78929 7.46957 8 8 8C8.53043 8 9.03914 7.78929 9.41421 7.41421C9.78929 7.03914 10 6.53043 10 6M6 6C6 5.46957 6.21071 4.96086 6.58579 4.58579C6.96086 4.21071 7.46957 4 8 4C8.53043 4 9.03914 4.21071 9.41421 4.58579C9.78929 4.96086 10 5.46957 10 6M6 6L4 6M10 6L20 6M6 18C6 18.5304 6.21071 19.0391 6.58579 19.4142C6.96086 19.7893 7.46957 20 8 20C8.53043 20 9.03914 19.7893 9.41421 19.4142C9.78929 19.0391 10 18.5304 10 18M6 18C6 17.4696 6.21071 16.9609 6.58579 16.5858C6.96086 16.2107 7.46957 16 8 16C8.53043 16 9.03914 16.2107 9.41421 16.5858C9.78929 16.9609 10 17.4696 10 18M6 18L4 18M10 18L20 18" stroke="#637381" stroke-width="1.5" stroke-linecap="round" stroke-linejoin="round"/>
</svg>
