<svg width="13" height="14" viewBox="0 0 13 14" fill="none" xmlns="http://www.w3.org/2000/svg">
<path d="M6.56916 5.78123V13M6.56916 5.78123L1.22086 3.44034M6.56916 5.78123L11.9175 3.44034M6.56916 13C6.42871 13 6.28827 12.9709 6.15549 12.9128L1.70017 10.9628C1.27729 10.7777 1 10.3295 1 9.83118V4.16882C1 3.90033 1.08048 3.64641 1.22086 3.44034M6.56916 13C6.7096 13 6.85005 12.9709 6.98283 12.9128L11.4382 10.9628C11.861 10.7777 12.1383 10.3295 12.1383 9.83118V4.16882C12.1383 3.90033 12.0578 3.64641 11.9175 3.44034M1.22086 3.44034C1.34104 3.26392 1.50511 3.12259 1.70017 3.03721L6.15549 1.08717C6.42104 0.970943 6.71728 0.970943 6.98283 1.08717L11.4382 3.03721C11.6332 3.12259 11.7973 3.26392 11.9175 3.44034" stroke="#758399" stroke-width="1.2" stroke-linecap="round"/>
</svg>
