<svg width="54" height="54" viewBox="0 0 54 54" fill="none" xmlns="http://www.w3.org/2000/svg">
<g clip-path="url(#clip0_4_2181)">
<path d="M26.4031 38.9874L25.3117 36.3717C25.068 35.7876 24.3969 35.5116 23.8127 35.7554L20.1402 37.2877C19.3194 37.6302 19.039 38.6529 19.5703 39.3661L21.4079 41.8327C22.2018 42.8984 23.6191 43.2871 24.8455 42.7753C26.3217 42.1594 27.019 40.4635 26.4031 38.9874Z" fill="#FF9898"/>
<path d="M35.692 21.0711C35.042 19.5134 35.7779 17.7237 37.3356 17.0738L37.6882 16.9267C39.4406 16.1955 41.454 17.0233 42.1852 18.7758C42.9164 20.5282 42.0885 22.5416 40.3361 23.2728L39.9835 23.4199C38.4258 24.0698 36.6361 23.3339 35.9862 21.7762L35.692 21.0711Z" fill="#FF9898"/>
<path d="M14.8147 24.6077C12.1861 25.7045 10.9443 28.7246 12.0411 31.3532C13.1379 33.9819 16.1579 35.2237 18.7866 34.1269L22.7529 32.472C23.191 32.2892 23.398 31.7858 23.2152 31.3477L19.9053 23.4151C19.7225 22.977 19.2192 22.77 18.781 22.9528L14.8147 24.6077Z" fill="#FF9898"/>
<path d="M23.0444 20.9049C22.8606 21.1487 22.8199 21.4717 22.9374 21.7534L26.5295 30.3625C26.647 30.644 26.905 30.8422 27.2073 30.8832L39.0319 32.487C42.3226 32.9333 44.8546 29.638 43.5758 26.5733L37.6255 12.3125C36.3473 9.24902 32.2265 8.72941 30.2279 11.3796L23.0444 20.9049Z" fill="#FF9898"/>
</g>
<defs>
<clipPath id="clip0_4_2181">
<rect width="41.2582" height="41.2582" fill="white" transform="translate(0 15.8874) rotate(-22.6482)"/>
</clipPath>
</defs>
</svg>
