<svg width="78" height="78" viewBox="0 0 78 78" fill="none" xmlns="http://www.w3.org/2000/svg">
<path fill-rule="evenodd" clip-rule="evenodd" d="M17.875 19.5C15.1826 19.5 13 21.6826 13 24.375C13 27.0674 15.1826 29.25 17.875 29.25H34.125C36.8174 29.25 39 27.0674 39 24.375C39 21.6826 36.8174 19.5 34.125 19.5H17.875ZM9.75 43.875C9.75 41.1826 11.9326 39 14.625 39H30.875C33.5674 39 35.75 41.1826 35.75 43.875C35.75 46.5674 33.5674 48.75 30.875 48.75H14.625C11.9326 48.75 9.75 46.5674 9.75 43.875ZM9.75 63.375C9.75 60.6826 11.9326 58.5 14.625 58.5H30.875C33.5674 58.5 35.75 60.6826 35.75 63.375C35.75 66.0674 33.5674 68.25 30.875 68.25H14.625C11.9326 68.25 9.75 66.0674 9.75 63.375Z" fill="#D2D8FF" fill-opacity="0.14"/>
<path d="M19.5 14.625C19.5 11.9326 21.6826 9.75 24.375 9.75H40.625C43.3174 9.75 45.5 11.9326 45.5 14.625C45.5 17.3174 43.3174 19.5 40.625 19.5H24.375C21.6826 19.5 19.5 17.3174 19.5 14.625Z" fill="#262626" fill-opacity="0.6"/>
<path d="M21.125 29.25C18.4326 29.25 16.25 31.4326 16.25 34.125C16.25 36.8174 18.4326 39 21.125 39H37.375C40.0674 39 42.25 36.8174 42.25 34.125C42.25 31.4326 40.0674 29.25 37.375 29.25H21.125Z" fill="#262626" fill-opacity="0.6"/>
<path d="M21.125 48.75C18.4326 48.75 16.25 50.9326 16.25 53.625C16.25 56.3174 18.4326 58.5 21.125 58.5H34.0993C35.1041 58.5 35.8638 57.5961 35.7956 56.5936C35.7654 56.1496 35.75 55.7016 35.75 55.25C35.75 53.775 35.9138 52.3382 36.2241 50.9568C36.47 49.8626 35.6832 48.75 34.5617 48.75H21.125Z" fill="#262626" fill-opacity="0.6"/>
<path d="M68.25 55.25C68.25 62.4297 62.4297 68.25 55.25 68.25C48.0703 68.25 42.25 62.4297 42.25 55.25C42.25 48.0703 48.0703 42.25 55.25 42.25C62.4297 42.25 68.25 48.0703 68.25 55.25Z" fill="#262626" fill-opacity="0.6"/>
</svg>
