<svg width="35" height="35" viewBox="0 0 35 35" fill="none" xmlns="http://www.w3.org/2000/svg">
<path fill-rule="evenodd" clip-rule="evenodd" d="M10.2083 14.5833H7.29167V17.4999V21.8749V23.3333C5.68084 23.3333 4.375 24.6391 4.375 26.2499V27.7083C4.375 29.3191 5.68084 30.6249 7.29167 30.6249H27.7083C29.3192 30.6249 30.625 29.3191 30.625 27.7083V26.2499C30.625 24.6391 29.3192 23.3333 27.7083 23.3333V21.8749V17.4999V14.5833H24.7917V17.4999V21.8749V23.3333H21.875V21.8749V17.4999V14.5833H18.9583V17.4999V21.8749V23.3333H16.0417V21.8749V17.4999V14.5833H13.125V17.4999V21.8749V23.3333H10.2083V21.8749V17.4999V14.5833Z" fill="#12131A" fill-opacity="0.25"/>
<path d="M4.375 10.8257C4.375 9.58316 5.16221 8.47703 6.3362 8.06999L16.5445 4.53057C17.1634 4.31598 17.8366 4.31598 18.4555 4.53057L28.6638 8.06999C29.8378 8.47703 30.625 9.58316 30.625 10.8257V11.6666C30.625 13.2775 29.3192 14.5833 27.7083 14.5833H7.29167C5.68084 14.5833 4.375 13.2775 4.375 11.6666V10.8257Z" fill="#49565E"/>
</svg>
