<svg width="30" height="30" viewBox="0 0 30 30" fill="none" xmlns="http://www.w3.org/2000/svg">
<path fill-rule="evenodd" clip-rule="evenodd" d="M8.75 11.25C8.75 10.5596 9.30964 10 10 10C10.6904 10 11.25 10.5596 11.25 11.25V18.75C11.25 19.4404 10.6904 20 10 20C9.30964 20 8.75 19.4404 8.75 18.75V11.25ZM13.75 11.25C13.75 10.5596 14.3096 10 15 10C15.6904 10 16.25 10.5596 16.25 11.25V16.25C16.25 16.9404 15.6904 17.5 15 17.5C14.3096 17.5 13.75 16.9404 13.75 16.25V11.25ZM20 10C19.3096 10 18.75 10.5596 18.75 11.25V18.75C18.75 19.4404 19.3096 20 20 20C20.6904 20 21.25 19.4404 21.25 18.75V11.25C21.25 10.5596 20.6904 10 20 10Z" fill="#49565E"/>
<path fill-rule="evenodd" clip-rule="evenodd" d="M7.75 5H7.70182H7.70177C7.04286 4.99998 6.47442 4.99996 6.00622 5.03822C5.51204 5.07859 5.02051 5.16774 4.54754 5.40873C3.84193 5.76825 3.26825 6.34193 2.90873 7.04754C2.66774 7.52051 2.57859 8.01204 2.53822 8.50622C2.49996 8.97442 2.49998 9.54286 2.5 10.2018V10.2018V10.25V11.25C2.5 11.9404 3.05965 12.5 3.75 12.5C4.44036 12.5 5 11.9404 5 11.25V10.25C5 9.52931 5.00098 9.06397 5.02991 8.7098C5.05766 8.37022 5.10475 8.24432 5.13625 8.18251C5.25609 7.94731 5.44731 7.75609 5.68251 7.63625C5.74432 7.60475 5.87022 7.55766 6.2098 7.52991C6.56397 7.50098 7.02931 7.5 7.75 7.5H8.75C9.44036 7.5 10 6.94036 10 6.25C10 5.55965 9.44036 5 8.75 5H7.75ZM22.25 25H22.2982C22.9571 25 23.5256 25 23.9938 24.9618C24.488 24.9214 24.9795 24.8323 25.4525 24.5913C26.1581 24.2318 26.7317 23.6581 27.0913 22.9525C27.3323 22.4795 27.4214 21.988 27.4618 21.4938C27.5 21.0256 27.5 20.4572 27.5 19.7983V19.7982V19.7982V19.7982L27.5 19.75V18.75C27.5 18.0596 26.9404 17.5 26.25 17.5C25.5596 17.5 25 18.0596 25 18.75V19.75C25 20.4707 24.999 20.936 24.9701 21.2902C24.9423 21.6298 24.8952 21.7557 24.8638 21.8175C24.7439 22.0527 24.5527 22.2439 24.3175 22.3638C24.2557 22.3953 24.1298 22.4423 23.7902 22.4701C23.436 22.499 22.9707 22.5 22.25 22.5H21.25C20.5596 22.5 20 23.0596 20 23.75C20 24.4404 20.5596 25 21.25 25H22.25ZM2.5 19.7982L2.5 19.75L2.5 18.75C2.5 18.0596 3.05965 17.5 3.75 17.5C4.44036 17.5 5 18.0596 5 18.75V19.75C5 20.4707 5.00098 20.936 5.02991 21.2902C5.05766 21.6298 5.10475 21.7557 5.13625 21.8175C5.25609 22.0527 5.44731 22.2439 5.68251 22.3638C5.74432 22.3953 5.87022 22.4423 6.2098 22.4701C6.56397 22.499 7.02931 22.5 7.75 22.5H8.75C9.44036 22.5 10 23.0596 10 23.75C10 24.4404 9.44036 25 8.75 25H7.75H7.70183C7.04289 25 6.47443 25 6.00622 24.9618C5.51204 24.9214 5.02051 24.8323 4.54754 24.5913C3.84193 24.2318 3.26825 23.6581 2.90873 22.9525C2.66774 22.4795 2.57859 21.988 2.53822 21.4938C2.49996 21.0256 2.49998 20.4571 2.5 19.7982V19.7982ZM27.5 10.25V10.2018C27.5 9.54289 27.5 8.97443 27.4618 8.50622C27.4214 8.01204 27.3323 7.52051 27.0913 7.04754C26.7317 6.34193 26.1581 5.76825 25.4525 5.40873C24.9795 5.16774 24.488 5.07859 23.9938 5.03822C23.5256 4.99996 22.9571 4.99998 22.2982 5H22.2982H22.25H21.25C20.5596 5 20 5.55965 20 6.25C20 6.94036 20.5596 7.5 21.25 7.5H22.25C22.9707 7.5 23.436 7.50098 23.7902 7.52991C24.1298 7.55766 24.2557 7.60475 24.3175 7.63625C24.5527 7.75609 24.7439 7.94731 24.8638 8.18252C24.8952 8.24432 24.9423 8.37022 24.9701 8.7098C24.999 9.06397 25 9.52931 25 10.25V11.25C25 11.9404 25.5596 12.5 26.25 12.5C26.9404 12.5 27.5 11.9404 27.5 11.25V10.25Z" fill="#C2C8D0"/>
</svg>
