<svg width="23" height="27" viewBox="0 0 23 27" fill="none" xmlns="http://www.w3.org/2000/svg">
<path d="M11.9247 3.27273C8.15913 3.27273 5.10652 6.32533 5.10652 10.0909V11.345C5.10652 13.4717 4.36092 15.5311 2.99944 17.1649L2.53111 17.7269C1.29754 19.2071 2.35017 21.4545 4.27707 21.4545H19.5723C21.4992 21.4545 22.5519 19.2071 21.3183 17.7269L20.85 17.1649C19.4885 15.5311 18.7429 13.4717 18.7429 11.345V10.0909C18.7429 6.32533 15.6903 3.27273 11.9247 3.27273ZM11.9247 3.27273V1M8.51562 21.4545V22.5909C8.51562 24.4737 10.0419 26 11.9247 26C13.8075 26 15.3338 24.4737 15.3338 22.5909V21.4545" stroke="#49565E" stroke-width="2" stroke-linecap="round"/>
</svg>
