<svg width="30" height="24" viewBox="0 0 30 24" fill="none" xmlns="http://www.w3.org/2000/svg">
<path fill-rule="evenodd" clip-rule="evenodd" d="M11.8236 0.666575C12.4 0.666039 12.9082 0.665566 13.4019 0.784076C13.8355 0.888187 14.2501 1.05991 14.6304 1.29293C15.0632 1.55817 15.4222 1.91787 15.8294 2.32583L15.8295 2.32585L17.0035 3.49998L23.2713 3.49998C24.0181 3.49995 24.6623 3.49993 25.193 3.54329C25.753 3.58905 26.3101 3.69008 26.8461 3.9632C27.6458 4.37067 28.296 5.02083 28.7034 5.82052C28.9766 6.35656 29.0776 6.91362 29.1234 7.47369C29.1667 8.00433 29.1667 8.64856 29.1667 9.39535V17.438C29.1667 18.1847 29.1667 18.829 29.1234 19.3596C29.0776 19.9197 28.9766 20.4767 28.7034 21.0128C28.296 21.8125 27.6458 22.4626 26.8461 22.8701C26.3101 23.1432 25.753 23.2442 25.193 23.29C24.6624 23.3334 24.018 23.3333 23.2713 23.3333H23.2712H6.72859H6.72856C5.98184 23.3333 5.33765 23.3334 4.80705 23.29C4.24698 23.2442 3.68992 23.1432 3.15388 22.8701C2.35419 22.4626 1.70402 21.8125 1.29656 21.0128C1.02344 20.4767 0.922404 19.9197 0.876644 19.3596C0.833292 18.829 0.833311 18.1847 0.833333 17.438V17.4379V6.56193V6.56189C0.833311 5.81516 0.833292 5.17096 0.876644 4.64036C0.922404 4.08029 1.02344 3.52323 1.29656 2.98719C1.70402 2.1875 2.35419 1.53733 3.15388 1.12987C3.68992 0.856745 4.24698 0.755715 4.80705 0.709955C5.33769 0.6666 5.98194 0.666621 6.72873 0.666647L11.8236 0.666575ZM12.1667 12.7083C12.1667 11.5347 13.1181 10.5833 14.2917 10.5833C15.4653 10.5833 16.4167 11.5347 16.4167 12.7083C16.4167 13.8819 15.4653 14.8333 14.2917 14.8333C13.1181 14.8333 12.1667 13.8819 12.1667 12.7083ZM14.2917 7.74999C11.5533 7.74999 9.33333 9.96991 9.33333 12.7083C9.33333 15.4467 11.5533 17.6667 14.2917 17.6667C15.1456 17.6667 15.9491 17.4508 16.6506 17.0707L18.2483 18.6684C18.8015 19.2216 19.6985 19.2216 20.2517 18.6684C20.805 18.1151 20.805 17.2182 20.2517 16.6649L18.654 15.0672C19.0341 14.3657 19.25 13.5622 19.25 12.7083C19.25 9.96991 17.0301 7.74999 14.2917 7.74999Z" fill="#C2C8D0"/>
</svg>
