<svg width="14" height="14" viewBox="0 0 14 14" fill="none" xmlns="http://www.w3.org/2000/svg">
<path d="M7 5.78123V13M7 5.78123L1.23794 3.44034M7 5.78123L12.7621 3.44034M7 13C6.84869 13 6.69738 12.9709 6.55433 12.9128L1.75433 10.9628C1.29874 10.7777 1 10.3295 1 9.83118V4.16882C1 3.90033 1.08671 3.64641 1.23794 3.44034M7 13C7.15131 13 7.30262 12.9709 7.44567 12.9128L12.2457 10.9628C12.7013 10.7777 13 10.3295 13 9.83118V4.16882C13 3.90033 12.9133 3.64641 12.7621 3.44034M1.23794 3.44034C1.36742 3.26392 1.54419 3.12259 1.75433 3.03721L6.55433 1.08717C6.84042 0.970943 7.15958 0.970943 7.44567 1.08717L12.2457 3.03721C12.4558 3.12259 12.6326 3.26392 12.7621 3.44034" stroke="#758399" stroke-width="1.2" stroke-linecap="round"/>
</svg>
