<svg width="157" height="135" viewBox="0 0 157 135" fill="none" xmlns="http://www.w3.org/2000/svg">
<path d="M54.4089 39.9246V28.8131C54.4089 17.7015 63.2716 8.57422 74.5155 8.57422C85.4947 8.57422 94.622 17.5693 94.622 28.8131V39.9246" stroke="#C7D2DD" stroke-width="1.8941" stroke-miterlimit="10" stroke-linecap="round" stroke-linejoin="round"/>
<path d="M123.195 122.468C123.724 122.203 123.856 121.938 124.385 121.806" stroke="#FF78B7" stroke-width="0.6123" stroke-linecap="round" stroke-linejoin="round"/>
<path d="M14.0634 133.05H156" stroke="#B1B9CC" stroke-width="2" stroke-miterlimit="10" stroke-linecap="round" stroke-linejoin="round"/>
<path d="M1.09998 133.05H6.9203" stroke="#B1B9CC" stroke-width="2" stroke-miterlimit="10" stroke-linecap="round" stroke-linejoin="round"/>
<path d="M133.248 18.8921H20.5452V131.859H133.248V18.8921Z" fill="white"/>
<path d="M133.512 18.8921H51.8956V131.859H133.38V18.8921H133.512Z" fill="#E6ECF5"/>
<path d="M36.1542 18.8921H20.5452V131.859H36.1542V18.8921Z" fill="url(#paint0_linear_5146_6641)"/>
<path d="M51.8956 131.859H20.5452V131.595L36.4188 115.854L51.8956 131.859Z" fill="#E6ECF5"/>
<path d="M71.6053 44.0253C73.8541 44.0253 75.706 42.1734 75.706 39.9247C75.706 37.6759 73.8541 35.824 71.6053 35.824C69.3566 35.824 67.5046 37.6759 67.5046 39.9247C67.5046 42.1734 69.3566 44.0253 71.6053 44.0253Z" fill="#C7D2DD"/>
<path d="M111.818 44.0253C114.067 44.0253 115.919 42.1734 115.919 39.9247C115.919 37.6759 114.067 35.824 111.818 35.824C109.57 35.824 107.718 37.6759 107.718 39.9247C107.85 42.1734 109.57 44.0253 111.818 44.0253Z" fill="#C7D2DD"/>
<path d="M71.6053 39.9246V28.8131C71.6053 17.7015 80.4681 8.57422 91.7119 8.57422C102.691 8.57422 111.818 17.5693 111.818 28.8131V39.9246" stroke="#C7D2DD" stroke-width="1.8941" stroke-miterlimit="10" stroke-linecap="round" stroke-linejoin="round"/>
<path d="M124.642 4.02334C127.498 2.19219 130.867 1.16675 134.457 1.16675C144.272 1.16675 152.255 9.07732 152.255 18.8923C152.255 28.7073 144.272 36.6179 134.457 36.6179C124.642 36.6179 116.658 28.7073 116.658 18.8923C116.511 12.6664 119.734 7.24617 124.642 4.02334Z" fill="url(#paint1_linear_5146_6641)"/>
<path d="M134.454 26.8289C130.879 26.8289 127.84 23.6185 127.84 18.803C127.84 13.9874 130.879 10.9553 134.454 10.9553C138.029 10.9553 141.068 13.9874 141.068 18.803C141.068 23.6185 138.029 26.8289 134.454 26.8289ZM134.454 23.0835C135.705 23.0835 136.957 21.835 136.957 18.803C137.135 15.9493 135.705 14.5224 134.454 14.5224C133.203 14.5224 131.951 15.9493 131.951 18.803C131.951 21.835 133.203 23.0835 134.454 23.0835Z" fill="white"/>
<path d="M78.9811 76.169C74.4372 76.169 70.6202 73.2618 69.1661 69.0826C68.8026 68.1741 69.3479 67.2656 70.2567 66.9022C71.1655 66.5388 72.0743 67.0839 72.4378 67.9924C73.3466 70.7179 76.073 72.7167 78.9811 72.7167C81.8893 72.7167 84.6157 70.8996 85.5244 67.9924C85.888 67.0839 86.7968 66.5388 87.7056 66.9022C88.6143 67.2656 89.1596 68.1741 88.7961 69.0826C87.342 73.4435 83.5251 76.169 78.9811 76.169Z" fill="#ADB6C8"/>
<path d="M106.427 76.169C101.883 76.169 98.0659 73.2618 96.6119 69.0826C96.2483 68.1741 96.7936 67.2656 97.7024 66.9022C98.6112 66.5388 99.52 67.0839 99.8835 67.9924C100.792 70.7179 103.519 72.7167 106.427 72.7167C109.335 72.7167 112.061 70.8996 112.97 67.9924C113.334 67.0839 114.242 66.5388 115.151 66.9022C116.06 67.2656 116.605 68.1741 116.242 69.0826C114.788 73.4435 110.971 76.169 106.427 76.169Z" fill="#ADB6C8"/>
<path d="M92.7949 98.4167C95.1037 98.4167 96.9753 96.5456 96.9753 94.2375C96.9753 91.9294 95.1037 90.0583 92.7949 90.0583C90.4861 90.0583 88.6144 91.9294 88.6144 94.2375C88.6144 96.5456 90.4861 98.4167 92.7949 98.4167Z" fill="#ADB6C8"/>
<path d="M16.6588 6.15059V0H40.4297V6.15059L24.2096 25.7207H40.7094V31.8712H15.8199V25.7207L32.04 6.15059H16.6588Z" fill="url(#paint2_linear_5146_6641)"/>
<path d="M36.2348 52.28V48.366H51.6159V52.28L41.2686 64.8607H51.8956V68.7747H35.6754V64.8607L46.0228 52.28H36.2348Z" fill="url(#paint3_linear_5146_6641)"/>
<defs>
<linearGradient id="paint0_linear_5146_6641" x1="28.3152" y1="21.8986" x2="28.3152" y2="130.234" gradientUnits="userSpaceOnUse">
<stop offset="0.00289017" stop-color="#E6ECF5"/>
<stop offset="1" stop-color="#CED7E2"/>
</linearGradient>
<linearGradient id="paint1_linear_5146_6641" x1="134.457" y1="2.39828" x2="134.457" y2="22.2966" gradientUnits="userSpaceOnUse">
<stop stop-color="#B0BACC"/>
<stop offset="1" stop-color="#969EAE"/>
</linearGradient>
<linearGradient id="paint2_linear_5146_6641" x1="28.2666" y1="1.10717" x2="28.2666" y2="18.9962" gradientUnits="userSpaceOnUse">
<stop stop-color="#B0BACC"/>
<stop offset="1" stop-color="#969EAE"/>
</linearGradient>
<linearGradient id="paint3_linear_5146_6641" x1="43.7868" y1="49.0749" x2="43.7868" y2="60.5302" gradientUnits="userSpaceOnUse">
<stop stop-color="#B0BACC"/>
<stop offset="1" stop-color="#969EAE"/>
</linearGradient>
</defs>
</svg>
