<?xml version="1.0" standalone="no"?>
<!DOCTYPE svg PUBLIC "-//W3C//DTD SVG 1.0//EN" "http://www.w3.org/TR/2001/REC-SVG-20010904/DTD/svg10.dtd">
<svg xmlns="http://www.w3.org/2000/svg" xmlns:xlink="http://www.w3.org/1999/xlink" id="body_1" width="28" height="28">

<g transform="matrix(1 0 0 1 0 0)">
    <path d="M18.1628 3.5C 17.8684 3.49997 17.5816 3.49993 17.3387 3.51978C 17.072 3.54157 16.7574 3.59298 16.4407 3.75432C 16.0016 3.97803 15.6447 4.33498 15.421 4.77403C 15.2596 5.09069 15.2082 5.40538 15.1864 5.67207C 15.1666 5.91492 15.1666 6.20168 15.1667 6.49613L15.1667 6.49613L15.1667 9.83722C 15.1666 10.1317 15.1666 10.4184 15.1864 10.6613C 15.2082 10.928 15.2596 11.2427 15.421 11.5593C 15.6447 11.9984 16.0016 12.3553 16.4407 12.579C 16.7574 12.7404 17.072 12.7918 17.3387 12.8136C 17.5816 12.8334 17.8683 12.8334 18.1628 12.8333L18.1628 12.8333L21.5039 12.8333C 21.7983 12.8334 22.0851 12.8334 22.3279 12.8136C 22.5946 12.7918 22.9093 12.7404 23.226 12.579C 23.665 12.3553 24.022 11.9984 24.2457 11.5593C 24.407 11.2427 24.4584 10.928 24.4802 10.6613C 24.5001 10.4184 24.5 10.1317 24.5 9.83722L24.5 9.83722L24.5 6.49613C 24.5 6.20168 24.5001 5.91492 24.4802 5.67207C 24.4584 5.40538 24.407 5.09069 24.2457 4.77403C 24.022 4.33498 23.665 3.97803 23.226 3.75432C 22.9093 3.59298 22.5946 3.54157 22.3279 3.51978C 22.0851 3.49993 21.7983 3.49997 21.5039 3.5L21.5039 3.5L18.1628 3.5z" stroke="none" fill="#12131A" fill-rule="nonzero" fill-opacity="0.24705882" />
    <path d="M6.49613 15.1667C 6.20168 15.1666 5.91492 15.1666 5.67207 15.1864C 5.40538 15.2082 5.09069 15.2596 4.77403 15.421C 4.33498 15.6447 3.97803 16.0016 3.75432 16.4407C 3.59298 16.7574 3.54157 17.072 3.51978 17.3387C 3.49993 17.5816 3.49997 17.8683 3.5 18.1628L3.5 18.1628L3.5 21.5039C 3.49997 21.7983 3.49993 22.0851 3.51978 22.3279C 3.54157 22.5946 3.59298 22.9093 3.75432 23.226C 3.97803 23.665 4.33498 24.022 4.77403 24.2457C 5.09069 24.407 5.40538 24.4584 5.67207 24.4802C 5.91492 24.5001 6.20168 24.5 6.49613 24.5L6.49613 24.5L9.83722 24.5C 10.1317 24.5 10.4184 24.5001 10.6613 24.4802C 10.928 24.4584 11.2427 24.407 11.5593 24.2457C 11.9984 24.022 12.3553 23.665 12.579 23.226C 12.7404 22.9093 12.7918 22.5946 12.8136 22.3279C 12.8334 22.0851 12.8334 21.7984 12.8333 21.5039L12.8333 21.5039L12.8333 18.1628C 12.8334 17.8684 12.8334 17.5816 12.8136 17.3387C 12.7918 17.072 12.7404 16.7574 12.579 16.4407C 12.3553 16.0016 11.9984 15.6447 11.5593 15.421C 11.2427 15.2596 10.928 15.2082 10.6613 15.1864C 10.4184 15.1666 10.1317 15.1666 9.83722 15.1667L9.83722 15.1667L6.49613 15.1667z" stroke="none" fill="#12131A" fill-rule="nonzero" fill-opacity="0.24705882" />
    <path d="M18.1628 15.1667C 17.8683 15.1666 17.5816 15.1666 17.3387 15.1864C 17.072 15.2082 16.7574 15.2596 16.4407 15.421C 16.0016 15.6447 15.6447 16.0016 15.421 16.4407C 15.2596 16.7574 15.2082 17.072 15.1864 17.3387C 15.1666 17.5816 15.1666 17.8683 15.1667 18.1628L15.1667 18.1628L15.1667 21.5039C 15.1666 21.7983 15.1666 22.0851 15.1864 22.3279C 15.2082 22.5946 15.2596 22.9093 15.421 23.226C 15.6447 23.665 16.0016 24.022 16.4407 24.2457C 16.7574 24.407 17.072 24.4584 17.3387 24.4802C 17.5816 24.5001 17.8683 24.5 18.1628 24.5L18.1628 24.5L21.5039 24.5C 21.7983 24.5 22.0851 24.5001 22.3279 24.4802C 22.5946 24.4584 22.9093 24.407 23.226 24.2457C 23.665 24.022 24.022 23.665 24.2457 23.226C 24.407 22.9093 24.4584 22.5946 24.4802 22.3279C 24.5001 22.0851 24.5 21.7983 24.5 21.5039L24.5 21.5039L24.5 18.1628C 24.5 17.8683 24.5001 17.5816 24.4802 17.3387C 24.4584 17.072 24.407 16.7574 24.2457 16.4407C 24.022 16.0016 23.665 15.6447 23.226 15.421C 22.9093 15.2596 22.5946 15.2082 22.3279 15.1864C 22.0851 15.1666 21.7983 15.1666 21.5039 15.1667L21.5039 15.1667L18.1628 15.1667z" stroke="none" fill="#12131A" fill-rule="nonzero" fill-opacity="0.24705882" />
    <path d="M6.49613 3.5C 6.20168 3.49997 5.91492 3.49993 5.67207 3.51978C 5.40538 3.54157 5.09069 3.59298 4.77403 3.75432C 4.33498 3.97803 3.97803 4.33498 3.75432 4.77403C 3.59298 5.09069 3.54157 5.40538 3.51978 5.67207C 3.49993 5.91492 3.49997 6.20167 3.5 6.49611L3.5 6.49611L3.5 9.83722C 3.49997 10.1317 3.49993 10.4184 3.51978 10.6613C 3.54157 10.928 3.59298 11.2427 3.75432 11.5593C 3.97803 11.9984 4.33498 12.3553 4.77403 12.579C 5.09069 12.7404 5.40538 12.7918 5.67207 12.8136C 5.91491 12.8334 6.20165 12.8334 6.49609 12.8333L6.49609 12.8333L9.83722 12.8333C 10.1317 12.8334 10.4184 12.8334 10.6613 12.8136C 10.928 12.7918 11.2427 12.7404 11.5593 12.579C 11.9984 12.3553 12.3553 11.9984 12.579 11.5593C 12.7404 11.2427 12.7918 10.928 12.8136 10.6613C 12.8334 10.4184 12.8334 10.1317 12.8333 9.83726L12.8333 9.83726L12.8333 6.49613C 12.8334 6.20169 12.8334 5.91491 12.8136 5.67207C 12.7918 5.40538 12.7404 5.09069 12.579 4.77403C 12.3553 4.33498 11.9984 3.97803 11.5593 3.75432C 11.2427 3.59298 10.928 3.54157 10.6613 3.51978C 10.4184 3.49993 10.1317 3.49997 9.83723 3.5L9.83723 3.5L6.49613 3.5z" stroke="none" fill="#49565E" fill-rule="nonzero" />
</g>
</svg>