<svg width="35" height="35" viewBox="0 0 35 35" fill="none" xmlns="http://www.w3.org/2000/svg">
<path d="M8.12016 18.9583C7.75211 18.9582 7.39365 18.9582 7.09009 18.983C6.75672 19.0102 6.36336 19.0745 5.96754 19.2762C5.41873 19.5558 4.97254 20.002 4.69291 20.5508C4.49122 20.9466 4.42696 21.34 4.39972 21.6733C4.37492 21.9769 4.37496 22.3353 4.375 22.7034L4.375 26.8798C4.37496 27.2478 4.37492 27.6063 4.39972 27.9098C4.42696 28.2432 4.49122 28.6366 4.69291 29.0324C4.97254 29.5812 5.41873 30.0274 5.96754 30.307C6.36336 30.5087 6.75672 30.573 7.09009 30.6002C7.39364 30.625 7.75207 30.625 8.12011 30.6249H26.8799C27.2479 30.625 27.6064 30.625 27.9099 30.6002C28.2433 30.573 28.6367 30.5087 29.0325 30.307C29.5813 30.0274 30.0275 29.5812 30.3071 29.0324C30.5088 28.6366 30.5731 28.2432 30.6003 27.9098C30.6251 27.6063 30.6251 27.248 30.625 26.88V22.7034C30.6251 22.3354 30.6251 21.9769 30.6003 21.6733C30.5731 21.34 30.5088 20.9466 30.3071 20.5508C30.0275 20.002 29.5813 19.5558 29.0325 19.2762C28.6367 19.0745 28.2433 19.0102 27.9099 18.983C27.6064 18.9582 27.2479 18.9582 26.8799 18.9583L8.12016 18.9583Z" fill="#12131A" fill-opacity="0.25"/>
<path d="M8.12016 4.375C7.75211 4.37496 7.39365 4.37492 7.09009 4.39972C6.75672 4.42696 6.36336 4.49122 5.96754 4.69291C5.41873 4.97254 4.97254 5.41873 4.69291 5.96754C4.49122 6.36336 4.42696 6.75672 4.39972 7.09009C4.37492 7.39365 4.37496 7.75209 4.375 8.12014L4.375 12.2965C4.37496 12.6646 4.37492 13.023 4.39972 13.3266C4.42696 13.66 4.49122 14.0533 4.69291 14.4491C4.97254 14.998 5.41873 15.4441 5.96754 15.7238C6.36336 15.9255 6.75672 15.9897 7.09009 16.017C7.39364 16.0418 7.75207 16.0417 8.12011 16.0417H26.8799C27.2479 16.0417 27.6064 16.0418 27.9099 16.017C28.2433 15.9897 28.6367 15.9255 29.0325 15.7238C29.5813 15.4441 30.0275 14.998 30.3071 14.4491C30.5088 14.0533 30.5731 13.66 30.6003 13.3266C30.6251 13.0231 30.6251 12.6647 30.625 12.2967V8.12013C30.6251 7.75214 30.6251 7.3936 30.6003 7.09009C30.5731 6.75672 30.5088 6.36336 30.3071 5.96754C30.0275 5.41873 29.5813 4.97254 29.0325 4.69291C28.6367 4.49122 28.2433 4.42696 27.9099 4.39972C27.6064 4.37492 27.2479 4.37496 26.8799 4.375L8.12016 4.375Z" fill="#49565E"/>
</svg>
