<svg width="11" height="14" viewBox="0 0 11 14" fill="none" xmlns="http://www.w3.org/2000/svg">
<path d="M9.84457 5.42228C9.84457 8.86751 6.79072 11.931 5.75851 12.8681C5.56476 13.044 5.2798 13.044 5.08605 12.8681C4.05384 11.931 1 8.86751 1 5.42228C1 2.97992 2.97992 1 5.42228 1C7.86464 1 9.84457 2.97992 9.84457 5.42228Z" stroke="#758399" stroke-linecap="round"/>
<path d="M7.08064 5.42228C7.08064 6.33817 6.33817 7.08064 5.42228 7.08064C4.5064 7.08064 3.76393 6.33817 3.76393 5.42228C3.76393 4.5064 4.5064 3.76393 5.42228 3.76393C6.33817 3.76393 7.08064 4.5064 7.08064 5.42228Z" stroke="#758399" stroke-linecap="round"/>
</svg>
