<svg width="39" height="39" viewBox="0 0 39 39" fill="none" xmlns="http://www.w3.org/2000/svg">
<rect width="39" height="39" rx="10" fill="#688BA0" fill-opacity="0.13"/>
<path d="M23.7205 17.5552C24.1111 17.1647 24.1111 16.5315 23.7205 16.141C23.33 15.7505 22.6968 15.7505 22.3063 16.141L23.7205 17.5552ZM15.658 22.7894C15.2674 23.1799 15.2674 23.8131 15.658 24.2036C16.0485 24.5941 16.6816 24.5941 17.0722 24.2036L15.658 22.7894ZM15.658 17.2491C15.2674 17.6396 15.2674 18.2728 15.658 18.6633C16.0485 19.0538 16.6816 19.0538 17.0722 18.6633L15.658 17.2491ZM18.1802 17.5552C18.5707 17.1647 18.5707 16.5315 18.1802 16.141C17.7897 15.7505 17.1565 15.7505 16.766 16.141L18.1802 17.5552ZM21.1983 22.7894C20.8077 23.1799 20.8077 23.8131 21.1983 24.2036C21.5888 24.5941 22.2219 24.5941 22.6125 24.2036L21.1983 22.7894ZM23.7205 23.0955C24.1111 22.705 24.1111 22.0718 23.7205 21.6813C23.33 21.2908 22.6968 21.2908 22.3063 21.6813L23.7205 23.0955ZM15.2397 10.2205L15.4724 9.24799L15.2397 10.2205ZM17.4395 9.50575L18.1995 10.1557H18.1995L17.4395 9.50575ZM11.6685 11.9978L12.6653 12.077L11.6685 11.9978ZM14.3934 10.018L14.1607 10.9906L14.3934 10.018ZM10.24 14.7366L10.6233 15.6602H10.6233L10.24 14.7366ZM11.5995 12.8652L10.6027 12.786L11.5995 12.8652ZM8.39544 18.2735L7.54242 18.7954L7.54242 18.7954L8.39544 18.2735ZM9.43627 15.0701L9.05292 14.1465H9.05292L9.43627 15.0701ZM8.84955 21.3288L7.99653 20.807H7.99653L8.84955 21.3288ZM8.84955 19.0158L9.70257 18.4939L9.70257 18.4939L8.84955 19.0158ZM9.43627 25.2745L9.05292 26.1981H9.05292L9.43627 25.2745ZM8.39544 22.0711L9.24846 22.593L8.39544 22.0711ZM11.5995 27.4794L10.6027 27.5586L11.5995 27.4794ZM10.2399 25.608L10.6233 24.6844H10.6233L10.2399 25.608ZM14.3934 30.3266L14.1607 29.354L14.3934 30.3266ZM11.6685 28.3468L12.6653 28.2676L11.6685 28.3468ZM17.4395 30.8388L18.1995 30.1888H18.1995L17.4395 30.8388ZM15.2397 30.1241L15.4724 31.0966H15.4724L15.2397 30.1241ZM21.3733 31.5001L22.1333 32.1501H22.1333L21.3733 31.5001ZM18.0051 31.5001L17.2452 32.1501L18.0051 31.5001ZM24.1388 30.1241L23.9061 31.0966L24.1388 30.1241ZM21.9389 30.8388L21.179 30.1888L21.9389 30.8388ZM27.71 28.3468L28.7069 28.426V28.426L27.71 28.3468ZM24.9851 30.3266L25.2178 29.354L24.9851 30.3266ZM29.1385 25.608L29.5219 26.5316L29.1385 25.608ZM27.7789 27.4794L26.7821 27.4002L27.7789 27.4794ZM30.983 22.0711L30.13 22.593L30.13 22.593L30.983 22.0711ZM29.9422 25.2745L29.5589 24.3509L29.9422 25.2745ZM30.5289 19.0158L31.382 19.5376V19.5376L30.5289 19.0158ZM30.5289 21.3288L31.382 20.807V20.807L30.5289 21.3288ZM29.9422 15.0701L30.3256 14.1465V14.1465L29.9422 15.0701ZM30.983 18.2735L30.13 17.7516L30.13 17.7516L30.983 18.2735ZM27.7789 12.8652L26.7821 12.9444V12.9444L27.7789 12.8652ZM29.1385 14.7366L28.7552 15.6602H28.7552L29.1385 14.7366ZM24.9851 10.018L24.7524 9.04547V9.04547L24.9851 10.018ZM27.71 11.9978L28.7069 11.9186V11.9186L27.71 11.9978ZM21.9389 9.50575L21.179 10.1557V10.1558L21.9389 9.50575ZM24.1388 10.2205L24.3716 11.1931L24.1388 10.2205ZM21.3733 8.84449L22.1333 8.19449V8.19449L21.3733 8.84449ZM18.0051 8.84449L17.2452 8.19449V8.19449L18.0051 8.84449ZM20.6134 9.49449L21.179 10.1557L22.6989 8.85575L22.1333 8.19449L20.6134 9.49449ZM24.3716 11.1931L25.2178 10.9906L24.7524 9.04547L23.9061 9.24799L24.3716 11.1931ZM26.7132 12.077L26.7821 12.9444L28.7758 12.786L28.7069 11.9186L26.7132 12.077ZM28.7552 15.6602L29.5589 15.9937L30.3256 14.1465L29.5219 13.813L28.7552 15.6602ZM30.13 17.7516L29.6759 18.4939L31.382 19.5376L31.8361 18.7954L30.13 17.7516ZM29.6759 21.8507L30.13 22.593L31.8361 21.5492L31.382 20.807L29.6759 21.8507ZM29.5589 24.3509L28.7552 24.6844L29.5219 26.5316L30.3256 26.1981L29.5589 24.3509ZM26.7821 27.4002L26.7132 28.2676L28.7069 28.426L28.7758 27.5586L26.7821 27.4002ZM25.2178 29.354L24.3716 29.1515L23.9061 31.0966L24.7524 31.2991L25.2178 29.354ZM21.179 30.1888L20.6134 30.8501L22.1333 32.1501L22.6989 31.4888L21.179 30.1888ZM18.7651 30.8501L18.1995 30.1888L16.6796 31.4888L17.2452 32.1501L18.7651 30.8501ZM15.0069 29.1515L14.1607 29.354L14.6261 31.2991L15.4724 31.0966L15.0069 29.1515ZM12.6653 28.2676L12.5964 27.4002L10.6027 27.5586L10.6716 28.426L12.6653 28.2676ZM10.6233 24.6844L9.81963 24.3509L9.05292 26.1981L9.85659 26.5316L10.6233 24.6844ZM9.24846 22.593L9.70257 21.8507L7.99653 20.807L7.54242 21.5492L9.24846 22.593ZM9.70257 18.4939L9.24846 17.7516L7.54242 18.7954L7.99653 19.5376L9.70257 18.4939ZM9.81963 15.9937L10.6233 15.6602L9.85659 13.813L9.05292 14.1465L9.81963 15.9937ZM12.5964 12.9444L12.6653 12.077L10.6716 11.9186L10.6027 12.786L12.5964 12.9444ZM14.1607 10.9906L15.0069 11.1931L15.4724 9.24799L14.6261 9.04547L14.1607 10.9906ZM18.1995 10.1557L18.7651 9.49449L17.2452 8.19449L16.6796 8.85575L18.1995 10.1557ZM22.3063 16.141L15.658 22.7894L17.0722 24.2036L23.7205 17.5552L22.3063 16.141ZM17.0722 18.6633L18.1802 17.5552L16.766 16.141L15.658 17.2491L17.0722 18.6633ZM22.6125 24.2036L23.7205 23.0955L22.3063 21.6813L21.1983 22.7894L22.6125 24.2036ZM15.0069 11.1931C16.1815 11.4741 17.4145 11.0735 18.1995 10.1557L16.6796 8.85575C16.3828 9.20279 15.9165 9.35428 15.4724 9.24799L15.0069 11.1931ZM12.6653 12.077C12.7244 11.3325 13.4344 10.8167 14.1607 10.9906L14.6261 9.04547C12.7054 8.58582 10.828 9.94984 10.6716 11.9186L12.6653 12.077ZM10.6233 15.6602C11.7387 15.1972 12.5008 14.1483 12.5964 12.9444L10.6027 12.786C10.5665 13.2413 10.2784 13.6379 9.85659 13.813L10.6233 15.6602ZM9.24846 17.7516C8.85872 17.1146 9.12988 16.28 9.81963 15.9937L9.05292 14.1465C7.22883 14.9037 6.51172 17.1107 7.54242 18.7954L9.24846 17.7516ZM9.70257 21.8507C10.3328 20.8205 10.3328 19.5241 9.70257 18.4939L7.99653 19.5376C8.23486 19.9272 8.23486 20.4174 7.99653 20.807L9.70257 21.8507ZM9.81963 24.3509C9.12988 24.0646 8.85872 23.23 9.24846 22.593L7.54242 21.5492C6.51172 23.2339 7.22883 25.4409 9.05292 26.1981L9.81963 24.3509ZM12.5964 27.4002C12.5008 26.1963 11.7387 25.1474 10.6233 24.6844L9.85659 26.5316C10.2784 26.7067 10.5665 27.1033 10.6027 27.5586L12.5964 27.4002ZM14.1607 29.354C13.4344 29.5278 12.7244 29.0121 12.6653 28.2676L10.6716 28.426C10.828 30.3948 12.7054 31.7588 14.6261 31.2991L14.1607 29.354ZM18.1995 30.1888C17.4145 29.2711 16.1815 28.8704 15.0069 29.1515L15.4724 31.0966C15.9165 30.9903 16.3828 31.1418 16.6796 31.4888L18.1995 30.1888ZM20.6134 30.8501C20.128 31.4176 19.2505 31.4176 18.7651 30.8501L17.2452 32.1501C18.5289 33.651 20.8495 33.651 22.1333 32.1501L20.6134 30.8501ZM24.3716 29.1515C23.197 28.8704 21.964 29.2711 21.179 30.1888L22.6989 31.4888C22.9957 31.1418 23.462 30.9903 23.9061 31.0966L24.3716 29.1515ZM26.7132 28.2676C26.654 29.0121 25.9441 29.5278 25.2178 29.354L24.7524 31.2991C26.6731 31.7588 28.5505 30.3948 28.7069 28.426L26.7132 28.2676ZM28.7552 24.6844C27.6397 25.1474 26.8777 26.1963 26.7821 27.4002L28.7758 27.5586C28.812 27.1033 29.1001 26.7067 29.5219 26.5316L28.7552 24.6844ZM30.13 22.593C30.5198 23.23 30.2486 24.0646 29.5589 24.3509L30.3256 26.1981C32.1497 25.4409 32.8668 23.2339 31.8361 21.5492L30.13 22.593ZM29.6759 18.4939C29.0456 19.5241 29.0456 20.8205 29.6759 21.8507L31.382 20.807C31.1436 20.4174 31.1436 19.9272 31.382 19.5376L29.6759 18.4939ZM29.5589 15.9937C30.2486 16.28 30.5198 17.1146 30.13 17.7516L31.8361 18.7954C32.8668 17.1107 32.1497 14.9037 30.3256 14.1465L29.5589 15.9937ZM26.7821 12.9444C26.8777 14.1483 27.6397 15.1972 28.7552 15.6602L29.5219 13.813C29.1001 13.6379 28.812 13.2413 28.7758 12.786L26.7821 12.9444ZM25.2178 10.9906C25.9441 10.8167 26.654 11.3325 26.7132 12.077L28.7069 11.9186C28.5505 9.94984 26.6731 8.58582 24.7524 9.04547L25.2178 10.9906ZM21.179 10.1558C21.964 11.0735 23.197 11.4741 24.3716 11.1931L23.9061 9.24799C23.462 9.35428 22.9957 9.20279 22.6989 8.85575L21.179 10.1558ZM22.1333 8.19449C20.8495 6.69364 18.5289 6.69363 17.2452 8.19449L18.7651 9.49449C19.2505 8.92697 20.128 8.92697 20.6134 9.49449L22.1333 8.19449Z" fill="#49565E"/>
</svg>
