<svg width="24" height="20" viewBox="0 0 24 20" fill="none" xmlns="http://www.w3.org/2000/svg">
<path fill-rule="evenodd" clip-rule="evenodd" d="M9.38381 0.666563C9.85851 0.666121 10.2771 0.665731 10.6836 0.763328C11.0407 0.849066 11.3821 0.990482 11.6953 1.18238C12.0517 1.40082 12.3474 1.69704 12.6827 2.03301L12.6828 2.03303L13.6496 2.99996L18.8113 2.99995C19.4263 2.99993 19.9569 2.99992 20.3939 3.03562C20.8551 3.0733 21.3139 3.15651 21.7553 3.38143C22.4139 3.71699 22.9493 4.25242 23.2849 4.91099C23.5098 5.35243 23.593 5.81119 23.6307 6.27242C23.6664 6.70942 23.6664 7.23997 23.6663 7.85496V14.4783C23.6664 15.0933 23.6664 15.6238 23.6307 16.0608C23.593 16.5221 23.5098 16.9808 23.2849 17.4223C22.9493 18.0808 22.4139 18.6163 21.7553 18.9518C21.3139 19.1767 20.8551 19.2599 20.3939 19.2976C19.9569 19.3333 19.4263 19.3333 18.8113 19.3333H18.8113H5.18793H5.1879C4.57295 19.3333 4.04245 19.3333 3.60548 19.2976C3.14424 19.2599 2.68549 19.1767 2.24405 18.9518C1.58548 18.6163 1.05005 18.0808 0.71449 17.4223C0.489563 16.9808 0.406361 16.5221 0.368677 16.0608C0.332975 15.6239 0.332991 15.0932 0.333009 14.4783V14.4783V5.52156V5.52153C0.332991 4.90657 0.332975 4.37606 0.368677 3.93909C0.406361 3.47785 0.489563 3.0191 0.71449 2.57766C1.05005 1.91909 1.58548 1.38366 2.24405 1.0481C2.68549 0.823173 3.14424 0.739971 3.60548 0.702287C4.04248 0.666583 4.57304 0.666601 5.18804 0.666622L9.38381 0.666563ZM9.66634 10.5833C9.66634 9.6168 10.4498 8.83329 11.4163 8.83329C12.3828 8.83329 13.1663 9.6168 13.1663 10.5833C13.1663 11.5498 12.3828 12.3333 11.4163 12.3333C10.4498 12.3333 9.66634 11.5498 9.66634 10.5833ZM11.4163 6.49996C9.16118 6.49996 7.33301 8.32813 7.33301 10.5833C7.33301 12.8385 9.16118 14.6666 11.4163 14.6666C12.1196 14.6666 12.7813 14.4889 13.359 14.1758L14.6747 15.4916C15.1303 15.9472 15.869 15.9472 16.3246 15.4916C16.7802 15.036 16.7802 14.2973 16.3246 13.8417L15.0089 12.5259C15.3219 11.9482 15.4997 11.2865 15.4997 10.5833C15.4997 8.32813 13.6715 6.49996 11.4163 6.49996Z" fill="#EEF2F8"/>
</svg>
