<svg width="412" height="26" viewBox="0 0 412 26" fill="#fff" xmlns="http://www.w3.org/2000/svg">
<path transform="rotate(-180 206 12)" d="M0 0V12.2927V21V25.5H411.623V0C401.203 0 409.887 12.2927 400.334 12.2927C388.177 12.2927 397.729 0 387.308 0C376.887 0 385.571 12.2927 376.019 12.2927C363.861 12.2927 373.414 0 362.993 0C352.572 0 361.256 12.2927 351.704 12.2927C339.546 12.2927 349.098 0 338.678 0C328.257 0 336.941 12.2927 327.388 12.2927C315.231 12.2927 324.783 0 314.362 0C303.941 0 312.625 12.2927 303.073 12.2927C290.915 12.2927 300.468 0 290.047 0C279.626 0 288.31 12.2927 278.758 12.2927C266.6 12.2927 276.152 0 265.732 0C255.311 0 263.995 12.2927 254.442 12.2927C242.285 12.2927 251.837 0 241.416 0C230.995 0 239.679 12.2927 230.127 12.2927C217.969 12.2927 227.522 0 217.101 0C206.68 0 215.364 12.2927 205.812 12.2927C193.654 12.2927 203.207 0 192.786 0C182.365 0 191.049 12.2927 181.496 12.2927C169.339 12.2927 178.891 0 168.47 0C158.05 0 166.734 12.2927 157.181 12.2927C145.023 12.2927 154.576 0 144.155 0C133.734 0 142.418 12.2927 132.866 12.2927C120.708 12.2927 130.261 0 119.84 0C109.419 0 118.103 12.2927 108.55 12.2927C96.3928 12.2927 105.945 0 95.5244 0C85.1036 0 93.7876 12.2927 84.2352 12.2927C72.0775 12.2927 81.63 0 71.2091 0C60.7883 0 69.4723 12.2927 59.9199 12.2927C47.7622 12.2927 57.3147 0 46.8938 0C36.473 0 45.157 12.2927 35.6046 12.2927C23.4469 12.2927 32.9994 0 22.5785 0C12.1577 0 20.8417 12.2927 11.2893 12.2927C5.73147 12.2927 1.44734 4.09756 0 0Z" fill="#fff"/>
</svg>
