<svg width="24" height="24" viewBox="0 0 24 24" fill="none" xmlns="http://www.w3.org/2000/svg">
<path opacity="0.12" fill-rule="evenodd" clip-rule="evenodd" d="M12 10C13.0609 10 14.0783 9.57857 14.8284 8.82843C15.5786 8.07828 16 7.06087 16 6C16 4.93913 15.5786 3.92172 14.8284 3.17157C14.0783 2.42143 13.0609 2 12 2C10.9391 2 9.92172 2.42143 9.17157 3.17157C8.42143 3.92172 8 4.93913 8 6C8 7.06087 8.42143 8.07828 9.17157 8.82843C9.92172 9.57857 10.9391 10 12 10ZM8.8 14C7.52696 14 6.30606 14.5057 5.40589 15.4059C4.50571 16.3061 4 17.527 4 18.8C4 19.6487 4.33714 20.4626 4.93726 21.0627C5.53737 21.6629 6.35131 22 7.2 22H16.8C17.6487 22 18.4626 21.6629 19.0627 21.0627C19.6629 20.4626 20 19.6487 20 18.8C20 18.1697 19.8758 17.5455 19.6346 16.9631C19.3934 16.3808 19.0398 15.8516 18.5941 15.4059C18.1484 14.9602 17.6192 14.6066 17.0369 14.3654C16.4545 14.1242 15.8303 14 15.2 14H8.8Z" fill="#0D6992"/>
<path fill-rule="evenodd" clip-rule="evenodd" d="M8.75 6C8.75 5.13805 9.09241 4.3114 9.7019 3.7019C10.3114 3.09241 11.138 2.75 12 2.75C12.862 2.75 13.6886 3.09241 14.2981 3.7019C14.9076 4.3114 15.25 5.13805 15.25 6C15.25 6.86195 14.9076 7.6886 14.2981 8.2981C13.6886 8.90759 12.862 9.25 12 9.25C11.138 9.25 10.3114 8.90759 9.7019 8.2981C9.09241 7.6886 8.75 6.86195 8.75 6ZM12 1.25C10.7402 1.25 9.53204 1.75044 8.64124 2.64124C7.75045 3.53204 7.25 4.74022 7.25 6C7.25 7.25978 7.75045 8.46796 8.64124 9.35876C9.53204 10.2496 10.7402 10.75 12 10.75C13.2598 10.75 14.468 10.2496 15.3588 9.35876C16.2496 8.46796 16.75 7.25978 16.75 6C16.75 4.74022 16.2496 3.53204 15.3588 2.64124C14.468 1.75044 13.2598 1.25 12 1.25ZM8.8 13.25C7.32805 13.25 5.91638 13.8347 4.87556 14.8756C3.83473 15.9164 3.25 17.328 3.25 18.8C3.25 19.8476 3.66616 20.8523 4.40693 21.5931C5.1477 22.3338 6.15239 22.75 7.2 22.75H16.8C17.8476 22.75 18.8523 22.3338 19.5931 21.5931C20.3338 20.8523 20.75 19.8476 20.75 18.8C20.75 18.0712 20.6064 17.3495 20.3275 16.6761C20.0486 16.0028 19.6398 15.3909 19.1244 14.8756C18.6091 14.3602 17.9972 13.9514 17.3239 13.6725C16.6505 13.3936 15.9288 13.25 15.2 13.25H8.8ZM4.75 18.8C4.75 17.7259 5.17669 16.6957 5.93622 15.9362C6.69574 15.1767 7.72587 14.75 8.8 14.75H15.2C16.2741 14.75 17.3043 15.1767 18.0638 15.9362C18.8233 16.6957 19.25 17.7259 19.25 18.8C19.25 19.4498 18.9919 20.0729 18.5324 20.5324C18.0729 20.9919 17.4498 21.25 16.8 21.25H7.2C6.55022 21.25 5.92705 20.9919 5.46759 20.5324C5.00812 20.0729 4.75 19.4498 4.75 18.8Z" fill="#0D6992"/>
</svg>
