<svg width="24" height="24" viewBox="0 0 24 24" fill="none" xmlns="http://www.w3.org/2000/svg">
<path d="M5 2L5.15715 1.26665C4.80658 1.19153 4.45187 1.37502 4.31064 1.70456L5 2ZM19 5L19.6894 4.70456C19.5935 4.48089 19.3951 4.31764 19.1571 4.26665L19 5ZM15 22.75C15.4142 22.75 15.75 22.4142 15.75 22C15.75 21.5858 15.4142 21.25 15 21.25V22.75ZM9 21.25C8.58579 21.25 8.25 21.5858 8.25 22C8.25 22.4142 8.58579 22.75 9 22.75V21.25ZM21.8891 12.8111L22.6113 13.0135L21.8891 12.8111ZM21.6766 11.2454L22.3659 10.9499L21.6766 11.2454ZM2.32342 8.24535L1.63406 7.94991L2.32342 8.24535ZM7.67658 8.24535L8.36594 7.94991L7.67658 8.24535ZM7.16687 9.60878C6.90141 10.5562 6.03076 11.25 5 11.25V12.75C6.7208 12.75 8.1691 11.5916 8.61125 10.0135L7.16687 9.60878ZM5 11.25C3.96924 11.25 3.09859 10.5562 2.83313 9.60878L1.38875 10.0135C1.8309 11.5916 3.2792 12.75 5 12.75V11.25ZM3.01278 8.54079L5.68936 2.29544L4.31064 1.70456L1.63406 7.94991L3.01278 8.54079ZM4.31064 2.29544L6.98722 8.54079L8.36594 7.94991L5.68936 1.70456L4.31064 2.29544ZM21.1669 12.6088C20.9014 13.5562 20.0308 14.25 19 14.25V15.75C20.7208 15.75 22.1691 14.5916 22.6113 13.0135L21.1669 12.6088ZM19 14.25C17.9692 14.25 17.0986 13.5562 16.8331 12.6088L15.3887 13.0135C15.8309 14.5916 17.2792 15.75 19 15.75V14.25ZM17.0128 11.5408L19.6894 5.29544L18.3106 4.70456L15.6341 10.9499L17.0128 11.5408ZM18.3106 5.29544L20.9872 11.5408L22.3659 10.9499L19.6894 4.70456L18.3106 5.29544ZM4.84285 2.73335L11.8429 4.23335L12.1571 2.76665L5.15715 1.26665L4.84285 2.73335ZM11.8429 4.23335L18.8429 5.73335L19.1571 4.26665L12.1571 2.76665L11.8429 4.23335ZM11.25 3.5V22H12.75V3.5H11.25ZM12 22.75H15V21.25H12V22.75ZM12 21.25H9V22.75H12V21.25ZM16.8331 12.6088C16.7581 12.3408 16.8182 11.9949 17.0128 11.5408L15.6341 10.9499C15.4019 11.4916 15.1715 12.2382 15.3887 13.0135L16.8331 12.6088ZM22.6113 13.0135C22.8285 12.2382 22.5981 11.4916 22.3659 10.9499L20.9872 11.5408C21.1818 11.9949 21.2419 12.3408 21.1669 12.6088L22.6113 13.0135ZM2.83313 9.60878C2.75806 9.34083 2.81817 8.99489 3.01278 8.54079L1.63406 7.94991C1.40189 8.49163 1.17153 9.23817 1.38875 10.0135L2.83313 9.60878ZM8.61125 10.0135C8.82847 9.23817 8.5981 8.49163 8.36594 7.94991L6.98722 8.54079C7.18183 8.99489 7.24194 9.34083 7.16687 9.60878L8.61125 10.0135Z" fill="#67BF75"/>
</svg>
