<svg width="29" height="28" viewBox="0 0 29 28" fill="none" xmlns="http://www.w3.org/2000/svg">
<path d="M5.73154 8.34208L11.8811 3.84847C13.2954 2.67851 15.6525 2.75651 17.1192 3.84847L23.0906 8.35322C24.1277 9.12205 24.9763 10.8456 24.9763 12.1938V20.309C24.9763 22.8829 22.9963 25 20.5658 25H17.5001C16.9478 25 16.5001 24.5523 16.5001 24V18C16.5001 17.4477 16.0524 17 15.5001 17H13.5001C12.9478 17 12.5001 17.4477 12.5001 18V24C12.5001 24.5523 12.0524 25 11.5001 25H8.4344C6.00393 25 4.02393 22.8829 4.02393 20.2979V12.0414C4.02393 10.7823 4.78869 9.12205 5.73154 8.34208Z" stroke="#8E8E93" stroke-linecap="round" stroke-linejoin="round"/>
</svg>
