<svg width="25" height="24" viewBox="0 0 25 24" fill="none" xmlns="http://www.w3.org/2000/svg">
<path d="M21.998 12C21.998 14.3869 21.0498 16.6761 19.362 18.364C17.6742 20.0518 15.385 21 12.998 21M21.998 12C21.998 9.61305 21.0498 7.32387 19.362 5.63604C17.6742 3.94821 15.385 3 12.998 3M21.998 12H3.99805M12.998 21C10.6111 21 8.32191 20.0518 6.63409 18.364C4.94626 16.6761 3.99805 14.3869 3.99805 12M12.998 21C14.655 21 15.998 16.97 15.998 12C15.998 7.03 14.655 3 12.998 3M12.998 21C11.341 21 9.99805 16.97 9.99805 12C9.99805 7.03 11.341 3 12.998 3M12.998 3C10.6111 3 8.32191 3.94821 6.63409 5.63604C4.94626 7.32387 3.99805 9.61305 3.99805 12" stroke="#002930" stroke-width="1.5" stroke-linecap="round" stroke-linejoin="round"/>
</svg>
