<svg width="14" height="12" viewBox="0 0 14 12" fill="none" xmlns="http://www.w3.org/2000/svg">
<path d="M1 3.33333L6.26 6.84C6.47911 6.98618 6.7366 7.06419 7 7.06419C7.2634 7.06419 7.52089 6.98618 7.74 6.84L13 3.33333M2.33333 10.6667H11.6667C12.0203 10.6667 12.3594 10.5262 12.6095 10.2761C12.8595 10.0261 13 9.68695 13 9.33333V2.66666C13 2.31304 12.8595 1.9739 12.6095 1.72385C12.3594 1.4738 12.0203 1.33333 11.6667 1.33333H2.33333C1.97971 1.33333 1.64057 1.4738 1.39052 1.72385C1.14048 1.9739 1 2.31304 1 2.66666V9.33333C1 9.68695 1.14048 10.0261 1.39052 10.2761C1.64057 10.5262 1.97971 10.6667 2.33333 10.6667Z" stroke="#637381" stroke-linecap="round" stroke-linejoin="round"/>
</svg>
