<svg width="24" height="24" viewBox="0 0 24 24" fill="none" xmlns="http://www.w3.org/2000/svg">
<path d="M3.62915 15.2978L4.3314 15.5611L3.62915 15.2978ZM2.12915 19.2978L1.4269 19.0344H1.4269L2.12915 19.2978ZM22.1025 19.2978L22.8047 19.0344L22.1025 19.2978ZM20.6025 15.2978L21.3047 15.0344L20.6025 15.2978ZM12.1158 18L11.6357 18.5762C11.9138 18.8079 12.3178 18.8079 12.5959 18.5762L12.1158 18ZM8.45219 14L9.06182 13.5631L8.45219 14ZM2.9269 15.0344L1.4269 19.0344L2.8314 19.5611L4.3314 15.5611L2.9269 15.0344ZM4.00181 22.75H20.2298V21.25H4.00181V22.75ZM22.8047 19.0344L21.3047 15.0344L19.9002 15.5611L21.4002 19.5611L22.8047 19.0344ZM21.3047 15.0344C20.9022 13.9611 19.8761 13.25 18.7298 13.25V14.75C19.2509 14.75 19.7173 15.0732 19.9002 15.5611L21.3047 15.0344ZM20.2298 22.75C22.1499 22.75 23.4789 20.8322 22.8047 19.0344L21.4002 19.5611C21.7067 20.3783 21.1026 21.25 20.2298 21.25V22.75ZM1.4269 19.0344C0.752724 20.8322 2.08174 22.75 4.00181 22.75V21.25C3.12905 21.25 2.52495 20.3783 2.8314 19.5611L1.4269 19.0344ZM5.50181 13.25C4.35549 13.25 3.32941 13.9611 2.9269 15.0344L4.3314 15.5611C4.51435 15.0732 4.98075 14.75 5.50181 14.75V13.25ZM6.86581 8C6.86581 5.10051 9.21631 2.75 12.1158 2.75V1.25C8.38789 1.25 5.36581 4.27208 5.36581 8H6.86581ZM12.1158 2.75C15.0153 2.75 17.3658 5.1005 17.3658 8H18.8658C18.8658 4.27208 15.8437 1.25 12.1158 1.25V2.75ZM13.3658 8C13.3658 8.69036 12.8062 9.25 12.1158 9.25V10.75C13.6346 10.75 14.8658 9.51878 14.8658 8H13.3658ZM12.1158 9.25C11.4255 9.25 10.8658 8.69036 10.8658 8H9.36581C9.36581 9.51878 10.597 10.75 12.1158 10.75V9.25ZM10.8658 8C10.8658 7.30964 11.4255 6.75 12.1158 6.75V5.25C10.597 5.25 9.36581 6.48122 9.36581 8H10.8658ZM12.1158 6.75C12.8062 6.75 13.3658 7.30964 13.3658 8H14.8658C14.8658 6.48122 13.6346 5.25 12.1158 5.25V6.75ZM12.1158 18C12.5959 17.4238 12.596 17.4239 12.5961 17.4239C12.5961 17.424 12.5962 17.424 12.5962 17.424C12.5962 17.4241 12.5962 17.4241 12.5962 17.4241C12.5962 17.424 12.5961 17.4239 12.5958 17.4237C12.5953 17.4233 12.5943 17.4224 12.5928 17.4212C12.5899 17.4187 12.5851 17.4147 12.5785 17.4091C12.5654 17.398 12.5452 17.3807 12.5183 17.3575C12.4647 17.311 12.3848 17.2409 12.283 17.149C12.0794 16.9651 11.7888 16.6944 11.4464 16.3516C10.76 15.6643 9.87346 14.6957 9.06182 13.5631L7.84257 14.4369C8.71575 15.6553 9.66104 16.6867 10.3852 17.4116C10.7481 17.775 11.0575 18.0635 11.2776 18.2622C11.3877 18.3616 11.4755 18.4387 11.5367 18.4916C11.5672 18.5181 11.5911 18.5385 11.6078 18.5527C11.6162 18.5598 11.6227 18.5653 11.6274 18.5692C11.6297 18.5712 11.6316 18.5727 11.633 18.5739C11.6336 18.5745 11.6342 18.575 11.6347 18.5753C11.6349 18.5755 11.6351 18.5757 11.6353 18.5758C11.6353 18.5759 11.6354 18.576 11.6355 18.576C11.6356 18.5761 11.6357 18.5762 12.1158 18ZM9.06182 13.5631C7.84319 11.8626 6.86581 9.8924 6.86581 8H5.36581C5.36581 10.3648 6.56326 12.6517 7.84257 14.4369L9.06182 13.5631ZM8.45219 13.25H5.50181V14.75H8.45219V13.25ZM17.3658 8C17.3658 9.8924 16.3884 11.8626 15.1698 13.5631L16.389 14.4369C17.6684 12.6517 18.8658 10.3648 18.8658 8H17.3658ZM15.1698 13.5631C14.3582 14.6957 13.4716 15.6643 12.7852 16.3516C12.4428 16.6944 12.1522 16.9651 11.9486 17.149C11.8469 17.2409 11.7669 17.311 11.7133 17.3575C11.6865 17.3807 11.6662 17.398 11.6531 17.4091C11.6465 17.4147 11.6418 17.4187 11.6388 17.4212C11.6374 17.4224 11.6364 17.4233 11.6358 17.4237C11.6356 17.4239 11.6354 17.424 11.6354 17.4241C11.6354 17.4241 11.6354 17.4241 11.6354 17.424C11.6355 17.424 11.6355 17.424 11.6355 17.4239C11.6356 17.4239 11.6357 17.4238 12.1158 18C12.5959 18.5762 12.596 18.5761 12.5961 18.576C12.5962 18.576 12.5963 18.5759 12.5964 18.5758C12.5965 18.5757 12.5967 18.5755 12.5969 18.5753C12.5974 18.575 12.598 18.5745 12.5987 18.5739C12.6001 18.5727 12.6019 18.5712 12.6042 18.5692C12.6089 18.5653 12.6155 18.5598 12.6238 18.5527C12.6405 18.5385 12.6644 18.5181 12.695 18.4916C12.7561 18.4387 12.8439 18.3616 12.954 18.2622C13.1741 18.0635 13.4835 17.775 13.8464 17.4116C14.5706 16.6867 15.5159 15.6553 16.389 14.4369L15.1698 13.5631ZM18.7298 13.25H15.7794V14.75H18.7298V13.25Z" fill="#293644"/>
</svg>
