<svg width="36" height="34" viewBox="0 0 36 34" fill="none" xmlns="http://www.w3.org/2000/svg">
<path fill-rule="evenodd" clip-rule="evenodd" d="M2.29288 14.3807C1.97629 14.3807 1.71966 14.6373 1.71966 14.9539V16.1003H1.43305C0.641598 16.1003 0 16.7419 0 17.5334V22.979C0 23.7704 0.641598 24.412 1.43305 24.412H20.9225C21.714 24.412 22.3556 23.7704 22.3556 22.979V17.5334C22.3556 16.7419 21.714 16.1003 20.9225 16.1003H19.4895V14.9539C19.4895 14.6373 19.2329 14.3807 18.9163 14.3807H16.0502C15.7336 14.3807 15.477 14.6373 15.477 14.9539V16.1003H12.8975V14.9539C12.8975 14.6373 12.6408 14.3807 12.3242 14.3807H9.45814C9.14156 14.3807 8.88492 14.6373 8.88492 14.9539V16.1003H5.73219V14.9539C5.73219 14.6373 5.47556 14.3807 5.15897 14.3807H2.29288Z" fill="#04A0E6"/>
<path fill-rule="evenodd" clip-rule="evenodd" d="M19.0652 1.8528C18.7979 1.68305 18.4437 1.76207 18.274 2.0293L17.6592 2.99701L17.4173 2.84334C16.7493 2.41897 15.8637 2.61652 15.4393 3.28458L12.5194 7.88118C12.0951 8.54925 12.2926 9.43484 12.9607 9.8592L29.4117 20.3093C30.0797 20.7337 30.9653 20.5361 31.3897 19.8681L34.3096 15.2715C34.7339 14.6034 34.5364 13.7178 33.8683 13.2934L32.6587 12.525L33.2734 11.5573C33.4431 11.2901 33.3641 10.9359 33.0969 10.7661L30.6776 9.22936C30.4104 9.05961 30.0562 9.13863 29.8864 9.40586L29.2717 10.3735L27.0944 8.99044L27.7091 8.02274C27.8788 7.75552 27.7998 7.40128 27.5326 7.23153L25.1133 5.69475C24.8461 5.52501 24.4919 5.60403 24.3221 5.87125L23.7074 6.83895L21.0462 5.1485L21.6609 4.18078C21.8307 3.91356 21.7516 3.55932 21.4844 3.38958L19.0652 1.8528Z" fill="#F87EA1"/>
<path fill-rule="evenodd" clip-rule="evenodd" d="M23.502 23.8388C23.1854 23.8388 22.9288 24.0954 22.9288 24.412V25.5585H15.4769C14.6855 25.5585 14.0439 26.2001 14.0439 26.9915V32.4371C14.0439 33.2285 14.6855 33.8701 15.4769 33.8701H28.3744C29.1658 33.8701 29.8074 33.2285 29.8074 32.4371V26.9915C29.8074 26.2001 29.1658 25.5585 28.3744 25.5585H26.9413V24.412C26.9413 24.0954 26.6847 23.8388 26.3681 23.8388H23.502Z" fill="#FEDA4F"/>
<rect y="25.5584" width="12.6108" height="8.31169" rx="1.43305" fill="#FBAD4A"/>
</svg>
