<svg width="16" height="16" viewBox="0 0 16 16" fill="none" xmlns="http://www.w3.org/2000/svg">
<path d="M5.2 8C5.9732 8 6.6 7.3732 6.6 6.6C6.6 5.8268 5.9732 5.2 5.2 5.2M5.2 8C4.4268 8 3.8 7.3732 3.8 6.6C3.8 5.8268 4.4268 5.2 5.2 5.2M5.2 8V12.2M5.2 5.2V3.8M10.8 10.8C11.5732 10.8 12.2 10.1732 12.2 9.4C12.2 8.6268 11.5732 8 10.8 8M10.8 10.8C10.0268 10.8 9.4 10.1732 9.4 9.4C9.4 8.6268 10.0268 8 10.8 8M10.8 10.8V12.2M10.8 8V3.8M2.4 15H13.6C14.3732 15 15 14.3732 15 13.6V2.4C15 1.6268 14.3732 1 13.6 1H2.4C1.6268 1 1 1.6268 1 2.4V13.6C1 14.3732 1.6268 15 2.4 15Z" stroke="#293644" stroke-linecap="round"/>
</svg>
