<svg width="17" height="16" viewBox="0 0 17 16" fill="none" xmlns="http://www.w3.org/2000/svg">
<path fill-rule="evenodd" clip-rule="evenodd" d="M6.69714 0.6445L2.98912 4.19802H0.843157C0.330151 4.19802 -0.0639191 4.65238 0.00863094 5.16023L1.24698 13.8287C1.42496 15.0746 2.492 16 3.75056 16H12.8518C14.1103 16 15.1774 15.0746 15.3553 13.8287L16.5937 5.16023C16.6662 4.65238 16.2722 4.19802 15.7592 4.19802H13.6132L9.90516 0.6445C9.00846 -0.214834 7.59383 -0.214833 6.69714 0.6445ZM9.03024 1.55745C8.62265 1.16685 7.97964 1.16685 7.57205 1.55745L4.81668 4.19802H11.7856L9.03024 1.55745ZM2.49877 13.6498L1.32915 5.46251H15.2732L14.1036 13.6498C14.0146 14.2728 13.481 14.7355 12.8518 14.7355H3.75056C3.12128 14.7355 2.58776 14.2728 2.49877 13.6498ZM5.56137 8.4135C5.56137 8.06432 5.27831 7.78125 4.92912 7.78125C4.57994 7.78125 4.29688 8.06432 4.29688 8.4135V11.7855C4.29688 12.1347 4.57994 12.4177 4.92912 12.4177C5.27831 12.4177 5.56137 12.1347 5.56137 11.7855V8.4135ZM8.301 7.78125C8.65018 7.78125 8.93325 8.06432 8.93325 8.4135V11.7855C8.93325 12.1347 8.65018 12.4177 8.301 12.4177C7.95182 12.4177 7.66875 12.1347 7.66875 11.7855V8.4135C7.66875 8.06432 7.95182 7.78125 8.301 7.78125ZM12.3051 8.4135C12.3051 8.06432 12.0221 7.78125 11.6729 7.78125C11.3237 7.78125 11.0406 8.06432 11.0406 8.4135V11.7855C11.0406 12.1347 11.3237 12.4177 11.6729 12.4177C12.0221 12.4177 12.3051 12.1347 12.3051 11.7855V8.4135Z" fill="#FF3139"/>
</svg>
