<svg width="24" height="24" viewBox="0 0 24 24" fill="none" xmlns="http://www.w3.org/2000/svg">
<path d="M12.1152 19L11.6351 19.5762C11.9132 19.8079 12.3172 19.8079 12.5954 19.5762L12.1152 19ZM8.45162 15L9.06124 14.5631L8.45162 15ZM15.7788 15L16.3885 15.4369V15.4369L15.7788 15ZM6.86523 9C6.86523 6.10051 9.21574 3.75 12.1152 3.75V2.25C8.38731 2.25 5.36523 5.27208 5.36523 9H6.86523ZM12.1152 3.75C15.0147 3.75 17.3652 6.1005 17.3652 9H18.8652C18.8652 5.27208 15.8432 2.25 12.1152 2.25V3.75ZM13.3652 9C13.3652 9.69036 12.8056 10.25 12.1152 10.25V11.75C13.634 11.75 14.8652 10.5188 14.8652 9H13.3652ZM12.1152 10.25C11.4249 10.25 10.8652 9.69036 10.8652 9H9.36523C9.36523 10.5188 10.5965 11.75 12.1152 11.75V10.25ZM10.8652 9C10.8652 8.30964 11.4249 7.75 12.1152 7.75V6.25C10.5965 6.25 9.36523 7.48122 9.36523 9H10.8652ZM12.1152 7.75C12.8056 7.75 13.3652 8.30964 13.3652 9H14.8652C14.8652 7.48122 13.634 6.25 12.1152 6.25V7.75ZM12.1152 19C12.5954 18.4238 12.5954 18.4239 12.5955 18.4239C12.5955 18.424 12.5956 18.424 12.5956 18.424C12.5956 18.4241 12.5957 18.4241 12.5956 18.4241C12.5956 18.424 12.5955 18.4239 12.5952 18.4237C12.5947 18.4233 12.5937 18.4224 12.5922 18.4212C12.5893 18.4187 12.5845 18.4147 12.578 18.4091C12.5648 18.398 12.5446 18.3807 12.5178 18.3575C12.4641 18.311 12.3842 18.2409 12.2824 18.149C12.0788 17.9651 11.7883 17.6944 11.4459 17.3516C10.7594 16.6643 9.87288 15.6957 9.06124 14.5631L7.842 15.4369C8.71518 16.6553 9.66047 17.6867 10.3846 18.4116C10.7475 18.775 11.057 19.0635 11.277 19.2622C11.3871 19.3616 11.4749 19.4387 11.5361 19.4916C11.5667 19.5181 11.5906 19.5385 11.6072 19.5527C11.6156 19.5598 11.6221 19.5653 11.6268 19.5692C11.6291 19.5712 11.631 19.5727 11.6324 19.5739C11.6331 19.5745 11.6336 19.575 11.6341 19.5753C11.6343 19.5755 11.6345 19.5757 11.6347 19.5758C11.6348 19.5759 11.6349 19.576 11.6349 19.576C11.635 19.5761 11.6351 19.5762 12.1152 19ZM9.06124 14.5631C7.84262 12.8626 6.86523 10.8924 6.86523 9H5.36523C5.36523 11.3648 6.56269 13.6517 7.842 15.4369L9.06124 14.5631ZM17.3652 9C17.3652 10.8924 16.3879 12.8626 15.1692 14.5631L16.3885 15.4369C17.6678 13.6517 18.8652 11.3648 18.8652 9H17.3652ZM15.1692 14.5631C14.3576 15.6957 13.4711 16.6643 12.7846 17.3516C12.4422 17.6944 12.1517 17.9651 11.948 18.149C11.8463 18.2409 11.7664 18.311 11.7127 18.3575C11.6859 18.3807 11.6656 18.398 11.6525 18.4091C11.646 18.4147 11.6412 18.4187 11.6382 18.4212C11.6368 18.4224 11.6358 18.4233 11.6353 18.4237C11.635 18.4239 11.6348 18.424 11.6348 18.4241C11.6348 18.4241 11.6348 18.4241 11.6349 18.424C11.6349 18.424 11.6349 18.424 11.635 18.4239C11.635 18.4239 11.6351 18.4238 12.1152 19C12.5954 19.5762 12.5955 19.5761 12.5956 19.576C12.5956 19.576 12.5957 19.5759 12.5958 19.5758C12.5959 19.5757 12.5961 19.5755 12.5964 19.5753C12.5968 19.575 12.5974 19.5745 12.5981 19.5739C12.5995 19.5727 12.6013 19.5712 12.6037 19.5692C12.6083 19.5653 12.6149 19.5598 12.6232 19.5527C12.6399 19.5385 12.6638 19.5181 12.6944 19.4916C12.7555 19.4387 12.8434 19.3616 12.9534 19.2622C13.1735 19.0635 13.483 18.775 13.8459 18.4116C14.57 17.6867 15.5153 16.6553 16.3885 15.4369L15.1692 14.5631Z" fill="#646464"/>
</svg>
