<svg width="28" height="29" viewBox="0 0 28 29" fill="none" xmlns="http://www.w3.org/2000/svg">
<g filter="url(#filter0_d_6964_10202)">
<path d="M0 5.25V1.09375C0 0.489624 0.489624 0 1.09375 0H5.25C5.85413 0 6.34375 0.489624 6.34375 1.09375C6.34375 1.69788 5.85413 2.1875 5.25 2.1875H2.1875V5.25C2.1875 5.85413 1.69788 6.34375 1.09375 6.34375C0.489624 6.34375 0 5.85413 0 5.25ZM26.9062 0H22.75C22.1459 0 21.6562 0.489624 21.6562 1.09375C21.6562 1.69788 22.1459 2.1875 22.75 2.1875H25.8125V5.25C25.8125 5.85413 26.3021 6.34375 26.9062 6.34375C27.5104 6.34375 28 5.85413 28 5.25V1.09375C28 0.489624 27.5104 0 26.9062 0ZM5.25 25.8125H2.1875V22.75C2.1875 22.1459 1.69788 21.6562 1.09375 21.6562C0.489624 21.6562 0 22.1459 0 22.75V26.9062C0 27.5104 0.489624 28 1.09375 28H5.25C5.85413 28 6.34375 27.5104 6.34375 26.9062C6.34375 26.3021 5.85413 25.8125 5.25 25.8125ZM26.9062 21.6562C26.3021 21.6562 25.8125 22.1459 25.8125 22.75V25.8125H22.75C22.1459 25.8125 21.6562 26.3021 21.6562 26.9062C21.6562 27.5104 22.1459 28 22.75 28H26.9062C27.5104 28 28 27.5104 28 26.9062V22.75C28 22.1459 27.5104 21.6562 26.9062 21.6562ZM13.043 5.38672V11.9492C13.043 12.5533 12.5533 13.043 11.9492 13.043H5.38672C4.78259 13.043 4.29297 12.5533 4.29297 11.9492V5.38672C4.29297 4.78259 4.78259 4.29297 5.38672 4.29297H11.9492C12.5533 4.29297 13.043 4.78259 13.043 5.38672ZM10.8555 6.48047H6.48047V10.8555H10.8555V6.48047ZM23.1602 13.043H16.5977C15.9935 13.043 15.5039 12.5533 15.5039 11.9492V5.38672C15.5039 4.78259 15.9935 4.29297 16.5977 4.29297H23.1602C23.7643 4.29297 24.2539 4.78259 24.2539 5.38672V11.9492C24.2539 12.5533 23.7643 13.043 23.1602 13.043ZM22.0664 6.48047H17.6914V10.8555H22.0664V6.48047ZM13.043 16.5977V23.1602C13.043 23.7643 12.5533 24.2539 11.9492 24.2539H5.38672C4.78259 24.2539 4.29297 23.7643 4.29297 23.1602V16.5977C4.29297 15.9935 4.78259 15.5039 5.38672 15.5039H11.9492C12.5533 15.5039 13.043 15.9935 13.043 16.5977ZM10.8555 17.6914H6.48047V22.0664H10.8555V17.6914ZM21.752 22.8457H18.0059C17.4017 22.8457 16.9121 22.3561 16.9121 21.752V18.0059C16.9121 17.4017 17.4017 16.9121 18.0059 16.9121H21.752C22.3561 16.9121 22.8457 17.4017 22.8457 18.0059V21.752C22.8457 22.3561 22.3561 22.8457 21.752 22.8457ZM20.6582 19.0996H19.0996V20.6582H20.6582V19.0996Z" fill="white" fill-opacity="0.8" shape-rendering="crispEdges"/>
</g>
<defs>
<filter id="filter0_d_6964_10202" x="0" y="0" width="28" height="29" filterUnits="userSpaceOnUse" color-interpolation-filters="sRGB">
<feFlood flood-opacity="0" result="BackgroundImageFix"/>
<feColorMatrix in="SourceAlpha" type="matrix" values="0 0 0 0 0 0 0 0 0 0 0 0 0 0 0 0 0 0 127 0" result="hardAlpha"/>
<feOffset dy="1"/>
<feComposite in2="hardAlpha" operator="out"/>
<feColorMatrix type="matrix" values="0 0 0 0 0 0 0 0 0 0 0 0 0 0 0 0 0 0 0.25 0"/>
<feBlend mode="normal" in2="BackgroundImageFix" result="effect1_dropShadow_6964_10202"/>
<feBlend mode="normal" in="SourceGraphic" in2="effect1_dropShadow_6964_10202" result="shape"/>
</filter>
</defs>
</svg>
