<svg width="25" height="25" viewBox="0 0 25 25" fill="none" xmlns="http://www.w3.org/2000/svg">
<path d="M12.7764 5.87278L12.2455 6.53652L12.7764 6.96131L13.3074 6.53652L12.7764 5.87278ZM13.4036 5.37108L13.9346 6.03482L13.4036 5.37108ZM22.0042 14.1625L22.6303 14.7373L22.0042 14.1625ZM3.54872 14.1625L2.92255 14.7373V14.7373L3.54872 14.1625ZM12.1493 5.37108L12.6803 4.70734V4.70734L12.1493 5.37108ZM21.7362 5.83259L22.3373 5.23155L22.3373 5.23154L21.7362 5.83259ZM13.3074 6.53652L13.9346 6.03482L12.8726 4.70734L12.2455 5.20905L13.3074 6.53652ZM21.378 13.5877C19.8036 15.3027 17.9668 17.2053 16.3112 18.6735C15.4819 19.4089 14.7171 20.0182 14.0667 20.4386C13.373 20.887 12.9544 21.0228 12.7764 21.0228V22.7228C13.4928 22.7228 14.2795 22.3253 14.9896 21.8663C15.743 21.3793 16.5804 20.7069 17.4391 19.9454C19.1597 18.4196 21.0424 16.4671 22.6303 14.7373L21.378 13.5877ZM12.7764 21.0228C12.5985 21.0228 12.1798 20.887 11.4862 20.4386C10.8358 20.0182 10.071 19.4089 9.24168 18.6735C7.58607 17.2053 5.74925 15.3027 4.17488 13.5877L2.92255 14.7373C4.51048 16.4671 6.39322 18.4196 8.11375 19.9454C8.97247 20.7069 9.80993 21.3793 10.5633 21.8663C11.2734 22.3253 12.0601 22.7228 12.7764 22.7228V21.0228ZM11.6183 6.03482L12.2455 6.53652L13.3074 5.20905L12.6803 4.70734L11.6183 6.03482ZM4.41768 6.43363C6.36574 4.48557 9.46705 4.3138 11.6183 6.03482L12.6803 4.70734C9.85262 2.44519 5.77618 2.67096 3.2156 5.23155L4.41768 6.43363ZM4.17488 13.5877C2.31023 11.5564 2.43469 8.41662 4.41768 6.43363L3.2156 5.23155C0.622223 7.82492 0.4105 12.0008 2.92255 14.7373L4.17488 13.5877ZM21.1352 6.43363C23.1182 8.41662 23.2427 11.5564 21.378 13.5877L22.6303 14.7373C25.1424 12.0008 24.9307 7.82492 22.3373 5.23155L21.1352 6.43363ZM13.9346 6.03482C16.0858 4.3138 19.1871 4.48556 21.1352 6.43363L22.3373 5.23154C19.7767 2.67096 15.7003 2.44519 12.8726 4.70734L13.9346 6.03482Z" fill="#353535"/>
</svg>
