<svg width="20" height="20" viewBox="0 0 20 20" fill="none" xmlns="http://www.w3.org/2000/svg">
<path d="M17.3636 10C17.3636 14.0668 14.0668 17.3636 10 17.3636M17.3636 10C17.3636 5.93318 14.0668 2.63636 10 2.63636M17.3636 10H19M10 17.3636C5.93318 17.3636 2.63636 14.0668 2.63636 10M10 17.3636V19M2.63636 10C2.63636 5.93318 5.93318 2.63636 10 2.63636M2.63636 10H1M10 2.63636V1M13.2727 10C13.2727 11.8075 11.8075 13.2727 10 13.2727C8.19252 13.2727 6.72727 11.8075 6.72727 10C6.72727 8.19252 8.19252 6.72727 10 6.72727C11.8075 6.72727 13.2727 8.19252 13.2727 10Z" stroke="#6D7782" stroke-width="1.5" stroke-linecap="round"/>
</svg>
