<svg width="20" height="24" viewBox="0 0 20 24" fill="none" xmlns="http://www.w3.org/2000/svg">
<path d="M3.80232 21.2209L4.54773 21.138L3.80232 21.2209ZM16.1977 21.2209L15.4523 21.138L16.1977 21.2209ZM1 4.25C0.585786 4.25 0.25 4.58579 0.25 5C0.25 5.41421 0.585786 5.75 1 5.75V4.25ZM19 5.75C19.4142 5.75 19.75 5.41421 19.75 5C19.75 4.58579 19.4142 4.25 19 4.25V5.75ZM12.5303 12.5303C12.8232 12.2374 12.8232 11.7626 12.5303 11.4697C12.2374 11.1768 11.7626 11.1768 11.4697 11.4697L12.5303 12.5303ZM7.46967 15.4697C7.17678 15.7626 7.17678 16.2374 7.46967 16.5303C7.76256 16.8232 8.23744 16.8232 8.53033 16.5303L7.46967 15.4697ZM8.53033 11.4697C8.23744 11.1768 7.76256 11.1768 7.46967 11.4697C7.17678 11.7626 7.17678 12.2374 7.46967 12.5303L8.53033 11.4697ZM11.4697 16.5303C11.7626 16.8232 12.2374 16.8232 12.5303 16.5303C12.8232 16.2374 12.8232 15.7626 12.5303 15.4697L11.4697 16.5303ZM1.25459 5.08282L3.05691 21.3037L4.54773 21.138L2.74541 4.91718L1.25459 5.08282ZM5.79009 23.75H14.2099V22.25H5.79009V23.75ZM16.9431 21.3037L18.7454 5.08282L17.2546 4.91718L15.4523 21.138L16.9431 21.3037ZM2 4.25H1V5.75H2V4.25ZM18 5.75H19V4.25H18V5.75ZM2 5.75H7V4.25H2V5.75ZM7.75 5V3H6.25V5H7.75ZM9 1.75H11V0.25H9V1.75ZM7 5.75H13V4.25H7V5.75ZM13 5.75H18V4.25H13V5.75ZM12.25 3V5H13.75V3H12.25ZM11.4697 11.4697L9.46967 13.4697L10.5303 14.5303L12.5303 12.5303L11.4697 11.4697ZM9.46967 13.4697L7.46967 15.4697L8.53033 16.5303L10.5303 14.5303L9.46967 13.4697ZM7.46967 12.5303L9.46967 14.5303L10.5303 13.4697L8.53033 11.4697L7.46967 12.5303ZM9.46967 14.5303L11.4697 16.5303L12.5303 15.4697L10.5303 13.4697L9.46967 14.5303ZM11 1.75C11.6904 1.75 12.25 2.30964 12.25 3H13.75C13.75 1.48122 12.5188 0.25 11 0.25V1.75ZM7.75 3C7.75 2.30964 8.30964 1.75 9 1.75V0.25C7.48122 0.25 6.25 1.48122 6.25 3H7.75ZM14.2099 23.75C15.6112 23.75 16.7884 22.6964 16.9431 21.3037L15.4523 21.138C15.3819 21.7711 14.8469 22.25 14.2099 22.25V23.75ZM3.05691 21.3037C3.21165 22.6964 4.38883 23.75 5.79009 23.75V22.25C5.15315 22.25 4.61807 21.7711 4.54773 21.138L3.05691 21.3037Z" fill="#E16363"/>
</svg>
