<svg width="62" height="62" viewBox="0 0 62 62" fill="none" xmlns="http://www.w3.org/2000/svg">
<path d="M5.16675 22.733C5.16675 18.3926 5.16675 16.2224 6.01145 14.5646C6.75447 13.1063 7.94007 11.9207 9.39832 11.1777C11.0561 10.333 13.2263 10.333 17.5667 10.333H44.4334C48.7738 10.333 50.944 10.333 52.6018 11.1777C54.0601 11.9207 55.2457 13.1063 55.9887 14.5646C56.8334 16.2224 56.8334 18.3926 56.8334 22.733V39.2663C56.8334 43.6068 56.8334 45.777 55.9887 47.4348C55.2457 48.893 54.0601 50.0786 52.6018 50.8216C50.944 51.6663 48.7738 51.6663 44.4334 51.6663H17.5667C13.2263 51.6663 11.0561 51.6663 9.39832 50.8216C7.94007 50.0786 6.75447 48.893 6.01145 47.4348C5.16675 45.777 5.16675 43.6068 5.16675 39.2663V22.733Z" fill="#EEF2F8"/>
<path fill-rule="evenodd" clip-rule="evenodd" d="M49.0833 38.75C50.5101 38.75 51.6667 39.9066 51.6667 41.3333V46.5H56.8333C58.2601 46.5 59.4167 47.6566 59.4167 49.0833C59.4167 50.5101 58.2601 51.6667 56.8333 51.6667H51.6667V56.8333C51.6667 58.2601 50.5101 59.4167 49.0833 59.4167C47.6566 59.4167 46.5 58.2601 46.5 56.8333V51.6667H41.3333C39.9066 51.6667 38.75 50.5101 38.75 49.0833C38.75 47.6566 39.9066 46.5 41.3333 46.5H46.5V41.3333C46.5 39.9066 47.6566 38.75 49.0833 38.75Z" fill="url(#paint0_linear_6100_7567)"/>
<path d="M15.5 38.7503C15.5 37.3236 16.6566 36.167 18.0833 36.167H28.4167C29.8434 36.167 31 37.3236 31 38.7503C31 40.1771 29.8434 41.3337 28.4167 41.3337H18.0833C16.6566 41.3337 15.5 40.1771 15.5 38.7503Z" fill="url(#paint1_linear_6100_7567)"/>
<path d="M5.16675 20.667H56.8334V25.8337H5.16675V20.667Z" fill="url(#paint2_linear_6100_7567)"/>
<defs>
<linearGradient id="paint0_linear_6100_7567" x1="26.2963" y1="23.9176" x2="70.8013" y2="32.0542" gradientUnits="userSpaceOnUse">
<stop stop-color="#1990FE"/>
<stop offset="0.959949" stop-color="#5AB0FF"/>
</linearGradient>
<linearGradient id="paint1_linear_6100_7567" x1="6.15972" y1="32.4589" x2="32.6771" y2="47.003" gradientUnits="userSpaceOnUse">
<stop stop-color="#1990FE"/>
<stop offset="0.959949" stop-color="#5AB0FF"/>
</linearGradient>
<linearGradient id="paint2_linear_6100_7567" x1="-25.9675" y1="16.9589" x2="0.51059" y2="65.3676" gradientUnits="userSpaceOnUse">
<stop stop-color="#1990FE"/>
<stop offset="0.959949" stop-color="#5AB0FF"/>
</linearGradient>
</defs>
</svg>
