<svg width="76" height="76" viewBox="0 0 76 76" fill="none" xmlns="http://www.w3.org/2000/svg">
<g opacity="0.5">
<path d="M30.4571 9.5C28.0582 9.5 25.8652 10.8553 24.7924 13.001L23.3762 15.8333H19C13.7533 15.8333 9.5 20.0866 9.5 25.3333V57C9.5 62.2467 13.7533 66.5 19 66.5H57C62.2467 66.5 66.5 62.2467 66.5 57V25.3333C66.5 20.0866 62.2467 15.8333 57 15.8333H52.6238L51.2076 13.001C50.1348 10.8553 47.9418 9.5 45.5429 9.5H30.4571Z" fill="#C2C8D0"/>
<path fill-rule="evenodd" clip-rule="evenodd" d="M37.9999 47.5C41.4977 47.5 44.3333 44.6645 44.3333 41.1667C44.3333 37.6689 41.4977 34.8333 37.9999 34.8333C34.5021 34.8333 31.6666 37.6689 31.6666 41.1667C31.6666 44.6645 34.5021 47.5 37.9999 47.5ZM37.9999 53.8333C44.9955 53.8333 50.6666 48.1623 50.6666 41.1667C50.6666 34.1711 44.9955 28.5 37.9999 28.5C31.0043 28.5 25.3333 34.1711 25.3333 41.1667C25.3333 48.1623 31.0043 53.8333 37.9999 53.8333Z" fill="#49565E"/>
</g>
</svg>
