<svg width="43" height="43" viewBox="0 0 43 43" fill="none" xmlns="http://www.w3.org/2000/svg">
<path fill-rule="evenodd" clip-rule="evenodd" d="M41.5285 6.3263C42.758 5.09686 42.758 3.10355 41.5285 1.87411C40.2991 0.644666 38.3058 0.644666 37.0763 1.87411L21.7013 17.2492L6.32618 1.87411C5.09674 0.644669 3.10342 0.644669 1.87398 1.87411C0.644544 3.10355 0.644544 5.09686 1.87398 6.3263L17.2491 21.7014L1.87399 37.0764C0.644546 38.3059 0.644546 40.2992 1.87399 41.5286C3.10343 42.7581 5.09674 42.7581 6.32618 41.5286L21.7013 26.1536L37.0763 41.5286C38.3058 42.7581 40.2991 42.7581 41.5285 41.5286C42.758 40.2992 42.758 38.3059 41.5285 37.0764L26.1534 21.7014L41.5285 6.3263Z" fill="#758399"/>
</svg>
