<svg width="152" height="205" viewBox="0 0 152 205" fill="none" xmlns="http://www.w3.org/2000/svg">
<path d="M129.413 51.6807H118.912C115.515 42.6986 108.544 36.2638 99.8303 35.236C82.2684 33.2251 74.3142 45.0224 74.3142 45.0224C74.3142 45.0224 66.4046 33.2251 48.798 35.236C37.2242 36.5766 28.689 47.6142 27.5718 61.2883H17.562C17.9195 55.1216 19.5282 49.1782 22.3435 43.7264C27.7953 33.2251 37.0007 26.4774 47.6362 25.2708C49.3343 25.0921 51.0771 24.958 52.7305 24.958C61.8019 24.958 69.0411 27.9073 74.2695 31.4376C79.4978 27.9073 86.7371 24.958 95.8085 24.958C97.4619 24.958 99.16 25.0474 100.903 25.2708C111.538 26.4774 120.788 33.2251 126.195 43.7264C127.581 46.2736 128.609 48.9101 129.413 51.6807Z" fill="#EDFAFF"/>
<path d="M125.346 87.5635C125.212 87.8763 125.033 88.1891 124.855 88.4572C111.538 113.214 79.8104 128.05 78.4698 128.675L74.3139 130.597L70.1581 128.675C68.8621 128.094 38.6986 113.973 24.8457 90.334H36.7771C50.3172 108.522 74.2693 119.559 74.2693 119.559C74.2693 119.559 100.724 107.36 113.728 87.5635H125.346Z" fill="#EDFAFF"/>
<path d="M143.221 167.552C143.221 167.552 121.146 186.232 109.661 201.693C103.897 197.403 92.7697 188.511 93.7975 185.114C94.87 181.673 113.415 165.452 121.503 158.481C123.648 156.649 126.821 156.515 129.1 158.258C133.077 161.296 139.244 165.81 143.221 167.552Z" fill="#EDFAFF"/>
<path d="M120.386 159.509C120.386 159.509 119.537 147.31 102.288 139.802C85.0388 132.295 46.787 138.775 48.1276 150.214C49.4682 161.654 76.2355 156.202 82.6704 158.571" stroke="#2F80ED" stroke-width="0.894594" stroke-miterlimit="10" stroke-linecap="round" stroke-linejoin="round"/>
<path d="M51.2111 144.271C51.2111 144.271 48.2617 143.959 36.0623 132.698C23.8628 121.436 11.708 134.753 24.8906 151.108C38.0732 167.464 52.507 177.652 77.04 178.501C88.6139 178.904 92.6803 179.574 96.3447 181.719" stroke="#2F80ED" stroke-width="0.894594" stroke-miterlimit="10" stroke-linecap="round" stroke-linejoin="round"/>
<path d="M112.924 204.062C111.583 203.213 92.4571 189.583 93.7977 185.115C94.8702 181.674 113.415 165.453 121.504 158.481C123.648 156.605 126.821 156.515 129.1 158.258C133.39 161.52 140.183 166.436 144.07 167.91" stroke="#2F80ED" stroke-width="0.894594" stroke-miterlimit="10" stroke-linecap="round" stroke-linejoin="round"/>
<path d="M127.402 83.0059C126.642 84.838 125.793 86.6702 124.855 88.4576C111.538 113.214 79.8103 128.05 78.4697 128.676L74.3139 130.597L70.158 128.676C68.8174 128.05 37.0898 113.214 23.7732 88.4576C22.8794 86.8042 22.0751 85.1508 21.4048 83.4527" stroke="#EDFAFF" stroke-width="0.894594" stroke-miterlimit="10" stroke-linecap="round" stroke-linejoin="round"/>
<path d="M18.3664 73.1303C16.4895 62.9417 17.7854 52.6191 22.3882 43.7264C27.8399 33.2251 37.0454 26.4774 47.6809 25.2708C49.3789 25.0921 51.1217 24.958 52.7751 24.958C61.8465 24.958 69.0858 27.9073 74.3141 31.4376C79.5425 27.9073 86.7817 24.958 95.8531 24.958C97.5065 24.958 99.2493 25.0474 100.947 25.2708C111.583 26.4774 120.833 33.2251 126.24 43.7264C129.279 49.6251 130.932 56.194 131.111 62.897" stroke="#EDFAFF" stroke-width="0.894594" stroke-miterlimit="10" stroke-linecap="round" stroke-linejoin="round"/>
<path d="M29.6722 77.0177C22.8798 56.9533 33.0684 37.023 48.8428 35.2356C66.4047 33.2247 74.359 45.022 74.359 45.022C74.359 45.022 82.2685 33.2247 99.8751 35.2356C114.13 36.889 123.827 53.289 120.565 71.2084" stroke="#2F80ED" stroke-width="0.894594" stroke-miterlimit="10" stroke-linecap="round" stroke-linejoin="round"/>
<path d="M32.5322 83.6759C44.4189 105.796 74.3143 119.559 74.3143 119.559C74.3143 119.559 104.21 105.796 116.096 83.6759C117.258 81.5309 118.197 79.3413 118.956 77.1963" stroke="#2F80ED" stroke-width="0.894594" stroke-miterlimit="10" stroke-linecap="round" stroke-linejoin="round"/>
<path d="M61.165 89.2754L54.5338 82.6443C51.8956 80.006 51.8956 75.7992 54.5338 73.2322C57.172 70.594 61.3789 70.594 63.9458 73.2322L68.4379 77.7243C69.6501 78.9365 71.6466 78.9365 72.8587 77.7243L95.6044 54.9787C98.2426 52.3404 102.449 52.3404 105.016 54.9787C107.655 57.6169 107.655 61.8238 105.016 64.3907L80.0603 89.3467C74.8552 94.4806 66.3701 94.4806 61.165 89.2754Z" fill="#EDFAFF" stroke="#2F80ED" stroke-width="1.2" stroke-miterlimit="10" stroke-linecap="round" stroke-linejoin="round"/>
<path d="M5.005 29.8285C5.31781 28.9348 6.56906 28.9348 6.88188 29.8285C7.28406 31.0351 7.82031 32.2416 8.31188 32.7332C8.80344 33.2248 10.01 33.761 11.2166 34.1632C12.1103 34.476 12.1103 35.7273 11.2166 36.0401C10.01 36.4423 8.80344 36.9785 8.31188 37.4701C7.82031 37.9616 7.32875 39.1682 6.88188 40.3748C6.56906 41.2685 5.31781 41.2685 5.005 40.3748C4.60281 39.1682 4.06657 37.9616 3.575 37.4701C3.08344 36.9785 1.87688 36.4423 0.670313 36.0401C-0.223438 35.7273 -0.223438 34.476 0.670313 34.1632C1.87688 33.761 3.08344 33.2248 3.575 32.7332C4.06657 32.2416 4.55813 31.0351 5.005 29.8285Z" fill="#2F80ED"/>
<path d="M29.493 0.871406C29.8952 -0.290469 31.5486 -0.290469 31.9508 0.871406C32.4871 2.48016 33.1574 4.04422 33.8277 4.71453C34.498 5.38484 36.0621 6.05515 37.6261 6.5914C38.788 6.99359 38.788 8.64703 37.6261 9.04922C36.0621 9.58547 34.4533 10.2558 33.8277 10.9261C33.1574 11.5964 32.5318 13.1605 31.9508 14.7692C31.5486 15.9311 29.8952 15.9311 29.493 14.7692C28.9568 13.1605 28.2864 11.5964 27.6161 10.9261C26.9458 10.2558 25.3818 9.58547 23.8177 9.04922C22.6558 8.64703 22.6558 6.99359 23.8177 6.5914C25.3818 6.05515 26.9905 5.38484 27.6161 4.71453C28.2418 4.04422 28.9568 2.48016 29.493 0.871406Z" fill="#2F80ED"/>
<path d="M144.517 49.5798C144.83 48.6414 146.126 48.6414 146.438 49.5798C146.885 50.8311 147.377 52.0823 147.913 52.6186C148.449 53.1548 149.656 53.6464 150.907 54.0933C151.846 54.4061 151.846 55.702 150.907 56.0595C149.656 56.5064 148.405 57.0426 147.913 57.5342C147.377 58.0704 146.885 59.3217 146.438 60.5729C146.126 61.5114 144.83 61.5114 144.517 60.5729C144.07 59.3217 143.578 58.0704 143.042 57.5342C142.506 56.9979 141.299 56.5064 140.048 56.0595C139.11 55.7467 139.11 54.4508 140.048 54.0933C141.299 53.6464 142.551 53.1101 143.042 52.6186C143.578 52.0823 144.07 50.8311 144.517 49.5798Z" fill="#2F80ED"/>
</svg>
