<svg width="26" height="22" viewBox="0 0 26 22" fill="none" xmlns="http://www.w3.org/2000/svg">
<path d="M21.6332 15.1918L11.7971 16.8311C10.6913 17.0154 9.62496 16.3346 9.32684 15.2539L6.68088 5.66227H22.7971C24.2586 5.66227 25.3097 7.06703 24.8973 8.46915L23.3735 13.6501C23.1367 14.455 22.4608 15.0538 21.6332 15.1918Z" fill="#1890FF"/>
<path d="M1.09473 0.356225C0.582366 0.356225 0.167016 0.771575 0.167016 1.28394C0.167016 1.7963 0.582366 2.21165 1.09473 2.21165V0.356225ZM11.7971 16.8311L11.6446 15.916L11.7971 16.8311ZM21.6332 15.1918L21.4807 14.2767L21.6332 15.1918ZM23.3735 13.6501L22.4835 13.3883L23.3735 13.6501ZM24.8973 8.46915L25.7873 8.73092V8.73092L24.8973 8.46915ZM10.946 20.0587C10.4336 20.0587 10.0183 20.4741 10.0183 20.9864C10.0183 21.4988 10.4336 21.9141 10.946 21.9141V20.0587ZM12.0406 21.9141C12.5529 21.9141 12.9683 21.4988 12.9683 20.9864C12.9683 20.4741 12.5529 20.0587 12.0406 20.0587V21.9141ZM19.7026 20.0587C19.1903 20.0587 18.7749 20.4741 18.7749 20.9864C18.7749 21.4988 19.1903 21.9141 19.7026 21.9141V20.0587ZM20.7972 21.9141C21.3096 21.9141 21.7249 21.4988 21.7249 20.9864C21.7249 20.4741 21.3096 20.0587 20.7972 20.0587V21.9141ZM5.91637 2.89094L5.02206 3.13764V3.13764L5.91637 2.89094ZM9.32684 15.2539L10.2211 15.0072V15.0072L9.32684 15.2539ZM1.09473 2.21165H3.80603V0.356225H1.09473V2.21165ZM11.9496 17.7462L21.7857 16.1069L21.4807 14.2767L11.6446 15.916L11.9496 17.7462ZM24.2635 13.9119L25.7873 8.73092L24.0073 8.20738L22.4835 13.3883L24.2635 13.9119ZM10.946 21.9141H12.0406V20.0587H10.946V21.9141ZM19.7026 21.9141H20.7972V20.0587H19.7026V21.9141ZM5.02206 3.13764L5.78657 5.90897L7.57518 5.41556L6.81068 2.64423L5.02206 3.13764ZM5.78657 5.90897L8.43254 15.5006L10.2211 15.0072L7.57518 5.41556L5.78657 5.90897ZM22.7971 4.73456H6.68088V6.58998H22.7971V4.73456ZM25.7873 8.73092C26.3745 6.73462 24.8779 4.73456 22.7971 4.73456V6.58998C23.6392 6.58998 24.2449 7.39944 24.0073 8.20738L25.7873 8.73092ZM21.7857 16.1069C22.964 15.9105 23.9264 15.0579 24.2635 13.9119L22.4835 13.3883C22.3471 13.8521 21.9576 14.1972 21.4807 14.2767L21.7857 16.1069ZM11.6446 15.916C11.0074 16.0222 10.3929 15.6299 10.2211 15.0072L8.43254 15.5006C8.85699 17.0392 10.3752 18.0086 11.9496 17.7462L11.6446 15.916ZM3.80603 2.21165C4.37352 2.21165 4.87115 2.59059 5.02206 3.13764L6.81068 2.64423C6.4378 1.29254 5.20822 0.356225 3.80603 0.356225V2.21165Z" fill="#1890FF"/>
</svg>
