<svg width="50" height="50" viewBox="0 0 50 50" fill="none" xmlns="http://www.w3.org/2000/svg">
<path fill-rule="evenodd" clip-rule="evenodd" d="M49.8813 27.4514C49.86 27.6707 49.8358 27.8892 49.8088 28.1068C49.7817 28.3255 49.7518 28.5433 49.7191 28.7601C49.0119 28.6728 48.4993 28.037 48.5688 27.3236C48.6431 26.5595 48.6812 25.7844 48.6812 25C48.6812 24.2156 48.6431 23.4405 48.5688 22.6764C48.4993 21.963 49.0119 21.3272 49.7191 21.2399C49.7518 21.4567 49.7817 21.6746 49.8088 21.8932C49.8358 22.1108 49.86 22.3293 49.8813 22.5486C49.9598 23.3551 50 24.1729 50 25C50 25.8271 49.9598 26.6449 49.8813 27.4514ZM47.6675 31.8772C47.8753 31.1914 48.5914 30.799 49.2784 30.9877C49.2258 31.2016 49.1705 31.4144 49.1125 31.626C49.0542 31.8384 48.9933 32.0496 48.9297 32.2596C48.4506 33.8407 47.8192 35.3555 47.0525 36.787C46.9486 36.9809 46.8423 37.1733 46.7335 37.3641C46.6245 37.5552 46.5131 37.7448 46.3993 37.9327C45.7802 37.5801 45.5516 36.7961 45.8899 36.1643C46.6161 34.8086 47.214 33.3741 47.6675 31.8772ZM43.307 40.0229C43.7621 39.4691 44.5741 39.3815 45.1362 39.8195C45.0057 39.9965 44.8729 40.1717 44.7379 40.3451C44.6028 40.5186 44.4655 40.6903 44.326 40.8601C43.2865 42.1252 42.1252 43.2865 40.8601 44.326C40.6903 44.4655 40.5186 44.6028 40.3451 44.7379C40.1717 44.8729 39.9965 45.0057 39.8195 45.1362C39.3815 44.5741 39.4691 43.7621 40.0229 43.307C41.2217 42.3221 42.3221 41.2217 43.307 40.0229ZM36.1643 45.89C36.7961 45.5516 37.5801 45.7802 37.9327 46.3993C37.7448 46.5131 37.5552 46.6245 37.3641 46.7335C37.1733 46.8423 36.9809 46.9486 36.787 47.0525C35.3555 47.8192 33.8407 48.4506 32.2596 48.9297C32.0495 48.9933 31.8384 49.0542 31.626 49.1125C31.4144 49.1705 31.2016 49.2258 30.9877 49.2784C30.799 48.5914 31.1914 47.8753 31.8772 47.6675C33.3741 47.214 34.8086 46.6161 36.1643 45.89ZM27.3236 48.5688C28.037 48.4993 28.6728 49.0119 28.7601 49.7191C28.5433 49.7518 28.3254 49.7817 28.1068 49.8088C27.8892 49.8358 27.6707 49.86 27.4514 49.8813C26.6449 49.9598 25.8271 50 25 50C24.1729 50 23.3551 49.9598 22.5486 49.8813C22.3293 49.86 22.1108 49.8358 21.8932 49.8088C21.6745 49.7817 21.4567 49.7518 21.2399 49.7191C21.3272 49.0119 21.963 48.4993 22.6764 48.5688C23.4405 48.6431 24.2156 48.6812 25 48.6812C25.7844 48.6812 26.5595 48.6431 27.3236 48.5688ZM18.1228 47.6675C18.8086 47.8753 19.201 48.5914 19.0123 49.2784C18.7984 49.2258 18.5856 49.1705 18.374 49.1125C18.1616 49.0542 17.9504 48.9933 17.7404 48.9297C16.1593 48.4506 14.6445 47.8192 13.213 47.0525C13.0191 46.9486 12.8267 46.8423 12.6359 46.7335C12.4448 46.6245 12.2552 46.5131 12.0673 46.3993C12.4199 45.7802 13.2039 45.5516 13.8357 45.8899C15.1914 46.6161 16.6259 47.214 18.1228 47.6675ZM9.97712 43.307C10.5309 43.7621 10.6185 44.5741 10.1805 45.1362C10.0035 45.0057 9.82826 44.8729 9.65485 44.7379C9.48137 44.6028 9.30971 44.4655 9.13992 44.326C7.87476 43.2865 6.71348 42.1252 5.674 40.8601C5.5345 40.6903 5.39719 40.5186 5.26212 40.3451C5.12711 40.1717 4.99433 39.9965 4.86384 39.8195C5.42588 39.3815 6.23794 39.4691 6.69296 40.0229C7.67791 41.2217 8.77832 42.3221 9.97712 43.307ZM4.11005 36.1643C4.44844 36.7961 4.21982 37.5801 3.6007 37.9327C3.48688 37.7448 3.37547 37.5552 3.26651 37.3641C3.15773 37.1733 3.05138 36.9809 2.94752 36.787C2.18078 35.3555 1.54935 33.8407 1.07033 32.2596C1.0067 32.0495 0.945755 31.8384 0.887542 31.626C0.829511 31.4144 0.774193 31.2016 0.721626 30.9877C1.40856 30.799 2.12467 31.1914 2.33245 31.8772C2.78599 33.3741 3.38387 34.8086 4.11005 36.1643ZM1.43124 27.3236C1.50066 28.037 0.988069 28.6728 0.280904 28.7601C0.248188 28.5433 0.218257 28.3254 0.191151 28.1068C0.164178 27.8892 0.140001 27.6707 0.118658 27.4514C0.0401675 26.6449 0 25.8271 0 25C0 24.1729 0.0401677 23.3551 0.118659 22.5486C0.140002 22.3293 0.164179 22.1108 0.191152 21.8932C0.218258 21.6745 0.248189 21.4567 0.280905 21.2399C0.98807 21.3272 1.50066 21.963 1.43124 22.6764C1.35687 23.4405 1.31878 24.2156 1.31878 25C1.31878 25.7844 1.35687 26.5595 1.43124 27.3236ZM2.33246 18.1228C2.12467 18.8086 1.40856 19.201 0.721628 19.0123C0.774194 18.7984 0.829513 18.5856 0.887543 18.374C0.945757 18.1616 1.0067 17.9504 1.07033 17.7404C1.54936 16.1593 2.18079 14.6445 2.94753 13.213C3.05139 13.0191 3.15773 12.8267 3.26652 12.6359C3.37548 12.4448 3.48689 12.2552 3.6007 12.0673C4.21982 12.4199 4.44844 13.2039 4.11005 13.8357C3.38387 15.1914 2.78599 16.6259 2.33246 18.1228ZM6.69296 9.97712C6.23794 10.5309 5.42589 10.6185 4.86384 10.1805C4.99434 10.0035 5.12711 9.82826 5.26212 9.65485C5.39719 9.48137 5.5345 9.30971 5.674 9.13992C6.71348 7.87476 7.87476 6.71348 9.13993 5.674C9.30971 5.5345 9.48137 5.39719 9.65486 5.26212C9.82827 5.12711 10.0035 4.99433 10.1805 4.86384C10.6185 5.42588 10.5309 6.23794 9.97712 6.69296C8.77832 7.67791 7.67792 8.77832 6.69296 9.97712ZM13.8357 4.11005C13.2039 4.44844 12.4199 4.21982 12.0673 3.6007C12.2552 3.48688 12.4448 3.37547 12.6359 3.26651C12.8267 3.15773 13.0191 3.05139 13.213 2.94752C14.6445 2.18078 16.1593 1.54935 17.7404 1.07033C17.9505 1.0067 18.1616 0.945755 18.374 0.887542C18.5856 0.829511 18.7984 0.774193 19.0123 0.721626C19.201 1.40856 18.8086 2.12467 18.1228 2.33245C16.6259 2.78599 15.1914 3.38387 13.8357 4.11005ZM22.6764 1.43124C21.963 1.50066 21.3272 0.988069 21.2399 0.280904C21.4567 0.248188 21.6746 0.218257 21.8932 0.191151C22.1108 0.164178 22.3293 0.140001 22.5486 0.118658C23.3551 0.0401675 24.1729 0 25 0C25.8271 0 26.6449 0.0401677 27.4514 0.118659C27.6707 0.140002 27.8892 0.164179 28.1068 0.191152C28.3255 0.218258 28.5433 0.248189 28.7601 0.280905C28.6728 0.98807 28.037 1.50066 27.3236 1.43124C26.5595 1.35687 25.7844 1.31878 25 1.31878C24.2156 1.31878 23.4405 1.35687 22.6764 1.43124ZM31.8772 2.33246C31.1914 2.12467 30.799 1.40856 30.9877 0.721628C31.2016 0.774194 31.4144 0.829513 31.626 0.887543C31.8384 0.945757 32.0496 1.0067 32.2596 1.07033C33.8407 1.54936 35.3555 2.18079 36.787 2.94753C36.9809 3.05139 37.1733 3.15773 37.3641 3.26652C37.5552 3.37548 37.7448 3.48689 37.9327 3.6007C37.5801 4.21982 36.7961 4.44844 36.1643 4.11005C34.8086 3.38387 33.3741 2.78599 31.8772 2.33246ZM40.0229 6.69296C39.4691 6.23794 39.3815 5.42589 39.8195 4.86384C39.9965 4.99434 40.1717 5.12711 40.3451 5.26213C40.5186 5.39719 40.6903 5.5345 40.8601 5.674C42.1252 6.71348 43.2865 7.87477 44.326 9.13993C44.4655 9.30971 44.6028 9.48137 44.7379 9.65486C44.8729 9.82827 45.0057 10.0035 45.1362 10.1805C44.5741 10.6185 43.7621 10.5309 43.307 9.97712C42.3221 8.77832 41.2217 7.67792 40.0229 6.69296ZM45.89 13.8357C45.5516 13.2039 45.7802 12.4199 46.3993 12.0673C46.5131 12.2552 46.6245 12.4448 46.7335 12.6359C46.8423 12.8267 46.9486 13.0191 47.0525 13.213C47.8192 14.6445 48.4506 16.1593 48.9297 17.7404C48.9933 17.9505 49.0542 18.1616 49.1125 18.374C49.1705 18.5856 49.2258 18.7984 49.2784 19.0123C48.5914 19.201 47.8753 18.8086 47.6675 18.1228C47.214 16.6259 46.6161 15.1914 45.89 13.8357ZM25.4159 17.3235C25.8632 17.3235 26.2257 17.6861 26.2257 18.1333V24.8333H32.927C33.3742 24.8333 33.7368 25.1959 33.7368 25.6431C33.7368 26.0904 33.3742 26.453 32.927 26.453H26.2257V32.6179C26.2257 33.0651 25.8632 33.4277 25.4159 33.4277C24.9687 33.4277 24.6061 33.0651 24.6061 32.6179V26.453H18.4424C17.9951 26.453 17.6326 26.0904 17.6326 25.6431C17.6326 25.1959 17.9951 24.8333 18.4424 24.8333H24.6061V18.1333C24.6061 17.6861 24.9687 17.3235 25.4159 17.3235Z" fill="#C2C8D0"/>
</svg>
