<svg width="208" height="174" viewBox="0 0 208 174" fill="none" xmlns="http://www.w3.org/2000/svg">
<path d="M107.092 169C151.225 169 187.092 133.132 187.092 89C187.092 44.8678 151.225 9 107.092 9C62.7948 9 27.0923 44.7025 27.0923 89C27.0923 133.132 62.7948 169 107.092 169Z" fill="#F7FAFF"/>
<path d="M64.478 70.2832H146.2C149.261 70.2832 152.016 72.8848 152.016 76.0986V127.672C152.016 130.733 149.414 133.488 146.2 133.488H64.478C61.4173 133.488 58.6626 130.886 58.6626 127.672V76.0986C58.6626 72.8848 61.4173 70.2832 64.478 70.2832Z" fill="url(#paint0_linear_6214_8798)"/>
<path d="M185.658 71.8618C187.754 69.9062 187.893 66.6936 185.938 64.5983C183.982 62.5031 180.769 62.3634 178.674 64.319C176.579 66.2745 176.439 69.4872 178.395 71.5824C180.211 73.538 183.563 73.8173 185.658 71.8618Z" fill="#EAEEF9"/>
<path d="M185.938 48.8148C186.776 47.9767 186.915 46.5799 186.077 45.7418C185.239 44.9037 183.842 44.764 183.004 45.6021C182.166 46.4402 182.026 47.837 182.865 48.6751C183.703 49.6529 185.099 49.6529 185.938 48.8148Z" fill="#EAEEF9"/>
<path d="M131.043 17.1062C131.601 16.5475 131.741 15.5697 131.182 15.011C130.624 14.4523 129.646 14.3126 129.087 14.8713C128.528 15.43 128.389 16.4078 128.947 16.9665C129.506 17.5253 130.484 17.6649 131.043 17.1062Z" fill="#EAEEF9"/>
<g filter="url(#filter0_d_6214_8798)">
<path d="M181.705 43.0424L161.351 79.3124C160.585 80.5367 159.055 80.9958 157.984 80.2306L123.091 59.8766C121.867 59.1114 121.408 57.581 122.173 56.5098L148.955 10.2923C149.72 9.06802 151.25 8.6089 152.321 9.37409L177.573 24.0657L181.705 43.0424Z" fill="#F2F6FA"/>
</g>
<path d="M177.573 24.0664L171.757 33.8608C170.992 35.3912 171.451 36.9216 172.829 37.8398L181.552 42.8901" fill="#D5DAE6"/>
<path d="M153.546 33.5534C154.158 33.4004 154.77 33.4004 155.229 33.4004C155.841 33.4004 156.454 33.4004 157.066 33.4004C157.678 33.5534 158.443 33.7065 159.055 33.8595C159.82 34.1656 160.433 34.4717 161.045 34.7777C161.963 35.2368 162.728 35.849 163.34 36.6142C163.952 37.2263 164.412 37.9915 164.718 38.9098C165.024 39.6749 165.024 40.5932 165.024 41.3584C164.871 42.2766 164.565 43.1948 164.105 43.96C163.646 44.7252 163.187 45.3373 162.575 45.9495C161.963 46.4086 161.504 46.7147 160.739 47.0208C160.126 47.3268 159.514 47.4799 158.902 47.4799L157.219 47.6329C156.76 47.6329 156.301 47.786 155.688 47.939C155.229 48.092 154.923 48.2451 154.617 48.5511L152.934 50.6937L150.179 49.1633L151.403 46.4086C151.556 45.9495 152.015 45.4904 152.322 45.1843C152.781 44.8782 153.24 44.7252 153.699 44.5722C154.311 44.4191 154.77 44.4191 155.382 44.2661C155.994 44.2661 156.607 44.113 157.219 43.96C157.831 43.807 158.29 43.6539 158.902 43.3479C159.514 43.0418 159.82 42.5827 160.126 41.9705C160.28 41.6644 160.433 41.2053 160.586 40.7462C160.586 40.2871 160.586 39.981 160.433 39.6749C160.28 39.2158 160.126 38.9098 159.82 38.6037C159.514 38.2976 159.208 37.9915 158.749 37.6855C158.29 37.3794 157.678 37.0733 157.066 36.9203C156.607 36.7672 156.147 36.7672 155.688 36.7672C155.229 36.7672 154.923 36.7672 154.617 36.7672C154.464 36.7672 154.158 36.7672 154.005 36.6142C153.699 36.4611 153.393 36.002 153.393 35.696L153.546 33.5534ZM145.741 53.7544C145.894 53.4484 146.2 53.1423 146.506 52.8362C146.812 52.6832 147.118 52.3771 147.424 52.3771C148.19 52.2241 148.955 52.2241 149.567 52.6832C149.873 52.8362 150.179 53.1423 150.485 53.4484C150.638 53.7544 150.791 54.0605 150.944 54.3666C151.403 55.897 150.485 57.2743 148.955 57.7334C148.19 57.8865 147.424 57.7334 146.812 57.4273C146.506 57.2743 146.2 56.9682 145.894 56.6621C145.741 56.3561 145.435 56.05 145.435 55.7439C145.282 55.4378 145.282 54.9787 145.435 54.6727C145.435 54.3666 145.588 54.0605 145.741 53.7544Z" fill="#CED6E2"/>
<g filter="url(#filter1_d_6214_8798)">
<path d="M50.8576 27.2796L74.1193 51.6126C74.8845 52.5308 74.8845 53.7551 73.9663 54.5203L50.2454 77.0169C49.3272 77.7821 48.1029 77.7821 47.3377 76.8638L17.6484 45.4911C16.8832 44.5728 16.8832 43.3485 17.8014 42.5833L35.0947 26.3613L50.8576 27.2796Z" fill="#F2F6FA"/>
</g>
<path d="M34.9417 26.0547L41.3692 32.7884C42.2875 33.7066 43.8178 33.7066 44.7361 32.7884L50.7046 27.126" fill="#D5DAE6"/>
<path d="M36.7781 47.0216C36.7781 46.5625 36.9311 46.1034 37.0842 45.6443C37.2372 45.1851 37.3902 44.726 37.5433 44.2669C37.6963 43.8078 38.0024 43.3487 38.3085 42.8896C38.6145 42.4305 39.0736 41.9713 39.5328 41.5122C40.1449 40.9001 40.7571 40.441 41.5223 40.1349C42.1344 39.8288 42.8996 39.6758 43.5117 39.6758C44.1239 39.6758 44.8891 39.8288 45.5012 39.9819C46.1134 40.2879 46.7255 40.747 47.3377 41.2062C47.7968 41.6653 48.2559 42.2774 48.409 42.8896C48.562 43.3487 48.715 43.9608 48.8681 44.573C48.8681 45.0321 48.8681 45.6443 48.8681 46.1034C48.715 46.5625 48.715 47.0216 48.562 47.4807C48.562 47.9398 48.409 48.2459 48.409 48.705C48.409 49.0111 48.409 49.3172 48.715 49.6232L49.9393 51.4597L48.1029 53.1431L46.2664 51.4597C45.9604 51.1536 45.6543 50.8475 45.5012 50.3884C45.3482 49.9293 45.3482 49.6232 45.3482 49.1641C45.3482 48.705 45.5012 48.2459 45.5012 47.7868C45.6543 47.3277 45.6543 46.8686 45.6543 46.4094C45.6543 45.9503 45.6543 45.4912 45.5012 45.0321C45.3482 44.573 45.0421 44.1139 44.736 43.6548C44.583 43.3487 44.2769 43.1957 43.9709 43.0426C43.6648 42.8896 43.3587 42.8896 43.0526 42.8896C42.7466 42.8896 42.4405 43.0426 42.1344 43.1957C41.8283 43.3487 41.5223 43.5017 41.2162 43.8078C40.9101 44.1139 40.604 44.573 40.2979 44.8791C40.1449 45.1851 39.9919 45.4912 39.8388 45.9503C39.6858 46.2564 39.6858 46.5625 39.6858 46.7155C39.6858 46.8686 39.5328 47.0216 39.3797 47.1746C39.2267 47.4807 38.7676 47.4807 38.4615 47.3277L36.7781 47.0216ZM50.8576 57.7343C50.7045 57.5812 50.5515 57.2751 50.3984 56.9691C50.2454 56.663 50.2454 56.3569 50.2454 56.0508C50.2454 55.4387 50.5515 54.8265 51.0106 54.3674C51.1636 54.2144 51.4697 54.0613 51.7758 53.9083C52.0819 53.7553 52.3879 53.7553 52.694 53.7553C53.6122 53.7553 54.5305 54.3674 54.8365 55.2856C54.9896 55.5917 54.9896 55.8978 54.9896 56.2039C54.9896 56.51 54.8365 56.816 54.8365 57.1221C54.6835 57.4282 54.5305 57.5812 54.2244 57.8873C54.0714 58.0403 53.7653 58.3464 53.4592 58.3464C52.8471 58.4994 52.2349 58.4994 51.7758 58.3464C51.3167 58.1934 51.0106 58.0403 50.8576 57.7343Z" fill="#CED6E2"/>
<g filter="url(#filter2_d_6214_8798)">
<path d="M111.614 65.5384L102.584 97.8293C102.278 98.9006 101.054 99.6658 99.9827 99.2067L68.6099 90.0244C67.5387 89.7183 66.7735 88.494 67.2326 87.4228L79.4756 45.7965C79.7817 44.7252 81.006 43.96 82.0773 44.4191L104.88 51.1528L111.614 65.5384Z" fill="#F2F6FA"/>
</g>
<path d="M104.883 51.209L101.972 60.3346C101.666 61.5589 102.431 62.9363 103.655 63.2423L111.727 65.5231" fill="#D5DAE6"/>
<path d="M87.5868 63.5484C88.0459 63.3954 88.505 63.2423 88.9641 63.0893C89.4232 62.9362 89.8824 62.7832 90.4945 62.7832C91.1067 62.7832 91.5658 62.7832 92.1779 62.7832C92.7901 62.7832 93.4022 62.9362 94.0144 63.0893C94.7796 63.2423 95.5448 63.7014 96.1569 64.1605C96.7691 64.6197 97.2282 65.0788 97.6873 65.6909C97.9934 66.3031 98.2994 66.9152 98.4525 67.5274C98.6055 68.2926 98.4525 69.0578 98.2994 69.6699C98.1464 70.2821 97.8403 70.8942 97.3812 71.5064C97.0751 71.9655 96.616 72.4246 96.1569 72.7307C95.6978 73.0367 95.2387 73.3428 94.7796 73.4959L93.4022 73.955C93.0962 74.108 92.637 74.261 92.331 74.4141C92.0249 74.5671 91.7188 74.8732 91.7188 75.1793L90.8006 77.1688L88.352 76.0975L88.8111 73.6489C88.8111 73.1898 89.1172 72.8837 89.4232 72.5776C89.7293 72.2716 90.0354 71.9655 90.4945 71.8124C90.9536 71.6594 91.4127 71.5064 91.7188 71.3533C92.1779 71.2003 92.637 71.0473 93.0962 70.7412C93.5553 70.5881 93.8613 70.2821 94.3205 69.976C94.6265 69.6699 94.9326 69.2108 95.0856 68.5986C95.0856 68.4456 95.0856 68.1395 95.0856 67.8335C95.0856 67.5274 94.9326 67.2213 94.7796 66.9152C94.6265 66.6092 94.3205 66.4561 94.0144 66.15C93.7083 65.997 93.4022 65.844 92.9431 65.6909C92.484 65.5379 92.0249 65.5379 91.4127 65.5379C91.1067 65.5379 90.6476 65.5379 90.3415 65.6909C90.0354 65.6909 89.7293 65.844 89.5763 65.844C89.4232 65.844 89.2702 65.997 88.9641 65.844C88.6581 65.844 88.352 65.5379 88.352 65.2318L87.5868 63.5484ZM85.2912 81.1478C85.4443 80.8417 85.4443 80.5356 85.7503 80.3826C85.9034 80.0765 86.2094 79.9235 86.3625 79.7704C86.9746 79.4643 87.5868 79.4643 88.0459 79.6174C88.352 79.7704 88.6581 79.9234 88.8111 80.0765C88.9641 80.2295 89.2702 80.5356 89.4232 80.6886C90.0354 81.7599 89.5763 83.1372 88.505 83.5964C87.8929 83.9024 87.2807 83.9024 86.8216 83.7494C86.5155 83.5964 86.2094 83.5964 86.0564 83.2903C85.7503 83.1372 85.5973 82.8312 85.4443 82.6781C85.2912 82.3721 85.2912 82.219 85.1382 81.9129C85.2912 81.7599 85.2912 81.4538 85.2912 81.1478Z" fill="#CED6E2"/>
<g filter="url(#filter3_d_6214_8798)">
<path d="M185.378 120.786L155.689 136.855C154.77 137.314 153.393 137.008 152.934 135.937L138.089 107.013C137.63 106.094 137.936 104.717 139.007 104.258L177.573 83.9039C178.491 83.4448 179.869 83.7508 180.328 84.8221L191.04 105.788L185.378 120.786Z" fill="#F2F6FA"/>
</g>
<path d="M190.887 106.094L182.623 110.379C181.552 110.991 181.093 112.521 181.552 113.593L185.225 120.938" fill="#D5DAE6"/>
<path d="M170.38 102.115C170.839 102.268 171.145 102.574 171.604 102.727C172.064 102.88 172.37 103.186 172.829 103.646C173.288 104.105 173.594 104.411 173.9 104.87C174.359 105.329 174.665 105.788 174.971 106.4C175.43 107.012 175.583 107.931 175.583 108.543C175.736 109.308 175.583 109.92 175.583 110.685C175.43 111.298 175.124 111.91 174.818 112.522C174.359 113.134 173.747 113.593 173.135 113.899C172.676 114.205 171.91 114.358 171.298 114.511C170.839 114.664 170.074 114.664 169.615 114.511C169.156 114.358 168.544 114.358 168.085 114.052L166.86 113.44C166.554 113.287 166.095 113.134 165.789 112.981C165.483 112.828 165.024 112.828 164.871 113.134L162.881 113.899L161.81 111.604L163.799 110.226C164.106 109.92 164.565 109.92 165.024 109.92C165.483 109.92 165.789 109.92 166.248 110.073C166.707 110.226 167.013 110.532 167.319 110.685C167.778 110.838 168.085 111.144 168.697 111.298C169.156 111.451 169.462 111.451 170.074 111.604C170.533 111.604 170.992 111.451 171.604 111.144C172.064 110.838 172.676 110.379 172.676 109.614C172.829 109.308 172.676 109.002 172.676 108.543C172.523 108.237 172.523 107.931 172.217 107.472C172.064 107.012 171.757 106.706 171.451 106.247C171.298 106.094 170.992 105.788 170.686 105.635C170.533 105.482 170.227 105.329 170.074 105.176C169.921 105.023 169.768 105.023 169.615 104.717C169.462 104.564 169.462 104.105 169.615 103.952L170.38 102.115ZM156.148 112.675C156.454 112.522 156.607 112.369 157.066 112.522C157.372 112.369 157.678 112.522 157.831 112.522C158.443 112.675 158.902 113.134 159.055 113.593C159.208 113.899 159.208 114.205 159.208 114.511C159.208 114.664 159.208 115.123 159.208 115.276C159.055 115.736 158.596 116.348 158.137 116.501C157.831 116.654 157.525 116.654 157.219 116.654C157.066 116.654 156.607 116.654 156.454 116.654C155.842 116.501 155.382 116.042 155.229 115.583C155.076 115.276 155.076 114.97 155.076 114.664C154.923 114.358 155.076 114.052 155.076 113.899C155.229 113.593 155.382 113.44 155.382 113.134C155.535 112.981 155.995 112.981 156.148 112.675Z" fill="#CED6E2"/>
<path d="M153.546 103.492V128.896C153.546 132.11 150.791 134.865 147.578 134.865H63.5598C60.346 134.865 57.5913 132.11 57.5913 128.896V101.35" stroke="#1676EE" stroke-width="2.30769" stroke-linecap="round" stroke-linejoin="round"/>
<path d="M150.332 87.1172H121.561C118.806 87.1172 116.052 88.0354 113.909 89.8719L106.257 95.9934C104.115 97.6768 101.36 98.7481 98.6053 98.7481H65.8552C62.6414 98.7481 59.8867 101.35 59.8867 104.717C59.8867 105.023 59.8867 105.329 60.0398 105.635L66.0082 137.008C66.4673 139.915 69.069 142.211 71.9767 142.211H141.915C144.976 142.211 147.424 140.068 147.884 137.161L156.301 94.0039C156.76 90.7901 154.617 87.7293 151.25 87.2702C150.944 87.1172 150.638 87.1172 150.332 87.1172Z" fill="white"/>
<g filter="url(#filter4_d_6214_8798)">
<path d="M158.29 81.4551H124.01C120.796 81.4551 117.429 82.6794 114.981 84.6689L105.798 92.1677C103.197 94.3103 99.9829 95.3815 96.7691 95.3815H57.4384C53.6124 95.3815 50.2456 98.4423 50.2456 102.574C50.2456 102.88 50.2456 103.339 50.3986 103.646L57.5914 141.752C58.2036 145.272 61.1113 148.027 64.7842 148.027H148.19C151.71 148.027 154.77 145.425 155.383 141.905L165.33 89.7191C165.942 85.8932 163.341 82.0672 159.362 81.4551C159.056 81.4551 158.596 81.4551 158.29 81.4551Z" fill="url(#paint1_linear_6214_8798)"/>
</g>
<defs>
<filter id="filter0_d_6214_8798" x="104.876" y="0.538462" width="93.7519" height="105.452" filterUnits="userSpaceOnUse" color-interpolation-filters="sRGB">
<feFlood flood-opacity="0" result="BackgroundImageFix"/>
<feColorMatrix in="SourceAlpha" type="matrix" values="0 0 0 0 0 0 0 0 0 0 0 0 0 0 0 0 0 0 127 0" result="hardAlpha"/>
<feOffset dy="8.46154"/>
<feGaussianBlur stdDeviation="8.46154"/>
<feColorMatrix type="matrix" values="0 0 0 0 0.397708 0 0 0 0 0.47749 0 0 0 0 0.575 0 0 0 0.27 0"/>
<feBlend mode="normal" in2="BackgroundImageFix" result="effect1_dropShadow_6214_8798"/>
<feBlend mode="normal" in="SourceGraphic" in2="effect1_dropShadow_6214_8798" result="shape"/>
</filter>
<filter id="filter1_d_6214_8798" x="0.169209" y="17.8998" width="91.4292" height="85.0571" filterUnits="userSpaceOnUse" color-interpolation-filters="sRGB">
<feFlood flood-opacity="0" result="BackgroundImageFix"/>
<feColorMatrix in="SourceAlpha" type="matrix" values="0 0 0 0 0 0 0 0 0 0 0 0 0 0 0 0 0 0 127 0" result="hardAlpha"/>
<feOffset dy="8.46154"/>
<feGaussianBlur stdDeviation="8.46154"/>
<feColorMatrix type="matrix" values="0 0 0 0 0.397708 0 0 0 0 0.47749 0 0 0 0 0.575 0 0 0 0.27 0"/>
<feBlend mode="normal" in2="BackgroundImageFix" result="effect1_dropShadow_6214_8798"/>
<feBlend mode="normal" in="SourceGraphic" in2="effect1_dropShadow_6214_8798" result="shape"/>
</filter>
<filter id="filter2_d_6214_8798" x="50.1736" y="35.8217" width="78.363" height="88.9047" filterUnits="userSpaceOnUse" color-interpolation-filters="sRGB">
<feFlood flood-opacity="0" result="BackgroundImageFix"/>
<feColorMatrix in="SourceAlpha" type="matrix" values="0 0 0 0 0 0 0 0 0 0 0 0 0 0 0 0 0 0 127 0" result="hardAlpha"/>
<feOffset dy="8.46154"/>
<feGaussianBlur stdDeviation="8.46154"/>
<feColorMatrix type="matrix" values="0 0 0 0 0.397708 0 0 0 0 0.47749 0 0 0 0 0.575 0 0 0 0.27 0"/>
<feBlend mode="normal" in2="BackgroundImageFix" result="effect1_dropShadow_6214_8798"/>
<feBlend mode="normal" in="SourceGraphic" in2="effect1_dropShadow_6214_8798" result="shape"/>
</filter>
<filter id="filter3_d_6214_8798" x="120.959" y="75.2357" width="87.0039" height="87.2114" filterUnits="userSpaceOnUse" color-interpolation-filters="sRGB">
<feFlood flood-opacity="0" result="BackgroundImageFix"/>
<feColorMatrix in="SourceAlpha" type="matrix" values="0 0 0 0 0 0 0 0 0 0 0 0 0 0 0 0 0 0 127 0" result="hardAlpha"/>
<feOffset dy="8.46154"/>
<feGaussianBlur stdDeviation="8.46154"/>
<feColorMatrix type="matrix" values="0 0 0 0 0.397708 0 0 0 0 0.47749 0 0 0 0 0.575 0 0 0 0.27 0"/>
<feBlend mode="normal" in2="BackgroundImageFix" result="effect1_dropShadow_6214_8798"/>
<feBlend mode="normal" in="SourceGraphic" in2="effect1_dropShadow_6214_8798" result="shape"/>
</filter>
<filter id="filter4_d_6214_8798" x="33.3225" y="72.9935" width="149.02" height="100.418" filterUnits="userSpaceOnUse" color-interpolation-filters="sRGB">
<feFlood flood-opacity="0" result="BackgroundImageFix"/>
<feColorMatrix in="SourceAlpha" type="matrix" values="0 0 0 0 0 0 0 0 0 0 0 0 0 0 0 0 0 0 127 0" result="hardAlpha"/>
<feOffset dy="8.46154"/>
<feGaussianBlur stdDeviation="8.46154"/>
<feColorMatrix type="matrix" values="0 0 0 0 0.397708 0 0 0 0 0.47749 0 0 0 0 0.575 0 0 0 0.27 0"/>
<feBlend mode="normal" in2="BackgroundImageFix" result="effect1_dropShadow_6214_8798"/>
<feBlend mode="normal" in="SourceGraphic" in2="effect1_dropShadow_6214_8798" result="shape"/>
</filter>
<linearGradient id="paint0_linear_6214_8798" x1="105.339" y1="74.9299" x2="105.339" y2="98.8215" gradientUnits="userSpaceOnUse">
<stop stop-color="#B0BACC"/>
<stop offset="1" stop-color="#969EAE"/>
</linearGradient>
<linearGradient id="paint1_linear_6214_8798" x1="107.795" y1="79.9152" x2="107.795" y2="148.744" gradientUnits="userSpaceOnUse">
<stop stop-color="#FDFEFF"/>
<stop offset="0.9964" stop-color="#ECF0F5"/>
</linearGradient>
</defs>
</svg>
