<svg width="285" height="266" viewBox="0 0 285 266" fill="none" xmlns="http://www.w3.org/2000/svg">
<path d="M269.973 132.548C269.973 162.548 259.973 190.367 243.216 212.731C234.027 224.731 222.946 235.367 210.243 243.549C189.703 257.186 165.108 265.095 138.622 265.095C65.9189 265.095 7 205.64 7 132.548C7 59.1827 65.9189 0 138.351 0C164.838 0 189.432 7.90921 209.973 21.2731C222.676 29.455 233.757 40.0915 242.946 52.0917C259.973 74.7284 269.973 102.274 269.973 132.548Z" fill="#EAEEF9"/>
<path d="M77.0001 32.4548C79.4325 32.4548 81.5947 30.5456 81.5947 27.8183C81.5947 25.3637 79.7028 23.1819 77.0001 23.1819C74.5677 23.1819 72.4055 25.091 72.4055 27.8183C72.4055 30.5456 74.5677 32.4548 77.0001 32.4548Z" fill="url(#paint0_linear_7196_8860)"/>
<path d="M217.27 253.095C219.703 253.095 221.865 251.186 221.865 248.458C221.865 245.731 219.973 243.822 217.27 243.822C214.838 243.822 212.676 245.731 212.676 248.458C212.676 251.186 214.838 253.095 217.27 253.095Z" fill="url(#paint1_linear_7196_8860)"/>
<path d="M243.757 27.819C246.189 27.819 248.081 25.9098 248.081 23.4553C248.081 21.0007 246.189 19.0916 243.757 19.0916C241.325 19.0916 239.433 21.0007 239.433 23.4553C239.433 25.9098 241.325 27.819 243.757 27.819Z" fill="url(#paint2_linear_7196_8860)"/>
<path opacity="0.8" d="M259.973 173.185C261.594 173.185 262.675 171.821 262.675 170.457C262.675 169.094 261.324 167.73 259.973 167.73C258.351 167.73 257.27 169.094 257.27 170.457C257.27 171.821 258.351 173.185 259.973 173.185Z" fill="white"/>
<path opacity="0.5" d="M267.811 173.185C269.432 173.185 270.513 171.821 270.513 170.457C270.513 169.094 269.162 167.73 267.811 167.73C266.189 167.73 265.108 169.094 265.108 170.457C265.108 171.821 266.189 173.185 267.811 173.185Z" fill="white"/>
<g filter="url(#filter0_d_7196_8860)">
<path d="M251.054 132.547C251.054 147.002 262.405 159.002 276.73 159.548V190.367C276.73 196.367 271.865 201.276 265.919 201.276H216.189C215.919 201.276 215.919 201.003 215.919 201.003C195.919 201.003 170.784 180.821 167.541 155.73C167.541 155.73 167.541 154.639 167.541 154.366C167.27 154.639 167 155.184 167 155.73C161.054 167.73 165.108 162.002 142.676 188.185C124.027 200.73 123.486 200.458 123.486 200.458C121.324 200.73 120.514 201.003 117.541 201.276C114.297 201.276 129.162 201.276 19.4324 201.276C13.4864 201.276 8.62158 196.367 8.62158 190.367V74.7284C8.62158 68.7283 13.4864 63.8191 19.4324 63.8191H265.919C271.865 63.8191 276.73 68.7283 276.73 74.7284V105.547C262.676 106.092 251.054 118.093 251.054 132.547Z" fill="url(#paint3_linear_7196_8860)"/>
</g>
<path d="M276.73 105.547V74.7284C276.73 68.7283 271.865 63.8191 265.919 63.8191H19.4324C13.4864 63.8191 8.62158 68.7283 8.62158 74.7284V190.639C8.62158 196.639 13.4864 201.549 19.4324 201.549H115.919C116.459 201.549 117 201.549 117.541 201.549C117.811 201.549 118.351 201.549 118.622 201.549C118.892 201.549 118.892 201.549 119.162 201.549C119.973 201.549 120.514 201.276 121.324 201.276H121.595C121.865 201.276 122.135 201.276 122.676 201.003C122.946 201.003 123.216 201.003 123.486 200.73L127.541 198.548L132.676 195.276H19.4324C17 195.276 14.8378 193.367 14.8378 190.639V74.7284C14.8378 72.2738 16.7297 70.0919 19.4324 70.0919H265.919C268.351 70.0919 270.514 72.001 270.514 74.7284V100.092C255.649 103.365 244.838 116.729 244.838 132.82C244.838 148.639 255.649 162.002 270.514 165.548V190.912C270.514 193.367 268.622 195.548 265.919 195.548H195.378C197.27 196.639 199.162 197.458 201.324 198.276C203.487 199.094 205.919 199.912 208.351 200.458C208.892 200.73 209.432 200.73 209.973 200.73C210.514 200.73 211.054 201.003 211.324 201.003C211.865 201.003 212.676 201.276 213.216 201.276H213.487C214.297 201.276 214.838 201.549 215.649 201.549C215.919 201.549 215.919 201.549 216.189 201.549C216.189 201.549 216.46 201.549 216.46 201.821H266.189C272.135 201.821 277 196.912 277 190.912V159.548C262.676 159.002 251.324 147.002 251.324 132.547C251.054 118.093 262.676 106.092 276.73 105.547Z" fill="#5C75FF"/>
<path d="M164.297 160.912C155.919 173.457 166.459 162.821 122.676 200.73C122.676 200.73 119.973 201.276 117.541 201.276C114.838 201.276 120.784 201.276 101.595 201.276L59.1621 158.457L76.7297 142.911L58.3513 124.366L61.5946 108.274L73.2162 105.547L77.5405 105.274L93.2162 121.093L110.513 107.184L164.297 160.912Z" fill="url(#paint4_linear_7196_8860)"/>
<path opacity="0.4" d="M166.189 63.8191V70.0919C166.189 70.9101 166.73 71.4556 167.541 71.4556C168.351 71.4556 168.892 70.9101 168.892 70.0919V63.8191H166.189ZM167.541 77.1829C166.73 77.1829 166.189 77.7284 166.189 78.5466V84.8194C166.189 85.6376 166.73 86.1831 167.541 86.1831C168.351 86.1831 168.892 85.6376 168.892 84.8194V78.5466C169.162 77.7284 168.351 77.1829 167.541 77.1829ZM167.541 91.9104C166.73 91.9104 166.189 92.4559 166.189 93.2741V99.5469C166.189 100.365 166.73 100.911 167.541 100.911C168.351 100.911 168.892 100.365 168.892 99.5469V93.2741C169.162 92.7286 168.351 91.9104 167.541 91.9104ZM167.541 106.911C166.73 106.911 166.189 107.456 166.189 108.274V114.547C166.189 115.365 166.73 115.911 167.541 115.911C168.351 115.911 168.892 115.365 168.892 114.547V108.274C169.162 107.456 168.351 106.911 167.541 106.911ZM167.541 121.911C166.73 121.911 166.189 122.456 166.189 123.275V129.547C166.189 130.366 166.73 130.911 167.541 130.911C168.351 130.911 168.892 130.366 168.892 129.547V123.275C169.162 122.456 168.351 121.911 167.541 121.911ZM167.541 136.638C166.73 136.638 166.189 137.184 166.189 138.002V144.548C166.189 145.366 166.73 145.911 167.541 145.911C168.351 145.911 168.892 145.366 168.892 144.548V138.275C169.162 137.457 168.351 136.638 167.541 136.638ZM167.541 151.639C166.73 151.639 166.189 152.184 166.189 153.002V157.366L167.541 154.366V160.912C168.351 160.912 168.892 160.366 168.892 159.548V153.275C169.162 152.184 168.351 151.639 167.541 151.639Z" fill="#BFCFFF"/>
<path d="M167.54 149.457C167.54 149.73 167 156.003 167 156.003C166.459 159.821 164.838 165.821 161.865 171.821C161.865 172.094 161.594 172.094 161.594 172.367C161.324 172.912 161.054 173.458 160.784 174.003C160.513 174.549 160.243 175.094 159.703 175.64C159.432 176.185 158.892 176.73 158.621 177.276C150.243 190.094 135.108 200.185 117.54 201.276C122.946 195.822 128.621 187.367 129.703 176.73C130.243 171.549 134.027 167.458 139.162 166.367C148.351 164.458 158.351 158.185 165.108 151.639C165.649 151.094 166.189 150.548 166.459 150.003C167 149.73 167.27 149.457 167.54 149.457Z" fill="url(#paint5_linear_7196_8860)"/>
<path d="M234.027 174.821L193.757 175.094C193.216 175.094 192.405 175.639 192.135 176.184C192.135 176.457 192.135 176.457 192.135 176.73C192.135 177.548 192.946 178.366 193.757 178.366L234.027 178.094C234.567 178.094 235.378 177.548 235.649 177.003C235.649 176.73 235.649 176.73 235.649 176.457C235.649 175.639 235.108 174.821 234.027 174.821Z" fill="url(#paint6_linear_7196_8860)"/>
<path d="M193.486 168.548H225.378C225.919 168.548 226.459 168.275 226.73 167.73C226.73 167.457 226.73 167.457 226.73 167.184V166.639C226.73 165.821 226.189 165.275 225.378 165.275H193.486C192.946 165.275 192.405 165.548 192.135 166.093C192.135 166.366 192.135 166.366 192.135 166.639V167.184C192.135 167.457 192.405 168.002 192.676 168.275C192.946 168.275 193.216 168.548 193.486 168.548Z" fill="url(#paint7_linear_7196_8860)"/>
<path d="M193.486 158.73H225.378C225.919 158.73 226.459 158.457 226.73 157.911C226.73 157.639 226.73 157.639 226.73 157.366V156.82C226.73 156.002 226.189 155.457 225.378 155.457H193.486C192.946 155.457 192.405 155.73 192.135 156.275C192.135 156.548 192.135 156.548 192.135 156.82V157.366C192.135 157.639 192.405 158.184 192.676 158.457C192.676 158.73 193.216 158.73 193.486 158.73Z" fill="url(#paint8_linear_7196_8860)"/>
<path d="M193.487 148.911H225.379C225.919 148.911 226.46 148.639 226.73 148.093C226.73 147.82 226.73 147.82 226.73 147.548V147.002C226.73 146.729 226.46 146.184 226.189 145.911C225.919 145.638 225.649 145.366 225.108 145.366H193.216C192.676 145.366 192.135 145.638 191.865 146.184C191.865 146.457 191.865 146.457 191.865 146.729V147.275C191.865 147.548 192.135 148.093 192.406 148.366C192.676 148.911 193.216 148.911 193.487 148.911Z" fill="url(#paint9_linear_7196_8860)"/>
<path d="M193.486 139.093H225.378C225.919 139.093 226.459 138.821 226.73 138.275C226.73 138.002 226.73 138.002 226.73 137.73V137.184C226.73 136.366 226.189 135.821 225.378 135.821H193.486C192.946 135.821 192.405 136.093 192.135 136.639C192.135 136.911 192.135 136.911 192.135 137.184V137.73C192.135 138.548 192.676 139.093 193.486 139.093Z" fill="url(#paint10_linear_7196_8860)"/>
<path d="M193.487 129.274H225.379C225.919 129.274 226.46 129.002 226.73 128.456C226.73 128.183 226.73 128.183 226.73 127.911V127.365C226.73 127.092 226.46 126.547 226.189 126.274C225.919 126.001 225.649 125.729 225.108 125.729H193.216C192.676 125.729 192.135 126.001 191.865 126.547C191.865 126.82 191.865 126.82 191.865 127.092V127.638C192.135 128.729 192.676 129.274 193.487 129.274Z" fill="url(#paint11_linear_7196_8860)"/>
<path d="M193.487 119.729H225.378C225.919 119.729 226.46 119.456 226.73 118.911C226.73 118.638 226.73 118.638 226.73 118.365V117.82C226.73 117.002 226.189 116.456 225.378 116.456H193.487C192.946 116.456 192.405 116.729 192.135 117.274C192.135 117.547 192.135 117.547 192.135 117.82V118.365C191.865 118.911 192.676 119.729 193.487 119.729Z" fill="url(#paint12_linear_7196_8860)"/>
<path d="M230.784 168.002C231.054 168.275 231.324 168.548 231.865 168.548H234.297C234.838 168.548 235.378 168.275 235.648 167.73C235.648 167.457 235.648 167.457 235.648 167.184V166.639C235.648 165.821 235.108 165.275 234.297 165.275H231.865C231.324 165.275 230.784 165.548 230.513 166.093C230.513 166.366 230.513 166.366 230.513 166.639V167.184C230.243 167.184 230.513 167.73 230.784 168.002Z" fill="url(#paint13_linear_7196_8860)"/>
<path d="M230.784 158.184C231.054 158.457 231.324 158.73 231.865 158.73H234.297C234.838 158.73 235.378 158.457 235.648 157.911C235.648 157.639 235.648 157.639 235.648 157.366V156.82C235.648 156.002 235.108 155.457 234.297 155.457H231.865C231.324 155.457 230.784 155.73 230.513 156.275C230.513 156.548 230.513 156.548 230.513 156.82V157.366C230.243 157.366 230.513 157.911 230.784 158.184Z" fill="url(#paint14_linear_7196_8860)"/>
<path d="M230.784 148.366C231.054 148.639 231.324 148.911 231.865 148.911H234.297C234.838 148.911 235.378 148.639 235.649 148.093C235.649 147.82 235.649 147.82 235.649 147.548V147.002C235.649 146.729 235.378 146.184 235.108 145.911C234.838 145.638 234.568 145.366 234.027 145.366H231.595C231.054 145.366 230.514 145.638 230.243 146.184C230.243 146.457 230.243 146.457 230.243 146.729V147.275C230.243 147.548 230.514 148.093 230.784 148.366Z" fill="url(#paint15_linear_7196_8860)"/>
<path d="M231.595 138.821H234.027C234.568 138.821 235.108 138.548 235.378 138.002C235.378 137.73 235.378 137.73 235.378 137.457V136.912C235.378 136.093 234.838 135.548 234.027 135.548H231.595C231.054 135.548 230.514 135.821 230.243 136.366C230.243 136.639 230.243 136.639 230.243 136.912V137.457C230.243 138.275 230.784 138.821 231.595 138.821Z" fill="url(#paint16_linear_7196_8860)"/>
<path d="M231.595 129.002H234.027C234.568 129.002 235.108 128.729 235.378 128.184C235.378 127.911 235.378 127.911 235.378 127.638V127.093C235.378 126.82 235.108 126.274 234.838 126.002C234.568 125.729 234.297 125.456 233.757 125.456H231.324C230.784 125.456 230.243 125.729 229.973 126.274C229.973 126.547 229.973 126.547 229.973 126.82V127.365C230.243 128.456 230.784 129.002 231.595 129.002Z" fill="url(#paint17_linear_7196_8860)"/>
<path d="M230.243 117.82C230.243 118.638 230.784 119.184 231.595 119.184H234.027C234.568 119.184 235.108 118.911 235.378 118.365C235.378 118.093 235.378 118.093 235.378 117.82V117.275C235.378 116.456 234.838 115.911 234.027 115.911H231.595C231.054 115.911 230.514 116.184 230.243 116.729C230.243 117.002 230.243 117.002 230.243 117.275V117.82Z" fill="url(#paint18_linear_7196_8860)"/>
<path d="M193.486 109.911H225.378C225.919 109.911 226.459 109.638 226.73 109.093C226.73 108.82 226.73 108.82 226.73 108.547V108.002C226.73 107.729 226.459 107.183 226.189 106.911C225.919 106.638 225.649 106.365 225.378 106.365H193.486C192.946 106.365 192.405 106.638 192.135 107.183C192.135 107.456 192.135 107.456 192.135 107.729V108.274C192.135 109.093 192.676 109.911 193.486 109.911Z" fill="url(#paint19_linear_7196_8860)"/>
<path d="M193.487 100.092H225.378C225.919 100.092 226.46 99.8191 226.73 99.2737C226.73 99.0009 226.73 99.0009 226.73 98.7282V98.1827C226.73 97.3646 226.189 96.8191 225.378 96.8191H193.487C192.946 96.8191 192.405 97.0918 192.135 97.6373C192.135 97.91 192.135 97.91 192.135 98.1827V98.7282C191.865 99.2737 192.676 100.092 193.487 100.092Z" fill="url(#paint20_linear_7196_8860)"/>
<path d="M234.027 106.093H231.595C231.054 106.093 230.514 106.365 230.243 106.911C230.243 107.183 230.243 107.183 230.243 107.456V108.002C230.243 108.82 230.784 109.365 231.595 109.365H234.027C234.568 109.365 235.108 109.093 235.378 108.547C235.378 108.274 235.378 108.274 235.378 108.002V107.456C235.378 107.183 235.108 106.638 234.838 106.365C234.568 106.365 234.297 106.093 234.027 106.093Z" fill="url(#paint21_linear_7196_8860)"/>
<path d="M233.757 96.2742H231.324C230.784 96.2742 230.243 96.5469 229.973 97.0924C229.973 97.3651 229.973 97.3651 229.973 97.6378V98.1833C229.973 99.0015 230.514 99.547 231.324 99.547H233.757C234.297 99.547 234.838 99.2742 235.108 98.7288C235.108 98.456 235.108 98.456 235.108 98.1833V97.6378C235.378 97.0924 234.568 96.2742 233.757 96.2742Z" fill="url(#paint22_linear_7196_8860)"/>
<path d="M193.487 90.274L233.757 90.0013C234.297 90.0013 235.108 89.4558 235.379 88.9104C235.379 88.6376 235.379 88.6376 235.379 88.3649C235.379 87.8194 235.108 87.5467 234.838 87.274C234.568 87.0012 234.027 86.7285 233.757 86.7285L193.487 87.0012C192.946 87.0012 192.135 87.5467 191.865 88.0922C191.865 88.3649 191.865 88.3649 191.865 88.6376C191.865 89.4558 192.676 90.274 193.487 90.274Z" fill="url(#paint23_linear_7196_8860)"/>
<path d="M67.8109 128.184C71.3244 128.184 74.8379 126.82 77.5406 124.093C79.973 121.638 81.5947 118.093 81.5947 114.275C81.5947 110.729 80.2433 107.184 77.5406 104.456C75.1082 101.729 71.5947 100.365 68.0812 100.365C64.5676 100.365 61.0541 101.729 58.3514 104.456C52.946 109.911 52.946 118.366 58.3514 123.82C60.7839 126.82 64.2974 128.184 67.8109 128.184ZM63.4866 110.184C64.5676 109.093 66.1893 108.274 67.8109 108.274C69.4325 108.274 71.0541 108.82 72.1352 110.184C74.5676 112.638 74.5676 116.729 72.1352 119.184C71.0541 120.275 69.4325 121.093 67.8109 121.093C66.1893 121.093 64.5676 120.547 63.4866 119.184C62.4055 118.093 61.5947 116.456 61.5947 114.82C61.5947 112.911 62.4055 111.275 63.4866 110.184Z" fill="url(#paint24_linear_7196_8860)"/>
<path d="M112.135 110.184C112.135 108.82 111.595 107.456 110.784 106.638C109.703 105.547 108.622 105.274 107.27 105.274C105.919 105.274 104.568 105.82 103.757 106.638L59.1621 151.366C58.0811 152.457 57.8108 153.548 57.8108 154.912C57.8108 156.275 58.3513 157.639 59.1621 158.457C60.2432 159.548 61.3243 159.821 62.6757 159.821C64.027 159.821 65.3784 159.275 66.1892 158.457L110.514 113.729C111.595 112.911 112.135 111.547 112.135 110.184Z" fill="url(#paint25_linear_7196_8860)"/>
<path d="M111.594 140.729C109.162 138.275 105.648 136.638 102.135 136.638C98.6213 136.638 95.1078 138.002 92.4051 140.729C89.7024 143.457 88.3511 146.73 88.3511 150.548C88.3511 154.366 89.7024 157.639 92.4051 160.093C95.1078 162.548 98.3511 164.184 102.135 164.184C105.919 164.184 109.162 162.821 111.865 160.093C114.297 157.366 115.919 154.093 115.919 150.275C115.648 147.002 114.027 143.457 111.594 140.729ZM106.459 154.911C105.378 156.002 103.756 156.821 102.135 156.821C100.513 156.821 98.8916 156.275 97.8105 154.911C95.3781 152.457 95.3781 148.366 97.8105 145.911C98.8916 144.82 100.513 144.002 102.135 144.002C103.756 144.002 105.378 144.548 106.459 145.911C107.54 147.002 108.351 148.639 108.351 150.275C108.081 152.184 107.54 153.821 106.459 154.911Z" fill="url(#paint26_linear_7196_8860)"/>
<path d="M217.27 201.276C211.054 194.73 205.649 185.73 204.568 176.457C204.027 171.276 200.243 167.185 195.108 166.094C185.919 164.185 175.919 157.912 169.162 151.366C168.622 150.821 167.541 149.457 166.73 149.184C166.73 149.457 167.27 155.73 167.27 155.73C168.081 162.003 171.324 171.003 175.649 177.276C183.487 189.003 195.378 196.912 207.811 199.912C209.162 200.185 212.676 201.003 212.946 201.003C213.216 201.003 215.378 201.276 215.649 201.276C215.649 201.276 215.919 201.276 215.919 201.549H217.27V201.276Z" fill="url(#paint27_linear_7196_8860)"/>
<path d="M201.324 198.003C195.378 195.548 189.432 191.73 184.297 186.821C183.486 187.094 182.676 187.366 181.865 187.639C180.243 188.185 178.622 187.639 177.811 186.003C176.189 183.003 174.027 178.639 174.027 178.639L175.378 175.912C172.405 171.275 170.243 166.366 168.892 161.184L167.27 164.73L165.108 160.366L146.73 123.82C146.459 123.002 145.108 123.002 144.838 124.093L142.135 131.729C140.784 136.093 141.054 141.002 143.216 145.093L156.73 172.094L159.973 178.639C159.973 178.639 157.811 183.003 156.189 186.003C155.649 187.094 154.567 187.639 153.757 187.639C153.216 187.639 152.676 187.639 152.135 187.366C151.865 187.366 151.865 187.366 151.595 187.094C149.162 186.003 146.459 186.003 143.757 186.548C139.703 187.366 135.919 189.821 133.757 193.912C133.757 193.912 133.757 193.912 133.757 194.185C129.973 201.549 132.946 210.276 139.973 214.094C141.324 214.912 142.946 215.185 144.567 215.458C150.513 216.276 156.459 213.276 159.432 207.549L167 192.548L168.622 196.094L174.297 207.549C174.297 207.821 174.568 208.094 174.568 208.094C178.351 214.912 186.73 217.367 193.757 213.821C199.703 211.094 202.676 204.549 201.324 198.003ZM152.135 204.003C150.513 207.276 146.73 208.367 143.757 206.73C140.784 205.094 139.432 201.276 141.054 198.276C142.676 195.276 146.459 193.912 149.432 195.548C152.405 196.912 153.757 200.73 152.135 204.003ZM189.973 206.73C187 208.367 182.946 207.003 181.595 204.003C179.973 201.003 181.324 197.185 184.297 195.548C187.27 193.912 191.324 195.276 192.676 198.276C194.567 201.276 193.216 205.094 189.973 206.73Z" fill="#172D45"/>
<defs>
<filter id="filter0_d_7196_8860" x="0.621582" y="60.8191" width="284.108" height="153.457" filterUnits="userSpaceOnUse" color-interpolation-filters="sRGB">
<feFlood flood-opacity="0" result="BackgroundImageFix"/>
<feColorMatrix in="SourceAlpha" type="matrix" values="0 0 0 0 0 0 0 0 0 0 0 0 0 0 0 0 0 0 127 0" result="hardAlpha"/>
<feOffset dy="5"/>
<feGaussianBlur stdDeviation="4"/>
<feColorMatrix type="matrix" values="0 0 0 0 0.1125 0 0 0 0 0.295916 0 0 0 0 1 0 0 0 0.22 0"/>
<feBlend mode="normal" in2="BackgroundImageFix" result="effect1_dropShadow_7196_8860"/>
<feBlend mode="normal" in="SourceGraphic" in2="effect1_dropShadow_7196_8860" result="shape"/>
</filter>
<linearGradient id="paint0_linear_7196_8860" x1="72.4825" y1="28.0024" x2="81.219" y2="28.0024" gradientUnits="userSpaceOnUse">
<stop stop-color="#FF66A9"/>
<stop offset="1" stop-color="#F53689"/>
</linearGradient>
<linearGradient id="paint1_linear_7196_8860" x1="212.912" y1="248.565" x2="221.649" y2="248.565" gradientUnits="userSpaceOnUse">
<stop stop-color="#FF66A9"/>
<stop offset="1" stop-color="#F53689"/>
</linearGradient>
<linearGradient id="paint2_linear_7196_8860" x1="239.596" y1="23.4255" x2="247.801" y2="23.4255" gradientUnits="userSpaceOnUse">
<stop stop-color="#83A6FF"/>
<stop offset="1" stop-color="#5A78FF"/>
</linearGradient>
<linearGradient id="paint3_linear_7196_8860" x1="8.5851" y1="132.544" x2="276.827" y2="132.544" gradientUnits="userSpaceOnUse">
<stop stop-color="#83A6FF"/>
<stop offset="1" stop-color="#5A78FF"/>
</linearGradient>
<linearGradient id="paint4_linear_7196_8860" x1="71.2656" y1="118.961" x2="136.494" y2="183.601" gradientUnits="userSpaceOnUse">
<stop stop-color="#4F6AFF"/>
<stop offset="1" stop-color="#657EFF" stop-opacity="0"/>
</linearGradient>
<linearGradient id="paint5_linear_7196_8860" x1="143.125" y1="172.199" x2="153.229" y2="185.022" gradientUnits="userSpaceOnUse">
<stop stop-color="#A4BDFF"/>
<stop offset="1" stop-color="#5A78FF"/>
</linearGradient>
<linearGradient id="paint6_linear_7196_8860" x1="192.896" y1="176.587" x2="236.353" y2="176.587" gradientUnits="userSpaceOnUse">
<stop stop-color="#BDCFFF"/>
<stop offset="1" stop-color="#91A5FF" stop-opacity="0.5"/>
</linearGradient>
<linearGradient id="paint7_linear_7196_8860" x1="192.896" y1="166.817" x2="236.353" y2="166.817" gradientUnits="userSpaceOnUse">
<stop stop-color="#BDCFFF"/>
<stop offset="1" stop-color="#91A5FF" stop-opacity="0.5"/>
</linearGradient>
<linearGradient id="paint8_linear_7196_8860" x1="192.896" y1="157.028" x2="236.353" y2="157.028" gradientUnits="userSpaceOnUse">
<stop stop-color="#BDCFFF"/>
<stop offset="1" stop-color="#91A5FF" stop-opacity="0.5"/>
</linearGradient>
<linearGradient id="paint9_linear_7196_8860" x1="192.897" y1="147.242" x2="236.353" y2="147.242" gradientUnits="userSpaceOnUse">
<stop stop-color="#BDCFFF"/>
<stop offset="1" stop-color="#91A5FF" stop-opacity="0.5"/>
</linearGradient>
<linearGradient id="paint10_linear_7196_8860" x1="192.896" y1="137.454" x2="236.353" y2="137.454" gradientUnits="userSpaceOnUse">
<stop stop-color="#BDCFFF"/>
<stop offset="1" stop-color="#91A5FF" stop-opacity="0.5"/>
</linearGradient>
<linearGradient id="paint11_linear_7196_8860" x1="192.897" y1="127.665" x2="236.353" y2="127.665" gradientUnits="userSpaceOnUse">
<stop stop-color="#BDCFFF"/>
<stop offset="1" stop-color="#91A5FF" stop-opacity="0.5"/>
</linearGradient>
<linearGradient id="paint12_linear_7196_8860" x1="192.897" y1="117.878" x2="236.353" y2="117.878" gradientUnits="userSpaceOnUse">
<stop stop-color="#BDCFFF"/>
<stop offset="1" stop-color="#91A5FF" stop-opacity="0.5"/>
</linearGradient>
<linearGradient id="paint13_linear_7196_8860" x1="192.896" y1="166.6" x2="236.353" y2="166.6" gradientUnits="userSpaceOnUse">
<stop stop-color="#BDCFFF"/>
<stop offset="1" stop-color="#91A5FF" stop-opacity="0.5"/>
</linearGradient>
<linearGradient id="paint14_linear_7196_8860" x1="192.896" y1="156.811" x2="236.353" y2="156.811" gradientUnits="userSpaceOnUse">
<stop stop-color="#BDCFFF"/>
<stop offset="1" stop-color="#91A5FF" stop-opacity="0.5"/>
</linearGradient>
<linearGradient id="paint15_linear_7196_8860" x1="192.897" y1="147.025" x2="236.353" y2="147.025" gradientUnits="userSpaceOnUse">
<stop stop-color="#BDCFFF"/>
<stop offset="1" stop-color="#91A5FF" stop-opacity="0.5"/>
</linearGradient>
<linearGradient id="paint16_linear_7196_8860" x1="192.896" y1="137.237" x2="236.353" y2="137.237" gradientUnits="userSpaceOnUse">
<stop stop-color="#BDCFFF"/>
<stop offset="1" stop-color="#91A5FF" stop-opacity="0.5"/>
</linearGradient>
<linearGradient id="paint17_linear_7196_8860" x1="192.897" y1="127.448" x2="236.353" y2="127.448" gradientUnits="userSpaceOnUse">
<stop stop-color="#BDCFFF"/>
<stop offset="1" stop-color="#91A5FF" stop-opacity="0.5"/>
</linearGradient>
<linearGradient id="paint18_linear_7196_8860" x1="192.896" y1="117.662" x2="236.353" y2="117.662" gradientUnits="userSpaceOnUse">
<stop stop-color="#BDCFFF"/>
<stop offset="1" stop-color="#91A5FF" stop-opacity="0.5"/>
</linearGradient>
<linearGradient id="paint19_linear_7196_8860" x1="192.896" y1="108.089" x2="236.353" y2="108.089" gradientUnits="userSpaceOnUse">
<stop stop-color="#BDCFFF"/>
<stop offset="1" stop-color="#91A5FF" stop-opacity="0.5"/>
</linearGradient>
<linearGradient id="paint20_linear_7196_8860" x1="192.897" y1="98.3022" x2="236.353" y2="98.3022" gradientUnits="userSpaceOnUse">
<stop stop-color="#BDCFFF"/>
<stop offset="1" stop-color="#91A5FF" stop-opacity="0.5"/>
</linearGradient>
<linearGradient id="paint21_linear_7196_8860" x1="192.896" y1="107.873" x2="236.353" y2="107.873" gradientUnits="userSpaceOnUse">
<stop stop-color="#BDCFFF"/>
<stop offset="1" stop-color="#91A5FF" stop-opacity="0.5"/>
</linearGradient>
<linearGradient id="paint22_linear_7196_8860" x1="192.896" y1="98.0859" x2="236.353" y2="98.0859" gradientUnits="userSpaceOnUse">
<stop stop-color="#BDCFFF"/>
<stop offset="1" stop-color="#91A5FF" stop-opacity="0.5"/>
</linearGradient>
<linearGradient id="paint23_linear_7196_8860" x1="192.897" y1="88.498" x2="236.353" y2="88.498" gradientUnits="userSpaceOnUse">
<stop stop-color="#BDCFFF"/>
<stop offset="1" stop-color="#91A5FF" stop-opacity="0.5"/>
</linearGradient>
<linearGradient id="paint24_linear_7196_8860" x1="116.643" y1="157.756" x2="59.7286" y2="108.249" gradientUnits="userSpaceOnUse">
<stop offset="0.0113208" stop-color="#C2D1FF"/>
<stop offset="1" stop-color="white"/>
</linearGradient>
<linearGradient id="paint25_linear_7196_8860" x1="115.138" y1="159.487" x2="58.2231" y2="109.979" gradientUnits="userSpaceOnUse">
<stop offset="0.0113208" stop-color="#C2D1FF"/>
<stop offset="1" stop-color="white"/>
</linearGradient>
<linearGradient id="paint26_linear_7196_8860" x1="113.801" y1="161.024" x2="56.8858" y2="111.516" gradientUnits="userSpaceOnUse">
<stop offset="0.0113208" stop-color="#C2D1FF"/>
<stop offset="1" stop-color="white"/>
</linearGradient>
<linearGradient id="paint27_linear_7196_8860" x1="191.5" y1="172.199" x2="182.312" y2="191.626" gradientUnits="userSpaceOnUse">
<stop stop-color="#A4BDFF"/>
<stop offset="1" stop-color="#5A78FF"/>
</linearGradient>
</defs>
</svg>
