<svg width="30" height="30" viewBox="0 0 30 30" fill="none" xmlns="http://www.w3.org/2000/svg">
<path d="M16.3635 24.4381C16.7208 25.7718 15.9294 27.1426 14.5957 27.5C13.262 27.8573 11.8912 27.0659 11.5338 25.7322C11.1765 24.3985 11.9679 23.0277 13.3016 22.6703C14.6353 22.313 16.0061 23.1044 16.3635 24.4381Z" fill="#49565E"/>
<path d="M27.4242 22.2508C27.8243 22.1436 28.0618 21.7324 27.9546 21.3323C27.8474 20.9322 27.4361 20.6947 27.036 20.8019L27.4242 22.2508ZM2.5 1.75C2.08579 1.75 1.75 2.08579 1.75 2.5C1.75 2.91421 2.08579 3.25 2.5 3.25V1.75ZM8.60711 4.37853L9.33357 4.19209L8.60711 4.37853ZM6.18559 2.5V3.25V2.5ZM15.639 24.6322C15.8892 25.5658 15.3352 26.5254 14.4016 26.7755L14.7898 28.2244C16.5236 27.7599 17.5525 25.9778 17.0879 24.244L15.639 24.6322ZM14.4016 26.7755C13.468 27.0257 12.5084 26.4717 12.2583 25.5381L10.8094 25.9263C11.274 27.6601 13.056 28.689 14.7898 28.2244L14.4016 26.7755ZM12.2583 25.5381C12.0081 24.6045 12.5622 23.6449 13.4957 23.3948L13.1075 21.9459C11.3737 22.4105 10.3448 24.1926 10.8094 25.9263L12.2583 25.5381ZM13.4957 23.3948C14.4293 23.1446 15.3889 23.6987 15.639 24.6322L17.0879 24.244C16.6234 22.5102 14.8413 21.4813 13.1075 21.9459L13.4957 23.3948ZM14.0281 22.4839L9.33357 4.19209L7.88066 4.56497L12.5751 22.8568L14.0281 22.4839ZM16.5576 25.1625L27.4242 22.2508L27.036 20.8019L16.1694 23.7137L16.5576 25.1625ZM6.18559 1.75H2.5V3.25H6.18559V1.75ZM9.33357 4.19209C8.96473 2.7549 7.66935 1.75 6.18559 1.75V3.25C6.98454 3.25 7.68205 3.7911 7.88066 4.56497L9.33357 4.19209Z" fill="#49565E"/>
<path d="M16.8369 16.5467L15.5428 11.717C15.1855 10.3834 15.9769 9.01252 17.3106 8.65517L22.1402 7.36107C23.4739 7.00372 24.8447 7.79518 25.2021 9.12884L26.4962 13.9585C26.8535 15.2921 26.0621 16.663 24.7284 17.0203L19.8988 18.3144C18.5651 18.6718 17.1943 17.8803 16.8369 16.5467Z" fill="#49565E"/>
<path d="M15.5428 11.717L14.8184 11.9111L14.8184 11.9111L15.5428 11.717ZM16.8369 16.5467L17.5614 16.3525L16.8369 16.5467ZM19.8988 18.3144L20.0929 19.0389L19.8988 18.3144ZM24.7284 17.0203L24.5343 16.2959H24.5343L24.7284 17.0203ZM26.4962 13.9585L27.2206 13.7644L26.4962 13.9585ZM25.2021 9.12884L24.4776 9.32296L25.2021 9.12884ZM22.1402 7.36107L21.9461 6.63663V6.63663L22.1402 7.36107ZM17.3106 8.65517L17.5047 9.37961H17.5047L17.3106 8.65517ZM14.8184 11.9111L16.1125 16.7408L17.5614 16.3525L16.2673 11.5229L14.8184 11.9111ZM20.0929 19.0389L24.9225 17.7448L24.5343 16.2959L19.7047 17.59L20.0929 19.0389ZM27.2206 13.7644L25.9265 8.93473L24.4776 9.32296L25.7717 14.1526L27.2206 13.7644ZM21.9461 6.63663L17.1165 7.93073L17.5047 9.37961L22.3343 8.08552L21.9461 6.63663ZM24.9225 17.7448C26.6563 17.2802 27.6852 15.4981 27.2206 13.7644L25.7717 14.1526C26.0219 15.0862 25.4679 16.0457 24.5343 16.2959L24.9225 17.7448ZM16.1125 16.7408C16.577 18.4745 18.3591 19.5034 20.0929 19.0389L19.7047 17.59C18.7711 17.8401 17.8115 17.2861 17.5614 16.3525L16.1125 16.7408ZM16.2673 11.5229C16.0171 10.5894 16.5712 9.62976 17.5047 9.37961L17.1165 7.93073C15.3827 8.39529 14.3538 10.1774 14.8184 11.9111L16.2673 11.5229ZM25.9265 8.93473C25.462 7.20096 23.6799 6.17207 21.9461 6.63663L22.3343 8.08552C23.2679 7.83537 24.2275 8.38939 24.4776 9.32296L25.9265 8.93473Z" fill="#49565E"/>
</svg>
