<svg width="30" height="30" viewBox="0 0 30 30" fill="none" xmlns="http://www.w3.org/2000/svg">
<path fill-rule="evenodd" clip-rule="evenodd" d="M17.6667 8.33333C17.6667 9.622 16.622 10.6667 15.3333 10.6667C14.0447 10.6667 13 9.622 13 8.33333C13 7.04467 14.0447 6 15.3333 6C16.622 6 17.6667 7.04467 17.6667 8.33333ZM17.6667 15C17.6667 16.2886 16.622 17.3333 15.3333 17.3333C14.0447 17.3333 13 16.2886 13 15C13 13.7113 14.0447 12.6666 15.3333 12.6666C16.622 12.6666 17.6667 13.7113 17.6667 15ZM15.3333 24C16.622 24 17.6667 22.9554 17.6667 21.6667C17.6667 20.378 16.622 19.3334 15.3333 19.3334C14.0447 19.3334 13 20.378 13 21.6667C13 22.9554 14.0447 24 15.3333 24Z" fill="#49565E"/>
</svg>
