<svg width="24" height="24" viewBox="0 0 24 24" fill="none" xmlns="http://www.w3.org/2000/svg">
<path fill-rule="evenodd" clip-rule="evenodd" d="M8 0C3.58172 0 0 3.58172 0 8V16C0 20.4183 3.58172 24 8 24H16C20.4183 24 24 20.4183 24 16V8C24 3.58172 20.4183 0 16 0H8ZM4.04038 12.0404C3.78654 12.2942 3.78654 12.7058 4.04038 12.9596L8.17696 17.0962C8.4308 17.35 8.84235 17.35 9.09619 17.0962C9.35003 16.8424 9.35003 16.4308 9.09619 16.177L6.06924 13.15H19C19.359 13.15 19.65 12.859 19.65 12.5V9C19.65 8.64102 19.359 8.35 19 8.35C18.641 8.35 18.35 8.64102 18.35 9V11.85H6.06924L9.09619 8.82304C9.35003 8.5692 9.35003 8.15765 9.09619 7.90381C8.84235 7.64997 8.4308 7.64997 8.17696 7.90381L4.04038 12.0404Z" fill="white"/>
</svg>
