<svg width="54" height="54" viewBox="0 0 54 54" fill="none" xmlns="http://www.w3.org/2000/svg">
<path fill-rule="evenodd" clip-rule="evenodd" d="M10 0C4.47715 0 0 4.47715 0 10V44C0 49.5228 4.47715 54 10 54H44C49.5228 54 54 49.5228 54 44V10C54 4.47715 49.5228 0 44 0H10ZM26.3098 10.9999C27.1895 10.9999 27.9027 11.713 27.9027 12.5928V25.7714L41.0839 25.7714C41.9636 25.7714 42.6768 26.4845 42.6768 27.3643C42.6768 28.244 41.9636 28.9572 41.0839 28.9572H27.9027V41.0837C27.9027 41.9635 27.1895 42.6766 26.3098 42.6766C25.43 42.6766 24.7169 41.9635 24.7169 41.0837V28.9572H12.5929C11.7132 28.9572 11 28.244 11 27.3643C11 26.4845 11.7132 25.7714 12.5929 25.7714H24.7169V12.5928C24.7169 11.713 25.43 10.9999 26.3098 10.9999Z" fill="white"/>
</svg>
