<svg width="30" height="21" viewBox="0 0 30 21" fill="none" xmlns="http://www.w3.org/2000/svg">
<path fill-rule="evenodd" clip-rule="evenodd" d="M11.4115 20.3796C10.2209 20.366 9.08451 19.88 8.25228 19.0286L1.79694 12.424C0.641586 11.2419 0.663244 9.34703 1.84531 8.19167L8.44991 1.73634C9.30139 0.904104 10.4486 0.444209 11.6391 0.457813L26.7 0.629938C28.3528 0.64883 29.6773 2.004 29.6584 3.65682L29.4992 17.5933C29.4803 19.2461 28.1251 20.5707 26.4723 20.5518L11.4115 20.3796ZM23.0886 5.35064C23.6172 5.87928 23.6172 6.73637 23.0886 7.26501L20.2555 10.0981L23.0886 12.9311C23.6172 13.4598 23.6172 14.3169 23.0886 14.8455C22.56 15.3741 21.7029 15.3741 21.1742 14.8455L18.3412 12.0124L15.5081 14.8455C14.9795 15.3741 14.1224 15.3741 13.5938 14.8455C13.0651 14.3169 13.0651 13.4598 13.5938 12.9311L16.4268 10.0981L13.5938 7.26501C13.0651 6.73637 13.0651 5.87928 13.5938 5.35064C14.1224 4.82201 14.9795 4.82201 15.5081 5.35064L18.3412 8.1837L21.1742 5.35064C21.7029 4.82201 22.56 4.82201 23.0886 5.35064Z" fill="black"/>
</svg>
