<svg width="300" height="248" viewBox="0 0 300 248" fill="none" xmlns="http://www.w3.org/2000/svg">
<path d="M269.895 123.75C269.895 151.759 260.528 177.731 244.83 198.611C236.222 209.815 225.841 219.745 213.942 227.384C194.699 240.116 171.66 247.5 146.848 247.5C78.7407 247.5 23.5464 191.991 23.5464 123.75C23.5464 55.2546 78.7407 0 146.594 0C171.406 0 194.446 7.38426 213.688 19.8611C225.588 27.5 235.969 37.4306 244.577 48.6343C260.528 69.7685 269.895 95.4861 269.895 123.75Z" fill="#EAEEF9"/>
<path d="M4.30415 138.264C6.58281 138.264 8.60829 136.481 8.60829 133.935C8.60829 131.389 6.836 129.606 4.30415 129.606C2.02548 129.606 0 131.389 0 133.935C0 136.481 1.7723 138.264 4.30415 138.264Z" fill="url(#paint0_linear_7196_8932)"/>
<path d="M296.986 85.8104C300.784 82.2456 301.037 76.3892 297.493 72.5697C293.948 68.7503 288.125 68.4956 284.074 72.0604C280.276 75.6253 280.023 81.4817 283.567 85.3012C287.112 89.1206 292.935 89.3753 296.986 85.8104Z" fill="#EAEEF9"/>
<path d="M294.961 44.5598C297.239 44.5598 299.012 42.7774 299.012 40.4857C299.012 38.194 297.239 36.4116 294.961 36.4116C292.682 36.4116 290.91 38.194 290.91 40.4857C290.91 42.7774 292.682 44.5598 294.961 44.5598Z" fill="url(#paint1_linear_7196_8932)"/>
<g filter="url(#filter0_d_7196_8932)">
<path d="M261.287 65.6946V193.264C261.287 200.903 254.958 207.269 247.362 207.269H37.4716C29.876 207.269 23.5464 200.903 23.5464 193.264V65.6946C23.5464 58.0557 29.876 51.6899 37.4716 51.6899H247.362C255.211 51.6899 261.287 58.0557 261.287 65.6946Z" fill="url(#paint2_linear_7196_8932)"/>
</g>
<path d="M261.287 77.6624H23.5464V107.454H261.287V77.6624Z" fill="#4260FF"/>
<path d="M244.07 134.19V174.167C244.07 176.713 242.045 178.75 239.513 178.75H45.32C42.7882 178.75 40.7627 176.713 40.7627 174.167V134.19C40.7627 131.643 42.7882 129.606 45.32 129.606H239.513C242.045 129.606 244.07 131.643 244.07 134.19Z" fill="#4260FF"/>
<path opacity="0.2" d="M237.488 136.227H47.5989V172.13H237.488V136.227Z" fill="white"/>
<path d="M52.6626 136.227L47.5989 152.778V144.12L49.8775 136.227H52.6626Z" fill="#4260FF"/>
<path d="M58.739 136.227L47.8521 172.13H47.5989V164.236L55.954 136.227H58.739Z" fill="#4260FF"/>
<path d="M64.8155 136.227L53.9286 172.13H51.1436L62.0305 136.227H64.8155Z" fill="#4260FF"/>
<path d="M70.8922 136.227L60.0053 172.13H57.2202L68.1072 136.227H70.8922Z" fill="#4260FF"/>
<path d="M76.9681 136.227L66.0812 172.13H63.2961L74.1831 136.227H76.9681Z" fill="#4260FF"/>
<path d="M83.0448 136.227L72.1578 172.13H69.3728L80.2598 136.227H83.0448Z" fill="#4260FF"/>
<path d="M89.1212 136.227L78.2343 172.13H75.4492L86.3362 136.227H89.1212Z" fill="#4260FF"/>
<path d="M95.1979 136.227L84.3109 172.13H81.5259L92.4128 136.227H95.1979Z" fill="#4260FF"/>
<path d="M101.274 136.227L90.3873 172.13H87.6023L98.7424 136.227H101.274Z" fill="#4260FF"/>
<path d="M107.351 136.227L96.4637 172.13H93.9319L104.819 136.227H107.351Z" fill="#4260FF"/>
<path d="M113.427 136.227L102.54 172.13H100.008L110.895 136.227H113.427Z" fill="#4260FF"/>
<path d="M119.503 136.227L108.616 172.13H106.085L116.972 136.227H119.503Z" fill="#4260FF"/>
<path d="M125.58 136.227L114.693 172.13H112.161L123.048 136.227H125.58Z" fill="#4260FF"/>
<path d="M131.656 136.227L120.769 172.13H118.238L129.125 136.227H131.656Z" fill="#4260FF"/>
<path d="M137.733 136.227L126.846 172.13H124.314L135.201 136.227H137.733Z" fill="#4260FF"/>
<path d="M144.062 136.227L132.922 172.13H130.39L141.277 136.227H144.062Z" fill="#4260FF"/>
<path d="M150.139 136.227L139.252 172.13H136.467L147.354 136.227H150.139Z" fill="#4260FF"/>
<path d="M156.215 136.227L145.328 172.13H142.543L153.43 136.227H156.215Z" fill="#4260FF"/>
<g filter="url(#filter1_d_7196_8932)">
<path d="M215.967 229.93C256.378 229.93 289.137 196.984 289.137 156.342C289.137 115.701 256.378 82.7544 215.967 82.7544C175.556 82.7544 142.796 115.701 142.796 156.342C142.796 196.984 175.556 229.93 215.967 229.93Z" fill="url(#paint3_linear_7196_8932)"/>
</g>
<path d="M276.985 156.343C276.985 190.209 249.641 217.454 215.967 217.454C192.674 217.454 172.672 204.468 162.292 185.116C162.039 184.861 161.785 184.352 161.785 183.843C161.026 182.06 160.013 180.533 159.507 178.75C159.507 178.496 159.254 178.241 159.254 177.732C159 176.968 158.494 175.949 158.241 174.931C157.481 172.384 156.722 169.584 156.215 166.783C155.709 163.982 155.456 161.181 155.203 158.125C155.203 157.361 155.203 156.597 155.203 155.834C155.203 147.685 156.722 139.792 159.76 132.662C159.76 132.408 160.013 131.898 160.266 131.644C161.026 129.861 161.785 128.079 162.798 126.551C163.051 126.042 163.305 125.787 163.558 125.278C173.938 106.69 193.687 94.4678 216.473 94.4678C249.641 94.977 276.985 122.477 276.985 156.343Z" fill="white"/>
<path d="M262.046 134.954V176.204C262.046 181.296 257.995 185.116 253.185 185.116H162.292C162.038 184.861 161.785 184.352 161.785 183.842C161.026 182.06 160.013 180.532 159.507 178.75C159.507 178.495 159.253 178.241 159.253 177.731C156.721 171.111 155.456 163.727 155.456 156.088C155.456 147.94 156.975 140.046 160.013 132.916C160.013 132.662 160.266 132.153 160.519 131.898C161.279 130.116 162.038 128.333 163.051 126.805C163.304 126.296 163.557 126.041 163.811 125.532H253.185C257.995 125.787 262.046 129.861 262.046 134.954Z" fill="#C5CCDE"/>
<path opacity="0.2" d="M255.717 134.954V176.204C255.717 177.732 254.451 178.75 252.932 178.75H159.507C159.507 178.495 159.253 178.241 159.253 177.732C156.721 171.111 155.456 163.727 155.456 156.088C155.456 147.94 156.975 140.046 160.013 132.917C160.013 132.662 160.266 132.153 160.519 131.898H253.438C253.945 131.898 254.451 131.898 254.957 132.407C255.21 133.171 255.717 133.935 255.717 134.954Z" fill="white"/>
<path d="M182.546 132.151L168.368 178.749H165.077L179.255 132.151H182.546Z" fill="#EAEEF9"/>
<path d="M190.648 132.151L176.47 178.749H172.925L187.103 132.151H190.648Z" fill="#EAEEF9"/>
<path d="M198.497 132.151L184.572 178.749H181.027L195.206 132.151H198.497Z" fill="#EAEEF9"/>
<path d="M206.599 132.151L192.42 178.749H189.129L203.054 132.151H206.599Z" fill="#EAEEF9"/>
<path d="M166.595 132.151L155.962 167.036C155.455 164.235 155.202 161.434 154.949 158.378L163.051 132.151H166.595Z" fill="#EAEEF9"/>
<path d="M174.698 132.153L160.519 178.75H159.507C159.507 178.495 159.253 178.241 159.253 177.732C159 176.968 158.494 175.949 158.241 174.931L171.406 131.898H174.698V132.153Z" fill="#EAEEF9"/>
<path d="M214.701 132.151L200.522 178.749H196.978L211.156 132.151H214.701Z" fill="#EAEEF9"/>
<path d="M222.55 132.151L208.371 178.749H205.08L219.258 132.151H222.55Z" fill="#EAEEF9"/>
<path d="M230.651 132.151L216.473 178.749H212.928L227.107 132.151H230.651Z" fill="#EAEEF9"/>
<path d="M238.5 132.151L224.575 178.749H221.03L235.209 132.151H238.5Z" fill="#EAEEF9"/>
<path d="M243.058 132.151L228.879 178.749H232.424L246.602 132.151H243.058Z" fill="#EAEEF9"/>
<path d="M254.451 132.661L240.526 178.749H236.981L251.16 132.151H253.185C253.691 132.151 253.945 132.406 254.451 132.661Z" fill="#EAEEF9"/>
<path d="M255.717 143.102V154.815L248.374 178.75H244.83L255.717 143.102Z" fill="#EAEEF9"/>
<path d="M255.717 169.583V176.203C255.717 177.731 254.451 178.75 253.185 178.75H252.932L255.717 169.583Z" fill="#EAEEF9"/>
<path d="M245.59 172.13H188.623C185.585 172.13 183.053 169.584 183.053 166.528V143.866C183.053 140.81 185.585 138.264 188.623 138.264H245.59C248.628 138.264 251.16 140.81 251.16 143.866V166.528C250.907 169.584 248.375 172.13 245.59 172.13Z" fill="white" stroke="#C5CCDE" stroke-miterlimit="10"/>
<path d="M201.535 149.213C202.295 149.722 202.295 150.486 201.789 151.25L198.75 154.814L203.054 154.051C203.814 153.796 204.574 154.56 204.574 155.324V156.088C204.574 156.851 203.814 157.361 203.054 157.361L198.75 156.597L201.789 159.907C202.295 160.416 202.295 161.435 201.535 161.944L200.776 162.199C200.016 162.708 199.257 162.199 199.004 161.435L197.484 157.106L195.965 161.435C195.712 162.199 194.699 162.453 194.193 162.199L193.687 161.944C192.927 161.435 192.927 160.671 193.433 159.907L196.472 156.342L192.168 157.106C191.408 157.361 190.648 156.597 190.648 155.833V155.324C190.648 154.56 191.408 153.796 192.168 154.051L196.472 154.814L193.433 151.25C192.927 150.74 193.18 149.722 193.687 149.213L194.446 148.958C195.206 148.449 195.965 148.958 196.219 149.722L197.738 154.051L199.257 149.722C199.51 148.958 200.269 148.703 201.029 148.958L201.535 149.213Z" fill="#1C3754"/>
<path d="M221.031 149.213C221.79 149.722 221.79 150.486 221.284 151.25L218.245 154.814L222.55 154.051C223.309 153.796 224.069 154.56 224.069 155.324V155.833C224.069 156.597 223.309 157.361 222.55 157.106L218.245 156.342L221.284 159.652C221.79 160.162 221.79 161.18 221.031 161.689L220.524 161.944C219.765 162.453 219.005 161.944 218.752 161.18L217.233 156.851L215.207 161.435C214.954 162.199 213.941 162.453 213.435 162.199L212.929 161.944C212.169 161.435 212.169 160.671 212.675 159.907L215.714 156.342L211.409 157.106C210.65 157.361 209.89 156.597 209.89 155.833V155.324C209.89 154.56 210.65 153.796 211.409 154.051L215.46 154.814L212.675 151.25C212.169 150.74 212.422 149.722 212.929 149.213L213.435 148.958C214.195 148.449 214.954 148.958 215.207 149.722L216.726 154.051L218.245 149.722C218.499 148.958 219.511 148.703 220.018 148.958L221.031 149.213Z" fill="#1C3754"/>
<path d="M240.526 149.468C241.032 149.722 241.285 150.486 240.779 151.25L237.741 154.815L242.298 153.796C243.057 153.542 243.564 154.306 243.564 154.815V155.834C243.564 156.597 243.057 157.107 242.298 156.852L237.741 156.088L240.779 159.653C241.285 160.162 241.032 160.926 240.526 161.435L239.513 161.945C239.007 162.199 238.247 161.945 237.994 161.435L236.475 156.852L234.702 161.181C234.449 161.945 233.69 162.199 233.183 161.69L232.171 161.181C231.664 160.926 231.411 160.162 231.917 159.398L234.956 155.834L230.398 157.107C229.639 157.107 229.132 156.597 229.132 156.088V155.07C229.132 154.306 229.639 153.796 230.398 154.051L234.702 154.815L231.664 151.25C231.158 150.741 231.411 149.977 231.917 149.468L232.93 148.959C233.436 148.704 234.196 148.959 234.449 149.468L235.968 153.796L237.741 149.468C237.994 148.959 238.753 148.449 239.26 148.959L240.526 149.468Z" fill="#1C3754"/>
<defs>
<filter id="filter0_d_7196_8932" x="15.5464" y="48.6899" width="253.741" height="171.579" filterUnits="userSpaceOnUse" color-interpolation-filters="sRGB">
<feFlood flood-opacity="0" result="BackgroundImageFix"/>
<feColorMatrix in="SourceAlpha" type="matrix" values="0 0 0 0 0 0 0 0 0 0 0 0 0 0 0 0 0 0 127 0" result="hardAlpha"/>
<feOffset dy="5"/>
<feGaussianBlur stdDeviation="4"/>
<feColorMatrix type="matrix" values="0 0 0 0 0.1125 0 0 0 0 0.295916 0 0 0 0 1 0 0 0 0.22 0"/>
<feBlend mode="normal" in2="BackgroundImageFix" result="effect1_dropShadow_7196_8932"/>
<feBlend mode="normal" in="SourceGraphic" in2="effect1_dropShadow_7196_8932" result="shape"/>
</filter>
<filter id="filter1_d_7196_8932" x="134.796" y="79.7544" width="162.341" height="163.176" filterUnits="userSpaceOnUse" color-interpolation-filters="sRGB">
<feFlood flood-opacity="0" result="BackgroundImageFix"/>
<feColorMatrix in="SourceAlpha" type="matrix" values="0 0 0 0 0 0 0 0 0 0 0 0 0 0 0 0 0 0 127 0" result="hardAlpha"/>
<feOffset dy="5"/>
<feGaussianBlur stdDeviation="4"/>
<feColorMatrix type="matrix" values="0 0 0 0 0.968627 0 0 0 0 0.254902 0 0 0 0 0.564706 0 0 0 0.3 0"/>
<feBlend mode="normal" in2="BackgroundImageFix" result="effect1_dropShadow_7196_8932"/>
<feBlend mode="normal" in="SourceGraphic" in2="effect1_dropShadow_7196_8932" result="shape"/>
</filter>
<linearGradient id="paint0_linear_7196_8932" x1="0" y1="133.927" x2="8.18446" y2="133.927" gradientUnits="userSpaceOnUse">
<stop stop-color="#83A6FF"/>
<stop offset="1" stop-color="#5A78FF"/>
</linearGradient>
<linearGradient id="paint1_linear_7196_8932" x1="291.008" y1="40.5763" x2="298.695" y2="40.5763" gradientUnits="userSpaceOnUse">
<stop stop-color="#83A6FF"/>
<stop offset="1" stop-color="#5A78FF"/>
</linearGradient>
<linearGradient id="paint2_linear_7196_8932" x1="83.3583" y1="73.7437" x2="215.388" y2="196.772" gradientUnits="userSpaceOnUse">
<stop stop-color="#83A6FF"/>
<stop offset="1" stop-color="#5A78FF"/>
</linearGradient>
<linearGradient id="paint3_linear_7196_8932" x1="142.746" y1="156.295" x2="289.246" y2="156.295" gradientUnits="userSpaceOnUse">
<stop stop-color="#FF66A9"/>
<stop offset="1" stop-color="#F53689"/>
</linearGradient>
</defs>
</svg>
