<svg width="70" height="70" viewBox="0 0 70 70" fill="none" xmlns="http://www.w3.org/2000/svg">
<path d="M45.407 8.75001C44.6709 8.74992 43.954 8.74984 43.3468 8.79944C42.6801 8.85391 41.8934 8.98244 41.1017 9.38581C40.0041 9.94507 39.1117 10.8375 38.5525 11.9351C38.1491 12.7267 38.0206 13.5134 37.9661 14.1802C37.9165 14.7873 37.9166 15.5042 37.9167 16.2403V30.4264C37.9166 31.1625 37.9165 31.8794 37.9661 32.4865C38.0206 33.1532 38.1491 33.94 38.5525 34.7316C39.1117 35.8292 40.0041 36.7216 41.1017 37.2809C41.8934 37.6843 42.6801 37.8128 43.3468 37.8673C43.954 37.9169 44.6709 37.9168 45.407 37.9167H53.7597C54.4958 37.9168 55.2127 37.9169 55.8199 37.8673C56.4866 37.8128 57.2733 37.6843 58.065 37.2809C59.1626 36.7216 60.055 35.8292 60.6142 34.7316C61.0176 33.94 61.1461 33.1532 61.2006 32.4865C61.2502 31.8794 61.2501 31.1625 61.25 30.4264V16.2403C61.2501 15.5042 61.2502 14.7873 61.2006 14.1802C61.1461 13.5134 61.0176 12.7267 60.6142 11.9351C60.055 10.8375 59.1626 9.94507 58.065 9.38581C57.2733 8.98244 56.4866 8.85391 55.8199 8.79944C55.2127 8.74984 54.4959 8.74992 53.7598 8.75001L45.407 8.75001Z" fill="#12131A" fill-opacity="0.25"/>
<path d="M16.2403 32.0833C15.5042 32.0833 14.7873 32.0832 14.1802 32.1328C13.5134 32.1872 12.7267 32.3158 11.9351 32.7191C10.8375 33.2784 9.94507 34.1708 9.38581 35.2684C8.98244 36.0601 8.85391 36.8468 8.79944 37.5135C8.74984 38.1206 8.74992 38.8375 8.75001 39.5736L8.75001 53.7597C8.74992 54.4958 8.74984 55.2127 8.79944 55.8199C8.85391 56.4866 8.98244 57.2733 9.38581 58.065C9.94507 59.1626 10.8375 60.055 11.9351 60.6142C12.7267 61.0176 13.5134 61.1461 14.1802 61.2006C14.7873 61.2502 15.5042 61.2501 16.2404 61.25H24.593C25.3291 61.2501 26.046 61.2502 26.6532 61.2006C27.3199 61.1461 28.1066 61.0176 28.8983 60.6142C29.9959 60.055 30.8883 59.1626 31.4476 58.065C31.8509 57.2733 31.9795 56.4866 32.0339 55.8199C32.0835 55.2128 32.0834 54.4959 32.0834 53.7598V39.5736C32.0834 38.8376 32.0835 38.1206 32.0339 37.5135C31.9795 36.8468 31.8509 36.0601 31.4476 35.2684C30.8883 34.1708 29.9959 33.2784 28.8983 32.7191C28.1066 32.3158 27.3199 32.1872 26.6532 32.1328C26.0461 32.0832 25.3292 32.0833 24.5931 32.0833H16.2403Z" fill="#12131A" fill-opacity="0.25"/>
<path d="M16.2403 8.75001C15.5042 8.74992 14.7873 8.74984 14.1802 8.79944C13.5134 8.85391 12.7267 8.98244 11.9351 9.38581C10.8375 9.94507 9.94507 10.8375 9.38581 11.9351C8.98244 12.7267 8.85391 13.5134 8.79944 14.1802C8.74984 14.7873 8.74992 15.5042 8.75001 16.2403L8.75001 18.7597C8.74992 19.4958 8.74984 20.2127 8.79944 20.8199C8.85391 21.4866 8.98244 22.2733 9.38581 23.065C9.94507 24.1626 10.8375 25.055 11.9351 25.6142C12.7267 26.0176 13.5134 26.1461 14.1802 26.2006C14.7873 26.2502 15.5042 26.2501 16.2403 26.25H24.5931C25.3292 26.2501 26.0461 26.2502 26.6532 26.2006C27.3199 26.1461 28.1066 26.0176 28.8983 25.6142C29.9959 25.055 30.8883 24.1626 31.4476 23.065C31.8509 22.2733 31.9795 21.4866 32.0339 20.8199C32.0835 20.2128 32.0834 19.4959 32.0834 18.7598V16.2403C32.0834 15.5042 32.0835 14.7873 32.0339 14.1802C31.9795 13.5134 31.8509 12.7267 31.4476 11.9351C30.8883 10.8375 29.9959 9.94507 28.8983 9.38581C28.1066 8.98244 27.3199 8.85391 26.6532 8.79944C26.0461 8.74984 25.3292 8.74992 24.5931 8.75001L16.2403 8.75001Z" fill="#49565E"/>
<path d="M45.407 43.75C44.6709 43.7499 43.954 43.7498 43.3468 43.7994C42.6801 43.8539 41.8934 43.9824 41.1017 44.3858C40.0041 44.9451 39.1117 45.8375 38.5525 46.9351C38.1491 47.7267 38.0206 48.5135 37.9661 49.1802C37.9165 49.7873 37.9166 50.5042 37.9167 51.2403V53.7597C37.9166 54.4958 37.9165 55.2127 37.9661 55.8199C38.0206 56.4866 38.1491 57.2733 38.5525 58.065C39.1117 59.1626 40.0041 60.055 41.1017 60.6142C41.8934 61.0176 42.6801 61.1461 43.3468 61.2006C43.954 61.2502 44.6709 61.2501 45.407 61.25H53.7597C54.4958 61.2501 55.2127 61.2502 55.8199 61.2006C56.4866 61.1461 57.2733 61.0176 58.065 60.6142C59.1626 60.055 60.055 59.1626 60.6142 58.065C61.0176 57.2733 61.1461 56.4866 61.2006 55.8199C61.2502 55.2127 61.2501 54.4958 61.25 53.7597V51.2403C61.2501 50.5042 61.2502 49.7873 61.2006 49.1802C61.1461 48.5135 61.0176 47.7267 60.6142 46.9351C60.055 45.8375 59.1626 44.9451 58.065 44.3858C57.2733 43.9824 56.4866 43.8539 55.8199 43.7994C55.2127 43.7498 54.4958 43.7499 53.7597 43.75H45.407Z" fill="#49565E"/>
</svg>
