<svg width="28" height="28" viewBox="0 0 28 28" fill="none" xmlns="http://www.w3.org/2000/svg">
<path opacity="0.25" d="M14.0003 4.66666C6.87347 4.66666 3.66266 10.2521 2.64844 12.5298C2.2303 13.4689 2.23031 14.5311 2.64844 15.4701C3.66266 17.7478 6.87347 23.3333 14.0003 23.3333C21.1274 23.3333 24.3379 17.7475 25.352 15.4699C25.77 14.531 25.77 13.469 25.352 12.5301C24.3379 10.2524 21.1274 4.66666 14.0003 4.66666Z" fill="#758399"/>
<path d="M11.6667 14C12.9553 14 14 12.9553 14 11.6667C14 11.2471 13.8892 10.8533 13.6953 10.5131C13.7957 10.5044 13.8974 10.5 14 10.5C15.933 10.5 17.5 12.067 17.5 14C17.5 15.933 15.933 17.5 14 17.5C12.067 17.5 10.5 15.933 10.5 14C10.5 13.8974 10.5044 13.7957 10.5131 13.6953C10.8533 13.8892 11.2471 14 11.6667 14Z" fill="#49565E"/>
</svg>
