<svg width="32" height="32" viewBox="0 0 32 32" fill="none" xmlns="http://www.w3.org/2000/svg">
<path opacity="0.6" d="M21.0493 12.3027H11.2298C10.5555 12.3027 9.97383 12.3027 9.49474 12.3418C8.98907 12.3832 8.48611 12.4744 8.00214 12.721C7.28012 13.0889 6.6931 13.6759 6.32522 14.3979C6.07862 14.8819 5.9874 15.3848 5.94609 15.8905C5.90694 16.3696 5.90696 16.9512 5.90698 17.6255V23.6079C5.90696 24.2821 5.90694 24.8638 5.94609 25.3429C5.9874 25.8486 6.07862 26.3515 6.32522 26.8355C6.6931 27.5575 7.28012 28.1445 8.00214 28.5124C8.48611 28.759 8.98907 28.8502 9.49474 28.8915C9.97384 28.9307 10.5555 28.9307 11.2298 28.9306H21.0493C21.7235 28.9307 22.3052 28.9307 22.7843 28.8915C23.29 28.8502 23.793 28.759 24.2769 28.5124C24.999 28.1445 25.586 27.5575 25.9539 26.8355C26.2005 26.3515 26.2917 25.8486 26.333 25.3429C26.3721 24.8638 26.3721 24.2822 26.3721 23.608V17.6256C26.3721 16.9514 26.3721 16.3696 26.333 15.8905C26.2917 15.3848 26.2005 14.8819 25.9539 14.3979C25.586 13.6759 24.999 13.0889 24.2769 12.721C23.793 12.4744 23.29 12.3832 22.7843 12.3418C22.3053 12.3027 21.7236 12.3027 21.0493 12.3027Z" fill="#C2C8D0"/>
<path opacity="0.7" d="M14.8604 21.2556C14.8604 20.5492 15.433 19.9766 16.1394 19.9766C16.8458 19.9766 17.4185 20.5492 17.4185 21.2556V22.5347C17.4185 23.2411 16.8458 23.8138 16.1394 23.8138C15.433 23.8138 14.8604 23.2411 14.8604 22.5347V21.2556Z" fill="#758399"/>
<path opacity="0.7" fill-rule="evenodd" clip-rule="evenodd" d="M11.0232 8.46589C11.0232 5.64025 13.3138 3.34961 16.1395 3.34961C18.9651 3.34961 21.2558 5.64025 21.2558 8.46589V12.3031H18.6976V8.46589C18.6976 7.05307 17.5523 5.90775 16.1395 5.90775C14.7267 5.90775 13.5813 7.05307 13.5813 8.46589V12.3031H11.0232V8.46589Z" fill="#758399"/>
</svg>