<svg width="275" height="168" viewBox="0 0 275 168" fill="none" xmlns="http://www.w3.org/2000/svg">
<path fill-rule="evenodd" clip-rule="evenodd" d="M51.2521 111.803L61.6127 123.074L59.8109 144.713L76.0274 165L49.4503 148.32L49.9008 125.779L37.7384 137.5L3.50342 96.0248L56.2072 29.7542L51.2521 23.4427L39.0897 31.1066L3.50342 0L35.9365 17.1312L55.7567 4.95903L74.676 26.1476L18.3686 97.8281L37.7384 122.172L51.2521 111.803ZM61.612 73.4837L48.9991 79.3444L47.1973 77.0903L57.5579 64.0165L61.612 73.4837Z" fill="#FF9F9F"/>
<path fill-rule="evenodd" clip-rule="evenodd" d="M35.0345 49.5899L44.0437 36.9669L20.1693 36.5161L0.799561 27.0488L16.5657 49.5899H35.0345ZM64.7651 50.4921L73.3238 36.5166H113.415L147.199 77.5413V101.435L105.757 50.4921H64.7651ZM106.659 165H89.9919L139.092 100.533L147.2 110V114.509L106.659 165ZM188.192 68.0736C199.003 68.0736 205.76 69.8769 208.914 73.4834C212.067 77.09 213.418 84.7539 211.616 97.3769C211.616 110.902 210.265 119.467 207.112 123.074C203.958 126.68 196.301 128.484 184.589 128.484H181.886H179.183C168.372 128.484 161.615 126.68 158.462 123.074C155.309 119.467 153.957 111.803 153.957 100.082V93.7704H171.075V100.533C171.075 109.098 171.976 114.057 173.327 115.861C174.679 117.664 178.282 118.565 183.688 118.565C189.093 118.565 192.246 117.664 193.598 115.861C194.949 114.057 195.85 108.197 195.85 98.2786C195.85 88.3605 195.4 82.4998 194.048 80.6966C193.147 78.8933 189.544 77.9916 184.138 77.9916C178.282 77.9916 174.679 78.8933 173.778 80.6966C173.327 81.5982 172.877 83.4015 172.426 86.5572H155.759C156.66 80.2457 158.012 75.7375 159.813 73.4834C162.967 69.8769 170.174 68.0736 182.336 68.0736H185.039H188.192ZM239.544 76.6397L234.139 68.5249H211.165L227.832 93.32L239.544 76.6397ZM274.229 68.5249L253.958 98.2791L273.778 127.132H250.805L242.696 115.41L234.588 127.132H211.615L229.183 101.886L244.498 79.3446L251.706 68.5249H274.229Z" fill="#EEF2F8"/>
<rect x="139.709" y="130.662" width="88" height="36" rx="10" transform="rotate(-7.40096 139.709 130.662)" fill="#FF8686"/>
<path d="M155.402 136.519C154.733 136.606 154.497 136.882 154.584 137.551L156.816 154.741C156.903 155.41 157.202 155.616 157.872 155.53L159.398 155.331C160.067 155.244 160.277 154.972 160.19 154.303L159.449 148.6L164.108 147.994C167.991 147.49 170.124 144.844 169.624 140.989C169.123 137.133 166.38 135.093 162.498 135.598L155.402 136.519ZM159.042 145.467L158.246 139.335L162.583 138.772C164.538 138.518 165.839 139.52 166.089 141.448C166.34 143.376 165.335 144.65 163.38 144.903L159.042 145.467ZM177.816 146.241C178.383 150.605 181.482 152.871 186.381 152.235C191.228 151.605 193.672 148.62 193.105 144.255L192.346 138.418C191.78 134.054 188.654 131.792 183.808 132.421C178.908 133.058 176.491 136.04 177.058 140.404L177.816 146.241ZM189.761 144.717C190.081 147.18 188.732 148.744 185.975 149.102C183.217 149.46 181.517 148.32 181.193 145.83L180.428 139.939C180.105 137.449 181.457 135.912 184.215 135.554C186.973 135.196 188.676 136.363 188.996 138.826L189.761 144.717ZM200.151 136.261C200.489 138.232 201.215 139.417 202.52 140.037C203.45 140.488 204.051 140.71 205.233 140.801C206.416 140.893 206.932 140.88 208.154 140.857C209.048 140.823 209.785 140.836 210.338 140.9C211.443 141.029 212.555 141.62 212.708 142.798C212.948 144.645 211.65 145.767 208.812 146.136C206.724 146.407 205.224 145.758 204.312 144.188C203.934 143.584 203.675 143.481 203.087 143.775L201.684 144.502C201.07 144.8 200.947 145.115 201.275 145.753C202.816 148.602 205.176 149.793 209.219 149.268C214.039 148.642 216.544 145.921 216.071 142.279C215.848 140.566 215.032 139.31 214.104 138.669C213.177 138.027 211.635 137.683 210.536 137.607C209.521 137.549 207.565 137.585 206.715 137.532C205.268 137.502 203.604 137.065 203.581 135.625C203.369 133.992 204.546 132.995 207.143 132.657C209.178 132.393 210.4 132.997 211.344 134.399C211.746 134.973 211.97 135.025 212.555 134.704L213.944 133.87C214.525 133.523 214.634 133.1 214.293 132.573C212.623 129.985 210.448 128.961 206.726 129.444C202.04 130.053 199.695 132.753 200.151 136.261Z" fill="white"/>
</svg>
