<svg width="24" height="22" viewBox="0 0 24 22" fill="none" xmlns="http://www.w3.org/2000/svg">
<path opacity="0.25" d="M7 18.3337C7 17.8274 7.44772 17.417 8 17.417H16C16.5523 17.417 17 17.8274 17 18.3337C17 18.8399 16.5523 19.2503 16 19.2503H8C7.44772 19.2503 7 18.8399 7 18.3337Z" fill="#758399"/>
<path opacity="0.25" d="M7.8 15.5833C6.11984 15.5833 5.27976 15.5833 4.63803 15.2836C4.07354 15.0199 3.6146 14.5993 3.32698 14.0818C3 13.4935 3 12.7235 3 11.1833L3 7.15C3 5.60986 3 4.83978 3.32698 4.25153C3.6146 3.73408 4.07354 3.31338 4.63803 3.04973C5.27976 2.75 6.11984 2.75 7.8 2.75L16.2 2.75C17.8802 2.75 18.7202 2.75 19.362 3.04973C19.9265 3.31338 20.3854 3.73408 20.673 4.25153C21 4.83978 21 5.60986 21 7.15V11.1833C21 12.7235 21 13.4935 20.673 14.0818C20.3854 14.5993 19.9265 15.0199 19.362 15.2836C18.7202 15.5833 17.8802 15.5833 16.2 15.5833H7.8Z" fill="#758399"/>
<path d="M7 5.5C6.44772 5.5 6 5.91041 6 6.41667C6 6.92293 6.44772 7.33333 7 7.33333H14C14.5523 7.33333 15 6.92293 15 6.41667C15 5.91041 14.5523 5.5 14 5.5H7Z" fill="#49565E"/>
<path d="M7 9.16667C6.44772 9.16667 6 9.57707 6 10.0833C6 10.5896 6.44772 11 7 11H9C9.55228 11 10 10.5896 10 10.0833C10 9.57707 9.55228 9.16667 9 9.16667H7Z" fill="#49565E"/>
</svg>
