<svg width="70" height="70" viewBox="0 0 70 70" fill="none" xmlns="http://www.w3.org/2000/svg">
<path d="M20.4167 58.3327C20.4167 56.7219 21.7225 55.416 23.3333 55.416H46.6667C48.2775 55.416 49.5833 56.7219 49.5833 58.3327C49.5833 59.9435 48.2775 61.2493 46.6667 61.2493H23.3333C21.7225 61.2493 20.4167 59.9435 20.4167 58.3327Z" fill="#12131A" fill-opacity="0.25"/>
<path d="M22.75 49.5833C17.8495 49.5833 15.3993 49.5833 13.5276 48.6296C11.8812 47.7907 10.5426 46.4522 9.70369 44.8057C8.75 42.934 8.75 40.4838 8.75 35.5833L8.75 22.75C8.75 17.8495 8.75 15.3993 9.70369 13.5276C10.5426 11.8812 11.8812 10.5426 13.5276 9.70369C15.3993 8.75 17.8495 8.75 22.75 8.75L47.25 8.75C52.1505 8.75 54.6007 8.75 56.4724 9.70369C58.1188 10.5426 59.4574 11.8812 60.2963 13.5276C61.25 15.3993 61.25 17.8495 61.25 22.75V35.5833C61.25 40.4838 61.25 42.934 60.2963 44.8057C59.4574 46.4522 58.1188 47.7907 56.4724 48.6296C54.6007 49.5833 52.1505 49.5833 47.25 49.5833H22.75Z" fill="#12131A" fill-opacity="0.25"/>
<path d="M20.4167 17.5C18.8058 17.5 17.5 18.8058 17.5 20.4167C17.5 22.0275 18.8058 23.3333 20.4167 23.3333H40.8333C42.4442 23.3333 43.75 22.0275 43.75 20.4167C43.75 18.8058 42.4442 17.5 40.8333 17.5H20.4167Z" fill="#49565E"/>
<path d="M20.4167 29.1667C18.8058 29.1667 17.5 30.4725 17.5 32.0833C17.5 33.6942 18.8058 35 20.4167 35H26.25C27.8608 35 29.1667 33.6942 29.1667 32.0833C29.1667 30.4725 27.8608 29.1667 26.25 29.1667H20.4167Z" fill="#49565E"/>
</svg>
