<svg width="5" height="18" viewBox="0 0 5 18" fill="none" xmlns="http://www.w3.org/2000/svg">
<path fill-rule="evenodd" clip-rule="evenodd" d="M4.66667 2.33333C4.66667 3.622 3.622 4.66667 2.33333 4.66667C1.04467 4.66667 0 3.622 0 2.33333C0 1.04467 1.04467 0 2.33333 0C3.622 0 4.66667 1.04467 4.66667 2.33333ZM4.66667 8.99996C4.66667 10.2886 3.622 11.3333 2.33333 11.3333C1.04467 11.3333 0 10.2886 0 8.99996C0 7.71129 1.04467 6.66663 2.33333 6.66663C3.622 6.66663 4.66667 7.71129 4.66667 8.99996ZM2.33333 18C3.622 18 4.66667 16.9554 4.66667 15.6667C4.66667 14.378 3.622 13.3334 2.33333 13.3334C1.04467 13.3334 0 14.378 0 15.6667C0 16.9554 1.04467 18 2.33333 18Z" fill="#49565E"/>
</svg>
