<svg width="393" height="389" viewBox="0 0 393 389" fill="none" xmlns="http://www.w3.org/2000/svg">
<path d="M30.6142 328.952C30.4382 328.49 30.2182 328.358 29.6902 328.358H28.5242C27.9962 328.358 27.7982 328.468 27.6002 328.974L22.1002 343.274C21.9242 343.758 22.1002 344 22.6062 344H23.6182C24.5202 344 24.8062 343.868 24.9822 343.34L26.0162 340.502H32.0882L33.1002 343.34C33.2762 343.868 33.5622 344 34.4642 344H35.6082C36.1142 344 36.2902 343.758 36.1142 343.274L30.6142 328.952ZM31.3182 338.236H26.7862L28.4802 333.572C28.8102 332.626 28.9642 331.746 28.9642 330.91H29.1182L29.1402 331.284C29.2062 331.79 29.3822 332.802 29.6462 333.594L31.3182 338.236ZM46.2386 335.75C46.2386 333.836 45.0066 332.604 42.8726 332.604H37.6146C37.0866 332.604 36.9326 332.758 36.9326 333.286V343.318C36.9326 343.824 37.0866 344 37.6146 344H43.1806C45.3146 344 46.6786 342.724 46.6786 340.766C46.6786 339.534 46.1726 338.632 45.1826 338.06C45.8866 337.554 46.2386 336.784 46.2386 335.75ZM39.4846 337.136V334.76H42.4326C43.2246 334.76 43.6866 335.222 43.6866 335.948C43.6866 336.652 43.2246 337.136 42.4546 337.136H39.4846ZM39.4846 341.844V339.226H42.6526C43.5106 339.226 44.0166 339.71 44.0166 340.502C44.0166 341.316 43.4886 341.844 42.6746 341.844H39.4846ZM47.8507 332.604C47.3447 332.604 47.1687 332.758 47.1687 333.264V334.276C47.1687 334.782 47.3447 334.958 47.8507 334.958H50.7327V343.318C50.7327 343.824 50.9087 344 51.4147 344H52.6027C53.1087 344 53.2847 343.824 53.2847 343.318V334.958H56.1447C56.6507 334.958 56.8267 334.782 56.8267 334.276V333.264C56.8267 332.758 56.6507 332.604 56.1447 332.604H47.8507ZM57.4638 339.93C57.4638 342.68 59.2898 344.33 62.5238 344.33C65.7798 344.33 67.6058 342.68 67.6058 339.93V336.674C67.6058 333.924 65.7798 332.274 62.5238 332.274C59.2898 332.274 57.4638 333.924 57.4638 336.674V339.93ZM65.0538 339.93C65.0538 341.25 64.1298 342.02 62.5238 342.02C60.9178 342.02 60.0158 341.25 60.0158 339.93V336.674C60.0158 335.332 60.9178 334.584 62.5238 334.584C64.1298 334.584 65.0538 335.332 65.0538 336.674V339.93ZM70.1571 332.912C69.4531 333.198 69.2991 333.462 69.2991 334.166V348.158C69.2991 348.664 69.4751 348.84 69.9811 348.84H71.1911C71.6971 348.84 71.8511 348.664 71.8511 348.158V343.934C72.8631 344.198 73.6331 344.33 74.1611 344.33C77.4391 344.33 79.0671 342.79 79.0671 339.732V336.718C79.0671 333.836 77.5271 332.274 74.4251 332.274C72.7311 332.274 71.3231 332.494 70.1571 332.912ZM76.5151 339.644C76.5151 341.206 75.6791 341.998 73.9851 341.998C73.4131 341.998 72.7091 341.888 71.8511 341.668V335.134C71.8511 335.002 71.9171 334.914 72.0711 334.848C72.6431 334.694 73.3031 334.606 74.0511 334.606C75.7011 334.606 76.5151 335.332 76.5151 336.784V339.644ZM81.4869 332.604C80.9809 332.604 80.8269 332.758 80.8269 333.264V343.318C80.8269 343.824 80.9809 344 81.4869 344H82.6969C82.9829 344 83.2029 343.89 83.3789 343.648L87.2289 338.17C87.8449 337.268 88.2629 336.52 88.5049 335.948H88.5709C88.2409 337.07 88.0869 338.148 88.0869 339.182V343.318C88.0869 343.824 88.2629 344 88.7689 344H89.9789C90.4849 344 90.6389 343.824 90.6389 343.318V333.264C90.6389 332.758 90.4849 332.604 89.9789 332.604H88.7689C88.4829 332.604 88.2629 332.714 88.1089 332.934L84.2149 338.456C83.6869 339.226 83.2689 339.974 82.9829 340.678H82.9169C83.2249 339.578 83.3789 338.5 83.3789 337.466V333.264C83.3789 332.758 83.2029 332.604 82.6969 332.604H81.4869ZM92.5644 335.134C92.3884 335.64 92.5424 335.97 93.0264 336.124L94.0164 336.432C94.5444 336.608 94.7864 336.498 94.9844 335.97C95.3144 335.2 96.1504 334.518 97.4924 334.518C98.8344 334.518 99.4944 335.002 99.4944 335.992C99.4944 336.762 98.9664 337.202 98.1084 337.202H96.1724C95.6664 337.202 95.4904 337.356 95.4904 337.884V338.61C95.4904 339.116 95.6664 339.292 96.1724 339.292H98.2844C99.2304 339.292 99.7144 339.776 99.7144 340.59C99.7144 341.58 99.0104 342.086 97.5804 342.086C96.1504 342.086 95.2264 341.58 94.8084 340.59C94.6104 340.062 94.3904 339.974 93.8404 340.15L92.8724 340.436C92.3444 340.59 92.1904 340.92 92.3884 341.426C93.0924 343.098 94.8084 344.33 97.5584 344.33C100.748 344.33 102.332 343.164 102.332 340.854C102.332 339.512 101.804 338.61 100.77 338.17V338.06C101.628 337.708 102.068 336.938 102.068 335.728C102.068 333.418 100.55 332.274 97.4924 332.274C94.8304 332.274 93.0924 333.616 92.5644 335.134ZM111.542 332.604C111.036 332.604 110.86 332.758 110.86 333.264V341.14C110.068 341.338 109.32 341.448 108.594 341.448C106.988 341.448 106.196 340.722 106.196 339.27V333.264C106.196 332.758 106.042 332.604 105.536 332.604H104.326C103.82 332.604 103.644 332.758 103.644 333.264V339.358C103.644 342.196 105.162 343.78 108.242 343.78C109.078 343.78 109.958 343.67 110.86 343.472V344.506C110.86 346.09 110.09 346.882 108.528 346.882C107.45 346.882 106.68 346.508 106.218 345.76C105.888 345.298 105.646 345.232 105.118 345.496L104.282 345.958C103.776 346.2 103.688 346.574 103.996 347.058C104.854 348.466 106.394 349.17 108.572 349.17C111.894 349.17 113.412 347.388 113.412 344.374V333.264C113.412 332.758 113.236 332.604 112.73 332.604H111.542ZM123.855 328.864C123.965 328.534 123.921 328.402 123.569 328.248L122.557 327.874C122.271 327.808 122.095 327.896 121.985 328.138C121.743 328.908 121.215 329.282 120.445 329.282C119.675 329.282 119.147 328.908 118.905 328.138C118.795 327.874 118.553 327.786 118.223 327.896L117.365 328.248C117.057 328.358 116.947 328.578 117.057 328.864C117.519 330.294 118.795 331.13 120.445 331.13C122.117 331.13 123.349 330.294 123.855 328.864ZM116.067 332.604C115.561 332.604 115.407 332.758 115.407 333.264V343.318C115.407 343.824 115.561 344 116.067 344H117.277C117.563 344 117.783 343.89 117.959 343.648L121.809 338.17C122.425 337.268 122.843 336.52 123.085 335.948H123.151C122.821 337.07 122.667 338.148 122.667 339.182V343.318C122.667 343.824 122.843 344 123.349 344H124.559C125.065 344 125.219 343.824 125.219 343.318V333.264C125.219 332.758 125.065 332.604 124.559 332.604H123.349C123.063 332.604 122.843 332.714 122.689 332.934L118.795 338.456C118.267 339.226 117.849 339.974 117.563 340.678H117.497C117.805 339.578 117.959 338.5 117.959 337.466V333.264C117.959 332.758 117.783 332.604 117.277 332.604H116.067ZM127.013 332.604C126.507 332.604 126.331 332.758 126.331 333.264V334.276C126.331 334.782 126.507 334.958 127.013 334.958H129.895V343.318C129.895 343.824 130.071 344 130.577 344H131.765C132.271 344 132.447 343.824 132.447 343.318V334.958H135.307C135.813 334.958 135.989 334.782 135.989 334.276V333.264C135.989 332.758 135.813 332.604 135.307 332.604H127.013ZM136.604 339.622C136.604 342.504 138.232 344.33 141.664 344.33C143.974 344.33 145.558 343.626 146.416 342.218C146.746 341.712 146.658 341.36 146.152 341.118L145.382 340.7C144.854 340.414 144.612 340.458 144.26 340.964C143.754 341.734 142.896 342.13 141.664 342.13C140.058 342.13 139.156 341.36 139.156 339.93V339.116H145.8C146.46 339.116 146.79 338.808 146.79 338.17V336.828C146.79 334.166 145.052 332.274 141.708 332.274C138.386 332.274 136.604 333.946 136.604 337.026V339.622ZM144.238 337.158H139.156V336.674C139.156 335.244 140.058 334.43 141.708 334.43C143.38 334.43 144.238 335.244 144.238 336.674V337.158ZM160.603 339.336C160.141 338.412 159.613 337.796 159.019 337.51L162.319 333.396C162.737 332.868 162.583 332.604 161.879 332.604H160.801C159.987 332.604 159.811 332.648 159.481 333.11L156.511 337.004H156.313H155.301V333.286C155.301 332.758 155.125 332.604 154.575 332.604H153.453C152.903 332.604 152.749 332.758 152.749 333.286V343.296C152.749 343.824 152.903 344 153.453 344H154.575C155.125 344 155.301 343.824 155.301 343.296V339.38H156.687C157.589 339.38 158.073 339.666 158.425 340.458L159.789 343.384C160.053 343.912 160.207 344 160.977 344H162.077C162.715 344 162.803 343.78 162.517 343.186L160.603 339.336ZM163.584 334.562C163.342 335.002 163.474 335.332 163.958 335.552L164.838 335.926C165.344 336.102 165.454 336.058 165.784 335.596C166.246 334.892 167.016 334.54 168.094 334.54C169.678 334.54 170.294 335.288 170.294 336.718V337.334C169.04 337.268 168.336 337.224 168.182 337.224C164.596 337.224 163.188 338.148 163.188 340.766C163.188 341.976 163.54 342.878 164.244 343.45C164.948 344.044 166.224 344.33 168.094 344.33C169.854 344.33 171.174 344.132 172.054 343.758C172.67 343.494 172.846 343.274 172.846 342.504V336.806C172.846 333.792 171.284 332.274 168.138 332.274C165.894 332.274 164.376 333.044 163.584 334.562ZM170.294 341.734C170.294 341.888 170.206 341.976 170.052 342.042C169.524 342.152 168.798 342.218 167.852 342.218C166.246 342.218 165.784 341.734 165.784 340.744C165.784 339.776 166.312 339.314 167.896 339.314C167.962 339.314 168.754 339.358 170.294 339.424V341.734ZM174.376 339.82C174.376 342.702 175.982 344.33 179.238 344.33C181.746 344.33 183.374 343.362 184.144 341.404C184.342 340.942 184.188 340.612 183.682 340.414L182.692 340.128C182.164 339.952 181.922 340.04 181.724 340.568C181.35 341.58 180.536 342.086 179.326 342.086C177.764 342.086 176.928 341.316 176.928 339.93V336.674C176.928 335.244 177.72 334.518 179.326 334.518C180.536 334.518 181.35 335.002 181.724 335.992C181.922 336.52 182.164 336.652 182.692 336.454L183.66 336.146C184.188 335.948 184.32 335.706 184.144 335.156C183.55 333.418 181.922 332.274 179.436 332.274C176.07 332.274 174.376 333.902 174.376 336.784V339.82ZM185.301 339.82C185.301 342.702 186.907 344.33 190.163 344.33C192.671 344.33 194.299 343.362 195.069 341.404C195.267 340.942 195.113 340.612 194.607 340.414L193.617 340.128C193.089 339.952 192.847 340.04 192.649 340.568C192.275 341.58 191.461 342.086 190.251 342.086C188.689 342.086 187.853 341.316 187.853 339.93V336.674C187.853 335.244 188.645 334.518 190.251 334.518C191.461 334.518 192.275 335.002 192.649 335.992C192.847 336.52 193.089 336.652 193.617 336.454L194.585 336.146C195.113 335.948 195.245 335.706 195.069 335.156C194.475 333.418 192.847 332.274 190.361 332.274C186.995 332.274 185.301 333.902 185.301 336.784V339.82ZM197.26 332.604C196.754 332.604 196.6 332.758 196.6 333.264V343.318C196.6 343.824 196.754 344 197.26 344H198.47C198.756 344 198.976 343.89 199.152 343.648L203.002 338.17C203.618 337.268 204.036 336.52 204.278 335.948H204.344C204.014 337.07 203.86 338.148 203.86 339.182V343.318C203.86 343.824 204.036 344 204.542 344H205.752C206.258 344 206.412 343.824 206.412 343.318V333.264C206.412 332.758 206.258 332.604 205.752 332.604H204.542C204.256 332.604 204.036 332.714 203.882 332.934L199.988 338.456C199.46 339.226 199.042 339.974 198.756 340.678H198.69C198.998 339.578 199.152 338.5 199.152 337.466V333.264C199.152 332.758 198.976 332.604 198.47 332.604H197.26ZM209.328 332.912C208.624 333.198 208.47 333.462 208.47 334.166V348.158C208.47 348.664 208.646 348.84 209.152 348.84H210.362C210.868 348.84 211.022 348.664 211.022 348.158V343.934C212.034 344.198 212.804 344.33 213.332 344.33C216.61 344.33 218.238 342.79 218.238 339.732V336.718C218.238 333.836 216.698 332.274 213.596 332.274C211.902 332.274 210.494 332.494 209.328 332.912ZM215.686 339.644C215.686 341.206 214.85 341.998 213.156 341.998C212.584 341.998 211.88 341.888 211.022 341.668V335.134C211.022 335.002 211.088 334.914 211.242 334.848C211.814 334.694 212.474 334.606 213.222 334.606C214.872 334.606 215.686 335.332 215.686 336.784V339.644ZM219.8 334.562C219.558 335.002 219.69 335.332 220.174 335.552L221.054 335.926C221.56 336.102 221.67 336.058 222 335.596C222.462 334.892 223.232 334.54 224.31 334.54C225.894 334.54 226.51 335.288 226.51 336.718V337.334C225.256 337.268 224.552 337.224 224.398 337.224C220.812 337.224 219.404 338.148 219.404 340.766C219.404 341.976 219.756 342.878 220.46 343.45C221.164 344.044 222.44 344.33 224.31 344.33C226.07 344.33 227.39 344.132 228.27 343.758C228.886 343.494 229.062 343.274 229.062 342.504V336.806C229.062 333.792 227.5 332.274 224.354 332.274C222.11 332.274 220.592 333.044 219.8 334.562ZM226.51 341.734C226.51 341.888 226.422 341.976 226.268 342.042C225.74 342.152 225.014 342.218 224.068 342.218C222.462 342.218 222 341.734 222 340.744C222 339.776 222.528 339.314 224.112 339.314C224.178 339.314 224.97 339.358 226.51 339.424V341.734ZM235.998 332.604C235.492 332.604 235.338 332.758 235.338 333.264V343.318C235.338 343.824 235.492 344 235.998 344H237.208C237.494 344 237.714 343.89 237.89 343.648L241.74 338.17C242.356 337.268 242.774 336.52 243.016 335.948H243.082C242.752 337.07 242.598 338.148 242.598 339.182V343.318C242.598 343.824 242.774 344 243.28 344H244.49C244.996 344 245.15 343.824 245.15 343.318V333.264C245.15 332.758 244.996 332.604 244.49 332.604H243.28C242.994 332.604 242.774 332.714 242.62 332.934L238.726 338.456C238.198 339.226 237.78 339.974 237.494 340.678H237.428C237.736 339.578 237.89 338.5 237.89 337.466V333.264C237.89 332.758 237.714 332.604 237.208 332.604H235.998ZM259.522 332.604C259.016 332.604 258.84 332.758 258.84 333.264V341.14C258.048 341.338 257.3 341.448 256.574 341.448C254.968 341.448 254.176 340.722 254.176 339.27V333.264C254.176 332.758 254.022 332.604 253.516 332.604H252.306C251.8 332.604 251.624 332.758 251.624 333.264V339.358C251.624 342.196 253.142 343.78 256.222 343.78C257.058 343.78 257.938 343.67 258.84 343.472V344.506C258.84 346.09 258.07 346.882 256.508 346.882C255.43 346.882 254.66 346.508 254.198 345.76C253.868 345.298 253.626 345.232 253.098 345.496L252.262 345.958C251.756 346.2 251.668 346.574 251.976 347.058C252.834 348.466 254.374 349.17 256.552 349.17C259.874 349.17 261.392 347.388 261.392 344.374V333.264C261.392 332.758 261.216 332.604 260.71 332.604H259.522ZM263.013 339.82C263.013 342.702 264.619 344.33 267.875 344.33C270.383 344.33 272.011 343.362 272.781 341.404C272.979 340.942 272.825 340.612 272.319 340.414L271.329 340.128C270.801 339.952 270.559 340.04 270.361 340.568C269.987 341.58 269.173 342.086 267.963 342.086C266.401 342.086 265.565 341.316 265.565 339.93V336.674C265.565 335.244 266.357 334.518 267.963 334.518C269.173 334.518 269.987 335.002 270.361 335.992C270.559 336.52 270.801 336.652 271.329 336.454L272.297 336.146C272.825 335.948 272.957 335.706 272.781 335.156C272.187 333.418 270.559 332.274 268.073 332.274C264.707 332.274 263.013 333.902 263.013 336.784V339.82ZM274.005 332.604C273.499 332.604 273.323 332.758 273.323 333.264V334.276C273.323 334.782 273.499 334.958 274.005 334.958H276.887V343.318C276.887 343.824 277.063 344 277.569 344H278.757C279.263 344 279.439 343.824 279.439 343.318V334.958H282.299C282.805 334.958 282.981 334.782 282.981 334.276V333.264C282.981 332.758 282.805 332.604 282.299 332.604H274.005ZM283.88 334.562C283.638 335.002 283.77 335.332 284.254 335.552L285.134 335.926C285.64 336.102 285.75 336.058 286.08 335.596C286.542 334.892 287.312 334.54 288.39 334.54C289.974 334.54 290.59 335.288 290.59 336.718V337.334C289.336 337.268 288.632 337.224 288.478 337.224C284.892 337.224 283.484 338.148 283.484 340.766C283.484 341.976 283.836 342.878 284.54 343.45C285.244 344.044 286.52 344.33 288.39 344.33C290.15 344.33 291.47 344.132 292.35 343.758C292.966 343.494 293.142 343.274 293.142 342.504V336.806C293.142 333.792 291.58 332.274 288.434 332.274C286.19 332.274 284.672 333.044 283.88 334.562ZM290.59 341.734C290.59 341.888 290.502 341.976 290.348 342.042C289.82 342.152 289.094 342.218 288.148 342.218C286.542 342.218 286.08 341.734 286.08 340.744C286.08 339.776 286.608 339.314 288.192 339.314C288.258 339.314 289.05 339.358 290.59 339.424V341.734ZM302.878 332.604C302.372 332.604 302.196 332.758 302.196 333.264V337.004H297.598V333.264C297.598 332.758 297.422 332.604 296.916 332.604H295.706C295.2 332.604 295.046 332.758 295.046 333.264V343.318C295.046 343.824 295.2 344 295.706 344H296.916C297.422 344 297.598 343.824 297.598 343.318V339.38H302.196V343.318C302.196 343.824 302.372 344 302.878 344H304.088C304.594 344 304.748 343.824 304.748 343.318V333.264C304.748 332.758 304.594 332.604 304.088 332.604H302.878ZM306.478 339.93C306.478 342.68 308.304 344.33 311.538 344.33C314.794 344.33 316.62 342.68 316.62 339.93V336.674C316.62 333.924 314.794 332.274 311.538 332.274C308.304 332.274 306.478 333.924 306.478 336.674V339.93ZM314.068 339.93C314.068 341.25 313.144 342.02 311.538 342.02C309.932 342.02 309.03 341.25 309.03 339.93V336.674C309.03 335.332 309.932 334.584 311.538 334.584C313.144 334.584 314.068 335.332 314.068 336.674V339.93ZM327.663 335.75C327.663 333.836 326.431 332.604 324.297 332.604H319.039C318.511 332.604 318.357 332.758 318.357 333.286V343.318C318.357 343.824 318.511 344 319.039 344H324.605C326.739 344 328.103 342.724 328.103 340.766C328.103 339.534 327.597 338.632 326.607 338.06C327.311 337.554 327.663 336.784 327.663 335.75ZM320.909 337.136V334.76H323.857C324.649 334.76 325.111 335.222 325.111 335.948C325.111 336.652 324.649 337.136 323.879 337.136H320.909ZM320.909 341.844V339.226H324.077C324.935 339.226 325.441 339.71 325.441 340.502C325.441 341.316 324.913 341.844 324.099 341.844H320.909ZM330.351 332.604C329.845 332.604 329.691 332.758 329.691 333.264V343.318C329.691 343.824 329.845 344 330.351 344H331.561C331.847 344 332.067 343.89 332.243 343.648L336.093 338.17C336.709 337.268 337.127 336.52 337.369 335.948H337.435C337.105 337.07 336.951 338.148 336.951 339.182V343.318C336.951 343.824 337.127 344 337.633 344H338.843C339.349 344 339.503 343.824 339.503 343.318V333.264C339.503 332.758 339.349 332.604 338.843 332.604H337.633C337.347 332.604 337.127 332.714 336.973 332.934L333.079 338.456C332.551 339.226 332.133 339.974 331.847 340.678H331.781C332.089 339.578 332.243 338.5 332.243 337.466V333.264C332.243 332.758 332.067 332.604 331.561 332.604H330.351ZM341.296 332.604C340.79 332.604 340.614 332.758 340.614 333.264V334.276C340.614 334.782 340.79 334.958 341.296 334.958H344.178V343.318C344.178 343.824 344.354 344 344.86 344H346.048C346.554 344 346.73 343.824 346.73 343.318V334.958H349.59C350.096 334.958 350.272 334.782 350.272 334.276V333.264C350.272 332.758 350.096 332.604 349.59 332.604H341.296ZM350.887 339.622C350.887 342.504 352.515 344.33 355.947 344.33C358.257 344.33 359.841 343.626 360.699 342.218C361.029 341.712 360.941 341.36 360.435 341.118L359.665 340.7C359.137 340.414 358.895 340.458 358.543 340.964C358.037 341.734 357.179 342.13 355.947 342.13C354.341 342.13 353.439 341.36 353.439 339.93V339.116H360.083C360.743 339.116 361.073 338.808 361.073 338.17V336.828C361.073 334.166 359.335 332.274 355.991 332.274C352.669 332.274 350.887 333.946 350.887 337.026V339.622ZM358.521 337.158H353.439V336.674C353.439 335.244 354.341 334.43 355.991 334.43C357.663 334.43 358.521 335.244 358.521 336.674V337.158ZM59.0942 366.604C58.5882 366.604 58.4342 366.758 58.4342 367.264V377.318C58.4342 377.824 58.5882 378 59.0942 378H60.3042C60.8102 378 60.9862 377.824 60.9862 377.318V368.958H65.4962V377.318C65.4962 377.824 65.6722 378 66.1782 378H67.3662C67.8942 378 68.0482 377.824 68.0482 377.318V367.264C68.0482 366.758 67.8942 366.604 67.3662 366.604H59.0942ZM70.8144 366.604C70.3084 366.604 70.1544 366.758 70.1544 367.264V377.318C70.1544 377.824 70.3084 378 70.8144 378H72.0244C72.3104 378 72.5304 377.89 72.7064 377.648L76.5564 372.17C77.1724 371.268 77.5904 370.52 77.8324 369.948H77.8984C77.5684 371.07 77.4144 372.148 77.4144 373.182V377.318C77.4144 377.824 77.5904 378 78.0964 378H79.3064C79.8124 378 79.9664 377.824 79.9664 377.318V367.264C79.9664 366.758 79.8124 366.604 79.3064 366.604H78.0964C77.8104 366.604 77.5904 366.714 77.4364 366.934L73.5424 372.456C73.0144 373.226 72.5964 373.974 72.3104 374.678H72.2444C72.5524 373.578 72.7064 372.5 72.7064 371.466V367.264C72.7064 366.758 72.5304 366.604 72.0244 366.604H70.8144ZM89.8999 366.604C89.3939 366.604 89.2179 366.758 89.2179 367.264V371.004H84.6199V367.264C84.6199 366.758 84.4439 366.604 83.9379 366.604H82.7279C82.2219 366.604 82.0679 366.758 82.0679 367.264V377.318C82.0679 377.824 82.2219 378 82.7279 378H83.9379C84.4439 378 84.6199 377.824 84.6199 377.318V373.38H89.2179V377.318C89.2179 377.824 89.3939 378 89.8999 378H91.1099C91.6159 378 91.7699 377.824 91.7699 377.318V367.264C91.7699 366.758 91.6159 366.604 91.1099 366.604H89.8999ZM94.6 370.938C94.05 370.938 93.852 371.136 93.852 371.686V372.654C93.852 373.204 94.05 373.402 94.6 373.402H99.66C100.21 373.402 100.408 373.204 100.408 372.654V371.686C100.408 371.136 100.21 370.938 99.66 370.938H94.6ZM110.354 373.336C109.892 372.412 109.364 371.796 108.77 371.51L112.07 367.396C112.488 366.868 112.334 366.604 111.63 366.604H110.552C109.738 366.604 109.562 366.648 109.232 367.11L106.262 371.004H106.064H105.052V367.286C105.052 366.758 104.876 366.604 104.326 366.604H103.204C102.654 366.604 102.5 366.758 102.5 367.286V377.296C102.5 377.824 102.654 378 103.204 378H104.326C104.876 378 105.052 377.824 105.052 377.296V373.38H106.438C107.34 373.38 107.824 373.666 108.176 374.458L109.54 377.384C109.804 377.912 109.958 378 110.728 378H111.828C112.466 378 112.554 377.78 112.268 377.186L110.354 373.336ZM113.052 373.93C113.052 376.68 114.878 378.33 118.112 378.33C121.368 378.33 123.194 376.68 123.194 373.93V370.674C123.194 367.924 121.368 366.274 118.112 366.274C114.878 366.274 113.052 367.924 113.052 370.674V373.93ZM120.642 373.93C120.642 375.25 119.718 376.02 118.112 376.02C116.506 376.02 115.604 375.25 115.604 373.93V370.674C115.604 369.332 116.506 368.584 118.112 368.584C119.718 368.584 120.642 369.332 120.642 370.674V373.93ZM135.034 375.624V367.264C135.034 366.758 134.858 366.604 134.352 366.604H127.114C126.608 366.604 126.454 366.758 126.454 367.264V370.476C126.454 373.204 125.992 374.92 125.09 375.624H124.606C124.1 375.624 123.946 375.8 123.946 376.328V380.376C123.946 380.882 124.1 381.058 124.606 381.058H125.728C126.234 381.058 126.41 380.882 126.41 380.376V378H134.242V380.376C134.242 380.882 134.44 381.058 134.946 381.058H136.046C136.552 381.058 136.728 380.882 136.728 380.376V376.328C136.728 375.8 136.552 375.624 136.046 375.624H135.034ZM128.918 368.958H132.482V375.624H128.016C128.61 374.546 128.918 372.896 128.918 370.652V368.958ZM152.587 375.624V367.264C152.587 366.758 152.411 366.604 151.905 366.604H144.667C144.161 366.604 144.007 366.758 144.007 367.264V370.476C144.007 373.204 143.545 374.92 142.643 375.624H142.159C141.653 375.624 141.499 375.8 141.499 376.328V380.376C141.499 380.882 141.653 381.058 142.159 381.058H143.281C143.787 381.058 143.963 380.882 143.963 380.376V378H151.795V380.376C151.795 380.882 151.993 381.058 152.499 381.058H153.599C154.105 381.058 154.281 380.882 154.281 380.376V376.328C154.281 375.8 154.105 375.624 153.599 375.624H152.587ZM146.471 368.958H150.035V375.624H145.569C146.163 374.546 146.471 372.896 146.471 370.652V368.958ZM157.43 366.604C156.924 366.604 156.748 366.758 156.748 367.264V370.542C156.748 372.632 156.528 374.062 156.088 374.766C155.648 375.492 155.384 375.668 154.834 375.954C154.482 376.152 154.394 376.416 154.57 376.746L155.142 377.89C155.34 378.286 155.604 378.396 155.978 378.242C156.924 377.802 157.474 377.362 158.178 376.284C158.882 375.228 159.234 373.336 159.234 370.696V368.958H162.578V377.318C162.578 377.824 162.754 378 163.26 378H164.448C164.954 378 165.13 377.824 165.13 377.318V367.264C165.13 366.758 164.954 366.604 164.448 366.604H157.43ZM170.542 366.604C168.1 366.604 166.604 368.078 166.604 370.454C166.604 372.214 167.33 373.38 168.804 373.974L166.714 377.186C166.34 377.736 166.428 378 167.22 378H168.298C169.068 378 169.244 377.934 169.53 377.406L171.378 374.326H173.622V377.318C173.622 377.824 173.798 378 174.304 378H175.492C175.998 378 176.174 377.824 176.174 377.318V367.286C176.174 366.758 175.998 366.604 175.492 366.604H170.542ZM173.622 368.892V372.016H170.872C169.904 372.016 169.266 371.4 169.266 370.454C169.266 369.552 169.904 368.892 170.872 368.892H173.622ZM191.882 369.75C191.882 367.836 190.65 366.604 188.516 366.604H183.258C182.73 366.604 182.576 366.758 182.576 367.286V377.318C182.576 377.824 182.73 378 183.258 378H188.824C190.958 378 192.322 376.724 192.322 374.766C192.322 373.534 191.816 372.632 190.826 372.06C191.53 371.554 191.882 370.784 191.882 369.75ZM185.128 371.136V368.76H188.076C188.868 368.76 189.33 369.222 189.33 369.948C189.33 370.652 188.868 371.136 188.098 371.136H185.128ZM185.128 375.844V373.226H188.296C189.154 373.226 189.66 373.71 189.66 374.502C189.66 375.316 189.132 375.844 188.318 375.844H185.128ZM201.549 366.604C200.823 366.604 200.691 366.67 200.361 367.176L198.227 370.278L196.049 367.176C195.763 366.714 195.565 366.604 194.795 366.604H193.805C193.079 366.604 192.903 366.868 193.277 367.396L196.643 372.148L193.123 377.208C192.705 377.736 192.837 378 193.629 378H194.663C195.389 378 195.565 377.934 195.895 377.428L198.161 373.974L200.537 377.428C200.867 377.934 201.043 378 201.769 378H202.825C203.529 378 203.683 377.736 203.309 377.208L199.789 372.126L203.089 367.396C203.441 366.868 203.287 366.604 202.627 366.604H201.549ZM203.709 373.93C203.709 376.68 205.535 378.33 208.769 378.33C212.025 378.33 213.851 376.68 213.851 373.93V370.674C213.851 367.924 212.025 366.274 208.769 366.274C205.535 366.274 203.709 367.924 203.709 370.674V373.93ZM211.299 373.93C211.299 375.25 210.375 376.02 208.769 376.02C207.163 376.02 206.261 375.25 206.261 373.93V370.674C206.261 369.332 207.163 368.584 208.769 368.584C210.375 368.584 211.299 369.332 211.299 370.674V373.93ZM225.691 375.624V367.264C225.691 366.758 225.515 366.604 225.009 366.604H217.771C217.265 366.604 217.111 366.758 217.111 367.264V370.476C217.111 373.204 216.649 374.92 215.747 375.624H215.263C214.757 375.624 214.603 375.8 214.603 376.328V380.376C214.603 380.882 214.757 381.058 215.263 381.058H216.385C216.891 381.058 217.067 380.882 217.067 380.376V378H224.899V380.376C224.899 380.882 225.097 381.058 225.603 381.058H226.703C227.209 381.058 227.385 380.882 227.385 380.376V376.328C227.385 375.8 227.209 375.624 226.703 375.624H225.691ZM219.575 368.958H223.139V375.624H218.673C219.267 374.546 219.575 372.896 219.575 370.652V368.958ZM228.378 368.562C228.136 369.002 228.268 369.332 228.752 369.552L229.632 369.926C230.138 370.102 230.248 370.058 230.578 369.596C231.04 368.892 231.81 368.54 232.888 368.54C234.472 368.54 235.088 369.288 235.088 370.718V371.334C233.834 371.268 233.13 371.224 232.976 371.224C229.39 371.224 227.982 372.148 227.982 374.766C227.982 375.976 228.334 376.878 229.038 377.45C229.742 378.044 231.018 378.33 232.888 378.33C234.648 378.33 235.968 378.132 236.848 377.758C237.464 377.494 237.64 377.274 237.64 376.504V370.806C237.64 367.792 236.078 366.274 232.932 366.274C230.688 366.274 229.17 367.044 228.378 368.562ZM235.088 375.734C235.088 375.888 235 375.976 234.846 376.042C234.318 376.152 233.592 376.218 232.646 376.218C231.04 376.218 230.578 375.734 230.578 374.744C230.578 373.776 231.106 373.314 232.69 373.314C232.756 373.314 233.548 373.358 235.088 373.424V375.734ZM251.749 366.604C251.243 366.604 251.067 366.758 251.067 367.264V371.004H246.469V367.264C246.469 366.758 246.293 366.604 245.787 366.604H244.577C244.071 366.604 243.917 366.758 243.917 367.264V377.318C243.917 377.824 244.071 378 244.577 378H245.787C246.293 378 246.469 377.824 246.469 377.318V373.38H251.067V377.318C251.067 377.824 251.243 378 251.749 378H252.959C253.465 378 253.619 377.824 253.619 377.318V367.264C253.619 366.758 253.465 366.604 252.959 366.604H251.749ZM255.525 368.562C255.283 369.002 255.415 369.332 255.899 369.552L256.779 369.926C257.285 370.102 257.395 370.058 257.725 369.596C258.187 368.892 258.957 368.54 260.035 368.54C261.619 368.54 262.235 369.288 262.235 370.718V371.334C260.981 371.268 260.277 371.224 260.123 371.224C256.537 371.224 255.129 372.148 255.129 374.766C255.129 375.976 255.481 376.878 256.185 377.45C256.889 378.044 258.165 378.33 260.035 378.33C261.795 378.33 263.115 378.132 263.995 377.758C264.611 377.494 264.787 377.274 264.787 376.504V370.806C264.787 367.792 263.225 366.274 260.079 366.274C257.835 366.274 256.317 367.044 255.525 368.562ZM262.235 375.734C262.235 375.888 262.147 375.976 261.993 376.042C261.465 376.152 260.739 376.218 259.793 376.218C258.187 376.218 257.725 375.734 257.725 374.744C257.725 373.776 258.253 373.314 259.837 373.314C259.903 373.314 260.695 373.358 262.235 373.424V375.734ZM278.917 373.336C278.455 372.412 277.927 371.796 277.333 371.51L280.633 367.396C281.051 366.868 280.897 366.604 280.193 366.604H279.115C278.301 366.604 278.125 366.648 277.795 367.11L274.825 371.004H274.627H273.615V367.286C273.615 366.758 273.439 366.604 272.889 366.604H271.767C271.217 366.604 271.063 366.758 271.063 367.286V377.296C271.063 377.824 271.217 378 271.767 378H272.889C273.439 378 273.615 377.824 273.615 377.296V373.38H275.001C275.903 373.38 276.387 373.666 276.739 374.458L278.103 377.384C278.367 377.912 278.521 378 279.291 378H280.391C281.029 378 281.117 377.78 280.831 377.186L278.917 373.336ZM281.898 368.562C281.656 369.002 281.788 369.332 282.272 369.552L283.152 369.926C283.658 370.102 283.768 370.058 284.098 369.596C284.56 368.892 285.33 368.54 286.408 368.54C287.992 368.54 288.608 369.288 288.608 370.718V371.334C287.354 371.268 286.65 371.224 286.496 371.224C282.91 371.224 281.502 372.148 281.502 374.766C281.502 375.976 281.854 376.878 282.558 377.45C283.262 378.044 284.538 378.33 286.408 378.33C288.168 378.33 289.488 378.132 290.368 377.758C290.984 377.494 291.16 377.274 291.16 376.504V370.806C291.16 367.792 289.598 366.274 286.452 366.274C284.208 366.274 282.69 367.044 281.898 368.562ZM288.608 375.734C288.608 375.888 288.52 375.976 288.366 376.042C287.838 376.152 287.112 376.218 286.166 376.218C284.56 376.218 284.098 375.734 284.098 374.744C284.098 373.776 284.626 373.314 286.21 373.314C286.276 373.314 287.068 373.358 288.608 373.424V375.734ZM292.69 373.82C292.69 376.702 294.296 378.33 297.552 378.33C300.06 378.33 301.688 377.362 302.458 375.404C302.656 374.942 302.502 374.612 301.996 374.414L301.006 374.128C300.478 373.952 300.236 374.04 300.038 374.568C299.664 375.58 298.85 376.086 297.64 376.086C296.078 376.086 295.242 375.316 295.242 373.93V370.674C295.242 369.244 296.034 368.518 297.64 368.518C298.85 368.518 299.664 369.002 300.038 369.992C300.236 370.52 300.478 370.652 301.006 370.454L301.974 370.146C302.502 369.948 302.634 369.706 302.458 369.156C301.864 367.418 300.236 366.274 297.75 366.274C294.384 366.274 292.69 367.902 292.69 370.784V373.82ZM303.615 373.82C303.615 376.702 305.221 378.33 308.477 378.33C310.985 378.33 312.613 377.362 313.383 375.404C313.581 374.942 313.427 374.612 312.921 374.414L311.931 374.128C311.403 373.952 311.161 374.04 310.963 374.568C310.589 375.58 309.775 376.086 308.565 376.086C307.003 376.086 306.167 375.316 306.167 373.93V370.674C306.167 369.244 306.959 368.518 308.565 368.518C309.775 368.518 310.589 369.002 310.963 369.992C311.161 370.52 311.403 370.652 311.931 370.454L312.899 370.146C313.427 369.948 313.559 369.706 313.383 369.156C312.789 367.418 311.161 366.274 308.675 366.274C305.309 366.274 303.615 367.902 303.615 370.784V373.82ZM322.813 366.604C322.307 366.604 322.131 366.758 322.131 367.264V375.14C321.339 375.338 320.591 375.448 319.865 375.448C318.259 375.448 317.467 374.722 317.467 373.27V367.264C317.467 366.758 317.313 366.604 316.807 366.604H315.597C315.091 366.604 314.915 366.758 314.915 367.264V373.358C314.915 376.196 316.433 377.78 319.513 377.78C320.349 377.78 321.229 377.67 322.131 377.472V378.506C322.131 380.09 321.361 380.882 319.799 380.882C318.721 380.882 317.951 380.508 317.489 379.76C317.159 379.298 316.917 379.232 316.389 379.496L315.553 379.958C315.047 380.2 314.959 380.574 315.267 381.058C316.125 382.466 317.665 383.17 319.843 383.17C323.165 383.17 324.683 381.388 324.683 378.374V367.264C324.683 366.758 324.507 366.604 324.001 366.604H322.813Z" fill="#EEF2F8"/>
<path d="M189.816 274.597C262.557 274.597 321.529 215.625 321.529 142.624C321.529 69.6234 262.297 10.6514 189.816 10.6514C117.075 10.6514 58.1031 69.6234 58.1031 142.624C58.1031 215.625 117.075 274.597 189.816 274.597Z" fill="#7DC1FF"/>
<path opacity="0.3" d="M312.956 56.1144C318.838 56.1144 323.607 51.3457 323.607 45.4631C323.607 39.5805 318.838 34.8118 312.956 34.8118C307.073 34.8118 302.305 39.5805 302.305 45.4631C302.305 51.3457 307.073 56.1144 312.956 56.1144Z" fill="#EAEEF9"/>
<path opacity="0.1" d="M328.543 14.5482C332.561 14.5482 335.817 11.2915 335.817 7.27414C335.817 3.25678 332.561 6.10352e-05 328.543 6.10352e-05C324.526 6.10352e-05 321.269 3.25678 321.269 7.27414C321.269 11.2915 324.526 14.5482 328.543 14.5482Z" fill="#EAEEF9"/>
<path opacity="0.4" d="M65.1175 55.8547C69.1348 55.8547 72.3916 52.598 72.3916 48.5806C72.3916 44.5632 69.1348 41.3065 65.1175 41.3065C61.1001 41.3065 57.8434 44.5632 57.8434 48.5806C57.8434 52.598 61.1001 55.8547 65.1175 55.8547Z" fill="#EAEEF9"/>
<path opacity="0.1" d="M34.509 213.1C41.9698 213.1 48.018 207.052 48.018 199.591C48.018 192.13 41.9698 186.082 34.509 186.082C27.0482 186.082 21 192.13 21 199.591C21 207.052 27.0482 213.1 34.509 213.1Z" fill="#EAEEF9"/>
<g filter="url(#filter0_d_5816_7716)">
<path d="M329.994 201.412H290.035C288.145 201.412 286.525 200.197 285.985 198.577C282.07 186.968 273.431 184.133 252.507 175.898C251.292 175.358 251.157 173.738 252.372 173.063C258.446 170.093 257.366 167.528 257.366 149.709C257.096 149.439 256.826 149.034 256.691 148.764C255.341 146.739 254.396 144.309 254.126 141.879L252.777 141.204C248.727 142.149 248.997 137.829 247.917 129.46C247.512 125.95 248.052 125.275 249.537 124.735L250.887 122.98C242.922 105.161 246.972 93.9562 254.801 89.9063C252.237 84.2365 252.102 82.2116 252.102 82.2116C252.102 82.2116 268.706 85.0465 274.376 83.8315C281.665 82.3466 292.735 84.1015 296.92 93.6862C303.805 96.3861 306.504 100.841 307.179 105.431C308.124 112.99 303.94 121.225 303.13 124.465C303.265 124.6 303.265 124.735 303.4 124.87C304.48 125.41 304.884 126.355 304.48 129.325C303.535 137.289 303.67 142.284 299.62 141.069L295.975 147.414C295.84 148.224 295.705 148.494 295.705 148.899C295.57 150.114 295.57 152.409 295.57 165.638C295.57 167.258 295.975 168.743 296.785 169.958C297.595 171.443 298.945 172.523 300.565 173.198H300.7C310.149 177.113 316.899 179.678 321.894 181.703C332.963 186.158 334.853 187.372 335.798 194.797C336.068 198.442 333.503 201.412 329.994 201.412Z" fill="white"/>
</g>
<path d="M302.856 124.328C303.261 122.303 302.316 119.873 301.506 118.118C301.371 117.848 301.236 117.578 301.101 117.173C297.996 110.828 290.842 108.129 284.092 107.859C266.813 106.914 265.193 110.288 259.793 105.294C261.413 107.859 261.683 111.773 258.983 116.768C257.228 120.278 253.718 121.763 250.613 122.843C242.784 105.024 246.698 93.8191 254.528 89.7692C251.963 84.0994 251.828 82.0745 251.828 82.0745C251.828 82.0745 268.433 84.9094 274.102 83.6945C281.392 82.2095 292.462 83.9645 296.646 93.5491C303.531 96.249 306.231 100.704 306.906 105.294C307.986 112.853 303.666 121.088 302.856 124.328Z" fill="url(#paint0_linear_5816_7716)"/>
<path opacity="0.1" d="M325.805 201.41C329.99 194.93 328.37 188.855 321.62 181.701C332.69 186.156 334.58 187.37 335.525 194.795C336.065 198.17 333.365 201.275 329.855 201.275H325.805V201.41Z" fill="#1C90FB"/>
<path d="M296.511 170.091V173.196H256.418V169.146C257.363 166.986 257.093 167.121 257.093 149.707C256.823 149.437 256.553 149.032 256.418 148.762V147.817C257.228 149.302 258.443 150.652 259.658 151.732L272.212 160.506C275.182 162.936 279.367 163.071 282.337 160.641L294.082 150.112C294.487 149.707 294.891 149.437 295.296 149.032C295.161 150.247 295.161 152.542 295.161 165.771C295.296 167.256 295.701 168.741 296.511 170.091Z" fill="url(#paint1_linear_5816_7716)"/>
<g filter="url(#filter1_d_5816_7716)">
<path d="M123.448 171.306C116.968 171.171 116.293 169.956 116.293 169.956V159.157C123.178 153.487 128.983 146.872 130.603 138.232C134.923 137.287 137.623 133.373 137.218 129.053C137.083 127.163 135.868 125.408 135.733 123.383C135.733 122.438 135.733 121.493 135.733 120.548C135.733 119.873 135.733 119.333 135.598 118.658C135.598 117.983 135.463 117.308 135.463 116.633C135.058 113.393 134.248 110.019 132.088 106.104C126.688 95.9791 116.023 89.2293 104.009 89.2293C101.579 89.2293 99.1491 89.4993 96.8542 90.0393C92.5344 90.9843 88.6195 92.8742 85.1097 95.5741C84.4347 96.1141 83.7597 96.6541 83.0848 97.194C82.9498 97.329 82.8148 97.464 82.5448 97.599C78.7649 101.109 75.795 105.564 74.1751 110.559C72.5552 115.553 72.1502 120.683 72.8252 125.813C72.8252 125.948 72.8252 126.083 72.8252 126.218C72.8252 126.353 72.8252 126.488 72.8252 126.623C72.9602 127.568 73.2301 127.433 72.5552 128.243C72.4202 128.513 72.1502 128.783 72.0152 129.188C71.2052 130.673 70.5302 132.698 71.4752 135.128C73.0951 139.717 76.335 139.042 79.3049 141.607C79.1699 141.742 78.8999 141.877 78.7649 141.877H78.6299L75.2551 142.957C55.0059 149.302 52.7109 170.766 73.5001 174.681C72.0152 174.816 70.6652 175.626 69.7203 176.301C63.1055 181.431 58.9207 189.26 57.8407 196.955C57.4358 199.25 59.3257 201.41 61.7556 201.41H93.8843C94.5593 201.41 95.2343 200.87 95.5043 200.195C98.4742 189.395 105.224 185.616 119.263 179.946L127.363 176.706C128.713 176.166 130.198 175.626 131.818 174.951C133.303 174.411 133.168 172.251 131.548 171.846C129.928 171.441 128.308 171.306 126.688 171.171C125.338 171.306 124.258 171.306 123.448 171.306ZM82.2748 157.537C82.2748 156.187 83.2198 154.702 85.2447 153.082C86.0546 154.162 87.1346 155.377 88.3496 156.457C89.2945 157.267 90.2395 158.077 91.3194 158.887C91.9944 159.292 92.6694 159.832 93.3444 160.372C93.4794 160.507 93.6143 160.642 93.7493 160.642C93.8843 160.777 94.1543 160.912 94.2893 161.047V167.661C94.1543 167.526 94.0193 167.391 93.8843 167.391C93.2094 166.851 92.6694 166.311 92.1294 165.906C91.1844 165.231 90.2395 164.691 89.2945 164.151C88.8895 163.881 88.6195 163.746 88.3496 163.476C85.2447 161.452 82.4098 159.562 82.2748 157.537Z" fill="white"/>
</g>
<path d="M123.448 171.306C122.368 175.221 121.153 177.651 121.153 177.651L86.3246 172.116L88.3496 163.477C88.6195 163.747 89.0245 163.882 89.2945 164.017C90.2395 164.556 91.3194 165.231 92.1294 165.906C92.6694 166.311 93.3444 166.716 93.8843 167.391C94.0193 167.526 94.1543 167.661 94.1543 167.661V161.047C93.8843 160.912 93.7493 160.777 93.6143 160.642C99.2841 163.477 106.304 164.961 116.428 159.022C116.293 159.022 116.293 159.157 116.158 159.157V169.956C116.158 169.956 116.968 171.171 123.448 171.306Z" fill="url(#paint2_linear_5816_7716)"/>
<path d="M135.463 118.658C129.658 120.683 123.448 121.493 117.238 120.953C107.519 120.143 98.0692 116.228 90.7795 109.748C88.3496 116.768 82.2748 122.033 75.3901 125.138C74.4451 125.543 73.5001 125.948 72.5552 126.218C72.5552 126.083 72.5552 125.948 72.5552 125.948C71.8802 120.818 72.2852 115.688 73.9051 110.693C75.5251 105.699 78.4949 101.244 82.2748 97.7339C82.4098 97.5989 82.5448 97.4639 82.8148 97.3289C83.4897 96.789 84.1647 96.249 84.8397 95.709C88.3496 93.1441 92.3994 91.2542 96.5842 90.1742C99.0141 89.6343 101.309 89.3643 103.739 89.3643C115.753 89.3643 126.418 96.114 131.818 106.239C133.843 110.153 134.788 113.528 135.193 116.633C135.463 117.308 135.463 117.983 135.463 118.658Z" fill="url(#paint3_linear_5816_7716)"/>
<path d="M85.6497 153.487C86.4596 154.567 87.4046 155.512 88.2146 156.322C87.2696 155.512 86.3246 154.567 85.6497 153.487Z" fill="#3973F4"/>
<path d="M98.3392 187.641C95.7743 190.88 90.9145 191.015 86.8646 190.88C91.1845 186.696 88.7546 173.061 73.6352 174.681H73.5002C52.711 170.766 55.0059 149.302 75.1201 142.957L78.495 141.877C78.7649 142.012 78.8999 142.147 79.0349 142.417C80.6549 146.602 82.8148 150.112 85.1097 152.947C76.875 159.832 88.3496 161.992 93.8844 167.256C98.7442 170.091 102.794 181.971 98.3392 187.641Z" fill="url(#paint4_linear_5816_7716)"/>
<path d="M85.5147 153.487C85.3797 153.352 85.2447 153.217 85.2447 153.082C85.2447 153.082 85.3797 153.352 85.5147 153.487Z" fill="#3973F4"/>
<g filter="url(#filter2_d_5816_7716)">
<path d="M278.287 207.62C278.962 212.615 275.047 217.204 269.918 217.204H111.704C106.574 217.204 102.659 212.615 103.334 207.62C104.819 197.225 107.114 195.065 122.503 188.855L126.283 187.37C133.438 184.536 142.752 181.026 155.307 175.761C158.142 174.546 160.437 172.386 161.652 169.551C162.327 168.066 162.732 166.311 162.732 164.556V140.932C162.327 140.392 161.922 139.987 161.652 139.447C159.627 136.477 158.277 132.968 157.872 129.188L155.847 128.243C149.772 129.728 150.312 123.248 148.692 110.828C148.017 105.699 148.827 104.619 151.122 103.809L153.012 101.244C141.403 74.9199 147.207 58.4505 158.682 52.6458C155.172 44.2761 154.902 41.3062 154.902 41.3062C154.902 41.3062 179.336 45.3561 187.706 43.7361C198.37 41.5762 214.84 44.1411 220.914 58.3155C231.039 62.3654 234.954 68.7101 235.899 75.7299C237.384 86.7994 231.039 98.949 229.824 103.674C229.959 103.944 229.959 104.079 230.094 104.214C231.714 105.024 232.254 106.374 231.714 110.828C230.229 122.573 230.634 129.863 224.559 128.243L219.16 137.692C218.89 138.772 218.89 139.177 218.755 139.987C218.485 141.742 218.62 145.252 218.62 164.556C218.62 166.851 219.295 169.146 220.509 170.901C221.859 172.926 223.749 174.681 226.044 175.626C226.179 175.626 226.179 175.626 226.314 175.761C240.219 181.566 250.208 185.346 257.498 188.18C274.102 194.66 276.667 196.685 278.287 207.62Z" fill="white"/>
</g>
<path d="M229.959 103.674C230.499 100.704 229.149 97.059 228.069 94.4941C227.934 94.0891 227.664 93.6842 227.529 93.1442C222.804 83.6946 212.41 79.9147 202.42 79.3747C176.906 78.0248 174.611 82.8846 166.647 75.5949C169.076 79.3747 169.346 85.1795 165.567 92.4692C162.867 97.599 157.737 99.8939 153.282 101.379C141.673 75.0549 147.477 58.5855 158.952 52.7808C155.172 44.2761 154.902 41.3062 154.902 41.3062C154.902 41.3062 179.336 45.3561 187.706 43.7361C198.37 41.5762 214.84 44.1411 220.914 58.3155C231.039 62.3654 234.954 68.7101 235.899 75.7299C237.519 86.6644 231.174 98.814 229.959 103.674Z" fill="url(#paint5_linear_5816_7716)"/>
<path opacity="0.1" d="M263.978 217.069C270.187 207.62 267.758 198.71 257.768 188.181C274.102 194.66 276.802 196.685 278.287 207.485C278.962 212.48 275.047 217.069 269.917 217.069H263.978Z" fill="#1C90FB"/>
<path d="M220.644 170.901V175.491H161.787V169.551C162.462 168.066 162.867 166.311 162.867 164.556V140.932C162.462 140.392 162.057 139.987 161.787 139.447V138.097C163.002 140.257 164.622 142.282 166.647 143.902L185.141 156.862C189.461 160.507 195.67 160.642 200.125 157.132L217.405 141.607C217.945 141.067 218.62 140.527 219.16 139.987C218.89 141.742 219.025 145.252 219.025 164.556C218.89 166.851 219.564 169.011 220.644 170.901Z" fill="url(#paint6_linear_5816_7716)"/>
<path d="M236.57 241.851C235.732 245.412 234.476 249.182 233.009 252.324C229.029 260.075 222.746 266.149 214.995 270.129C207.036 274.109 197.61 275.784 188.184 273.69C165.981 269.081 151.738 247.297 156.346 225.094C160.954 202.891 182.529 188.438 204.732 193.256C212.691 194.932 219.604 198.911 225.469 204.357C235.313 214.202 239.503 228.446 236.57 241.851Z" fill="url(#paint7_linear_5816_7716)"/>
<path d="M209.55 229.912H200.124V220.486C200.124 218.601 198.658 216.925 196.563 216.925C194.678 216.925 193.002 218.391 193.002 220.486V229.912H183.576C181.691 229.912 180.015 231.378 180.015 233.472C180.015 235.567 181.482 237.033 183.576 237.033H193.002V246.459C193.002 248.344 194.468 250.02 196.563 250.02C198.448 250.02 200.124 248.554 200.124 246.459V237.033H209.55C211.435 237.033 213.11 235.567 213.11 233.472C213.11 231.378 211.435 229.912 209.55 229.912Z" fill="white"/>
<defs>
<filter id="filter0_d_5816_7716" x="189.406" y="53.6349" width="203.565" height="233.507" filterUnits="userSpaceOnUse" color-interpolation-filters="sRGB">
<feFlood flood-opacity="0" result="BackgroundImageFix"/>
<feColorMatrix in="SourceAlpha" type="matrix" values="0 0 0 0 0 0 0 0 0 0 0 0 0 0 0 0 0 0 127 0" result="hardAlpha"/>
<feOffset dy="28.5768"/>
<feGaussianBlur stdDeviation="28.5768"/>
<feColorMatrix type="matrix" values="0 0 0 0 0.397708 0 0 0 0 0.47749 0 0 0 0 0.575 0 0 0 0.27 0"/>
<feBlend mode="normal" in2="BackgroundImageFix" result="effect1_dropShadow_5816_7716"/>
<feBlend mode="normal" in="SourceGraphic" in2="effect1_dropShadow_5816_7716" result="shape"/>
</filter>
<filter id="filter1_d_5816_7716" x="0.632362" y="60.6526" width="193.779" height="226.488" filterUnits="userSpaceOnUse" color-interpolation-filters="sRGB">
<feFlood flood-opacity="0" result="BackgroundImageFix"/>
<feColorMatrix in="SourceAlpha" type="matrix" values="0 0 0 0 0 0 0 0 0 0 0 0 0 0 0 0 0 0 127 0" result="hardAlpha"/>
<feOffset dy="28.5768"/>
<feGaussianBlur stdDeviation="28.5768"/>
<feColorMatrix type="matrix" values="0 0 0 0 0.397708 0 0 0 0 0.47749 0 0 0 0 0.575 0 0 0 0.27 0"/>
<feBlend mode="normal" in2="BackgroundImageFix" result="effect1_dropShadow_5816_7716"/>
<feBlend mode="normal" in="SourceGraphic" in2="effect1_dropShadow_5816_7716" result="shape"/>
</filter>
<filter id="filter2_d_5816_7716" x="46.1047" y="12.7295" width="289.412" height="290.205" filterUnits="userSpaceOnUse" color-interpolation-filters="sRGB">
<feFlood flood-opacity="0" result="BackgroundImageFix"/>
<feColorMatrix in="SourceAlpha" type="matrix" values="0 0 0 0 0 0 0 0 0 0 0 0 0 0 0 0 0 0 127 0" result="hardAlpha"/>
<feOffset dy="28.5768"/>
<feGaussianBlur stdDeviation="28.5768"/>
<feColorMatrix type="matrix" values="0 0 0 0 0.397708 0 0 0 0 0.47749 0 0 0 0 0.575 0 0 0 0.27 0"/>
<feBlend mode="normal" in2="BackgroundImageFix" result="effect1_dropShadow_5816_7716"/>
<feBlend mode="normal" in="SourceGraphic" in2="effect1_dropShadow_5816_7716" result="shape"/>
</filter>
<linearGradient id="paint0_linear_5816_7716" x1="246.318" y1="103.206" x2="307.089" y2="103.206" gradientUnits="userSpaceOnUse">
<stop stop-color="#A6D4FF"/>
<stop offset="1" stop-color="#DEEFFE"/>
</linearGradient>
<linearGradient id="paint1_linear_5816_7716" x1="276.477" y1="173.35" x2="276.477" y2="159.369" gradientUnits="userSpaceOnUse">
<stop stop-color="white"/>
<stop offset="1" stop-color="#C6E4FF"/>
</linearGradient>
<linearGradient id="paint2_linear_5816_7716" x1="104.898" y1="177.764" x2="104.898" y2="167.502" gradientUnits="userSpaceOnUse">
<stop stop-color="white"/>
<stop offset="1" stop-color="#C6E4FF"/>
</linearGradient>
<linearGradient id="paint3_linear_5816_7716" x1="72.2138" y1="107.795" x2="135.474" y2="107.795" gradientUnits="userSpaceOnUse">
<stop stop-color="#A6D4FF"/>
<stop offset="1" stop-color="#DEEFFE"/>
</linearGradient>
<linearGradient id="paint4_linear_5816_7716" x1="58.9174" y1="166.401" x2="100.268" y2="166.401" gradientUnits="userSpaceOnUse">
<stop stop-color="#A6D4FF"/>
<stop offset="1" stop-color="#DEEFFE"/>
</linearGradient>
<linearGradient id="paint5_linear_5816_7716" x1="146.905" y1="72.4968" x2="236.178" y2="72.4968" gradientUnits="userSpaceOnUse">
<stop stop-color="#A6D4FF"/>
<stop offset="1" stop-color="#DEEFFE"/>
</linearGradient>
<linearGradient id="paint6_linear_5816_7716" x1="191.233" y1="175.719" x2="191.233" y2="155.119" gradientUnits="userSpaceOnUse">
<stop stop-color="white"/>
<stop offset="1" stop-color="#E2E5EC"/>
</linearGradient>
<linearGradient id="paint7_linear_5816_7716" x1="106.061" y1="133.285" x2="282.701" y2="165.478" gradientUnits="userSpaceOnUse">
<stop stop-color="#1990FE"/>
<stop offset="0.959949" stop-color="#5AB0FF"/>
</linearGradient>
</defs>
</svg>
