<svg width="47" height="47" viewBox="0 0 47 47" fill="none" xmlns="http://www.w3.org/2000/svg">
<path fill-rule="evenodd" clip-rule="evenodd" d="M46.8905 26.186C46.8662 26.4356 46.8379 26.684 46.8058 26.9312C46.7734 27.1799 46.7371 27.4273 46.6968 27.6734C45.8972 27.5698 45.3189 26.849 45.3975 26.0407C45.4653 25.3444 45.5 24.6381 45.5 23.9232C45.5 23.2083 45.4653 22.5019 45.3975 21.8057C45.3189 20.9973 45.8972 20.2765 46.6968 20.1729C46.7371 20.419 46.7734 20.6665 46.8058 20.9152C46.8379 21.1624 46.8662 21.4108 46.8905 21.6604C46.9629 22.4048 47 23.1597 47 23.9232C47 24.6867 46.9629 25.4415 46.8905 26.186ZM44.5765 30.1894C44.8119 29.4123 45.6211 28.9664 46.3997 29.1752C46.3429 29.4194 46.2822 29.662 46.2177 29.903C46.153 30.1451 46.0844 30.3855 46.012 30.6243C45.5699 32.0838 44.987 33.4821 44.2792 34.8035C44.1611 35.024 44.0394 35.2425 43.9144 35.4587C43.7891 35.6754 43.6604 35.8898 43.5283 36.102C42.8301 35.6988 42.5735 34.8111 42.957 34.0952C43.6186 32.86 44.1633 31.5531 44.5765 30.1894ZM40.6035 37.611C41.1191 36.9834 42.0378 36.8821 42.6767 37.374C42.5308 37.5772 42.3815 37.7779 42.2292 37.9761C42.0767 38.1744 41.9212 38.3701 41.7625 38.5632C40.803 39.731 39.731 40.803 38.5632 41.7625C38.3701 41.9212 38.1744 42.0767 37.9761 42.2292C37.7779 42.3815 37.5772 42.5308 37.374 42.6767C36.8821 42.0378 36.9834 41.1191 37.611 40.6035C38.7033 39.706 39.706 38.7033 40.6035 37.611ZM34.0952 42.957C34.8111 42.5735 35.6988 42.8301 36.102 43.5283C35.8898 43.6604 35.6754 43.7891 35.4587 43.9144C35.2425 44.0394 35.024 44.1611 34.8035 44.2792C33.4821 44.987 32.0838 45.5699 30.6243 46.012C30.3855 46.0844 30.1451 46.153 29.903 46.2177C29.662 46.2822 29.4194 46.3429 29.1752 46.3997C28.9664 45.6211 29.4123 44.8119 30.1894 44.5765C31.5531 44.1633 32.86 43.6186 34.0952 42.957ZM26.0407 45.3975C26.849 45.3189 27.5698 45.8972 27.6734 46.6968C27.4273 46.7371 27.1799 46.7734 26.9312 46.8058C26.684 46.8379 26.4356 46.8662 26.186 46.8905C25.4415 46.9629 24.6867 47 23.9232 47C23.1597 47 22.4048 46.9629 21.6604 46.8905C21.4108 46.8662 21.1624 46.8379 20.9152 46.8058C20.6665 46.7734 20.419 46.7371 20.1729 46.6968C20.2765 45.8972 20.9973 45.3189 21.8057 45.3975C22.5019 45.4653 23.2083 45.5 23.9232 45.5C24.6381 45.5 25.3444 45.4653 26.0407 45.3975ZM17.657 44.5765C18.4341 44.8119 18.8799 45.6211 18.6711 46.3997C18.427 46.3429 18.1844 46.2822 17.9433 46.2177C17.7013 46.153 17.4608 46.0844 17.222 46.012C15.7626 45.5699 14.3643 44.987 13.0429 44.2792C12.8223 44.1611 12.6038 44.0394 12.3876 43.9144C12.1709 43.7891 11.9565 43.6604 11.7443 43.5283C12.1475 42.8301 13.0352 42.5735 13.7511 42.957C14.9864 43.6186 16.2932 44.1633 17.657 44.5765ZM10.2354 40.6035C10.8629 41.1191 10.9642 42.0378 10.4723 42.6767C10.2691 42.5308 10.0684 42.3815 9.87026 42.2292C9.67198 42.0767 9.47625 41.9212 9.28314 41.7625C8.1153 40.803 7.04335 39.731 6.08383 38.5632C5.92517 38.3701 5.76959 38.1744 5.61715 37.9761C5.46479 37.7779 5.31558 37.5772 5.16958 37.374C5.80858 36.8821 6.72722 36.9834 7.24282 37.611C8.14032 38.7033 9.14302 39.706 10.2354 40.6035ZM4.88937 34.0952C5.2728 34.8111 5.01619 35.6988 4.31801 36.102C4.18594 35.8898 4.05723 35.6754 3.93194 35.4587C3.80689 35.2425 3.68525 35.024 3.5671 34.8035C2.85934 33.4821 2.27648 32.0838 1.83431 30.6243C1.76196 30.3855 1.69337 30.1451 1.62863 29.903C1.56413 29.662 1.50344 29.4194 1.44662 29.1752C2.22522 28.9664 3.03443 29.4123 3.26987 30.1894C3.68305 31.5531 4.22775 32.86 4.88937 34.0952ZM2.44879 26.0407C2.52746 26.849 1.94913 27.5698 1.14951 27.6734C1.10928 27.4273 1.07295 27.1799 1.04058 26.9312C1.0084 26.684 0.980134 26.4356 0.955844 26.186C0.883391 25.4415 0.846313 24.6867 0.846313 23.9232C0.846313 23.1597 0.883391 22.4048 0.955844 21.6604C0.980133 21.4108 1.0084 21.1624 1.04058 20.9152C1.07295 20.6665 1.10928 20.419 1.14951 20.1729C1.94913 20.2765 2.52746 20.9973 2.44879 21.8057C2.38103 22.5019 2.34631 23.2083 2.34631 23.9232C2.34631 24.6381 2.38103 25.3444 2.44879 26.0407ZM3.26987 17.657C3.03443 18.4341 2.22522 18.8799 1.44662 18.6711C1.50344 18.427 1.56413 18.1844 1.62863 17.9433C1.69338 17.7013 1.76196 17.4608 1.83431 17.222C2.27648 15.7626 2.85934 14.3643 3.5671 13.0429C3.68525 12.8223 3.80689 12.6038 3.93193 12.3876C4.05723 12.1709 4.18594 11.9565 4.31801 11.7443C5.01619 12.1475 5.2728 13.0352 4.88937 13.7511C4.22775 14.9864 3.68305 16.2932 3.26987 17.657ZM7.24282 10.2354C6.72722 10.8629 5.80858 10.9642 5.16958 10.4723C5.31558 10.2691 5.46479 10.0684 5.61715 9.87026C5.76959 9.67198 5.92517 9.47625 6.08384 9.28314C7.04335 8.1153 8.1153 7.04335 9.28314 6.08383C9.47625 5.92517 9.67198 5.76959 9.87026 5.61715C10.0684 5.46479 10.2691 5.31558 10.4723 5.16958C10.9642 5.80858 10.8629 6.72722 10.2354 7.24282C9.14303 8.14032 8.14032 9.14302 7.24282 10.2354ZM13.7511 4.88937C13.0352 5.2728 12.1475 5.01619 11.7443 4.31801C11.9565 4.18594 12.1709 4.05723 12.3876 3.93193C12.6038 3.80689 12.8223 3.68525 13.0429 3.5671C14.3643 2.85934 15.7626 2.27648 17.222 1.83431C17.4608 1.76196 17.7013 1.69337 17.9433 1.62863C18.1844 1.56413 18.427 1.50344 18.6711 1.44662C18.8799 2.22522 18.4341 3.03443 17.657 3.26987C16.2932 3.68305 14.9864 4.22775 13.7511 4.88937ZM21.8057 2.44879C20.9973 2.52746 20.2765 1.94913 20.1729 1.14951C20.419 1.10928 20.6665 1.07295 20.9152 1.04058C21.1624 1.0084 21.4108 0.980134 21.6604 0.955844C22.4048 0.883391 23.1597 0.846313 23.9232 0.846313C24.6867 0.846313 25.4415 0.883391 26.186 0.955844C26.4356 0.980133 26.684 1.0084 26.9312 1.04058C27.1799 1.07295 27.4273 1.10928 27.6734 1.14951C27.5698 1.94913 26.849 2.52746 26.0407 2.44879C25.3444 2.38103 24.6381 2.34631 23.9232 2.34631C23.2083 2.34631 22.5019 2.38103 21.8057 2.44879ZM30.1894 3.26987C29.4123 3.03443 28.9664 2.22522 29.1752 1.44662C29.4194 1.50344 29.662 1.56413 29.903 1.62863C30.1451 1.69338 30.3855 1.76196 30.6243 1.83431C32.0838 2.27648 33.4821 2.85934 34.8035 3.5671C35.024 3.68525 35.2425 3.80689 35.4587 3.93194C35.6754 4.05723 35.8898 4.18594 36.102 4.31801C35.6988 5.01619 34.8111 5.2728 34.0952 4.88937C32.86 4.22775 31.5531 3.68305 30.1894 3.26987ZM37.611 7.24282C36.9834 6.72722 36.8821 5.80858 37.374 5.16958C37.5772 5.31558 37.7779 5.46479 37.9761 5.61715C38.1744 5.76959 38.3701 5.92517 38.5632 6.08384C39.731 7.04335 40.803 8.1153 41.7625 9.28314C41.9212 9.47625 42.0767 9.67198 42.2292 9.87026C42.3815 10.0684 42.5308 10.2691 42.6767 10.4723C42.0378 10.9642 41.1191 10.8629 40.6035 10.2354C39.706 9.14303 38.7033 8.14032 37.611 7.24282ZM46.2177 17.9433C46.2822 18.1844 46.3429 18.427 46.3997 18.6711C45.6211 18.8799 44.8119 18.4341 44.5765 17.657C44.1633 16.2932 43.6186 14.9864 42.957 13.7511C42.5735 13.0352 42.8301 12.1475 43.5283 11.7443C43.6604 11.9565 43.7891 12.1709 43.9144 12.3876C44.0394 12.6038 44.1611 12.8223 44.2792 13.0429C44.987 14.3643 45.5699 15.7626 46.012 17.222C46.0844 17.4608 46.153 17.7013 46.2177 17.9433ZM24.074 17.1659C24.5827 17.1659 24.9951 17.5783 24.9951 18.087V23.6136H30.5217C31.0304 23.6136 31.4428 24.026 31.4428 24.5347C31.4428 25.0434 31.0304 25.4558 30.5217 25.4558H24.9951V30.5218C24.9951 31.0306 24.5827 31.4429 24.074 31.4429C23.5653 31.4429 23.1529 31.0306 23.1529 30.5218V25.4558H18.0869C17.5782 25.4558 17.1658 25.0434 17.1658 24.5347C17.1658 24.026 17.5782 23.6136 18.0869 23.6136H23.1529V18.087C23.1529 17.5783 23.5653 17.1659 24.074 17.1659Z" fill="#758399"/>
</svg>
