<svg width="30" height="33" viewBox="0 0 30 33" fill="none" xmlns="http://www.w3.org/2000/svg">
<path d="M24.2836 22.5741L23.7864 23.4418L24.2836 22.5741ZM18.6883 1.95974L19.5559 2.45693L19.5559 2.45692L18.6883 1.95974ZM16.52 27.3632L15.6473 27.8515L16.52 27.3632ZM11.8342 29.9846L10.9615 30.4728L11.8342 29.9846ZM9.12128 8.85183L2.7901 10.5703L3.314 12.5005L9.64518 10.782L9.12128 8.85183ZM0.141138 15.193L1.59097 20.5345L3.52113 20.0106L2.0713 14.6691L0.141138 15.193ZM27.9527 20.2233L23.0424 2.13279L21.1123 2.65669L26.0225 20.7472L27.9527 20.2233ZM23.7864 23.4418C25.9888 24.7038 28.6176 22.673 27.9527 20.2233L26.0225 20.7472C26.2207 21.4774 25.4372 22.0826 24.7808 21.7065L23.7864 23.4418ZM1.59097 20.5345C2.136 22.5425 4.20565 23.7285 6.21367 23.1834L5.68976 21.2533C4.74775 21.509 3.77682 20.9526 3.52113 20.0106L1.59097 20.5345ZM2.7901 10.5703C0.782087 11.1153 -0.403894 13.185 0.141138 15.193L2.0713 14.6691C1.81561 13.7271 2.37199 12.7561 3.314 12.5005L2.7901 10.5703ZM17.8206 1.46255C15.5839 5.36588 13.2758 7.72418 9.12128 8.85183L9.64518 10.782C14.4836 9.46872 17.1597 6.63855 19.5559 2.45693L17.8206 1.46255ZM19.5559 2.45692C19.9321 1.80051 20.9141 1.92655 21.1123 2.65669L23.0424 2.13279C22.3775 -0.316935 19.0827 -0.739844 17.8206 1.46255L19.5559 2.45692ZM24.0695 9.73434L25.4049 9.37188L24.881 7.44172L23.5456 7.80418L24.0695 9.73434ZM26.3308 12.7832L24.9955 13.1457L25.5194 15.0758L26.8547 14.7134L26.3308 12.7832ZM27.5735 10.6146C27.8292 11.5566 27.2728 12.5275 26.3308 12.7832L26.8547 14.7134C28.8627 14.1683 30.0487 12.0987 29.5037 10.0907L27.5735 10.6146ZM25.4049 9.37188C26.3469 9.11619 27.3178 9.67257 27.5735 10.6146L29.5037 10.0907C28.9587 8.08267 26.889 6.89669 24.881 7.44172L25.4049 9.37188ZM6.21367 23.1834L7.54904 22.821L7.02514 20.8908L5.68976 21.2533L6.21367 23.1834ZM7.54904 22.821L12.5448 21.465L12.0209 19.5348L7.02514 20.8908L7.54904 22.821ZM6.41435 22.3441L10.9615 30.4728L12.7069 29.4964L8.15982 21.3677L6.41435 22.3441ZM12.5448 21.465C12.6545 21.4352 12.7633 21.4069 12.8713 21.38L12.3878 19.4393C12.266 19.4696 12.1438 19.5015 12.0209 19.5348L12.5448 21.465ZM12.8713 21.38C16.8629 20.3853 19.9798 21.2604 23.7864 23.4418L24.7808 21.7065C20.7115 19.3746 17.0545 18.2764 12.3878 19.4393L12.8713 21.38ZM17.3927 26.8749L13.5022 19.9214L11.7569 20.8979L15.6473 27.8515L17.3927 26.8749ZM15.1423 32.23C17.4559 31.602 18.5632 28.967 17.3927 26.8749L15.6473 27.8515C16.1825 28.808 15.6762 30.0127 14.6184 30.2998L15.1423 32.23ZM10.9615 30.4728C11.7869 31.9484 13.5106 32.6728 15.1423 32.23L14.6184 30.2998C13.8724 30.5023 13.0843 30.1711 12.7069 29.4964L10.9615 30.4728Z" fill="white"/>
</svg>
