<svg width="70" height="70" viewBox="0 0 70 70" fill="none" xmlns="http://www.w3.org/2000/svg">
<path d="M35 5.83398C18.8917 5.83398 5.83333 18.8923 5.83333 35.0007C5.83333 51.109 18.8917 64.1673 35 64.1673C51.1083 64.1673 64.1667 51.109 64.1667 35.0007C64.1667 18.8923 51.1083 5.83398 35 5.83398Z" fill="#12131A" fill-opacity="0.25"/>
<path fill-rule="evenodd" clip-rule="evenodd" d="M32.4719 27.7098C31.6653 29.1041 29.8811 29.5806 28.4868 28.774C27.0924 27.9674 26.616 26.1832 27.4225 24.7889C28.9311 22.1811 31.7578 20.416 35.0002 20.416C39.8327 20.416 43.7502 24.3335 43.7502 29.166C43.7501 32.3677 41.7861 34.9818 39.3752 36.4577C37.4385 37.6432 38.646 40.8327 34.9925 40.8327C33.3817 40.8327 32.0759 39.5268 32.0759 37.916C32.0759 37.8136 32.0811 37.7124 32.0914 37.6128C32.1723 36.0702 32.8601 34.8151 33.609 33.9025C34.3999 32.9387 35.4398 32.1518 36.2349 31.6792C40.6587 29.0493 35.2632 23.6693 32.4719 27.7098ZM34.9925 43.7493C33.3817 43.7493 32.0759 45.0552 32.0759 46.666C32.0759 48.2768 33.3817 49.5827 34.9925 49.5827C36.6033 49.5827 37.9092 48.2768 37.9092 46.666C37.9092 45.0552 36.6033 43.7493 34.9925 43.7493Z" fill="#49565E"/>
</svg>
