<svg width="70" height="70" viewBox="0 0 70 70" fill="none" xmlns="http://www.w3.org/2000/svg">
<path d="M14.5833 11.666H55.4167V59.791C55.4167 60.8317 54.358 61.5374 53.3974 61.1372L47.6006 58.7218C46.9957 58.4698 46.3235 58.4288 45.6924 58.6055L37.3593 60.9388C35.8161 61.3708 34.1839 61.3708 32.6407 60.9388L24.3076 58.6055C23.6765 58.4288 23.0043 58.4698 22.3994 58.7218L16.6026 61.1372C15.642 61.5374 14.5833 60.8317 14.5833 59.791V11.666Z" fill="#12131A" fill-opacity="0.25"/>
<path fill-rule="evenodd" clip-rule="evenodd" d="M26.25 26.25C24.6392 26.25 23.3333 27.5558 23.3333 29.1667C23.3333 30.7775 24.6392 32.0833 26.25 32.0833H32.0833C33.6942 32.0833 35 30.7775 35 29.1667C35 27.5558 33.6942 26.25 32.0833 26.25H26.25ZM43.75 26.25C42.1392 26.25 40.8333 27.5558 40.8333 29.1667C40.8333 30.7775 42.1392 32.0833 43.75 32.0833C45.3608 32.0833 46.6667 30.7775 46.6667 29.1667C46.6667 27.5558 45.3608 26.25 43.75 26.25ZM23.3333 40.8333C23.3333 39.2225 24.6392 37.9167 26.25 37.9167H32.0833C33.6942 37.9167 35 39.2225 35 40.8333C35 42.4442 33.6942 43.75 32.0833 43.75H26.25C24.6392 43.75 23.3333 42.4442 23.3333 40.8333ZM43.75 37.9167C42.1392 37.9167 40.8333 39.2225 40.8333 40.8333C40.8333 42.4442 42.1392 43.75 43.75 43.75C45.3608 43.75 46.6667 42.4442 46.6667 40.8333C46.6667 39.2225 45.3608 37.9167 43.75 37.9167Z" fill="#49565E"/>
<path d="M8.75 11.6667C8.75 10.0558 10.0558 8.75 11.6667 8.75H58.3333C59.9442 8.75 61.25 10.0558 61.25 11.6667C61.25 13.2775 59.9442 14.5833 58.3333 14.5833H11.6667C10.0558 14.5833 8.75 13.2775 8.75 11.6667Z" fill="#49565E"/>
</svg>
