<svg width="64" height="64" viewBox="0 0 64 64" fill="none" xmlns="http://www.w3.org/2000/svg">
<rect width="64" height="64" rx="10" fill="#1890FF"/>
<path d="M27.2255 29.5135C26.6305 28.9371 25.6809 28.9522 25.1045 29.5472C24.528 30.1422 24.5431 31.0919 25.1381 31.6683L27.2255 29.5135ZM32 36.2273L30.9563 37.3046C31.538 37.8682 32.462 37.8682 33.0437 37.3046L32 36.2273ZM46.1346 24.6228C46.7296 24.0464 46.7447 23.0968 46.1683 22.5018C45.5919 21.9068 44.6422 21.8917 44.0472 22.4681L46.1346 24.6228ZM39.9262 20.2749C40.6266 20.7173 41.5531 20.5081 41.9955 19.8077C42.4379 19.1073 42.2287 18.1809 41.5283 17.7385L39.9262 20.2749ZM49.2099 28.9024C49.0556 28.0885 48.2707 27.5537 47.4567 27.7081C46.6428 27.8624 46.1081 28.6473 46.2624 29.4613L49.2099 28.9024ZM25.1381 31.6683L30.9563 37.3046L33.0437 35.1499L27.2255 29.5135L25.1381 31.6683ZM33.0437 37.3046L46.1346 24.6228L44.0472 22.4681L30.9563 35.1499L33.0437 37.3046ZM46.5 32C46.5 39.6875 40.0534 46 32 46V49C41.6197 49 49.5 41.4334 49.5 32H46.5ZM32 46C23.9466 46 17.5 39.6875 17.5 32H14.5C14.5 41.4334 22.3803 49 32 49V46ZM17.5 32C17.5 24.3125 23.9466 18 32 18V15C22.3803 15 14.5 22.5666 14.5 32H17.5ZM32 18C34.9305 18 37.6512 18.8379 39.9262 20.2749L41.5283 17.7385C38.7836 16.0048 35.509 15 32 15V18ZM46.2624 29.4613C46.4184 30.2835 46.5 31.1319 46.5 32H49.5C49.5 30.9433 49.4006 29.9078 49.2099 28.9024L46.2624 29.4613Z" fill="white"/>
</svg>
