<svg width="70" height="70" viewBox="0 0 70 70" fill="none" xmlns="http://www.w3.org/2000/svg">
<path fill-rule="evenodd" clip-rule="evenodd" d="M29.1669 10.209C29.1669 7.79274 31.1256 5.83398 33.5419 5.83398H36.4585C38.8748 5.83398 40.8335 7.79274 40.8335 10.209V11.272C40.8335 11.9374 41.2855 12.5138 41.9211 12.7109C43.2947 13.1369 44.614 13.6865 45.8661 14.3465C46.4548 14.6569 47.1821 14.569 47.6527 14.0984L48.4056 13.3455C50.1141 11.637 52.8842 11.637 54.5928 13.3455L56.6552 15.4079C58.3637 17.1164 58.3637 19.8865 56.6552 21.5951L55.9023 22.3479C55.4317 22.8185 55.3438 23.5459 55.6541 24.1346C56.3142 25.3867 56.8638 26.7061 57.2898 28.0798C57.4869 28.7153 58.0633 29.1673 58.7288 29.1673H59.7917C62.2079 29.1673 64.1667 31.1261 64.1667 33.5423V36.459C64.1667 38.8752 62.2079 40.834 59.7917 40.834H58.7288C58.0633 40.834 57.4869 41.286 57.2898 41.9215C56.8638 43.2953 56.3142 44.6146 55.6541 45.8667C55.3438 46.4555 55.4317 47.1828 55.9023 47.6534L56.6552 48.4062C58.3637 50.1148 58.3637 52.8849 56.6552 54.5934L54.5928 56.6558C52.8842 58.3643 50.1141 58.3643 48.4056 56.6558L47.6527 55.903C47.1821 55.4324 46.4548 55.3444 45.8661 55.6548C44.614 56.3148 43.2947 56.8644 41.9211 57.2904C41.2855 57.4875 40.8335 58.0639 40.8335 58.7293V59.7923C40.8335 62.2086 38.8748 64.1673 36.4585 64.1673H33.5419C31.1256 64.1673 29.1669 62.2086 29.1669 59.7923V58.7295C29.1669 58.064 28.7149 57.4876 28.0793 57.2905C26.7055 56.8645 25.3861 56.3149 24.1339 55.6548C23.5452 55.3444 22.8179 55.4324 22.3473 55.903L21.5944 56.6558C19.8859 58.3643 17.1158 58.3643 15.4073 56.6558L13.3449 54.5934C11.6363 52.8849 11.6363 50.1148 13.3449 48.4062L14.0977 47.6534C14.5683 47.1828 14.6562 46.4555 14.3459 45.8667C13.6858 44.6146 13.1362 43.2952 12.7102 41.9215C12.5131 41.286 11.9367 40.834 11.2713 40.834H10.2083C7.79209 40.834 5.83333 38.8752 5.83333 36.459V33.5423C5.83333 31.1261 7.79209 29.1673 10.2083 29.1673H11.2713C11.9367 29.1673 12.5131 28.7153 12.7102 28.0798C13.1362 26.7061 13.6858 25.3867 14.3459 24.1346C14.6562 23.5459 14.5683 22.8185 14.0977 22.3479L13.3449 21.5951C11.6363 19.8865 11.6363 17.1164 13.3449 15.4079L15.4073 13.3455C17.1158 11.637 19.8859 11.637 21.5944 13.3455L22.3473 14.0984C22.8179 14.569 23.5452 14.6569 24.1339 14.3465C25.3861 13.6864 26.7055 13.1368 28.0793 12.7108C28.7149 12.5137 29.1669 11.9373 29.1669 11.2718V10.209Z" fill="#12131A" fill-opacity="0.25"/>
<path d="M43.75 35C43.75 39.8325 39.8325 43.75 35 43.75C30.1675 43.75 26.25 39.8325 26.25 35C26.25 30.1675 30.1675 26.25 35 26.25C39.8325 26.25 43.75 30.1675 43.75 35Z" fill="#49565E"/>
</svg>
