<svg width="67" height="67" viewBox="0 0 67 67" fill="none" xmlns="http://www.w3.org/2000/svg">
<g opacity="0.3">
<path d="M66.12 40.3084C65.4256 43.3178 64.3838 46.2115 63.1106 48.8736C59.754 55.1239 54.7769 60.2167 48.5266 63.3419C42.0449 66.6985 34.4056 67.856 26.6507 66.3513C8.59429 62.5317 -3.09605 44.9383 0.723564 26.7662C4.54318 8.59404 22.0208 -3.0963 40.1929 0.723321C46.6747 2.11227 52.3463 5.23741 57.0918 9.75151C64.9626 17.8537 68.3192 29.3126 66.12 40.3084Z" fill="url(#paint0_linear_6214_9047)"/>
<path d="M34.0293 14.4688C30.9041 14.4688 28.4735 17.1309 28.705 20.256L30.4411 39.0069C30.5569 40.8588 32.1773 42.3635 34.0293 42.3635C35.8812 42.3635 37.5016 40.8588 37.6174 39.0069L39.3536 20.256C39.5851 17.0152 37.1544 14.4688 34.0293 14.4688Z" fill="white"/>
<path d="M34.0295 45.8359C31.7146 45.8359 29.8627 47.6879 29.8627 50.0028C29.8627 52.3177 31.7146 54.1696 34.0295 54.1696C36.3444 54.1696 38.1964 52.3177 38.1964 50.0028C38.1964 47.6879 36.3444 45.8359 34.0295 45.8359Z" fill="white"/>
</g>
<defs>
<linearGradient id="paint0_linear_6214_9047" x1="-0.0378133" y1="33.4909" x2="66.7594" y2="33.4909" gradientUnits="userSpaceOnUse">
<stop stop-color="#B0BACC"/>
<stop offset="1" stop-color="#969EAE"/>
</linearGradient>
</defs>
</svg>
