<svg width="24" height="24" viewBox="0 0 24 24" fill="none" xmlns="http://www.w3.org/2000/svg">
<path opacity="0.12" d="M2 2.00009V15.6001C2 17.8401 2 18.9601 2.436 19.8161C2.81949 20.5687 3.43139 21.1806 4.184 21.5641C5.04 22.0001 6.16 22.0001 8.4 22.0001H18V2.00009L15.287 3.20609C14.676 3.47709 14.37 3.61309 14.061 3.64709C13.7217 3.68431 13.3784 3.63405 13.064 3.50109C12.777 3.38109 12.523 3.16309 12.014 2.72709C11.34 2.14909 11.003 1.86009 10.63 1.73609C10.221 1.60034 9.77903 1.60034 9.37 1.73609C8.997 1.86009 8.66 2.14909 7.985 2.72709C7.477 3.16309 7.223 3.38009 6.936 3.50109C6.62157 3.63405 6.27835 3.68431 5.939 3.64709C5.629 3.61309 5.324 3.47709 4.713 3.20609L2 2.00009Z" fill="#0D6992"/>
<path fill-rule="evenodd" clip-rule="evenodd" d="M9.134 1.02395C9.69626 0.837395 10.3037 0.837395 10.866 1.02395C11.158 1.12095 11.409 1.27495 11.656 1.45895C11.893 1.63495 12.163 1.86595 12.484 2.14095L12.503 2.15795C13.049 2.62595 13.203 2.74595 13.356 2.81095C13.552 2.89395 13.766 2.92495 13.979 2.90095C14.144 2.88395 14.325 2.81295 14.983 2.52095L17.695 1.31495C17.8092 1.26412 17.9342 1.24264 18.0588 1.25244C18.1834 1.26225 18.3036 1.30303 18.4084 1.37109C18.5132 1.43915 18.5994 1.53233 18.6591 1.64215C18.7187 1.75198 18.75 1.87497 18.75 1.99995V11.2499H18.83C19.365 11.2499 19.81 11.2499 20.175 11.2799C20.555 11.3099 20.911 11.3779 21.248 11.5499C21.7656 11.8136 22.1863 12.2344 22.45 12.7519C22.622 13.0889 22.69 13.4459 22.72 13.8249C22.75 14.1899 22.75 14.6349 22.75 15.1699V19.9999C22.75 20.7293 22.4603 21.4288 21.9445 21.9445C21.4288 22.4602 20.7293 22.7499 20 22.7499H8.367C7.275 22.7499 6.409 22.7499 5.712 22.6929C4.998 22.6349 4.395 22.5129 3.844 22.2329C2.95014 21.7775 2.22341 21.0508 1.768 20.1569C1.487 19.6049 1.365 19.0019 1.307 18.2879C1.25 17.5909 1.25 16.7249 1.25 15.6329V1.99995C1.25003 1.87497 1.28129 1.75198 1.34095 1.64215C1.4006 1.53233 1.48675 1.43915 1.59157 1.37109C1.6964 1.30303 1.81656 1.26225 1.94116 1.25244C2.06575 1.24264 2.19082 1.26412 2.305 1.31495L5.017 2.51995C5.675 2.81295 5.856 2.88395 6.021 2.90195C6.23303 2.92527 6.4475 2.89394 6.644 2.81095C6.798 2.74595 6.95 2.62595 7.497 2.15795L7.517 2.14095C7.78493 1.90479 8.0604 1.67734 8.343 1.45895C8.591 1.27495 8.842 1.12095 9.134 1.02395ZM20 21.2499C20.69 21.2499 21.25 20.6899 21.25 19.9999V15.1999C21.25 14.6279 21.25 14.2429 21.225 13.9479C21.202 13.6609 21.16 13.5229 21.114 13.4329C20.9941 13.1974 20.8026 13.0059 20.567 12.8859C20.477 12.8399 20.34 12.7979 20.052 12.7749C19.757 12.7509 19.372 12.7499 18.8 12.7499H18.75V19.9999C18.75 20.6899 19.31 21.2499 20 21.2499ZM17.55 21.2499H8.4C7.268 21.2499 6.463 21.2499 5.834 21.1979C5.214 21.1479 4.829 21.0509 4.524 20.8959C3.91263 20.5844 3.41556 20.0873 3.104 19.4759C2.949 19.1709 2.853 18.7859 2.802 18.1659C2.751 17.5359 2.75 16.7329 2.75 15.5999V3.15395L4.408 3.89095L4.501 3.93195C5.021 4.16395 5.429 4.34595 5.857 4.39195C6.32358 4.44338 6.79556 4.37453 7.228 4.19195C7.625 4.02495 7.964 3.73395 8.396 3.36195L8.473 3.29695C8.818 3.00095 9.049 2.80395 9.238 2.66295C9.421 2.52695 9.526 2.47495 9.607 2.44795C9.86249 2.36321 10.1385 2.36321 10.394 2.44795C10.474 2.47495 10.579 2.52795 10.762 2.66295C10.952 2.80395 11.182 3.00095 11.527 3.29695L11.604 3.36295C12.036 3.73295 12.375 4.02495 12.772 4.19295C13.2041 4.37536 13.6757 4.44421 14.142 4.39295C14.571 4.34595 14.979 4.16395 15.499 3.93295L15.592 3.89095L17.25 3.15395V19.9999C17.25 20.4499 17.358 20.8749 17.55 21.2499ZM6.25 8.99995C6.25 8.80104 6.32902 8.61027 6.46967 8.46962C6.61032 8.32897 6.80109 8.24995 7 8.24995H11C11.1989 8.24995 11.3897 8.32897 11.5303 8.46962C11.671 8.61027 11.75 8.80104 11.75 8.99995C11.75 9.19886 11.671 9.38963 11.5303 9.53028C11.3897 9.67093 11.1989 9.74995 11 9.74995H7C6.80109 9.74995 6.61032 9.67093 6.46967 9.53028C6.32902 9.38963 6.25 9.19886 6.25 8.99995ZM9.25 12.9999C9.25 12.801 9.32902 12.6103 9.46967 12.4696C9.61032 12.329 9.80109 12.2499 10 12.2499H13C13.1989 12.2499 13.3897 12.329 13.5303 12.4696C13.671 12.6103 13.75 12.801 13.75 12.9999C13.75 13.1989 13.671 13.3896 13.5303 13.5303C13.3897 13.6709 13.1989 13.7499 13 13.7499H10C9.80109 13.7499 9.61032 13.6709 9.46967 13.5303C9.32902 13.3896 9.25 13.1989 9.25 12.9999ZM10 16.2499C9.80109 16.2499 9.61032 16.329 9.46967 16.4696C9.32902 16.6103 9.25 16.801 9.25 16.9999C9.25 17.1989 9.32902 17.3896 9.46967 17.5303C9.61032 17.6709 9.80109 17.7499 10 17.7499H13C13.1989 17.7499 13.3897 17.6709 13.5303 17.5303C13.671 17.3896 13.75 17.1989 13.75 16.9999C13.75 16.801 13.671 16.6103 13.5303 16.4696C13.3897 16.329 13.1989 16.2499 13 16.2499H10ZM8 12.9999C8 13.2652 7.89464 13.5195 7.70711 13.7071C7.51957 13.8946 7.26522 13.9999 7 13.9999C6.73478 13.9999 6.48043 13.8946 6.29289 13.7071C6.10536 13.5195 6 13.2652 6 12.9999C6 12.7347 6.10536 12.4804 6.29289 12.2928C6.48043 12.1053 6.73478 11.9999 7 11.9999C7.26522 11.9999 7.51957 12.1053 7.70711 12.2928C7.89464 12.4804 8 12.7347 8 12.9999ZM7 17.9999C7.26522 17.9999 7.51957 17.8946 7.70711 17.7071C7.89464 17.5195 8 17.2652 8 16.9999C8 16.7347 7.89464 16.4804 7.70711 16.2928C7.51957 16.1053 7.26522 15.9999 7 15.9999C6.73478 15.9999 6.48043 16.1053 6.29289 16.2928C6.10536 16.4804 6 16.7347 6 16.9999C6 17.2652 6.10536 17.5195 6.29289 17.7071C6.48043 17.8946 6.73478 17.9999 7 17.9999Z" fill="#0D6992"/>
</svg>
