<svg width="25" height="24" viewBox="0 0 25 24" fill="none" xmlns="http://www.w3.org/2000/svg">
<path fill-rule="evenodd" clip-rule="evenodd" d="M17.2241 16.2929C17.6146 15.9024 18.2478 15.9024 18.6383 16.2929L21.6383 19.2929C22.0288 19.6834 22.0288 20.3166 21.6383 20.7071C21.2478 21.0976 20.6146 21.0976 20.2241 20.7071L17.2241 17.7071C16.8336 17.3166 16.8336 16.6834 17.2241 16.2929Z" fill="#12131A"/>
<path fill-rule="evenodd" clip-rule="evenodd" d="M3.93121 10C3.93121 6.13401 7.06522 3 10.9312 3C14.7972 3 17.9312 6.13401 17.9312 10C17.9312 13.866 14.7972 17 10.9312 17C7.06522 17 3.93121 13.866 3.93121 10ZM5.93122 10C5.93122 7.23858 8.16979 5 10.9312 5C13.6926 5 15.9312 7.23858 15.9312 10C15.9312 12.7614 13.6926 15 10.9312 15C8.16979 15 5.93122 12.7614 5.93122 10Z" fill="#12131A"/>
</svg>
