<svg width="25" height="24" viewBox="0 0 25 24" fill="none" xmlns="http://www.w3.org/2000/svg">
<path d="M1.65295 21.9573H24.1944" stroke="#002930" stroke-width="1.5" stroke-miterlimit="10" stroke-linecap="round" stroke-linejoin="round"/>
<path d="M21.5266 21.9573V10.8987" stroke="#002930" stroke-width="1.5" stroke-miterlimit="10" stroke-linecap="round" stroke-linejoin="round"/>
<path d="M4.32104 21.9573V10.8987" stroke="#002930" stroke-width="1.5" stroke-miterlimit="10" stroke-linecap="round" stroke-linejoin="round"/>
<path d="M12.925 8.04963C12.925 9.62286 14.2009 10.8987 15.7741 10.8987C17.3474 10.8987 18.6205 9.62286 18.6205 8.04963C18.6205 9.62286 19.8964 10.8987 21.4696 10.8987C22.0265 10.8987 22.5428 10.7393 22.9807 10.4635C24.1079 9.75802 24.4323 8.25507 23.7862 7.09272L21.6805 3.30562C21.2318 2.50008 20.383 2 19.4612 2H6.38612C5.46435 2 4.61556 2.50008 4.16684 3.30562L2.0611 7.09542C1.41504 8.25777 1.73942 9.75802 2.86663 10.4662C3.30454 10.742 3.82354 10.9014 4.37769 10.9014C5.95092 10.9014 7.2268 9.62556 7.2268 8.05233C7.2268 9.62556 8.50268 10.9014 10.0759 10.9014C11.6491 10.9014 12.925 9.62286 12.925 8.04963Z" stroke="#002930" stroke-width="1.5" stroke-miterlimit="10" stroke-linecap="round" stroke-linejoin="round"/>
<path d="M12.925 14.5102C11.4734 14.5102 10.2948 15.6861 10.2948 17.1403V21.96H15.5524V17.1376C15.5524 15.6861 14.3765 14.5102 12.925 14.5102Z" stroke="#002930" stroke-width="1.5" stroke-miterlimit="10" stroke-linecap="round" stroke-linejoin="round"/>
</svg>
