<svg width="24" height="24" viewBox="0 0 24 24" fill="none" xmlns="http://www.w3.org/2000/svg">
<path fill-rule="evenodd" clip-rule="evenodd" d="M5.45455 8.29763V18.506C5.45455 19.4316 6.18717 20.182 7.09091 20.182H9.54545H14.4545H16.9091C17.8128 20.182 18.5455 19.4316 18.5455 18.506V8.29763L12.9625 4.13892C12.3887 3.71151 11.6113 3.71151 11.0375 4.13892L5.45455 8.29763ZM15 20V13.7778C15 12.7959 14.1046 12 13 12H11C9.89543 12 9 12.7959 9 13.7778V20H15Z" fill="#3D5172"/>
<path d="M5.45455 8.29763L5.15586 7.89665C5.02918 7.991 4.95455 8.13967 4.95455 8.29763H5.45455ZM18.5455 8.29763H19.0455C19.0455 8.13967 18.9708 7.991 18.8441 7.89665L18.5455 8.29763ZM12.9625 4.13892L12.6638 4.5399V4.5399L12.9625 4.13892ZM11.0375 4.13892L10.7389 3.73794L10.7388 3.73794L11.0375 4.13892ZM15 20V20.5C15.2761 20.5 15.5 20.2761 15.5 20H15ZM9 20H8.5C8.5 20.2761 8.72386 20.5 9 20.5V20ZM5.95455 18.506V8.29763H4.95455V18.506H5.95455ZM7.09091 19.682C6.47453 19.682 5.95455 19.1668 5.95455 18.506H4.95455C4.95455 19.6964 5.89981 20.682 7.09091 20.682V19.682ZM9.54545 19.682H7.09091V20.682H9.54545V19.682ZM14.4545 19.682H9.54545V20.682H14.4545V19.682ZM16.9091 19.682H14.4545V20.682H16.9091V19.682ZM18.0455 18.506C18.0455 19.1668 17.5255 19.682 16.9091 19.682V20.682C18.1002 20.682 19.0455 19.6964 19.0455 18.506H18.0455ZM18.0455 8.29763V18.506H19.0455V8.29763H18.0455ZM12.6638 4.5399L18.2468 8.69861L18.8441 7.89665L13.2611 3.73794L12.6638 4.5399ZM11.3362 4.5399C11.7328 4.24451 12.2672 4.24451 12.6638 4.5399L13.2611 3.73794C12.5101 3.1785 11.4899 3.1785 10.7389 3.73794L11.3362 4.5399ZM5.75323 8.69861L11.3362 4.5399L10.7388 3.73794L5.15586 7.89665L5.75323 8.69861ZM14.5 13.7778V20H15.5V13.7778H14.5ZM13 12.5C13.8854 12.5 14.5 13.1258 14.5 13.7778H15.5C15.5 12.4661 14.3237 11.5 13 11.5V12.5ZM11 12.5H13V11.5H11V12.5ZM9.5 13.7778C9.5 13.1258 10.1146 12.5 11 12.5V11.5C9.67628 11.5 8.5 12.4661 8.5 13.7778H9.5ZM9.5 20V13.7778H8.5V20H9.5ZM15 19.5H9V20.5H15V19.5ZM3.29869 10.527L5.75323 8.69861L5.15586 7.89665L2.70131 9.72501L3.29869 10.527ZM18.2468 8.69861L20.7013 10.527L21.2987 9.72501L18.8441 7.89665L18.2468 8.69861Z" fill="#3D5172"/>
</svg>
