<svg width="36" height="32" viewBox="0 0 36 32" fill="none" xmlns="http://www.w3.org/2000/svg">
<path d="M30.1854 9.56975L30.823 8.65591L30.823 8.65591L30.1854 9.56975ZM0.971782 11.804C0.467081 12.1561 0.3434 12.8507 0.695533 13.3554C1.04767 13.8601 1.74227 13.9838 2.24697 13.6316L0.971782 11.804ZM16.3842 2.40935L15.7466 1.49551L15.7466 1.49551L16.3842 2.40935ZM19.9226 2.40935L19.285 3.3232L19.285 3.3232L19.9226 2.40935ZM34.0598 13.6316C34.5645 13.9838 35.2591 13.8601 35.6112 13.3554C35.9633 12.8507 35.8397 12.1561 35.335 11.804L34.0598 13.6316ZM5.00709 9.56975V27.1463H7.23566V9.56975H5.00709ZM31.2997 27.1463V9.56975H29.0711V27.1463H31.2997ZM2.24697 13.6316L6.75897 10.4836L5.48378 8.65591L0.971782 11.804L2.24697 13.6316ZM6.75897 10.4836L17.0217 3.3232L15.7466 1.49551L5.48378 8.65591L6.75897 10.4836ZM19.285 3.3232L29.5478 10.4836L30.823 8.65591L20.5602 1.49551L19.285 3.3232ZM29.5478 10.4836L34.0598 13.6316L35.335 11.804L30.823 8.65591L29.5478 10.4836ZM9.12937 31.1463H13.6414V28.9178H9.12937V31.1463ZM22.6654 31.1463H27.1774V28.9178H22.6654V31.1463ZM23.7797 30.0321V19.9321H21.5511V30.0321H23.7797ZM19.6574 15.9321H16.6494V18.1606H19.6574V15.9321ZM12.5271 19.9321V30.0321H14.7557V19.9321H12.5271ZM13.6414 31.1463H22.6654V28.9178H13.6414V31.1463ZM23.7797 19.9321C23.7797 17.6798 21.89 15.9321 19.6574 15.9321V18.1606C20.7473 18.1606 21.5511 18.9969 21.5511 19.9321H23.7797ZM16.6494 15.9321C14.4167 15.9321 12.5271 17.6798 12.5271 19.9321H14.7557C14.7557 18.9969 15.5595 18.1606 16.6494 18.1606V15.9321ZM17.0217 3.3232C17.6935 2.85454 18.6133 2.85454 19.285 3.3232L20.5602 1.49551C19.1224 0.492344 17.1844 0.492345 15.7466 1.49551L17.0217 3.3232ZM29.0711 27.1463C29.0711 28.0815 28.2673 28.9178 27.1774 28.9178V31.1463C29.41 31.1463 31.2997 29.3986 31.2997 27.1463H29.0711ZM5.00709 27.1463C5.00709 29.3986 6.89674 31.1463 9.12937 31.1463V28.9178C8.03947 28.9178 7.23566 28.0815 7.23566 27.1463H5.00709Z" fill="#1D2530"/>
</svg>
