<svg width="24" height="24" viewBox="0 0 24 24" fill="none" xmlns="http://www.w3.org/2000/svg">
<path d="M2.75 6.5C2.75 7.40932 2.7997 8.08885 2.91414 8.60378C3.02669 9.11019 3.19163 9.41028 3.39067 9.60933C3.58972 9.80837 3.88981 9.97331 4.39622 10.0859C4.91115 10.2003 5.59068 10.25 6.5 10.25C7.40932 10.25 8.08885 10.2003 8.60378 10.0859C9.11019 9.97331 9.41028 9.80837 9.60933 9.60933C9.80837 9.41028 9.97331 9.11019 10.0859 8.60378C10.2003 8.08885 10.25 7.40932 10.25 6.5C10.25 5.59068 10.2003 4.91115 10.0859 4.39622C9.97331 3.88981 9.80837 3.58972 9.60933 3.39067C9.41028 3.19163 9.11019 3.02669 8.60378 2.91414C8.08885 2.7997 7.40932 2.75 6.5 2.75C5.59068 2.75 4.91115 2.7997 4.39622 2.91414C3.88981 3.02669 3.58972 3.19163 3.39067 3.39067C3.19163 3.58972 3.02669 3.88981 2.91414 4.39622C2.7997 4.91115 2.75 5.59068 2.75 6.5Z" fill="#637381" stroke="#637381" stroke-width="1.5" stroke-linecap="round" stroke-linejoin="round"/>
<path d="M13.75 6.5C13.75 7.40932 13.7997 8.08885 13.9141 8.60378C14.0267 9.11019 14.1916 9.41028 14.3907 9.60933C14.5897 9.80837 14.8898 9.97331 15.3962 10.0859C15.9112 10.2003 16.5907 10.25 17.5 10.25C18.4093 10.25 19.0888 10.2003 19.6038 10.0859C20.1102 9.97331 20.4103 9.80837 20.6093 9.60933C20.8084 9.41028 20.9733 9.11019 21.0859 8.60378C21.2003 8.08885 21.25 7.40932 21.25 6.5C21.25 5.59068 21.2003 4.91115 21.0859 4.39622C20.9733 3.88981 20.8084 3.58972 20.6093 3.39067C20.4103 3.19163 20.1102 3.02669 19.6038 2.91414C19.0888 2.7997 18.4093 2.75 17.5 2.75C16.5907 2.75 15.9112 2.7997 15.3962 2.91414C14.8898 3.02669 14.5897 3.19163 14.3907 3.39067C14.1916 3.58972 14.0267 3.88981 13.9141 4.39622C13.7997 4.91115 13.75 5.59068 13.75 6.5Z" fill="#637381" stroke="#637381" stroke-width="1.5" stroke-linecap="round" stroke-linejoin="round"/>
<path d="M2.75 17.5C2.75 18.4093 2.7997 19.0888 2.91414 19.6038C3.02669 20.1102 3.19163 20.4103 3.39067 20.6093C3.58972 20.8084 3.88981 20.9733 4.39622 21.0859C4.91115 21.2003 5.59068 21.25 6.5 21.25C7.40932 21.25 8.08885 21.2003 8.60378 21.0859C9.11019 20.9733 9.41028 20.8084 9.60933 20.6093C9.80837 20.4103 9.97331 20.1102 10.0859 19.6038C10.2003 19.0888 10.25 18.4093 10.25 17.5C10.25 16.5907 10.2003 15.9112 10.0859 15.3962C9.97331 14.8898 9.80837 14.5897 9.60933 14.3907C9.41028 14.1916 9.11019 14.0267 8.60378 13.9141C8.08885 13.7997 7.40932 13.75 6.5 13.75C5.59068 13.75 4.91115 13.7997 4.39622 13.9141C3.88981 14.0267 3.58972 14.1916 3.39067 14.3907C3.19163 14.5897 3.02669 14.8898 2.91414 15.3962C2.7997 15.9112 2.75 16.5907 2.75 17.5Z" fill="#637381" stroke="#637381" stroke-width="1.5" stroke-linecap="round" stroke-linejoin="round"/>
<path d="M13.75 17.5C13.75 18.4093 13.7997 19.0888 13.9141 19.6038C14.0267 20.1102 14.1916 20.4103 14.3907 20.6093C14.5897 20.8084 14.8898 20.9733 15.3962 21.0859C15.9112 21.2003 16.5907 21.25 17.5 21.25C18.4093 21.25 19.0888 21.2003 19.6038 21.0859C20.1102 20.9733 20.4103 20.8084 20.6093 20.6093C20.8084 20.4103 20.9733 20.1102 21.0859 19.6038C21.2003 19.0888 21.25 18.4093 21.25 17.5C21.25 16.5907 21.2003 15.9112 21.0859 15.3962C20.9733 14.8898 20.8084 14.5897 20.6093 14.3907C20.4103 14.1916 20.1102 14.0267 19.6038 13.9141C19.0888 13.7997 18.4093 13.75 17.5 13.75C16.5907 13.75 15.9112 13.7997 15.3962 13.9141C14.8898 14.0267 14.5897 14.1916 14.3907 14.3907C14.1916 14.5897 14.0267 14.8898 13.9141 15.3962C13.7997 15.9112 13.75 16.5907 13.75 17.5Z" fill="#637381" stroke="#637381" stroke-width="1.5" stroke-linecap="round" stroke-linejoin="round"/>
</svg>
