<svg width="22" height="22" viewBox="0 0 22 22" fill="none" xmlns="http://www.w3.org/2000/svg">
<path fill-rule="evenodd" clip-rule="evenodd" d="M15.2323 0.198183C17.1356 -0.305622 19 1.12948 19 3.0983V4C20.6569 4 22 5.34315 22 7V19C22 20.6569 20.6569 22 19 22H3C1.34315 22 0 20.6569 0 19V6.53948C0 5.17828 0.916446 3.98768 2.23232 3.63936L15.2323 0.198183ZM8.6856 4.00002L15.7441 2.13159C16.3785 1.96366 17 2.44203 17 3.0983V4.00005L8.6856 4.00002ZM19 6H3C2.44772 6 2 6.44772 2 7V19C2 19.5523 2.44772 20 3 20H19C19.5523 20 20 19.5523 20 19V16.0001H17C15.3431 16.0001 14 14.6569 14 13.0001C14 11.3432 15.3431 10.0001 17 10.0001H20V7C20 6.44773 19.5523 6.00002 19 6ZM20 12.0001H17C16.4477 12.0001 16 12.4478 16 13.0001C16 13.5523 16.4477 14.0001 17 14.0001H20V12.0001Z" fill="#ffffff55"/>
</svg>
