<svg width="18" height="19" viewBox="0 0 18 19" fill="none" xmlns="http://www.w3.org/2000/svg">
<path d="M14.4333 15.1551H5.91838C5.46731 15.1551 5.07654 14.7796 4.97764 14.2498L3.09375 4.27426H16.035C16.6525 4.27426 17.1132 4.96705 16.9757 5.69477L15.374 14.2469C15.2751 14.7767 14.8844 15.1551 14.4333 15.1551Z" fill="white" stroke="white" stroke-width="1.5" stroke-miterlimit="10" stroke-linecap="round" stroke-linejoin="round"/>
<path d="M1 1.55402H2.58421L4.27209 10.6214" stroke="white" stroke-width="1.5" stroke-miterlimit="10" stroke-linecap="round" stroke-linejoin="round"/>
<path d="M6.60245 18.9389C7.21293 18.9389 7.70782 18.4337 7.70782 17.8105C7.70782 17.1873 7.21293 16.6821 6.60245 16.6821C5.99196 16.6821 5.49707 17.1873 5.49707 17.8105C5.49707 18.4337 5.99196 18.9389 6.60245 18.9389Z" fill="white"/>
<path d="M14.245 18.9389C14.8555 18.9389 15.3504 18.4337 15.3504 17.8105C15.3504 17.1873 14.8555 16.6821 14.245 16.6821C13.6345 16.6821 13.1396 17.1873 13.1396 17.8105C13.1396 18.4337 13.6345 18.9389 14.245 18.9389Z" fill="white"/>
</svg>
