<svg width="24" height="24" viewBox="0 0 24 24" fill="none" xmlns="http://www.w3.org/2000/svg">
<g clip-path="url(#clip0_2861_3874)">
<path d="M17.4999 0.916992C16.3739 0.934507 15.2724 1.24885 14.3067 1.82826C13.341 2.40768 12.5453 3.23166 11.9999 4.21699C11.4546 3.23166 10.6589 2.40768 9.69319 1.82826C8.72749 1.24885 7.626 0.934507 6.49995 0.916992C4.7049 0.994983 3.01366 1.78025 1.79574 3.10123C0.577817 4.4222 -0.0677922 6.17152 -4.17125e-05 7.967C-4.17125e-05 14.742 10.9559 22.567 11.4219 22.899L11.9999 23.308L12.5779 22.899C13.0439 22.569 23.9999 14.742 23.9999 7.967C24.0677 6.17152 23.4221 4.4222 22.2042 3.10123C20.9862 1.78025 19.295 0.994983 17.4999 0.916992ZM11.9999 21.5C8.74695 19.07 1.49997 12.479 1.49997 8C1.43161 6.73472 2.15697 5.16302 2.99997 4.21699C3.84297 3.27096 5.23519 2.57735 6.49995 2.5C7.76472 2.57735 9.15697 3.55397 9.99997 4.5C10.843 5.44603 11.5 8 12 8C12.5 8 13.157 5.44603 14 4.5C14.843 3.55397 16.2352 2.57735 17.5 2.5C18.7647 2.57735 20.157 3.27096 21 4.21699C21.843 5.16302 22.5683 6.73472 22.5 8C22.5 12.481 15.2529 19.07 11.9999 21.5Z" fill="#002930"/>
</g>
<defs>
<clipPath id="clip0_2861_3874">
<rect width="24" height="24" fill="white"/>
</clipPath>
</defs>
</svg>
