<svg width="16" height="16" viewBox="0 0 16 16" fill="none" xmlns="http://www.w3.org/2000/svg">
<path d="M7.07839 1.59424L7.50247 1.9805C7.66513 1.80191 7.69848 1.54056 7.58588 1.32685C7.47327 1.11314 7.23885 0.992873 6.99958 1.02606L7.07839 1.59424ZM14.0818 10.1534L14.6229 10.3438C14.7032 10.1157 14.6318 9.86184 14.4445 9.70896C14.2572 9.55609 13.9942 9.53707 13.7868 9.66142L14.0818 10.1534ZM7.97572 13.9021C4.71837 13.9021 2.07777 11.2614 2.07777 8.0041H0.930534C0.930534 11.895 4.08477 15.0493 7.97572 15.0493V13.9021ZM11.2115 10.3721C8.44154 10.3721 6.19604 8.1266 6.19604 5.35664H5.04881C5.04881 8.7602 7.80794 11.5193 11.2115 11.5193V10.3721ZM6.19604 5.35664C6.19604 4.05595 6.6904 2.87206 7.50247 1.9805L6.65432 1.20798C5.65737 2.30253 5.04881 3.75918 5.04881 5.35664H6.19604ZM2.07777 8.0041C2.07777 5.02472 4.28746 2.56048 7.1572 2.16241L6.99958 1.02606C3.57042 1.50172 0.930534 4.44414 0.930534 8.0041H2.07777ZM13.7868 9.66142C13.0345 10.1126 12.1542 10.3721 11.2115 10.3721V11.5193C12.3677 11.5193 13.4512 11.2004 14.3769 10.6453L13.7868 9.66142ZM13.5408 9.96291C12.7329 12.2582 10.5455 13.9021 7.97572 13.9021V15.0493C11.0474 15.0493 13.6585 13.0839 14.6229 10.3438L13.5408 9.96291Z" fill="#C2C8D0"/>
</svg>
