<svg width="16" height="15" viewBox="0 0 16 15" fill="none" xmlns="http://www.w3.org/2000/svg">
<path d="M12.6522 11.1035H5.71782C5.35047 11.1035 5.03224 10.8523 4.95169 10.498L3.41748 3.82558H13.9566C14.4595 3.82558 14.8347 4.28896 14.7227 4.77572L13.4184 10.496C13.3378 10.8504 13.0196 11.1035 12.6522 11.1035Z" stroke="#637381" stroke-miterlimit="10" stroke-linecap="round" stroke-linejoin="round"/>
<path d="M1.3623 1.33333H2.86312L4.46216 8.3445" stroke="#637381" stroke-miterlimit="10" stroke-linecap="round" stroke-linejoin="round"/>
<path d="M6.26562 14.4886C6.81791 14.4886 7.26562 14.0409 7.26562 13.4886C7.26562 12.9363 6.81791 12.4886 6.26562 12.4886C5.71334 12.4886 5.26562 12.9363 5.26562 13.4886C5.26562 14.0409 5.71334 14.4886 6.26562 14.4886Z" fill="#637381"/>
<path d="M12.54 14.4886C13.0923 14.4886 13.54 14.0409 13.54 13.4886C13.54 12.9363 13.0923 12.4886 12.54 12.4886C11.9878 12.4886 11.54 12.9363 11.54 13.4886C11.54 14.0409 11.9878 14.4886 12.54 14.4886Z" fill="#637381"/>
</svg>
