<svg width="24" height="23" viewBox="0 0 24 23" fill="none" xmlns="http://www.w3.org/2000/svg">
<path d="M23.7863 3.07005C23.6097 2.86357 23.3473 2.7551 23.0706 2.7551H4.31879V0.886621C4.31879 0.389195 3.92008 0.00146484 3.40675 0.00146484H0.929453C0.416165 0.00147848 0 0.410556 0 0.907996C0 1.40544 0.416165 1.81451 0.929453 1.81451H2.46185V19.5529C2.46185 19.5595 2.47046 19.5658 2.47056 19.5723C2.46929 19.6098 2.47148 19.6474 2.47148 19.6852C2.47148 21.5136 4.00845 23.0009 5.89524 23.0009C7.45987 23.0009 8.78351 21.9896 9.1896 20.5856H13.9993C14.4053 21.9896 15.7271 23.0009 17.2917 23.0009C19.1785 23.0009 20.7135 21.5135 20.7135 19.6852C20.7135 17.8568 19.1785 16.3702 17.2917 16.3702C15.7271 16.3702 14.4054 17.4366 13.9993 18.7862H9.18962C8.78352 17.4366 7.45308 16.3703 5.88852 16.3703C5.32639 16.3703 4.82522 16.5024 4.31879 16.7361V14.9433C4.45946 14.9684 4.61364 15.0101 4.75768 15.0101H19.6659C20.86 15.0101 21.8744 14.1911 22.1903 12.9929C22.1952 12.9746 22.1994 12.949 22.203 12.9303L23.9838 3.81011C24.0353 3.54658 23.9628 3.27657 23.7863 3.07005ZM17.2917 18.1708C18.1535 18.1708 18.8546 18.8502 18.8546 19.6852C18.8546 20.5203 18.1535 21.1997 17.2917 21.1997C16.43 21.1997 15.7288 20.5203 15.7288 19.6852C15.7288 18.8502 16.43 18.1708 17.2917 18.1708ZM5.89718 18.1708C6.75894 18.1708 7.46003 18.8502 7.46003 19.6852C7.46003 20.5203 6.75894 21.1997 5.89718 21.1997C5.03539 21.1997 4.33425 20.5203 4.33425 19.6852C4.33426 18.8502 5.03539 18.1708 5.89718 18.1708ZM20.3828 12.5745C20.3326 12.748 20.1549 13.1971 19.6659 13.1971H4.75768C4.52132 13.1971 4.31879 12.9941 4.31879 12.7559V4.55451H21.9488L20.3828 12.5745Z" fill="#353535"/>
</svg>
