<svg width="24" height="24" viewBox="0 0 24 24" fill="none" xmlns="http://www.w3.org/2000/svg">
<path opacity="0.12" d="M22 17V11.845C22 10.433 22 9.72704 21.82 9.07504C21.6609 8.49781 21.3994 7.95384 21.048 7.46904C20.651 6.92104 20.1 6.48004 18.998 5.59804L16.998 3.99804C15.214 2.57104 14.322 1.85804 13.333 1.58404C12.4607 1.34275 11.5393 1.34275 10.667 1.58404C9.677 1.85804 8.786 2.57104 7.002 3.99804L5.002 5.59804C3.9 6.48004 3.35 6.92104 2.952 7.46804C2.60047 7.95313 2.33898 8.49745 2.18 9.07504C2 9.72704 2 10.433 2 11.845V17C2 18.3261 2.52678 19.5979 3.46447 20.5356C4.40215 21.4733 5.67392 22 7 22C7.53043 22 8.03914 21.7893 8.41421 21.4143C8.78929 21.0392 9 20.5305 9 20V16C9 15.2044 9.31607 14.4413 9.87868 13.8787C10.4413 13.3161 11.2044 13 12 13C12.7956 13 13.5587 13.3161 14.1213 13.8787C14.6839 14.4413 15 15.2044 15 16V20C15 20.5305 15.2107 21.0392 15.5858 21.4143C15.9609 21.7893 16.4696 22 17 22C18.3261 22 19.5979 21.4733 20.5355 20.5356C21.4732 19.5979 22 18.3261 22 17Z" fill="#0D6992"/>
<path fill-rule="evenodd" clip-rule="evenodd" d="M13.133 2.30698C12.3916 2.1019 11.6084 2.1019 10.867 2.30698C10.483 2.41298 10.091 2.61098 9.557 2.97698C9.015 3.34898 8.371 3.86298 7.471 4.58398L5.471 6.18398C4.336 7.09198 3.882 7.46298 3.559 7.90898C3.26038 8.32103 3.03818 8.78337 2.903 9.27398C2.756 9.80498 2.75 10.391 2.75 11.845V17C2.75 18.1271 3.19777 19.2082 3.9948 20.0052C4.38945 20.3998 4.85796 20.7129 5.3736 20.9265C5.88923 21.14 6.44188 21.25 7 21.25C7.69 21.25 8.25 20.69 8.25 20V16C8.25 15.0054 8.64509 14.0516 9.34835 13.3483C10.0516 12.6451 11.0054 12.25 12 12.25C12.9946 12.25 13.9484 12.6451 14.6517 13.3483C15.3549 14.0516 15.75 15.0054 15.75 16V20C15.75 20.69 16.31 21.25 17 21.25C18.1272 21.25 19.2082 20.8022 20.0052 20.0052C20.8022 19.2082 21.25 18.1271 21.25 17V11.845C21.25 10.391 21.244 9.80498 21.097 9.27498C20.9619 8.78402 20.7397 8.32134 20.441 7.90898C20.118 7.46298 19.664 7.09198 18.529 6.18398L16.529 4.58398C15.629 3.86398 14.985 3.34898 14.443 2.97698C13.909 2.61098 13.517 2.41298 13.133 2.30698ZM10.467 0.859978C11.4702 0.582481 12.5298 0.582481 13.533 0.859978C14.139 1.02798 14.687 1.32398 15.292 1.73998C15.884 2.14598 16.571 2.69498 17.443 3.39298L17.466 3.41098L19.466 5.01098L19.556 5.08298C20.573 5.89598 21.198 6.39698 21.656 7.02698C22.0603 7.5848 22.3611 8.21075 22.544 8.87498C22.75 9.62498 22.75 10.427 22.75 11.729V17C22.75 17.7551 22.6013 18.5028 22.3123 19.2004C22.0233 19.898 21.5998 20.5319 21.0659 21.0658C20.5319 21.5998 19.8981 22.0233 19.2004 22.3123C18.5028 22.6012 17.7551 22.75 17 22.75C16.2707 22.75 15.5712 22.4602 15.0555 21.9445C14.5397 21.4288 14.25 20.7293 14.25 20V16C14.25 15.4032 14.0129 14.8309 13.591 14.409C13.169 13.987 12.5967 13.75 12 13.75C11.4033 13.75 10.831 13.987 10.409 14.409C9.98705 14.8309 9.75 15.4032 9.75 16V20C9.75 20.7293 9.46027 21.4288 8.94454 21.9445C8.42882 22.4602 7.72935 22.75 7 22.75C5.47501 22.75 4.01247 22.1442 2.93414 21.0658C1.8558 19.9875 1.25 18.525 1.25 17V11.845V11.73C1.25 10.428 1.25 9.62698 1.456 8.87598C1.6389 8.21175 1.93968 7.5858 2.344 7.02798C2.801 6.39798 3.427 5.89798 4.444 5.08398L4.534 5.01198L6.534 3.41198L6.557 3.39398C7.429 2.69598 8.116 2.14698 8.708 1.73998C9.313 1.32498 9.861 1.02898 10.467 0.860978V0.859978Z" fill="#0D6992"/>
</svg>
