<svg width="24" height="24" viewBox="0 0 24 24" fill="none" xmlns="http://www.w3.org/2000/svg">
<path opacity="0.12" fill-rule="evenodd" clip-rule="evenodd" d="M15.0007 6.74756L3.61786 18.1288C3.37477 18.3438 3.22438 18.6445 3.2002 18.9197V20.8005L5.03858 20.8016C5.35911 20.779 5.65748 20.6298 5.89706 20.3558L17.2533 9.00001L15.0007 6.74756Z" fill="#0D6992"/>
<path fill-rule="evenodd" clip-rule="evenodd" d="M3.61766 18.1288L15.0005 6.74755L17.2531 9L5.89687 20.3558C5.65728 20.6298 5.35892 20.7789 5.03838 20.8016L3.2 20.8005V18.9197C3.22418 18.6445 3.37457 18.3438 3.61766 18.1288ZM18.1017 8.15157L15.8491 5.89922L18.4681 3.28076C18.5195 3.22898 18.5894 3.19986 18.6624 3.19986C18.7353 3.19986 18.8053 3.22898 18.8566 3.28076L20.7188 5.14276C20.7708 5.19471 20.8 5.26518 20.8 5.33866C20.8 5.41214 20.7708 5.4826 20.7188 5.53456L18.1017 8.15157ZM19.7068 2.434C19.4318 2.15683 19.0552 2 18.6624 2C18.27 2 17.8938 2.15648 17.6172 2.43473L2.7959 17.2552C2.3472 17.6505 2.05306 18.2387 2.00195 18.8713L2 21.4001V22H3H5.08075H12C12.2761 22 12.5 21.7761 12.5 21.5C12.5 21.2239 12.2761 21 12 21H6.94748L21.5674 6.38299C21.8444 6.10602 22 5.73036 22 5.33866C22 4.94696 21.8444 4.5713 21.5674 4.29433L19.7068 2.434ZM15 21C14.7239 21 14.5 21.2239 14.5 21.5C14.5 21.7761 14.7239 22 15 22H20.5C20.7761 22 21 21.7761 21 21.5C21 21.2239 20.7761 21 20.5 21H15Z" fill="#0D6992"/>
</svg>
