<svg width="24" height="24" viewBox="0 0 24 24" fill="none" xmlns="http://www.w3.org/2000/svg">
<path opacity="0.12" d="M3.29317 9.83C3.53917 7.512 3.66317 6.353 4.09917 5.432C4.43915 4.7138 4.9184 4.07029 5.5091 3.53882C6.09979 3.00734 6.79018 2.59849 7.54017 2.336C8.50217 2 9.66817 2 12.0002 2C14.3322 2 15.4982 2 16.4602 2.336C17.21 2.59861 17.9002 3.00751 18.4907 3.53898C19.0812 4.07045 19.5603 4.7139 19.9002 5.432C20.3362 6.352 20.4602 7.512 20.7062 9.831L20.9422 12.056C21.2672 15.107 21.4292 16.632 21.0372 17.844C20.7781 18.6464 20.3528 19.3852 19.789 20.0122C19.2253 20.6393 18.5356 21.1404 17.7652 21.483C16.6022 22 15.0682 22 12.0002 22C8.93217 22 7.39817 22 6.23417 21.483C5.4637 21.1404 4.77409 20.6393 4.21031 20.0122C3.64653 19.3852 3.22124 18.6464 2.96217 17.844C2.57017 16.632 2.73217 15.107 3.05717 12.056L3.29317 9.831V9.83Z" fill="#0D6992"/>
<path fill-rule="evenodd" clip-rule="evenodd" d="M12.0001 1.25H11.8261C9.66112 1.25 8.37612 1.25 7.29312 1.628C6.44904 1.92309 5.67199 2.38295 5.00712 2.98087C4.34225 3.57879 3.80281 4.30285 3.42012 5.111C2.92912 6.148 2.79312 7.425 2.56512 9.579L2.54612 9.752L2.31012 11.977L2.30712 12.007C2.14712 13.507 2.02312 14.673 1.99012 15.614C1.95712 16.566 2.01312 17.35 2.24712 18.074C2.53856 18.9767 3.017 19.8079 3.65126 20.5133C4.28551 21.2188 5.06133 21.7826 5.92812 22.168C6.62512 22.478 7.39812 22.616 8.34812 22.683C9.28812 22.75 10.4601 22.75 11.9691 22.75H12.0291C13.5381 22.75 14.7101 22.75 15.6491 22.683C16.6001 22.616 17.3731 22.477 18.0691 22.168C18.936 21.7828 19.712 21.2192 20.3464 20.5139C20.9808 19.8087 21.4595 18.9777 21.7511 18.075C21.9851 17.35 22.0411 16.566 22.0081 15.614C21.9751 14.673 21.8511 13.507 21.6911 12.006L21.6881 11.976L21.4521 9.752L21.4341 9.579C21.2051 7.425 21.0691 6.149 20.5781 5.111C20.1955 4.30295 19.6563 3.57894 18.9916 2.98103C18.3269 2.38311 17.55 1.9232 16.7061 1.628C15.6231 1.25 14.3381 1.25 12.1731 1.25H12.0001ZM7.78812 3.044C8.60012 2.76 9.60812 2.75 12.0001 2.75C14.3931 2.75 15.4001 2.76 16.2121 3.044C16.8686 3.27355 17.4729 3.63124 17.9899 4.09628C18.507 4.56133 18.9265 5.12447 19.2241 5.753C19.5921 6.53 19.7091 7.531 19.9611 9.91L20.1981 12.135C20.3611 13.671 20.4781 14.785 20.5101 15.666C20.5401 16.542 20.4821 17.126 20.3251 17.614C20.0982 18.316 19.7258 18.9623 19.2324 19.5107C18.7389 20.0592 18.1354 20.4975 17.4611 20.797C16.9941 21.005 16.4181 21.125 15.5441 21.187C14.6641 21.25 13.5441 21.25 12.0001 21.25C10.4551 21.25 9.33612 21.25 8.45612 21.187C7.58212 21.125 7.00612 21.005 6.53912 20.797C5.86489 20.4975 5.26136 20.0592 4.76788 19.5107C4.2744 18.9623 3.90205 18.316 3.67512 17.614C3.51812 17.127 3.46012 16.542 3.49012 15.666C3.52112 14.785 3.64012 13.671 3.80212 12.136L4.04012 9.91C4.29312 7.531 4.41012 6.53 4.77812 5.753C5.07562 5.12457 5.49498 4.56149 6.01186 4.09644C6.52875 3.6314 7.13286 3.27367 7.78912 3.044H7.78812ZM9.75012 9C9.75012 9.59674 9.98717 10.169 10.4091 10.591C10.8311 11.0129 11.4034 11.25 12.0001 11.25C12.5969 11.25 13.1692 11.0129 13.5911 10.591C14.0131 10.169 14.2501 9.59674 14.2501 9V7C14.2501 6.80109 14.3291 6.61032 14.4698 6.46967C14.6104 6.32902 14.8012 6.25 15.0001 6.25C15.199 6.25 15.3898 6.32902 15.5305 6.46967C15.6711 6.61032 15.7501 6.80109 15.7501 7V9C15.7501 9.99456 15.355 10.9484 14.6518 11.6517C13.9485 12.3549 12.9947 12.75 12.0001 12.75C11.0056 12.75 10.0517 12.3549 9.34847 11.6517C8.64521 10.9484 8.25012 9.99456 8.25012 9V7C8.25012 6.80109 8.32914 6.61032 8.46979 6.46967C8.61044 6.32902 8.80121 6.25 9.00012 6.25C9.19903 6.25 9.3898 6.32902 9.53045 6.46967C9.6711 6.61032 9.75012 6.80109 9.75012 7V9Z" fill="#0D6992"/>
</svg>
