<svg width="24" height="24" viewBox="0 0 24 24" fill="none" xmlns="http://www.w3.org/2000/svg">
<path opacity="0.12" fill-rule="evenodd" clip-rule="evenodd" d="M2 5.2C2 4.08 2 3.52 2.218 3.092C2.40974 2.71569 2.71569 2.40974 3.092 2.218C3.52 2 4.08 2 5.2 2H6.8C7.92 2 8.48 2 8.908 2.218C9.28431 2.40974 9.59026 2.71569 9.782 3.092C10 3.52 10 4.08 10 5.2V6.8C10 7.92 10 8.48 9.782 8.908C9.59026 9.28431 9.28431 9.59026 8.908 9.782C8.48 10 7.92 10 6.8 10H5.2C4.08 10 3.52 10 3.092 9.782C2.71569 9.59026 2.40974 9.28431 2.218 8.908C2 8.48 2 7.92 2 6.8V5.2ZM2 17.2C2 16.08 2 15.52 2.218 15.092C2.40974 14.7157 2.71569 14.4097 3.092 14.218C3.52 14 4.08 14 5.2 14H6.8C7.92 14 8.48 14 8.908 14.218C9.28431 14.4097 9.59026 14.7157 9.782 15.092C10 15.52 10 16.08 10 17.2V18.8C10 19.92 10 20.48 9.782 20.908C9.59026 21.2843 9.28431 21.5903 8.908 21.782C8.48 22 7.92 22 6.8 22H5.2C4.08 22 3.52 22 3.092 21.782C2.71569 21.5903 2.40974 21.2843 2.218 20.908C2 20.48 2 19.92 2 18.8V17.2ZM14.218 15.092C14 15.52 14 16.08 14 17.2V18.8C14 19.92 14 20.48 14.218 20.908C14.4097 21.2843 14.7157 21.5903 15.092 21.782C15.52 22 16.08 22 17.2 22H18.8C19.92 22 20.48 22 20.908 21.782C21.2843 21.5903 21.5903 21.2843 21.782 20.908C22 20.48 22 19.92 22 18.8V17.2C22 16.08 22 15.52 21.782 15.092C21.5903 14.7157 21.2843 14.4097 20.908 14.218C20.48 14 19.92 14 18.8 14H17.2C16.08 14 15.52 14 15.092 14.218C14.7157 14.4097 14.4097 14.7157 14.218 15.092Z" fill="#0D6992"/>
<path fill-rule="evenodd" clip-rule="evenodd" d="M5.2 1.25H5.17C4.635 1.25 4.19 1.25 3.825 1.28C3.445 1.31 3.089 1.378 2.752 1.55C2.23445 1.81367 1.81367 2.23445 1.55 2.752C1.378 3.089 1.31 3.445 1.28 3.825C1.25 4.19 1.25 4.635 1.25 5.17V6.83C1.25 7.365 1.25 7.81 1.28 8.175C1.31 8.555 1.378 8.911 1.55 9.248C1.81367 9.76555 2.23445 10.1863 2.752 10.45C3.089 10.622 3.445 10.69 3.825 10.72C4.19 10.75 4.635 10.75 5.17 10.75H6.83C7.365 10.75 7.81 10.75 8.175 10.72C8.555 10.69 8.911 10.622 9.248 10.45C9.76555 10.1863 10.1863 9.76555 10.45 9.248C10.622 8.911 10.69 8.555 10.72 8.175C10.75 7.81 10.75 7.365 10.75 6.83V5.17C10.75 4.635 10.75 4.19 10.72 3.825C10.69 3.445 10.622 3.089 10.45 2.752C10.1863 2.23445 9.76555 1.81367 9.248 1.55C8.911 1.378 8.555 1.31 8.175 1.28C7.81 1.25 7.365 1.25 6.83 1.25H5.2ZM3.433 2.886C3.523 2.84 3.66 2.798 3.947 2.775C4.243 2.751 4.627 2.75 5.2 2.75H6.8C7.372 2.75 7.757 2.75 8.053 2.775C8.34 2.798 8.477 2.84 8.567 2.886C8.803 3.006 8.994 3.197 9.114 3.433C9.16 3.523 9.202 3.66 9.225 3.947C9.249 4.243 9.25 4.627 9.25 5.2V6.8C9.25 7.372 9.25 7.757 9.225 8.053C9.202 8.34 9.16 8.477 9.114 8.567C8.99409 8.80259 8.80259 8.99409 8.567 9.114C8.477 9.16 8.34 9.202 8.053 9.225C7.757 9.249 7.373 9.25 6.8 9.25H5.2C4.628 9.25 4.243 9.25 3.947 9.225C3.66 9.202 3.523 9.16 3.433 9.114C3.19741 8.99409 3.00591 8.80259 2.886 8.567C2.84 8.477 2.798 8.34 2.775 8.053C2.751 7.757 2.75 7.373 2.75 6.8V5.2C2.75 4.628 2.75 4.243 2.775 3.947C2.798 3.66 2.84 3.523 2.886 3.433C3.00591 3.19741 3.19741 3.00591 3.433 2.886ZM17.2 1.25H17.17C16.635 1.25 16.19 1.25 15.825 1.28C15.445 1.31 15.089 1.378 14.752 1.55C14.2344 1.81367 13.8137 2.23445 13.55 2.752C13.378 3.089 13.31 3.445 13.28 3.825C13.25 4.19 13.25 4.635 13.25 5.17V6.83C13.25 7.365 13.25 7.81 13.28 8.175C13.31 8.555 13.378 8.911 13.55 9.248C13.8134 9.7654 14.2338 10.1862 14.751 10.45C15.089 10.622 15.445 10.69 15.825 10.72C16.189 10.75 16.635 10.75 17.17 10.75H18.83C19.365 10.75 19.81 10.75 20.175 10.72C20.555 10.69 20.911 10.622 21.248 10.45C21.7656 10.1863 22.1863 9.76555 22.45 9.248C22.622 8.911 22.69 8.555 22.72 8.175C22.75 7.81 22.75 7.365 22.75 6.831V5.17C22.75 4.635 22.75 4.19 22.72 3.825C22.69 3.445 22.622 3.089 22.45 2.752C22.1869 2.23475 21.7668 1.81401 21.25 1.55C20.912 1.378 20.556 1.31 20.176 1.28C19.811 1.25 19.366 1.25 18.831 1.25H17.2ZM15.432 2.886C15.523 2.84 15.66 2.798 15.947 2.775C16.243 2.751 16.627 2.75 17.2 2.75H18.8C19.372 2.75 19.757 2.75 20.052 2.775C20.34 2.798 20.477 2.84 20.567 2.886C20.803 3.006 20.994 3.197 21.114 3.433C21.16 3.523 21.202 3.66 21.225 3.947C21.249 4.243 21.25 4.627 21.25 5.2V6.8C21.25 7.372 21.25 7.757 21.225 8.053C21.202 8.34 21.16 8.477 21.114 8.567C20.9941 8.80259 20.8026 8.99409 20.567 9.114C20.477 9.16 20.34 9.202 20.052 9.225C19.757 9.249 19.372 9.25 18.8 9.25H17.2C16.628 9.25 16.243 9.25 15.948 9.225C15.66 9.202 15.523 9.16 15.432 9.114C15.1968 8.99392 15.0056 8.80243 14.886 8.567C14.84 8.477 14.798 8.34 14.775 8.053C14.751 7.757 14.75 7.373 14.75 6.8V5.2C14.75 4.628 14.75 4.243 14.775 3.947C14.798 3.66 14.84 3.523 14.886 3.433C15.0056 3.19757 15.1968 3.00608 15.432 2.886ZM5.17 13.25H6.83C7.365 13.25 7.81 13.25 8.175 13.28C8.555 13.31 8.911 13.378 9.248 13.55C9.7654 13.8134 10.1862 14.2338 10.45 14.751C10.622 15.089 10.69 15.445 10.72 15.825C10.75 16.189 10.75 16.635 10.75 17.17V18.83C10.75 19.365 10.75 19.81 10.72 20.175C10.69 20.555 10.622 20.911 10.45 21.248C10.1863 21.7656 9.76555 22.1863 9.248 22.45C8.911 22.622 8.555 22.69 8.175 22.72C7.81 22.75 7.365 22.75 6.831 22.75H5.17C4.635 22.75 4.19 22.75 3.825 22.72C3.445 22.69 3.089 22.622 2.752 22.45C2.23475 22.1869 1.81401 21.7668 1.55 21.25C1.378 20.912 1.31 20.556 1.28 20.176C1.25 19.811 1.25 19.366 1.25 18.831V17.17C1.25 16.635 1.25 16.19 1.28 15.825C1.31 15.445 1.378 15.089 1.55 14.752C1.81367 14.2344 2.23445 13.8137 2.752 13.55C3.089 13.378 3.445 13.31 3.825 13.28C4.19 13.25 4.635 13.25 5.17 13.25ZM3.947 14.775C3.66 14.798 3.523 14.84 3.433 14.886C3.19757 15.0056 3.00608 15.1968 2.886 15.432C2.84 15.523 2.798 15.66 2.775 15.947C2.751 16.243 2.75 16.627 2.75 17.2V18.8C2.75 19.372 2.75 19.757 2.775 20.052C2.798 20.34 2.84 20.477 2.886 20.567C3.006 20.803 3.197 20.994 3.433 21.114C3.523 21.16 3.66 21.202 3.947 21.225C4.243 21.249 4.627 21.25 5.2 21.25H6.8C7.372 21.25 7.757 21.25 8.053 21.225C8.34 21.202 8.477 21.16 8.567 21.114C8.80259 20.9941 8.99409 20.8026 9.114 20.567C9.16 20.477 9.202 20.34 9.225 20.052C9.249 19.757 9.25 19.372 9.25 18.8V17.2C9.25 16.628 9.25 16.243 9.225 15.948C9.202 15.66 9.16 15.523 9.114 15.432C8.99392 15.1968 8.80243 15.0056 8.567 14.886C8.477 14.84 8.34 14.798 8.053 14.775C7.757 14.751 7.373 14.75 6.8 14.75H5.2C4.628 14.75 4.243 14.75 3.947 14.775ZM17.2 13.25H17.17C16.635 13.25 16.19 13.25 15.825 13.28C15.445 13.31 15.089 13.378 14.752 13.55C14.2346 13.8135 13.8139 14.2339 13.55 14.751C13.378 15.089 13.31 15.445 13.28 15.825C13.25 16.19 13.25 16.635 13.25 17.17V18.83C13.25 19.365 13.25 19.81 13.28 20.175C13.31 20.555 13.378 20.911 13.55 21.248C13.813 21.766 14.234 22.187 14.751 22.45C15.089 22.622 15.445 22.69 15.825 22.72C16.189 22.75 16.635 22.75 17.169 22.75H18.83C19.365 22.75 19.81 22.75 20.175 22.72C20.555 22.69 20.911 22.622 21.248 22.45C21.7654 22.1865 22.1861 21.7661 22.45 21.249C22.622 20.911 22.69 20.555 22.72 20.175C22.75 19.811 22.75 19.365 22.75 18.831V17.17C22.75 16.635 22.75 16.19 22.72 15.825C22.69 15.445 22.622 15.089 22.45 14.752C22.1865 14.2346 21.7661 13.8139 21.249 13.55C20.911 13.378 20.555 13.31 20.175 13.28C19.81 13.25 19.365 13.25 18.83 13.25H17.2ZM15.432 14.886C15.523 14.84 15.66 14.798 15.947 14.775C16.243 14.751 16.627 14.75 17.2 14.75H18.8C19.372 14.75 19.757 14.75 20.052 14.775C20.34 14.798 20.477 14.84 20.567 14.886C20.803 15.006 20.994 15.197 21.114 15.432C21.16 15.523 21.202 15.66 21.225 15.947C21.249 16.243 21.25 16.627 21.25 17.2V18.8C21.25 19.372 21.25 19.757 21.225 20.052C21.202 20.34 21.16 20.477 21.114 20.567C20.9941 20.8026 20.8026 20.9941 20.567 21.114C20.477 21.16 20.34 21.202 20.052 21.225C19.757 21.249 19.372 21.25 18.8 21.25H17.2C16.628 21.25 16.243 21.25 15.948 21.225C15.66 21.202 15.523 21.16 15.432 21.114C15.1968 20.9939 15.0056 20.8024 14.886 20.567C14.84 20.477 14.798 20.34 14.775 20.052C14.751 19.757 14.75 19.372 14.75 18.8V17.2C14.75 16.628 14.75 16.243 14.775 15.948C14.798 15.66 14.84 15.523 14.886 15.432C15.0058 15.1969 15.1969 15.0058 15.432 14.886Z" fill="#0D6992"/>
</svg>
