<svg width="24" height="24" viewBox="0 0 24 24" fill="none" xmlns="http://www.w3.org/2000/svg">
<path opacity="0.12" d="M4.646 15.976L4 5H20L19.354 15.976C19.23 18.096 19.167 19.156 18.714 19.961C18.3158 20.6694 17.7113 21.2397 16.981 21.596C16.151 22 15.089 22 12.965 22H11.035C8.911 22 7.849 22 7.019 21.596C6.2883 21.2399 5.68344 20.6695 5.285 19.961C4.833 19.156 4.77 18.096 4.645 15.976H4.646Z" fill="#0D6992"/>
<path fill-rule="evenodd" clip-rule="evenodd" d="M10.73 1.25004H10.621C10.108 1.25004 9.659 1.24804 9.258 1.40604C8.90733 1.54369 8.59684 1.76719 8.355 2.05604C8.079 2.38704 7.937 2.81404 7.775 3.30104L7.741 3.40404L7.459 4.25004H2C1.80109 4.25004 1.61032 4.32905 1.46967 4.46971C1.32902 4.61036 1.25 4.80112 1.25 5.00004C1.25 5.19895 1.32902 5.38971 1.46967 5.53037C1.61032 5.67102 1.80109 5.75004 2 5.75004H3.293L3.897 16.02L3.899 16.052C3.959 17.085 4.008 17.905 4.099 18.565C4.194 19.241 4.341 19.811 4.632 20.329C5.1051 21.1697 5.82293 21.8463 6.69 22.269C7.224 22.529 7.801 22.643 8.482 22.697C9.146 22.75 9.968 22.75 11.002 22.75H12.998C14.033 22.75 14.855 22.75 15.519 22.697C16.199 22.643 16.777 22.53 17.311 22.27C18.1782 21.8471 18.8961 21.17 19.369 20.329C19.66 19.811 19.807 19.241 19.901 18.565C19.993 17.905 20.041 17.085 20.102 16.052L20.104 16.02L20.708 5.75004H22C22.1989 5.75004 22.3897 5.67102 22.5303 5.53037C22.671 5.38971 22.75 5.19895 22.75 5.00004C22.75 4.80112 22.671 4.61036 22.5303 4.46971C22.3897 4.32905 22.1989 4.25004 22 4.25004H16.54L16.259 3.40404L16.224 3.30104C16.063 2.81404 15.921 2.38704 15.644 2.05704C15.4024 1.76833 15.0923 1.54484 14.742 1.40704C14.342 1.24804 13.892 1.24904 13.379 1.25004H10.73ZM15.982 5.75004H19.206L18.606 15.932C18.544 17.004 18.498 17.764 18.416 18.358C18.334 18.944 18.224 19.306 18.062 19.593C17.7384 20.1684 17.2473 20.6316 16.654 20.921C16.357 21.066 15.989 21.155 15.4 21.201C14.802 21.249 14.04 21.25 12.966 21.25H11.036C9.962 21.25 9.2 21.25 8.602 21.202C8.012 21.155 7.645 21.066 7.348 20.922C6.75455 20.6324 6.26341 20.1688 5.94 19.593C5.778 19.306 5.668 18.943 5.586 18.358C5.504 17.764 5.458 17.004 5.396 15.932L4.796 5.75004H15.982ZM14.959 4.25004L14.836 3.87804C14.619 3.22804 14.563 3.10104 14.494 3.01804C14.4136 2.92213 14.3105 2.84788 14.194 2.80204C14.094 2.76204 13.956 2.75004 13.27 2.75004H10.73C10.044 2.75004 9.907 2.76304 9.807 2.80204C9.69007 2.84802 9.58657 2.92263 9.506 3.01904C9.436 3.10104 9.381 3.22704 9.164 3.87904L9.041 4.25004H14.959ZM10.75 10C10.75 9.80112 10.671 9.61036 10.5303 9.46971C10.3897 9.32905 10.1989 9.25004 10 9.25004C9.80109 9.25004 9.61032 9.32905 9.46967 9.46971C9.32902 9.61036 9.25 9.80112 9.25 10V17C9.25 17.1989 9.32902 17.3897 9.46967 17.5304C9.61032 17.671 9.80109 17.75 10 17.75C10.1989 17.75 10.3897 17.671 10.5303 17.5304C10.671 17.3897 10.75 17.1989 10.75 17V10ZM14 9.25004C14.1989 9.25004 14.3897 9.32905 14.5303 9.46971C14.671 9.61036 14.75 9.80112 14.75 10V14C14.75 14.1989 14.671 14.3897 14.5303 14.5304C14.3897 14.671 14.1989 14.75 14 14.75C13.8011 14.75 13.6103 14.671 13.4697 14.5304C13.329 14.3897 13.25 14.1989 13.25 14V10C13.25 9.80112 13.329 9.61036 13.4697 9.46971C13.6103 9.32905 13.8011 9.25004 14 9.25004Z" fill="#0D6992"/>
</svg>
