<svg width="24" height="14" viewBox="0 0 24 14" fill="none" xmlns="http://www.w3.org/2000/svg">
<path d="M21.9877 6.04967C22.4359 6.61434 22.4359 7.38566 21.9877 7.95033C20.6449 9.64204 17.2727 13 11.6619 13C6.05115 13 2.67901 9.64204 1.33616 7.95033C0.887946 7.38566 0.887946 6.61434 1.33616 6.04967C2.67901 4.35796 6.05115 1 11.6619 1C17.2727 1 20.6449 4.35796 21.9877 6.04967Z" stroke="#A0A0A0" stroke-width="1.5" stroke-linecap="round"/>
<path d="M14.6619 7C14.6619 8.65685 13.3188 10 11.6619 10C10.0051 10 8.66193 8.65685 8.66193 7C8.66193 5.34315 10.0051 4 11.6619 4C13.3188 4 14.6619 5.34315 14.6619 7Z" stroke="#A0A0A0" stroke-width="1.5" stroke-linecap="round"/>
</svg>
