<svg width="18" height="14" viewBox="0 0 18 14" fill="none" xmlns="http://www.w3.org/2000/svg">
<path d="M17 7.85C17.4694 7.85 17.85 7.46944 17.85 7C17.85 6.53056 17.4694 6.15 17 6.15V7.85ZM0.398959 6.39896C0.0670136 6.7309 0.0670136 7.2691 0.398959 7.60104L5.80833 13.0104C6.14027 13.3424 6.67846 13.3424 7.01041 13.0104C7.34235 12.6785 7.34235 12.1403 7.01041 11.8083L2.20208 7L7.01041 2.19167C7.34235 1.85973 7.34235 1.32154 7.01041 0.989592C6.67846 0.657647 6.14027 0.657647 5.80833 0.989592L0.398959 6.39896ZM17 6.15H1V7.85H17V6.15Z" fill="#49565E"/>
</svg>
