<svg width="60" height="60" viewBox="0 0 60 60" fill="none" xmlns="http://www.w3.org/2000/svg">
<g opacity="0.8">
<path fill-rule="evenodd" clip-rule="evenodd" d="M5.81745 14.0951C5 15.6994 5 17.7996 5 22V38C5 42.2004 5 44.3006 5.81745 45.9049C6.5365 47.3161 7.68386 48.4635 9.09507 49.1825C10.6994 50 12.7996 50 17 50H43C47.2004 50 49.3006 50 50.9049 49.1825C52.3161 48.4635 53.4635 47.3161 54.1825 45.9049C55 44.3006 55 42.2004 55 38V22C55 17.7996 55 15.6994 54.1825 14.0951C53.4635 12.6839 52.3161 11.5365 50.9049 10.8175C49.3006 10 47.2004 10 43 10H17C12.7996 10 10.6994 10 9.09507 10.8175C7.68386 11.5365 6.5365 12.6839 5.81745 14.0951ZM11.6888 13.9153C11.8767 13.6545 12.1786 13.5 12.5 13.5H29H47C47.2652 13.5 47.5196 13.6054 47.7071 13.7929C47.8946 13.9804 48 14.2348 48 14.5C48 14.7294 48.1908 15.7766 49.2071 16.7929C50.1275 17.7133 51.0271 17.6036 51.1838 17.5513C51.4887 17.4497 51.8239 17.5008 52.0847 17.6888C52.3455 17.8767 52.5 18.1786 52.5 18.5V29V35V41C52.5 41.5523 52.0523 42 51.5 42C51.2706 42 50.2234 42.1908 49.2071 43.2071C48.2867 44.1275 48.3965 45.0271 48.4487 45.1838C48.5503 45.4887 48.4992 45.8239 48.3112 46.0847C48.1233 46.3455 47.8214 46.5 47.5 46.5H31.0028H31H13C12.7348 46.5 12.4804 46.3946 12.2929 46.2071C12.1054 46.0196 12 45.7652 12 45.5C12 45.2706 11.8092 44.2234 10.7929 43.2071C9.87248 42.2867 8.97293 42.3964 8.81623 42.4487C8.51128 42.5503 8.17606 42.4992 7.91529 42.3112C7.65452 42.1233 7.5 41.8214 7.5 41.5L7.5 31.0019L7.5 31V19C7.5 18.4477 7.94772 18 8.5 18C8.72941 18 9.77659 17.8092 10.7929 16.7929C11.7133 15.8725 11.6036 14.9729 11.5513 14.8162C11.4497 14.5113 11.5008 14.1761 11.6888 13.9153ZM46.4366 44.5L31 44.5L30.9972 44.5H13.8416C13.6173 43.7097 13.1281 42.7138 12.2071 41.7929C11.3054 40.8912 10.3217 40.523 9.5 40.4366L9.5 25L9.5 24.9977V19.8416C10.2903 19.6173 11.2862 19.1281 12.2071 18.2071C13.1088 17.3054 13.477 16.3217 13.5634 15.5H29H29.0007H46.1584C46.3827 16.2903 46.8719 17.2862 47.7929 18.2071C48.6946 19.1088 49.6783 19.477 50.5 19.5634V29V35V40.1584C49.7097 40.3827 48.7138 40.8719 47.7929 41.7929C46.8912 42.6946 46.523 43.6783 46.4366 44.5Z" fill="#12131A" fill-opacity="0.25"/>
<ellipse cx="30.5" cy="30.5" rx="5.5" ry="6.5" fill="#49565E"/>
<circle cx="43.5" cy="30.5" r="2.5" fill="#49565E"/>
<circle cx="17.5" cy="30.5" r="2.5" fill="#49565E"/>
</g>
</svg>
