<svg width="60" height="60" viewBox="0 0 60 60" fill="none" xmlns="http://www.w3.org/2000/svg">
<g opacity="0.8">
<path d="M10 10C7.23858 10 5 12.2386 5 15V40C5 42.7614 7.23858 45 10 45H35V15C35 12.2386 32.7614 10 30 10H10Z" fill="#12131A" fill-opacity="0.25"/>
<path d="M41.5314 17.5H35V45H50C52.7614 45 55 42.7614 55 40V30.2214C55 28.8152 54.4079 27.474 53.3688 26.5266L44.9002 18.8052C43.9792 17.9655 42.7777 17.5 41.5314 17.5Z" fill="#49565E"/>
<path fill-rule="evenodd" clip-rule="evenodd" d="M17.5 50C20.2614 50 22.5 47.7614 22.5 45C22.5 42.2386 20.2614 40 17.5 40C14.7386 40 12.5 42.2386 12.5 45C12.5 47.7614 14.7386 50 17.5 50ZM48.5355 48.5355C49.4732 47.5979 50 46.3261 50 45H45L40 45C40 46.3261 40.5268 47.5979 41.4645 48.5355C42.4021 49.4732 43.6739 50 45 50C46.3261 50 47.5979 49.4732 48.5355 48.5355Z" fill="#49565E"/>
</g>
</svg>
