<svg width="60" height="60" viewBox="0 0 60 60" fill="none" xmlns="http://www.w3.org/2000/svg">
<g opacity="0.8">
<path d="M26.9524 6.51955C28.483 4.50097 31.5176 4.50097 33.0482 6.51955L36.4833 11.0498C37.0291 11.7697 37.9209 12.1391 38.8159 12.016L44.4483 11.2416C46.9579 10.8966 49.1037 13.0423 48.7586 15.552L47.9842 21.1843C47.8611 22.0793 48.2305 22.9711 48.9504 23.517L53.4807 26.952C55.4992 28.4826 55.4992 31.5172 53.4807 33.0478L48.9504 36.4829C48.2305 37.0288 47.8611 37.9205 47.9842 38.8155L48.7586 44.4479C49.1037 46.9575 46.9579 49.1033 44.4483 48.7582L38.8159 47.9838C37.9209 47.8608 37.0291 48.2302 36.4833 48.95L33.0482 53.4803C31.5176 55.4989 28.483 55.4989 26.9524 53.4803L23.5173 48.95C22.9715 48.2302 22.0797 47.8608 21.1847 47.9838L15.5523 48.7582C13.0427 49.1033 10.8969 46.9575 11.242 44.4479L12.0164 38.8155C12.1395 37.9205 11.7701 37.0288 11.0502 36.4829L6.51992 33.0478C4.50134 31.5172 4.50134 28.4826 6.51992 26.952L11.0502 23.517C11.7701 22.9711 12.1395 22.0793 12.0164 21.1843L11.242 15.552C10.8969 13.0423 13.0427 10.8966 15.5523 11.2416L21.1847 12.016C22.0797 12.1391 22.9715 11.7697 23.5173 11.0498L26.9524 6.51955Z" fill="#12131A" fill-opacity="0.25"/>
<path fill-rule="evenodd" clip-rule="evenodd" d="M25 27.5C23.6193 27.5 22.5 26.3807 22.5 25C22.5 23.6193 23.6193 22.5 25 22.5C26.3807 22.5 27.5 23.6193 27.5 25C27.5 26.3807 26.3807 27.5 25 27.5ZM36.7678 26.7678L26.7678 36.7678C25.7915 37.7441 24.2085 37.7441 23.2322 36.7678C22.2559 35.7915 22.2559 34.2085 23.2322 33.2322L33.2322 23.2322C34.2085 22.2559 35.7915 22.2559 36.7678 23.2322C37.7441 24.2085 37.7441 25.7915 36.7678 26.7678ZM32.5 35C32.5 36.3807 33.6193 37.5 35 37.5C36.3807 37.5 37.5 36.3807 37.5 35C37.5 33.6193 36.3807 32.5 35 32.5C33.6193 32.5 32.5 33.6193 32.5 35Z" fill="#49565E"/>
</g>
</svg>
