<svg width="167" height="101" viewBox="0 0 167 101" fill="none" xmlns="http://www.w3.org/2000/svg">
<path fill-rule="evenodd" clip-rule="evenodd" d="M36.9827 74.8473L30.6819 67.9931L22.4635 74.299L10.6838 59.494L44.9271 15.9016L33.4214 3.01583L21.3677 10.4183L1.6436 0L23.2854 18.9175L30.6819 14.2566L33.6953 18.095L1.6436 58.3973L22.4635 83.6206L29.8601 76.4923L29.5861 90.2006L45.749 100.345L35.8869 88.0073L36.9827 74.8473ZM38.9003 30.7067L44.1053 22.2075H68.4865L89.0325 47.1566V61.6874L63.8294 30.7067H38.9003ZM64.3775 100.345H54.2415L84.1017 61.139L89.0327 66.8965V69.6381L64.3775 100.345ZM26.2989 22.4816L20.8199 30.1582H9.58813L0 16.4499L11.7797 22.2074L26.2989 22.4816ZM29.3124 48.2532L36.9829 44.6891L34.5174 38.9316L28.2166 46.8824L29.3124 48.2532ZM113.962 41.3991C120.536 41.3991 124.646 42.4957 126.563 44.689C128.481 46.8824 129.303 51.5432 128.207 59.2198C128.207 67.4448 127.385 72.654 125.467 74.8473C123.55 77.0406 118.893 78.1373 111.77 78.1373H110.126H108.483C101.908 78.1373 97.7989 77.0406 95.8813 74.8473C93.9636 72.654 93.1418 67.9931 93.1418 60.8648V57.0265H103.552V61.139C103.552 66.3482 104.1 69.364 104.922 70.4606C105.743 71.5573 107.935 72.1056 111.222 72.1056C114.51 72.1056 116.427 71.5573 117.249 70.4606C118.071 69.364 118.619 65.7998 118.619 59.7682C118.619 53.7365 118.345 50.1724 117.523 49.0757C116.975 47.979 114.784 47.4307 111.496 47.4307C107.935 47.4307 105.743 47.979 105.195 49.0757C104.922 49.624 104.648 50.7207 104.374 52.6399H94.2376C94.7855 48.8015 95.6073 46.0599 96.7031 44.689C98.6207 42.4957 103.004 41.3991 110.4 41.3991H112.044H113.962ZM145.192 46.6082L141.904 41.6732H127.933L138.069 56.7523L145.192 46.6082ZM166.286 41.6732L153.958 59.7682L166.012 77.3148H152.04L147.109 70.1865L142.178 77.3148H128.207L138.891 61.9615L148.205 48.2532L152.588 41.6732H166.286Z" fill="#F2F2F2"/>
</svg>
