<svg width="60" height="60" viewBox="0 0 60 60" fill="none" xmlns="http://www.w3.org/2000/svg">
<g opacity="0.8">
<path d="M25 45.9396V35H15L16.9345 46.6072C17.2608 48.565 18.9548 50 20.9396 50C23.1821 50 25 48.1821 25 45.9396Z" fill="#49565E"/>
<path d="M7.5 27.4989C7.5 23.3568 10.8579 19.9989 15 19.9989H22.5L27.5 19.9999L43.0939 10.8766C47.2604 8.43891 52.5 11.4439 52.5 16.2712V38.743C52.5 43.5723 47.2565 46.577 43.0899 44.1353L27.5 34.9989H22.5H15C10.8579 34.9989 7.5 31.6411 7.5 27.4989Z" fill="#12131A" fill-opacity="0.25"/>
<path d="M45 26.9444C45 24.4898 46.9898 22.5 49.4444 22.5H50C52.7614 22.5 55 24.7386 55 27.5C55 30.2614 52.7614 32.5 50 32.5H49.4444C46.9898 32.5 45 30.5102 45 28.0556V26.9444Z" fill="#12131A" fill-opacity="0.25"/>
<path d="M27.5 19.9999L43.0939 10.8766C47.2604 8.43891 52.5 11.4439 52.5 16.2712V38.743C52.5 43.5723 47.2565 46.577 43.0899 44.1353L27.5 34.999V19.9999Z" fill="#49565E"/>
</g>
</svg>
