<svg width="30" height="30" viewBox="0 0 30 30" fill="none" xmlns="http://www.w3.org/2000/svg">
<path fill-rule="evenodd" clip-rule="evenodd" d="M5 18.75C5.69035 18.75 6.25 19.3096 6.25 20C6.25 21.2429 6.26074 21.6192 6.33518 21.897C6.56635 22.7598 7.24022 23.4336 8.10295 23.6648C8.3808 23.7393 8.75706 23.75 10 23.75C10.6904 23.75 11.25 24.3096 11.25 25C11.25 25.6904 10.6904 26.25 10 26.25L9.82802 26.2501C8.83379 26.2506 8.09547 26.251 7.4559 26.0796C5.73044 25.6173 4.3827 24.2696 3.92037 22.5441C3.749 21.9045 3.7494 21.1662 3.74994 20.172L3.74994 20.172L3.75 20C3.75 19.3096 4.30964 18.75 5 18.75ZM20 26.25L20.172 26.2501H20.172C21.1662 26.2506 21.9045 26.251 22.5441 26.0796C24.2696 25.6173 25.6173 24.2696 26.0796 22.5441C26.251 21.9045 26.2506 21.1662 26.2501 20.172L26.25 20C26.25 19.3096 25.6904 18.75 25 18.75C24.3096 18.75 23.75 19.3096 23.75 20C23.75 21.2429 23.7393 21.6192 23.6648 21.897C23.4336 22.7598 22.7598 23.4336 21.897 23.6648C21.6192 23.7393 21.2429 23.75 20 23.75C19.3096 23.75 18.75 24.3096 18.75 25C18.75 25.6904 19.3096 26.25 20 26.25Z" fill="#C2C8D0"/>
<path d="M3.75 15C3.75 14.3096 4.30964 13.75 5 13.75H25C25.6904 13.75 26.25 14.3096 26.25 15C26.25 15.6904 25.6904 16.25 25 16.25H5C4.30964 16.25 3.75 15.6904 3.75 15Z" fill="#49565E"/>
<path d="M3.75 9.375C3.75 7.62772 3.75 6.75408 4.03545 6.06494C4.41605 5.14608 5.14608 4.41605 6.06494 4.03545C6.75408 3.75 7.62772 3.75 9.375 3.75H20.625C22.3723 3.75 23.2459 3.75 23.9351 4.03545C24.8539 4.41605 25.5839 5.14608 25.9645 6.06494C26.25 6.75408 26.25 7.62772 26.25 9.375C26.25 9.95743 26.25 10.2486 26.1549 10.4784C26.028 10.7846 25.7846 11.028 25.4784 11.1548C25.2486 11.25 24.9574 11.25 24.375 11.25H5.625C5.04257 11.25 4.75136 11.25 4.52165 11.1548C4.21536 11.028 3.97202 10.7846 3.84515 10.4784C3.75 10.2486 3.75 9.95743 3.75 9.375Z" fill="#C2C8D0"/>
</svg>
