<svg width="60" height="60" viewBox="0 0 60 60" fill="none" xmlns="http://www.w3.org/2000/svg">
<g opacity="0.6">
<path d="M10 19.5C10 15.2996 10 13.1994 10.8175 11.5951C11.5365 10.1839 12.6839 9.0365 14.0951 8.31745C15.6994 7.5 17.7996 7.5 22 7.5H38C42.2004 7.5 44.3006 7.5 45.9049 8.31745C47.3161 9.0365 48.4635 10.1839 49.1825 11.5951C50 13.1994 50 15.2996 50 19.5V43C50 47.2004 50 49.3006 49.1825 50.9049C48.4635 52.3161 47.3161 53.4635 45.9049 54.1825C44.3006 55 42.2004 55 38 55H22C17.7996 55 15.6994 55 14.0951 54.1825C12.6839 53.4635 11.5365 52.3161 10.8175 50.9049C10 49.3006 10 47.2004 10 43V19.5Z" fill="#12131A" fill-opacity="0.25"/>
<path fill-rule="evenodd" clip-rule="evenodd" d="M22.5 25C23.8807 25 25 23.8807 25 22.5C25 21.1193 23.8807 20 22.5 20C21.1193 20 20 21.1193 20 22.5C20 23.8807 21.1193 25 22.5 25ZM32.5 20C31.1193 20 30 21.1193 30 22.5C30 23.8807 31.1193 25 32.5 25H37.5C38.8807 25 40 23.8807 40 22.5C40 21.1193 38.8807 20 37.5 20H32.5ZM32.5 30C31.1193 30 30 31.1193 30 32.5C30 33.8807 31.1193 35 32.5 35H37.5C38.8807 35 40 33.8807 40 32.5C40 31.1193 38.8807 30 37.5 30H32.5ZM30 42.5C30 41.1193 31.1193 40 32.5 40H37.5C38.8807 40 40 41.1193 40 42.5C40 43.8807 38.8807 45 37.5 45H32.5C31.1193 45 30 43.8807 30 42.5ZM25 32.5C25 33.8807 23.8807 35 22.5 35C21.1193 35 20 33.8807 20 32.5C20 31.1193 21.1193 30 22.5 30C23.8807 30 25 31.1193 25 32.5ZM22.5 45C23.8807 45 25 43.8807 25 42.5C25 41.1193 23.8807 40 22.5 40C21.1193 40 20 41.1193 20 42.5C20 43.8807 21.1193 45 22.5 45Z" fill="#49565E"/>
<path d="M22.5 7.5C22.5 6.11929 23.6193 5 25 5H35C36.3807 5 37.5 6.11929 37.5 7.5V10C37.5 11.3807 36.3807 12.5 35 12.5H25C23.6193 12.5 22.5 11.3807 22.5 10V7.5Z" fill="#49565E"/>
</g>
</svg>
