<svg width="60" height="60" viewBox="0 0 60 60" fill="none" xmlns="http://www.w3.org/2000/svg">
<g opacity="0.8">
<path d="M50 35C50 46.0457 41.0457 55 30 55C18.9543 55 10 46.0457 10 35C10 23.9543 18.9543 15 30 15C41.0457 15 50 23.9543 50 35Z" fill="#12131A" fill-opacity="0.25"/>
<path d="M27.5 27.5C27.5 26.1193 28.6193 25 30 25C31.3807 25 32.5 26.1193 32.5 27.5V35C32.5 36.3807 31.3807 37.5 30 37.5C28.6193 37.5 27.5 36.3807 27.5 35V27.5Z" fill="#49565E"/>
<path fill-rule="evenodd" clip-rule="evenodd" d="M27.5 5C26.1193 5 25 6.11929 25 7.5C25 8.88071 26.1193 10 27.5 10H32.5C33.8807 10 35 8.88071 35 7.5C35 6.11929 33.8807 5 32.5 5H27.5ZM46.5 9.875C45.3954 9.04657 43.8284 9.27043 43 10.375C42.1716 11.4796 42.3954 13.0466 43.5 13.875L46 15.75C47.1046 16.5784 48.6716 16.3546 49.5 15.25C50.3284 14.1454 50.1046 12.5784 49 11.75L46.5 9.875Z" fill="#49565E"/>
</g>
</svg>
