<svg width="60" height="60" viewBox="0 0 60 60" fill="none" xmlns="http://www.w3.org/2000/svg">
<g opacity="0.8">
<path fill-rule="evenodd" clip-rule="evenodd" d="M17.5 17.5C17.5 10.5964 23.0964 5 30 5C36.9036 5 42.5 10.5964 42.5 17.5C42.5 19.5586 42.0024 21.501 41.1208 23.2134C38.6512 24.3925 36.6292 26.3584 35.3792 28.7866C33.7499 29.5645 31.9258 30 30 30C23.0964 30 17.5 24.4036 17.5 17.5Z" fill="#49565E"/>
<path fill-rule="evenodd" clip-rule="evenodd" d="M49.9617 46.5145C48.8624 46.8306 47.701 47 46.5 47C39.7639 47 34.2723 41.6718 34.0098 35H22.5C15.5964 35 10 40.5964 10 47.5C10 51.6421 13.3579 55 17.5 55H42.5C46.6421 55 50 51.6421 50 47.5C50 47.1683 49.9871 46.8396 49.9617 46.5145Z" fill="#12131A" fill-opacity="0.25"/>
<path fill-rule="evenodd" clip-rule="evenodd" d="M44.5 40.2352C44.5 41.3398 45.3954 42.2352 46.5 42.2352C47.6046 42.2352 48.5 41.3398 48.5 40.2352V36.4999H52.2353C53.3399 36.4999 54.2353 35.6045 54.2353 34.4999C54.2353 33.3954 53.3399 32.4999 52.2353 32.4999H48.5V28.7646C48.5 27.6601 47.6046 26.7646 46.5 26.7646C45.3954 26.7646 44.5 27.6601 44.5 28.7646V32.4999H40.7647C39.6601 32.4999 38.7647 33.3954 38.7647 34.4999C38.7647 35.6045 39.6601 36.4999 40.7647 36.4999H44.5V40.2352Z" fill="#49565E"/>
</g>
</svg>
