<svg width="60" height="60" viewBox="0 0 60 60" fill="none" xmlns="http://www.w3.org/2000/svg">
<g opacity="0.8">
<path fill-rule="evenodd" clip-rule="evenodd" d="M17.5 17.5C17.5 10.5964 23.0964 5 30 5C36.9036 5 42.5 10.5964 42.5 17.5C42.5 19.5586 42.0024 21.501 41.1208 23.2134C38.6512 24.3925 36.6292 26.3584 35.3792 28.7866C33.7499 29.5645 31.9258 30 30 30C23.0964 30 17.5 24.4036 17.5 17.5Z" fill="#49565E"/>
<path fill-rule="evenodd" clip-rule="evenodd" d="M49.9617 46.5145C48.8624 46.8306 47.701 47 46.5 47C39.7639 47 34.2723 41.6718 34.0098 35H22.5C15.5964 35 10 40.5964 10 47.5C10 51.6421 13.3579 55 17.5 55H42.5C46.6421 55 50 51.6421 50 47.5C50 47.1683 49.9871 46.8396 49.9617 46.5145Z" fill="#12131A" fill-opacity="0.25"/>
<path fill-rule="evenodd" clip-rule="evenodd" d="M43.9005 39.8268C43.9667 39.9071 44.0402 39.9832 44.1207 40.0543C44.9486 40.7855 46.2125 40.707 46.9437 39.8791L54.4991 31.3237C55.2303 30.4957 55.1518 29.2318 54.3239 28.5007C53.496 27.7695 52.2321 27.848 51.5009 28.6759L45.3746 35.613L42.43 32.6015C41.6578 31.8118 40.3915 31.7975 39.6018 32.5698C38.812 33.342 38.7978 34.6083 39.57 35.398L43.9005 39.8268Z" fill="#49565E"/>
</g>
</svg>
