<svg width="24" height="20" viewBox="0 0 24 20" fill="none" xmlns="http://www.w3.org/2000/svg">
<path d="M10.285 1.85821L9.6419 1.47234L10.285 1.85821ZM1.8174 15.9709L1.17428 15.585H1.17428L1.8174 15.9709ZM22.1826 15.9709L22.8257 15.585L22.1826 15.9709ZM13.715 1.85822L13.0719 2.24409V2.24409L13.715 1.85822ZM12.75 6.9999C12.75 6.58569 12.4142 6.2499 12 6.2499C11.5858 6.2499 11.25 6.58569 11.25 6.9999H12.75ZM11.25 10.9999C11.25 11.4141 11.5858 11.7499 12 11.7499C12.4142 11.7499 12.75 11.4141 12.75 10.9999H11.25ZM12.75 13.9999C12.75 13.5857 12.4142 13.2499 12 13.2499C11.5858 13.2499 11.25 13.5857 11.25 13.9999H12.75ZM11.25 14.9999C11.25 15.4141 11.5858 15.7499 12 15.7499C12.4142 15.7499 12.75 15.4141 12.75 14.9999H11.25ZM9.6419 1.47234L1.17428 15.585L2.46052 16.3568L10.9281 2.24409L9.6419 1.47234ZM3.53239 19.7499H20.4676V18.2499H3.53239V19.7499ZM22.8257 15.585L14.3581 1.47234L13.0719 2.24409L21.5395 16.3568L22.8257 15.585ZM11.25 6.9999V10.9999H12.75V6.9999H11.25ZM11.25 13.9999V14.9999H12.75V13.9999H11.25ZM20.4676 19.7499C22.6052 19.7499 23.9255 17.418 22.8257 15.585L21.5395 16.3568C22.0394 17.1899 21.4392 18.2499 20.4676 18.2499V19.7499ZM1.17428 15.585C0.0745158 17.418 1.39482 19.7499 3.53239 19.7499V18.2499C2.56077 18.2499 1.96063 17.1899 2.46052 16.3568L1.17428 15.585ZM10.9281 2.24409C11.4136 1.43491 12.5864 1.43491 13.0719 2.24409L14.3581 1.47235C13.29 -0.307836 10.71 -0.307841 9.6419 1.47234L10.9281 2.24409Z" fill="black"/>
</svg>
