<svg width="27" height="27" viewBox="0 0 27 27" fill="none" xmlns="http://www.w3.org/2000/svg">
<path d="M21.8172 2.11976L22.1219 3.07218L21.8172 2.11976ZM2.69388 8.23921L2.38911 7.28679L2.38911 7.28679L2.69388 8.23921ZM18.7608 24.3061L17.8084 24.0013L18.7608 24.3061ZM24.8802 5.18283L25.8327 5.48761L24.8802 5.18283ZM2.61118 12.8521L2.9499 11.9112L2.61118 12.8521ZM11.094 15.906L12.0349 15.5672C11.934 15.2868 11.7132 15.066 11.4328 14.9651L11.094 15.906ZM14.1479 24.3888L13.207 24.7275L13.207 24.7275L14.1479 24.3888ZM21.5124 1.16734L2.38911 7.28679L2.99866 9.19163L22.1219 3.07218L21.5124 1.16734ZM19.7132 24.6109L25.8327 5.48761L23.9278 4.87806L17.8084 24.0013L19.7132 24.6109ZM2.27246 13.793L10.7553 16.8468L11.4328 14.9651L2.9499 11.9112L2.27246 13.793ZM10.1532 16.2447L13.207 24.7275L15.0888 24.0501L12.0349 15.5672L10.1532 16.2447ZM17.8084 24.0013C17.3902 25.308 15.5535 25.3409 15.0888 24.0501L13.207 24.7275C14.3187 27.8156 18.7129 27.7368 19.7132 24.6109L17.8084 24.0013ZM2.38911 7.28679C-0.736763 8.28707 -0.815566 12.6813 2.27246 13.793L2.9499 11.9112C1.65911 11.4466 1.69204 9.60975 2.99866 9.19163L2.38911 7.28679ZM22.1219 3.07218C23.2342 2.71627 24.2837 3.76582 23.9278 4.87806L25.8327 5.48761C26.6841 2.82676 24.1732 0.315863 21.5124 1.16734L22.1219 3.07218Z" fill="#293644"/>
</svg>
