<svg width="35" height="29" viewBox="0 0 35 29" fill="none" xmlns="http://www.w3.org/2000/svg">
<path d="M17.4168 4.00294L16.7383 4.88689L17.4168 5.40756L18.0952 4.88689L17.4168 4.00294ZM18.36 3.27905L19.0384 4.16301L19.0384 4.16301L18.36 3.27905ZM31.2953 15.9638L32.1003 16.7342L31.2953 15.9638ZM3.53825 15.9638L2.73317 16.7342L3.53825 15.9638ZM16.4736 3.27905L17.152 2.39509L16.4736 3.27905ZM30.8923 3.94494L31.6637 3.14084V3.14084L30.8923 3.94494ZM18.0952 4.88689L19.0384 4.16301L17.6815 2.39509L16.7383 3.11898L18.0952 4.88689ZM30.4902 15.1934C28.1213 17.6689 25.3549 20.4182 22.8592 22.5414C21.6095 23.6046 20.4524 24.4894 19.4641 25.1023C18.4222 25.7485 17.7499 25.9743 17.4168 25.9743V28.2029C18.4286 28.2029 19.5692 27.6594 20.6386 26.9963C21.7615 26.2999 23.0142 25.3355 24.3033 24.2388C26.8853 22.0421 29.7131 19.2289 32.1003 16.7342L30.4902 15.1934ZM17.4168 25.9743C17.0836 25.9743 16.4113 25.7485 15.3694 25.1023C14.3811 24.4894 13.2241 23.6046 11.9743 22.5414C9.47861 20.4182 6.71217 17.6689 4.34333 15.1934L2.73317 16.7342C5.12043 19.2289 7.94821 22.0421 10.5302 24.2388C11.8193 25.3355 13.072 26.2999 14.1949 26.9963C15.2643 27.6594 16.4049 28.2029 17.4168 28.2029V25.9743ZM15.7951 4.16301L16.7383 4.88689L18.0952 3.11898L17.152 2.39509L15.7951 4.16301ZM4.71262 4.74903C7.70316 1.88007 12.4846 1.62225 15.7951 4.16301L17.152 2.39509C12.9742 -0.81128 6.96027 -0.495516 3.16981 3.14084L4.71262 4.74903ZM4.34333 15.1934C1.50091 12.2229 1.68965 7.6491 4.71262 4.74903L3.16981 3.14084C-0.690087 6.84381 -1.00696 12.8255 2.73317 16.7342L4.34333 15.1934ZM30.1209 4.74903C33.1439 7.6491 33.3326 12.2229 30.4902 15.1934L32.1003 16.7342C35.8405 12.8255 35.5236 6.84381 31.6637 3.14084L30.1209 4.74903ZM19.0384 4.16301C22.3489 1.62225 27.1304 1.88007 30.1209 4.74903L31.6637 3.14084C27.8732 -0.495517 21.8594 -0.811281 17.6815 2.39509L19.0384 4.16301Z" fill="#121212"/>
</svg>
