<svg width="24" height="24" viewBox="0 0 24 24" fill="none" xmlns="http://www.w3.org/2000/svg">
<path d="M18.9775 16.6551H8.5759C8.02488 16.6551 7.54753 16.2784 7.42672 15.7469L5.1254 5.73828H20.9341C21.6884 5.73828 22.2512 6.43336 22.0833 7.16349L20.1267 15.7439C20.0059 16.2755 19.5285 16.6551 18.9775 16.6551Z" stroke="#002930" stroke-width="1.5" stroke-miterlimit="10" stroke-linecap="round" stroke-linejoin="round"/>
<path d="M2.04309 2H4.29432L6.69288 12.5168" stroke="#002930" stroke-width="1.5" stroke-miterlimit="10" stroke-linecap="round" stroke-linejoin="round"/>
<path d="M9.25969 21.2414C10.0115 21.2414 10.621 20.6799 10.621 19.9872C10.621 19.2945 10.0115 18.7329 9.25969 18.7329C8.50784 18.7329 7.89835 19.2945 7.89835 19.9872C7.89835 20.6799 8.50784 21.2414 9.25969 21.2414Z" fill="#002930"/>
<path d="M18.6716 21.2414C19.4235 21.2414 20.033 20.6799 20.033 19.9872C20.033 19.2945 19.4235 18.7329 18.6716 18.7329C17.9198 18.7329 17.3103 19.2945 17.3103 19.9872C17.3103 20.6799 17.9198 21.2414 18.6716 21.2414Z" fill="#002930"/>
</svg>
