<svg width="24" height="20" viewBox="0 0 24 20" fill="none" xmlns="http://www.w3.org/2000/svg">
<path d="M11.7764 2.87278L11.3079 3.45844L11.7764 3.83325L12.245 3.45844L11.7764 2.87278ZM12.4036 2.37108L12.8721 2.95673V2.95673L12.4036 2.37108ZM21.0042 11.1625L21.5567 11.6697L21.0042 11.1625ZM2.54872 11.1625L1.99622 11.6697H1.99622L2.54872 11.1625ZM11.1493 2.37108L11.6178 1.78543V1.78543L11.1493 2.37108ZM20.7362 2.83259L21.2666 2.30226V2.30226L20.7362 2.83259ZM12.245 3.45844L12.8721 2.95673L11.9351 1.78543L11.3079 2.28713L12.245 3.45844ZM20.4517 10.6553C18.8765 12.3712 17.037 14.2767 15.3776 15.7483C14.5465 16.4853 13.7775 17.0983 13.121 17.5226C12.4264 17.9716 11.986 18.1228 11.7764 18.1228V19.6228C12.4612 19.6228 13.2262 19.2407 13.9353 18.7823C14.6826 18.2993 15.5158 17.6306 16.3728 16.8706C18.0895 15.3482 19.9695 13.3986 21.5567 11.6697L20.4517 10.6553ZM11.7764 18.1228C11.5669 18.1228 11.1265 17.9716 10.4319 17.5226C9.77543 17.0983 9.0064 16.4853 8.17533 15.7483C6.5159 14.2767 4.67638 12.3712 3.10122 10.6553L1.99622 11.6697C3.58335 13.3986 5.46339 15.3482 7.18009 16.8706C8.03709 17.6306 8.87027 18.2993 9.61758 18.7823C10.3267 19.2407 11.0917 19.6228 11.7764 19.6228V18.1228ZM10.6808 2.95673L11.3079 3.45844L12.245 2.28713L11.6178 1.78543L10.6808 2.95673ZM3.34697 3.36292C5.33106 1.37882 8.48973 1.20388 10.6808 2.95673L11.6178 1.78543C8.82994 -0.44489 4.81086 -0.222295 2.28631 2.30226L3.34697 3.36292ZM3.10122 10.6553C1.19848 8.58259 1.32807 5.38181 3.34697 3.36292L2.28631 2.30226C-0.271162 4.85973 -0.477751 8.97471 1.99622 11.6697L3.10122 10.6553ZM20.2059 3.36292C22.2248 5.38181 22.3544 8.58259 20.4517 10.6553L21.5567 11.6697C24.0306 8.97471 23.824 4.85973 21.2666 2.30226L20.2059 3.36292ZM12.8721 2.95673C15.0632 1.20388 18.2218 1.37882 20.2059 3.36292L21.2666 2.30226C18.742 -0.222295 14.723 -0.44489 11.9351 1.78543L12.8721 2.95673Z" fill="#293644"/>
</svg>
