<svg width="27" height="26" viewBox="0 0 27 26" fill="none" xmlns="http://www.w3.org/2000/svg">
<path fill-rule="evenodd" clip-rule="evenodd" d="M0.709106 8C0.709106 3.58172 4.29083 0 8.70911 0H18.7091C23.1274 0 26.7091 3.58172 26.7091 8V18C26.7091 22.4183 23.1274 26 18.7091 26H8.70911C4.29083 26 0.709106 22.4183 0.709106 18V8ZM8.4158 9.70428V7.90698C8.4158 7.36925 7.97988 6.93333 7.44215 6.93333C6.90442 6.93333 6.46851 7.36925 6.46851 7.90698V11.7349C6.9103 10.8866 7.58792 10.1816 8.4158 9.70428ZM8.4158 10.3693C7.48642 11.0014 6.81124 11.9733 6.56778 13.1077C6.4849 13.4939 6.70618 13.8357 7.04408 13.9889C7.15671 14.0399 7.28229 14.07 7.41389 14.0737C7.4139 14.0737 7.4139 14.0738 7.41391 14.0738C7.96148 14.0894 8.39806 13.634 8.60608 13.1272C8.98502 12.2041 9.88393 11.5419 10.9473 11.5419C12.3428 11.5419 13.4751 12.6616 13.4751 14.0572C13.4751 14.0978 13.4756 14.1383 13.4767 14.1787C13.4767 14.1788 13.4766 14.1789 13.4766 14.179C13.4937 14.839 13.6493 15.4656 13.9151 16.0291C14.0585 16.3333 14.2341 16.6191 14.4372 16.8819C15.2603 17.9465 16.5368 18.6333 17.9701 18.6333C19.1193 18.6333 20.2026 18.1911 20.9549 17.4714C21.3644 17.0797 21.2686 16.4407 20.8608 16.0472C20.5191 15.7174 19.9305 15.8281 19.5618 16.1274C19.1409 16.4692 18.5841 16.686 18.0025 16.686C16.5583 16.686 15.4261 15.5176 15.4261 14.0734C15.4261 11.6068 13.4138 9.59462 10.9473 9.59462C10.0061 9.59462 9.13486 9.88024 8.4158 10.3693V10.3693ZM8.42477 14.2897C8.53385 15.5979 9.62381 16.6049 10.9473 16.6049C11.8505 16.6049 12.6449 16.1359 13.0931 15.4222C13.2824 16.118 13.6127 16.7566 14.0514 17.3028C13.2453 18.0774 12.1504 18.5522 10.9473 18.5522C8.55208 18.5522 6.58533 16.67 6.47352 14.2877C6.7326 14.5012 7.06541 14.6277 7.39779 14.6372C7.80385 14.6488 8.14756 14.5057 8.42477 14.2897ZM15.7961 12.689C16.2719 11.9015 17.1401 11.4608 18.0026 11.4608C18.4557 11.4608 19.0134 11.6111 19.4766 11.9574C19.8945 12.2698 20.5291 12.3922 20.9066 12.032C21.2851 11.671 21.3674 11.0807 20.9918 10.7166C20.2349 9.98287 19.1416 9.51351 17.9701 9.51351C16.7787 9.51351 15.6347 9.99439 14.7994 10.825C15.2534 11.3624 15.5974 11.9955 15.7961 12.689Z" fill="#04A0E6"/>
</svg>
