<svg width="25" height="25" viewBox="0 0 25 25" fill="none" xmlns="http://www.w3.org/2000/svg">
<g clip-path="url(#clip0_603_1070)">
<path d="M9.25 32C0.041667 30.3659 -7 22.3045 -7 12.6089C-7 1.82402 1.775 -7 12.5 -7C23.225 -7 32 1.82402 32 12.6089C32 22.3045 24.9583 30.3659 15.75 32L14.6667 31.1285H10.3333L9.25 32Z" fill="url(#paint0_linear_603_1070)"/>
<path d="M17.3125 15.9375L17.8625 12.5H14.5625V10.0938C14.5625 9.13125 14.9062 8.375 16.4187 8.375H18V5.2125C17.1062 5.075 16.1437 4.9375 15.25 4.9375C12.4312 4.9375 10.4375 6.65625 10.4375 9.75V12.5H7.34375V15.9375H10.4375V24.6688C11.125 24.8063 11.8125 24.875 12.5 24.875C13.1875 24.875 13.875 24.8063 14.5625 24.6688V15.9375H17.3125Z" fill="white"/>
</g>
<defs>
<linearGradient id="paint0_linear_603_1070" x1="12.5" y1="30.8605" x2="12.5" y2="-7" gradientUnits="userSpaceOnUse">
<stop stop-color="#0062E0"/>
<stop offset="1" stop-color="#19AFFF"/>
</linearGradient>
<clipPath id="clip0_603_1070">
<path d="M0 5C0 2.23858 2.23858 0 5 0H20C22.7614 0 25 2.23858 25 5V20C25 22.7614 22.7614 25 20 25H5C2.23858 25 0 22.7614 0 20V5Z" fill="white"/>
</clipPath>
</defs>
</svg>
