<svg width="20" height="20" viewBox="0 0 20 20" fill="none" xmlns="http://www.w3.org/2000/svg">
<path d="M2.19158 9.31396C6.84445 7.24417 9.94709 5.87964 11.4995 5.22037C15.932 3.338 16.853 3.01102 17.4533 3.0001C17.5853 2.99785 17.8806 3.03125 18.0718 3.18968C18.2333 3.32346 18.2777 3.50417 18.2989 3.63101C18.3202 3.75784 18.3467 4.04677 18.3256 4.27253C18.0854 6.84934 17.0461 13.1026 16.5174 15.9887C16.2936 17.2099 15.8531 17.6193 15.4266 17.6594C14.4997 17.7465 13.7959 17.034 12.8982 16.4332C11.4934 15.493 10.6998 14.9077 9.33628 13.9902C7.76046 12.93 8.782 12.3472 9.68006 11.3949C9.91508 11.1456 13.9989 7.35303 14.0779 7.00898C14.0878 6.96595 14.097 6.80556 14.0037 6.72086C13.9103 6.63617 13.7726 6.66513 13.6732 6.68817C13.5323 6.72081 11.2882 8.23526 6.94088 11.2315C6.3039 11.6781 5.72694 11.8957 5.21001 11.8843C4.64013 11.8717 3.54391 11.5553 2.72898 11.2848C1.72944 10.9531 0.935023 10.7777 1.0042 10.2143C1.04023 9.92085 1.43602 9.62074 2.19158 9.31396Z" fill="white"/>
</svg>
