<svg width="28" height="28" viewBox="0 0 28 28" fill="none" xmlns="http://www.w3.org/2000/svg">
<path fill-rule="evenodd" clip-rule="evenodd" d="M4.23212 3.96411C4.23212 3.34279 4.7358 2.83911 5.35712 2.83911H5.76256C7.37136 2.83911 8.75651 3.97467 9.07202 5.55222L9.2044 6.21411L22.7897 8.21411C23.8758 8.21411 24.6791 9.22523 24.4335 10.2832L22.9676 15.5979C22.7309 16.6174 21.8225 17.3391 20.7759 17.3391L10.7794 18.3391C9.70686 18.3391 8.78343 17.5821 8.57309 16.5304L6.86571 5.99348C6.76054 5.46763 6.29882 5.08911 5.76256 5.08911H5.35712C4.7358 5.08911 4.23212 4.58543 4.23212 3.96411ZM10.9821 24.0891C12.2248 24.0891 13.2321 23.0818 13.2321 21.8391C13.2321 20.5965 12.2248 19.5891 10.9821 19.5891C9.73947 19.5891 8.73211 20.5965 8.73211 21.8391C8.73211 23.0818 9.73947 24.0891 10.9821 24.0891ZM19.9821 24.0891C21.2248 24.0891 22.2321 23.0818 22.2321 21.8391C22.2321 20.5965 21.2248 19.5891 19.9821 19.5891C18.7395 19.5891 17.7321 20.5965 17.7321 21.8391C17.7321 23.0818 18.7395 24.0891 19.9821 24.0891Z" fill="#04A0E6"/>
</svg>
