<svg width="26" height="26" viewBox="0 0 26 26" fill="none" xmlns="http://www.w3.org/2000/svg">
<path fill-rule="evenodd" clip-rule="evenodd" d="M4.75179 2.724C4.16671 2.724 3.69241 3.1983 3.69241 3.78337C3.69241 4.36845 4.16671 4.84274 4.75179 4.84274H5.13358C5.63856 4.84274 6.07334 5.19918 6.17238 5.69436L7.78015 15.6166C7.97822 16.6069 8.84779 17.3198 9.85775 17.3198L19.2711 16.3781C20.2566 16.3781 21.1121 15.6985 21.3349 14.7385L22.7153 9.73384C22.9466 8.73758 22.1902 7.78545 21.1674 7.78545L8.37463 5.90212L8.24998 5.27884C7.95287 3.79331 6.64852 2.724 5.13358 2.724H4.75179ZM12.1674 20.6156C12.1674 21.7857 11.2188 22.7343 10.0486 22.7343C8.87848 22.7343 7.92988 21.7857 7.92988 20.6156C7.92988 19.4454 8.87848 18.4968 10.0486 18.4968C11.2188 18.4968 12.1674 19.4454 12.1674 20.6156ZM20.6424 20.6156C20.6424 21.7857 19.6938 22.7343 18.5236 22.7343C17.3535 22.7343 16.4049 21.7857 16.4049 20.6156C16.4049 19.4454 17.3535 18.4968 18.5236 18.4968C19.6938 18.4968 20.6424 19.4454 20.6424 20.6156ZM13.8625 9.54519C14.1258 9.54519 14.3392 9.75863 14.3392 10.0219V11.452H15.7693C16.0326 11.452 16.246 11.6655 16.246 11.9288C16.246 12.192 16.0326 12.4055 15.7693 12.4055H14.3392V13.8356C14.3392 14.0989 14.1258 14.3123 13.8625 14.3123C13.5992 14.3123 13.3857 14.0989 13.3857 13.8356V12.4055H11.9556C11.6923 12.4055 11.4789 12.192 11.4789 11.9288C11.4789 11.6655 11.6923 11.452 11.9556 11.452H13.3857V10.0219C13.3857 9.75863 13.5992 9.54519 13.8625 9.54519Z" fill="#B6BED0"/>
</svg>
