<svg width="25" height="24" viewBox="0 0 25 24" fill="none" xmlns="http://www.w3.org/2000/svg">
<path d="M1.65295 21.9573H24.1944" stroke="#002930" stroke-width="1.5" stroke-miterlimit="10" stroke-linecap="round" stroke-linejoin="round"/>
<path d="M21.5266 21.9572V10.8987" stroke="#002930" stroke-width="1.5" stroke-miterlimit="10" stroke-linecap="round" stroke-linejoin="round"/>
<path d="M4.32098 21.9572V10.8987" stroke="#002930" stroke-width="1.5" stroke-miterlimit="10" stroke-linecap="round" stroke-linejoin="round"/>
<path d="M12.925 8.04963C12.925 9.62286 14.2008 10.8987 15.7741 10.8987C17.3473 10.8987 18.6205 9.62286 18.6205 8.04963C18.6205 9.62286 19.8964 10.8987 21.4696 10.8987C22.0264 10.8987 22.5427 10.7393 22.9806 10.4635C24.1079 9.75802 24.4322 8.25507 23.7862 7.09272L21.6804 3.30562C21.2317 2.50008 20.3829 2 19.4612 2H6.38606C5.46429 2 4.6155 2.50008 4.16678 3.30562L2.06103 7.09542C1.41498 8.25777 1.73936 9.75802 2.86657 10.4662C3.30448 10.742 3.82348 10.9014 4.37763 10.9014C5.95085 10.9014 7.22674 9.62556 7.22674 8.05233C7.22674 9.62556 8.50262 10.9014 10.0758 10.9014C11.6491 10.9014 12.925 9.62286 12.925 8.04963Z" stroke="#002930" stroke-width="1.5" stroke-miterlimit="10" stroke-linecap="round" stroke-linejoin="round"/>
<path d="M12.925 14.5103C11.4734 14.5103 10.2948 15.6861 10.2948 17.1404V21.9601H15.5524V17.1377C15.5524 15.6861 14.3765 14.5103 12.925 14.5103Z" stroke="#002930" stroke-width="1.5" stroke-miterlimit="10" stroke-linecap="round" stroke-linejoin="round"/>
</svg>
