<svg width="189" height="21" viewBox="0 0 189 21" fill="none" xmlns="http://www.w3.org/2000/svg">
<path d="M14.3863 6.70145C15.0649 3.94556 15.115 0.143682 11.1362 0.00942829C5.96217 -0.163183 2.19978 2.07782 0.692464 3.16512C0.587953 3.24036 0.679216 3.40412 0.798447 3.35249C2.50448 2.62221 6.57157 1.15132 10.5754 1.72522C12.7892 2.04241 11.5999 6.70145 11.5999 6.70145C10.5386 10.2673 8.66768 12.5466 7.23102 13.4422C7.19717 13.4643 7.15448 13.4643 7.11915 13.4436C5.90329 12.7104 4.43425 11.2026 3.42889 8.76984C6.20358 8.342 7.91697 7.04667 8.56759 6.46245C8.65149 6.38721 8.57789 6.24853 8.46896 6.27656C7.75358 6.4595 6.19622 6.82095 4.78753 6.91537C3.85282 6.97733 2.89308 6.9552 2.0776 6.90652L0.121333 6.7162C0.0447899 6.70883 -0.0155616 6.78112 0.00357426 6.85488C1.65661 13.0645 6.55244 16.2866 7.12063 16.6421C7.15448 16.6628 7.19422 16.6628 7.22808 16.6421C7.80215 16.2836 12.7745 13.0114 14.3863 6.70145Z" fill="#05C832"/>
<path d="M50.4129 7.50162C49.1956 6.77489 47.4317 6.40674 45.1676 6.40674C42.9035 6.40674 41.1396 6.77489 39.9222 7.50162C38.514 8.34331 37.7998 9.6996 37.7998 11.5322C37.7998 13.3647 38.514 14.7224 39.9222 15.5627C41.1396 16.2894 42.9035 16.6576 45.1676 16.6576C47.4317 16.6576 49.1956 16.2894 50.4129 15.5627C51.8212 14.721 52.5354 13.3647 52.5354 11.5322C52.5354 9.6996 51.8212 8.34331 50.4129 7.50162ZM45.1676 14.3966C42.73 14.3966 40.7521 13.8766 40.7521 11.5335C40.7521 9.19048 42.7285 8.67041 45.1676 8.67041C47.6052 8.67041 49.5831 9.19048 49.5831 11.5335C49.5831 13.8766 47.6052 14.3966 45.1676 14.3966Z" fill="#05C832"/>
<path d="M29.9614 5.89588C27.8475 5.89588 26.2309 6.44595 24.8703 7.6294L24.5305 7.92526V2.12582C24.5305 2.01379 24.4394 1.92188 24.3252 1.92188H21.9885C21.8757 1.92188 21.7832 2.01236 21.7832 2.12582V16.4535C21.7832 16.5655 21.8743 16.6574 21.9885 16.6574H24.3252C24.4379 16.6574 24.5305 16.567 24.5305 16.4535V14.832L24.8703 15.1279C26.2295 16.3099 27.8475 16.6574 29.9614 16.6574C34.5581 16.6574 36.5188 15.0489 36.5188 11.2774C36.5188 7.50588 34.5581 5.89588 29.9614 5.89588ZM29.1503 14.2819C26.7168 14.2819 24.743 13.7391 24.7358 11.2917V11.263C24.743 8.81571 26.7168 8.27138 29.1503 8.27138C31.5896 8.27138 33.5662 8.81715 33.5662 11.2774C33.5662 13.7362 31.5896 14.2819 29.1503 14.2819Z" fill="#05C832"/>
<path d="M16.6577 16.4621V7.24273C16.6577 7.13542 16.7427 7.04736 16.8492 7.04736H19.0289C19.1341 7.04736 19.2204 7.13404 19.2204 7.24273V16.4621C19.2204 16.5695 19.1354 16.6575 19.0289 16.6575H16.8492C16.744 16.6575 16.6577 16.5695 16.6577 16.4621Z" fill="#05C832"/>
<path d="M17.9391 5.76632C17.232 5.76632 16.6577 5.19174 16.6577 4.48497C16.6577 3.7782 17.2332 3.20361 17.9391 3.20361C18.6461 3.20361 19.2204 3.7782 19.2204 4.48497C19.2204 5.19174 18.6461 5.76632 17.9391 5.76632Z" fill="#05C832"/>
<path d="M71.2296 2.25537L65.8057 9.49412L60.3832 2.25537H60.3817H58.3149V17.1332H60.3817V5.70143L64.929 11.7712H66.6838L71.2296 5.70143V17.1332H73.2964V2.25537H71.2296Z" fill="#1F222A"/>
<path d="M120.646 12.3764C120.698 12.0661 120.724 11.747 120.724 11.4236C120.724 8.09207 117.881 5.38135 114.386 5.38135C110.889 5.38135 108.047 8.09062 108.047 11.4236C108.047 14.7565 110.891 17.4658 114.386 17.4658C116.992 17.4658 119.238 15.9574 120.209 13.8079H117.765C117.016 14.8667 115.782 15.5585 114.386 15.5585C112.428 15.5585 110.791 14.201 110.359 12.3764H120.646V12.3764ZM114.386 7.28712C116.342 7.28712 117.981 8.64611 118.41 10.4707H110.358C110.791 8.64611 112.428 7.28712 114.386 7.28712Z" fill="#1F222A"/>
<path d="M95.7871 5.3418C94.3168 5.43752 93.1339 6.07278 92.4735 7.32589V5.69568H90.4067V17.1129H92.4735V10.041C92.9728 7.89443 94.4213 7.11849 95.7871 7.23597V5.3418Z" fill="#1F222A"/>
<path d="M85.8697 5.69608V7.72078C84.7985 6.29943 83.1192 5.38135 81.2295 5.38135C77.9958 5.38135 75.3745 8.06307 75.3745 11.3713C75.3745 14.6796 77.9958 17.3613 81.2295 17.3613C83.1192 17.3613 84.8 16.4447 85.8697 15.0219V17.151H87.9365V5.69608H85.8697ZM81.723 15.515C79.4327 15.515 77.5748 13.66 77.5748 11.3699C77.5748 9.07977 79.4312 7.22476 81.723 7.22476C84.0133 7.22476 85.8711 9.07977 85.8711 11.3699C85.8711 13.66 84.0133 15.515 81.723 15.515Z" fill="#1F222A"/>
<path d="M158.657 5.69608V7.72078C157.586 6.29943 155.906 5.38135 154.017 5.38135C150.783 5.38135 148.162 8.06307 148.162 11.3713C148.162 14.6796 150.783 17.3613 154.017 17.3613C155.906 17.3613 157.587 16.4447 158.657 15.0219V17.151H160.724V5.69608H158.657ZM154.509 15.515C152.218 15.515 150.361 13.66 150.361 11.3699C150.361 9.07977 152.217 7.22476 154.509 7.22476C156.799 7.22476 158.657 9.07977 158.657 11.3699C158.657 13.66 156.799 15.515 154.509 15.515Z" fill="#1F222A"/>
<path d="M131.43 5.69608V7.72078C132.501 6.29943 134.18 5.38135 136.07 5.38135C139.304 5.38135 141.925 8.06307 141.925 11.3713C141.925 14.6796 139.304 17.3613 136.07 17.3613C134.18 17.3613 132.499 16.4447 131.43 15.0219V20.4042H129.363V5.69608H131.43ZM135.578 15.515C137.868 15.515 139.726 13.66 139.726 11.3699C139.726 9.07977 137.868 7.22621 135.578 7.22621C133.287 7.22621 131.43 9.08122 131.43 11.3713C131.43 13.6615 133.287 15.515 135.578 15.515Z" fill="#1F222A"/>
<path d="M107.688 17.1129H104.853L100.908 12.9097L99.6352 14.2658V17.1332H97.5669V2.25537H99.6352V11.2476L104.791 5.75364H107.624L102.325 11.3999L107.688 17.1129Z" fill="#1F222A"/>
<path d="M127.552 7.58563V5.6784H125.352V3.05615H123.284V5.6784H122.031V7.58563H123.284V14.4574C123.284 15.9354 124.483 17.1319 125.96 17.1319H127.551V15.2522H126.246C125.751 15.2522 125.351 14.8519 125.351 14.3574V7.58563H127.552Z" fill="#1F222A"/>
<path d="M146.109 2.30078H144.042V17.1786H146.109V2.30078Z" fill="#1F222A"/>
<path d="M188.922 12.3242C188.974 12.0138 189 11.6947 189 11.3713C189 8.03983 186.157 5.3291 182.662 5.3291C179.165 5.3291 176.323 8.03837 176.323 11.3713C176.323 14.7042 179.167 17.4135 182.662 17.4135C185.268 17.4135 187.514 15.9051 188.485 13.7557H186.04C185.292 14.8145 184.058 15.5063 182.662 15.5063C180.704 15.5063 179.066 14.1487 178.635 12.3242H188.922ZM182.662 7.23488C184.618 7.23488 186.257 8.59386 186.686 10.4184H178.634C179.066 8.59386 180.704 7.23488 182.662 7.23488Z" fill="#1F222A"/>
<path d="M172.789 13.0716C172.14 14.5075 170.696 15.5068 169.017 15.5068C166.731 15.5068 164.879 13.6547 164.879 11.3718C164.879 9.08747 166.733 7.23681 169.017 7.23681C170.696 7.23681 172.14 8.23611 172.789 9.67197H175.098C174.326 7.16575 171.894 5.32959 169.017 5.32959C165.522 5.32959 162.679 8.04031 162.679 11.3718C162.679 14.7033 165.522 17.414 169.017 17.414C171.894 17.414 174.326 15.5778 175.098 13.0716H172.789V13.0716Z" fill="#1F222A"/>
</svg>
