<svg width="31" height="17" viewBox="0 0 31 17" fill="none" xmlns="http://www.w3.org/2000/svg">
<path fill-rule="evenodd" clip-rule="evenodd" d="M1.75 6.75C1.75 3.85051 4.1005 1.5 7 1.5C9.8995 1.5 12.25 3.85051 12.25 6.75C12.25 8.19995 11.6632 9.51143 10.7123 10.4623C9.76143 11.4132 8.44995 12 7 12C4.1005 12 1.75 9.64949 1.75 6.75ZM7 0C3.27208 0 0.25 3.02208 0.25 6.75C0.25 10.4779 3.27208 13.5 7 13.5C8.59345 13.5 10.0588 12.9471 11.2132 12.0239L15.4697 16.2803C15.7626 16.5732 16.2374 16.5732 16.5303 16.2803C16.8232 15.9874 16.8232 15.5126 16.5303 15.2197L12.2739 10.9632C13.1971 9.80882 13.75 8.34345 13.75 6.75C13.75 3.02208 10.7279 0 7 0ZM14.25 0.75C14.25 0.335787 14.5858 0 15 0L30 1.90735e-06C30.4142 1.90735e-06 30.75 0.335789 30.75 0.750002C30.75 1.16422 30.4142 1.5 30 1.5L15 1.5C14.5858 1.5 14.25 1.16421 14.25 0.75ZM15.25 5.75C15.25 5.33579 15.5858 5 16 5L30 5C30.4142 5 30.75 5.33579 30.75 5.75C30.75 6.16422 30.4142 6.5 30 6.5L16 6.5C15.5858 6.5 15.25 6.16422 15.25 5.75ZM18 10C17.5858 10 17.25 10.3358 17.25 10.75C17.25 11.1642 17.5858 11.5 18 11.5L30 11.5C30.4142 11.5 30.75 11.1642 30.75 10.75C30.75 10.3358 30.4142 10 30 10L18 10ZM18.25 15.75C18.25 15.3358 18.5858 15 19 15L30 15C30.4142 15 30.75 15.3358 30.75 15.75C30.75 16.1642 30.4142 16.5 30 16.5H19C18.5858 16.5 18.25 16.1642 18.25 15.75Z" fill="#293644"/>
</svg>
