<svg width="16" height="17" viewBox="0 0 16 17" fill="none" xmlns="http://www.w3.org/2000/svg">
<path d="M10.3403 2.78955H5.66032C4.00033 2.78955 3.63366 3.5942 3.42033 4.58054L2.66699 8.09113H13.3337L12.5803 4.58054C12.367 3.5942 12.0003 2.78955 10.3403 2.78955Z" stroke="#1A1A18" stroke-width="0.8" stroke-linecap="round" stroke-linejoin="round"/>
<path d="M14.6598 13.8147C14.7332 14.5739 14.1065 15.2293 13.3065 15.2293H12.0532C11.3332 15.2293 11.2332 14.9308 11.1065 14.5609L10.9732 14.1716C10.7865 13.6395 10.6665 13.2826 9.70649 13.2826H6.29316C5.33316 13.2826 5.19316 13.6849 5.02649 14.1716L4.89316 14.5609C4.76649 14.9308 4.66649 15.2293 3.94649 15.2293H2.69316C1.89316 15.2293 1.26649 14.5739 1.33982 13.8147L1.71316 9.86283C1.80649 8.88947 1.99982 8.09131 3.74649 8.09131H12.2532C13.9998 8.09131 14.1932 8.88947 14.2865 9.86283L14.6598 13.8147Z" stroke="#1A1A18" stroke-width="0.8" stroke-linecap="round" stroke-linejoin="round"/>
<path d="M2.66667 6.14453H2" stroke="#1A1A18" stroke-width="0.8" stroke-linecap="round" stroke-linejoin="round"/>
<path d="M13.9997 6.14453H13.333" stroke="#1A1A18" stroke-width="0.8" stroke-linecap="round" stroke-linejoin="round"/>
<path d="M8 2.8999V4.19769" stroke="#1A1A18" stroke-width="0.8" stroke-linecap="round" stroke-linejoin="round"/>
<path d="M7 4.19775H9" stroke="#1A1A18" stroke-width="0.8" stroke-linecap="round" stroke-linejoin="round"/>
<path d="M4 10.6865H6" stroke="#1A1A18" stroke-width="0.8" stroke-linecap="round" stroke-linejoin="round"/>
<path d="M10 10.6865H12" stroke="#1A1A18" stroke-width="0.8" stroke-linecap="round" stroke-linejoin="round"/>
</svg>
