<svg width="18" height="18" viewBox="0 0 18 18" fill="none" xmlns="http://www.w3.org/2000/svg">
<path fill-rule="evenodd" clip-rule="evenodd" d="M2.3388 9.35025C2.22105 9.132 2.22105 8.86725 2.3388 8.649C3.7578 6.02475 6.37905 3.75 9.0003 3.75C11.6216 3.75 14.2428 6.02475 15.6618 8.64975C15.7795 8.868 15.7795 9.13275 15.6618 9.351C14.2428 11.9753 11.6216 14.25 9.0003 14.25C6.37905 14.25 3.7578 11.9753 2.3388 9.35025Z" stroke="#777E90" stroke-linecap="round" stroke-linejoin="round"/>
<path d="M10.591 7.40901C11.4697 8.28769 11.4697 9.71231 10.591 10.591C9.71231 11.4697 8.28769 11.4697 7.40901 10.591C6.53033 9.71231 6.53033 8.28769 7.40901 7.40901C8.28769 6.53033 9.71231 6.53033 10.591 7.40901" stroke="#777E90" stroke-width="0.9524" stroke-linecap="round" stroke-linejoin="round"/>
</svg>
