<svg width="13" height="13" viewBox="0 0 13 13" fill="none" xmlns="http://www.w3.org/2000/svg">
<path opacity="0.5" d="M6.70459 4.20068C6.70459 3.92454 6.48073 3.70068 6.20459 3.70068C5.92845 3.70068 5.70459 3.92454 5.70459 4.20068H6.70459ZM6.20459 6.70068H5.70459C5.70459 6.85258 5.77363 6.99623 5.89224 7.09112L6.20459 6.70068ZM8.39224 9.09112C8.60787 9.26362 8.92252 9.22866 9.09502 9.01303C9.26753 8.7974 9.23257 8.48275 9.01694 8.31025L8.39224 9.09112ZM11.2046 6.70068C11.2046 9.46211 8.96601 11.7007 6.20459 11.7007V12.7007C9.5183 12.7007 12.2046 10.0144 12.2046 6.70068H11.2046ZM6.20459 11.7007C3.44317 11.7007 1.20459 9.46211 1.20459 6.70068H0.20459C0.20459 10.0144 2.89088 12.7007 6.20459 12.7007V11.7007ZM1.20459 6.70068C1.20459 3.93926 3.44317 1.70068 6.20459 1.70068V0.700684C2.89088 0.700684 0.20459 3.38698 0.20459 6.70068H1.20459ZM6.20459 1.70068C8.96601 1.70068 11.2046 3.93926 11.2046 6.70068H12.2046C12.2046 3.38698 9.5183 0.700684 6.20459 0.700684V1.70068ZM5.70459 4.20068V6.70068H6.70459V4.20068H5.70459ZM5.89224 7.09112L8.39224 9.09112L9.01694 8.31025L6.51694 6.31025L5.89224 7.09112Z" fill="black"/>
</svg>
