<svg width="25" height="24" viewBox="0 0 25 24" fill="none" xmlns="http://www.w3.org/2000/svg">
<path d="M4.58383 3.58579C4.20876 3.96086 3.99805 4.46957 3.99805 5V6C3.99805 14.284 10.714 21 18.998 21H19.998C20.5285 21 21.0372 20.7893 21.4123 20.4142C21.7873 20.0391 21.998 19.5304 21.998 19V15.721C21.9981 15.511 21.9321 15.3064 21.8093 15.136C21.6865 14.9657 21.5133 14.8383 21.314 14.772L16.821 13.274C16.5927 13.1981 16.3447 13.2071 16.1224 13.2993C15.9001 13.3915 15.7186 13.5607 15.611 13.776L14.481 16.033C12.0325 14.9267 10.0714 12.9655 8.96505 10.517L11.222 9.387C11.4373 9.27945 11.6066 9.0979 11.6988 8.87564C11.791 8.65339 11.7999 8.40534 11.724 8.177L10.226 3.684C10.1598 3.48496 10.0325 3.3118 9.8624 3.18905C9.69227 3.0663 9.48784 3.00016 9.27805 3H5.99805C5.46761 3 4.95891 3.21071 4.58383 3.58579Z" stroke="#002930" stroke-width="1.5" stroke-linecap="round" stroke-linejoin="round"/>
</svg>
