<svg width="20" height="20" viewBox="0 0 20 20" fill="none" xmlns="http://www.w3.org/2000/svg">
<path d="M16.2501 10.4166C16.2501 9.26658 17.1834 8.33325 18.3334 8.33325V7.49992C18.3334 4.16659 17.5001 3.33325 14.1667 3.33325H5.83341C2.50008 3.33325 1.66675 4.16659 1.66675 7.49992V7.91658C2.81675 7.91658 3.75008 8.84992 3.75008 9.99992C3.75008 11.1499 2.81675 12.0833 1.66675 12.0833V12.4999C1.66675 15.8333 2.50008 16.6666 5.83341 16.6666H14.1667C17.5001 16.6666 18.3334 15.8333 18.3334 12.4999C17.1834 12.4999 16.2501 11.5666 16.2501 10.4166Z" stroke="#1A1A18" stroke-linecap="round" stroke-linejoin="round"/>
<path d="M8.33325 3.33325L8.33325 16.6666" stroke="#1A1A18" stroke-linecap="round" stroke-linejoin="round" stroke-dasharray="5 5"/>
</svg>
