<svg width="22" height="22" viewBox="0 0 22 22" fill="none" xmlns="http://www.w3.org/2000/svg">
<path fill-rule="evenodd" clip-rule="evenodd" d="M4.2 0.25H4.17C3.635 0.25 3.19 0.25 2.825 0.28C2.445 0.31 2.089 0.378 1.752 0.55C1.23445 0.81367 0.81367 1.23445 0.55 1.752C0.378 2.089 0.31 2.445 0.28 2.825C0.25 3.19 0.25 3.635 0.25 4.17V5.83C0.25 6.365 0.25 6.81 0.28 7.175C0.31 7.555 0.378 7.911 0.55 8.248C0.81367 8.76555 1.23445 9.18633 1.752 9.45C2.089 9.622 2.445 9.69 2.825 9.72C3.19 9.75 3.635 9.75 4.17 9.75H5.83C6.365 9.75 6.81 9.75 7.175 9.72C7.555 9.69 7.911 9.622 8.248 9.45C8.76555 9.18633 9.18633 8.76555 9.45 8.248C9.622 7.911 9.69 7.555 9.72 7.175C9.75 6.81 9.75 6.365 9.75 5.83V4.17C9.75 3.635 9.75 3.19 9.72 2.825C9.69 2.445 9.622 2.089 9.45 1.752C9.18633 1.23445 8.76555 0.81367 8.248 0.55C7.911 0.378 7.555 0.31 7.175 0.28C6.81 0.25 6.365 0.25 5.83 0.25H4.2ZM2.433 1.886C2.523 1.84 2.66 1.798 2.947 1.775C3.243 1.751 3.627 1.75 4.2 1.75H5.8C6.372 1.75 6.757 1.75 7.053 1.775C7.34 1.798 7.477 1.84 7.567 1.886C7.803 2.006 7.994 2.197 8.114 2.433C8.16 2.523 8.202 2.66 8.225 2.947C8.249 3.243 8.25 3.627 8.25 4.2V5.8C8.25 6.372 8.25 6.757 8.225 7.053C8.202 7.34 8.16 7.477 8.114 7.567C7.99409 7.80259 7.80259 7.99409 7.567 8.114C7.477 8.16 7.34 8.202 7.053 8.225C6.757 8.249 6.373 8.25 5.8 8.25H4.2C3.628 8.25 3.243 8.25 2.947 8.225C2.66 8.202 2.523 8.16 2.433 8.114C2.19741 7.99409 2.00591 7.80259 1.886 7.567C1.84 7.477 1.798 7.34 1.775 7.053C1.751 6.757 1.75 6.373 1.75 5.8V4.2C1.75 3.628 1.75 3.243 1.775 2.947C1.798 2.66 1.84 2.523 1.886 2.433C2.00591 2.19741 2.19741 2.00591 2.433 1.886ZM16.2 0.25H16.17C15.635 0.25 15.19 0.25 14.825 0.28C14.445 0.31 14.089 0.378 13.752 0.55C13.2344 0.81367 12.8137 1.23445 12.55 1.752C12.378 2.089 12.31 2.445 12.28 2.825C12.25 3.19 12.25 3.635 12.25 4.17V5.83C12.25 6.365 12.25 6.81 12.28 7.175C12.31 7.555 12.378 7.911 12.55 8.248C12.8134 8.7654 13.2338 9.18616 13.751 9.45C14.089 9.622 14.445 9.69 14.825 9.72C15.189 9.75 15.635 9.75 16.17 9.75H17.83C18.365 9.75 18.81 9.75 19.175 9.72C19.555 9.69 19.911 9.622 20.248 9.45C20.7656 9.18633 21.1863 8.76555 21.45 8.248C21.622 7.911 21.69 7.555 21.72 7.175C21.75 6.81 21.75 6.365 21.75 5.831V4.17C21.75 3.635 21.75 3.19 21.72 2.825C21.69 2.445 21.622 2.089 21.45 1.752C21.1869 1.23475 20.7668 0.81401 20.25 0.55C19.912 0.378 19.556 0.31 19.176 0.28C18.811 0.25 18.366 0.25 17.831 0.25H16.2ZM14.432 1.886C14.523 1.84 14.66 1.798 14.947 1.775C15.243 1.751 15.627 1.75 16.2 1.75H17.8C18.372 1.75 18.757 1.75 19.052 1.775C19.34 1.798 19.477 1.84 19.567 1.886C19.803 2.006 19.994 2.197 20.114 2.433C20.16 2.523 20.202 2.66 20.225 2.947C20.249 3.243 20.25 3.627 20.25 4.2V5.8C20.25 6.372 20.25 6.757 20.225 7.053C20.202 7.34 20.16 7.477 20.114 7.567C19.9941 7.80259 19.8026 7.99409 19.567 8.114C19.477 8.16 19.34 8.202 19.052 8.225C18.757 8.249 18.372 8.25 17.8 8.25H16.2C15.628 8.25 15.243 8.25 14.948 8.225C14.66 8.202 14.523 8.16 14.432 8.114C14.1968 7.99392 14.0056 7.80243 13.886 7.567C13.84 7.477 13.798 7.34 13.775 7.053C13.751 6.757 13.75 6.373 13.75 5.8V4.2C13.75 3.628 13.75 3.243 13.775 2.947C13.798 2.66 13.84 2.523 13.886 2.433C14.0056 2.19757 14.1968 2.00608 14.432 1.886ZM4.17 12.25H5.83C6.365 12.25 6.81 12.25 7.175 12.28C7.555 12.31 7.911 12.378 8.248 12.55C8.7654 12.8134 9.18616 13.2338 9.45 13.751C9.622 14.089 9.69 14.445 9.72 14.825C9.75 15.189 9.75 15.635 9.75 16.17V17.83C9.75 18.365 9.75 18.81 9.72 19.175C9.69 19.555 9.622 19.911 9.45 20.248C9.18633 20.7656 8.76555 21.1863 8.248 21.45C7.911 21.622 7.555 21.69 7.175 21.72C6.81 21.75 6.365 21.75 5.831 21.75H4.17C3.635 21.75 3.19 21.75 2.825 21.72C2.445 21.69 2.089 21.622 1.752 21.45C1.23475 21.1869 0.81401 20.7668 0.55 20.25C0.378 19.912 0.31 19.556 0.28 19.176C0.25 18.811 0.25 18.366 0.25 17.831V16.17C0.25 15.635 0.25 15.19 0.28 14.825C0.31 14.445 0.378 14.089 0.55 13.752C0.81367 13.2344 1.23445 12.8137 1.752 12.55C2.089 12.378 2.445 12.31 2.825 12.28C3.19 12.25 3.635 12.25 4.17 12.25ZM2.947 13.775C2.66 13.798 2.523 13.84 2.433 13.886C2.19757 14.0056 2.00608 14.1968 1.886 14.432C1.84 14.523 1.798 14.66 1.775 14.947C1.751 15.243 1.75 15.627 1.75 16.2V17.8C1.75 18.372 1.75 18.757 1.775 19.052C1.798 19.34 1.84 19.477 1.886 19.567C2.006 19.803 2.197 19.994 2.433 20.114C2.523 20.16 2.66 20.202 2.947 20.225C3.243 20.249 3.627 20.25 4.2 20.25H5.8C6.372 20.25 6.757 20.25 7.053 20.225C7.34 20.202 7.477 20.16 7.567 20.114C7.80259 19.9941 7.99409 19.8026 8.114 19.567C8.16 19.477 8.202 19.34 8.225 19.052C8.249 18.757 8.25 18.372 8.25 17.8V16.2C8.25 15.628 8.25 15.243 8.225 14.948C8.202 14.66 8.16 14.523 8.114 14.432C7.99392 14.1968 7.80243 14.0056 7.567 13.886C7.477 13.84 7.34 13.798 7.053 13.775C6.757 13.751 6.373 13.75 5.8 13.75H4.2C3.628 13.75 3.243 13.75 2.947 13.775ZM16.2 12.25H16.17C15.635 12.25 15.19 12.25 14.825 12.28C14.445 12.31 14.089 12.378 13.752 12.55C13.2346 12.8135 12.8139 13.2339 12.55 13.751C12.378 14.089 12.31 14.445 12.28 14.825C12.25 15.19 12.25 15.635 12.25 16.17V17.83C12.25 18.365 12.25 18.81 12.28 19.175C12.31 19.555 12.378 19.911 12.55 20.248C12.813 20.766 13.234 21.187 13.751 21.45C14.089 21.622 14.445 21.69 14.825 21.72C15.189 21.75 15.635 21.75 16.169 21.75H17.83C18.365 21.75 18.81 21.75 19.175 21.72C19.555 21.69 19.911 21.622 20.248 21.45C20.7654 21.1865 21.1861 20.7661 21.45 20.249C21.622 19.911 21.69 19.555 21.72 19.175C21.75 18.811 21.75 18.365 21.75 17.831V16.17C21.75 15.635 21.75 15.19 21.72 14.825C21.69 14.445 21.622 14.089 21.45 13.752C21.1865 13.2346 20.7661 12.8139 20.249 12.55C19.911 12.378 19.555 12.31 19.175 12.28C18.81 12.25 18.365 12.25 17.83 12.25H16.2ZM14.432 13.886C14.523 13.84 14.66 13.798 14.947 13.775C15.243 13.751 15.627 13.75 16.2 13.75H17.8C18.372 13.75 18.757 13.75 19.052 13.775C19.34 13.798 19.477 13.84 19.567 13.886C19.803 14.006 19.994 14.197 20.114 14.432C20.16 14.523 20.202 14.66 20.225 14.947C20.249 15.243 20.25 15.627 20.25 16.2V17.8C20.25 18.372 20.25 18.757 20.225 19.052C20.202 19.34 20.16 19.477 20.114 19.567C19.9941 19.8026 19.8026 19.9941 19.567 20.114C19.477 20.16 19.34 20.202 19.052 20.225C18.757 20.249 18.372 20.25 17.8 20.25H16.2C15.628 20.25 15.243 20.25 14.948 20.225C14.66 20.202 14.523 20.16 14.432 20.114C14.1968 19.9939 14.0056 19.8024 13.886 19.567C13.84 19.477 13.798 19.34 13.775 19.052C13.751 18.757 13.75 18.372 13.75 17.8V16.2C13.75 15.628 13.75 15.243 13.775 14.948C13.798 14.66 13.84 14.523 13.886 14.432C14.0058 14.1969 14.1969 14.0058 14.432 13.886Z" fill="white"/>
</svg>
