<svg width="18" height="19" viewBox="0 0 18 19" fill="none" xmlns="http://www.w3.org/2000/svg">
<path opacity="0.12" d="M16.5 11.2115V5.96149C16.5 5.89521 16.4823 5.83014 16.4488 5.77295C16.4153 5.71576 16.3671 5.66852 16.3093 5.63607C16.2516 5.60363 16.1862 5.58714 16.1199 5.58832C16.0536 5.58949 15.9889 5.60827 15.9323 5.64274L10.875 8.72974C10.194 9.14599 9.85275 9.35374 9.489 9.43474C9.1665 9.50674 8.832 9.50674 8.5095 9.43474C8.14575 9.35374 7.8045 9.14599 7.1235 8.72974L2.06775 5.64274C2.01114 5.60827 1.94637 5.58949 1.88011 5.58832C1.81384 5.58714 1.74845 5.60363 1.69065 5.63607C1.63286 5.66852 1.58474 5.71576 1.55123 5.77295C1.51773 5.83014 1.50005 5.89521 1.5 5.96149V11.2115C1.5 11.9547 1.5 12.3267 1.6065 12.6605C1.70093 12.9559 1.85541 13.2286 2.06025 13.4615C2.292 13.7247 2.61075 13.916 3.2475 14.2985L7.1475 16.6385C7.821 17.0427 8.15775 17.2445 8.51775 17.324C8.83571 17.3938 9.16504 17.3938 9.483 17.324C9.84225 17.2445 10.179 17.0427 10.8525 16.6385L14.7525 14.2985C15.39 13.916 15.708 13.7247 15.9398 13.4615C16.1446 13.2286 16.2991 12.9559 16.3935 12.6605C16.5 12.3267 16.5 11.9555 16.5 11.2115Z" fill="#0D6992"/>
<path fill-rule="evenodd" clip-rule="evenodd" d="M8.397 1.12705C8.79427 1.03984 9.20573 1.03984 9.603 1.12705C10.0538 1.22605 10.4655 1.47355 11.0617 1.8313L11.1412 1.8793L15.0413 4.2193L15.117 4.2643C15.6818 4.60255 16.0717 4.83655 16.362 5.16655C16.6185 5.4583 16.8113 5.7988 16.929 6.16855C17.0632 6.58705 17.0625 7.0423 17.0625 7.70005V11.3C17.0625 11.9585 17.0625 12.4138 16.929 12.8323C16.8111 13.2018 16.6181 13.543 16.362 13.8343C16.0717 14.1643 15.6818 14.3983 15.117 14.7365L15.042 14.7815L11.142 17.1215L11.0617 17.1695C10.4655 17.5273 10.0538 17.7748 9.603 17.8745C9.20573 17.9618 8.79427 17.9618 8.397 17.8745C7.94625 17.7748 7.5345 17.5273 6.93825 17.1695L6.85875 17.1215L2.95875 14.7815L2.88375 14.7365C2.31825 14.3983 1.92825 14.1643 1.638 13.8343C1.38193 13.543 1.18889 13.2018 1.071 12.8323C0.93675 12.4138 0.9375 11.9585 0.9375 11.3V7.70005C0.9375 7.0423 0.9375 6.58705 1.071 6.16855C1.18889 5.79902 1.38193 5.45788 1.638 5.16655C1.92825 4.83655 2.31825 4.60255 2.883 4.2643L2.958 4.2193L6.858 1.8793L6.93825 1.8313C7.5345 1.47355 7.94625 1.22605 8.397 1.1263V1.12705ZM9.36225 2.22505C9.1236 2.17259 8.8764 2.17259 8.63775 2.22505C8.39025 2.2798 8.14425 2.41855 7.43775 2.84305L3.53775 5.18305C3.29625 5.3278 3.11325 5.43805 2.96925 5.52955L5.47125 7.0588L11.475 3.39055L10.563 2.84305C9.85575 2.4193 9.6105 2.28055 9.36225 2.2258V2.22505ZM6.54975 7.71805L9 9.21505L15.03 5.52955C14.8875 5.43805 14.7038 5.32705 14.463 5.18305L12.5632 4.04305L6.5505 7.71805H6.54975ZM15.8077 6.3733L9.5625 10.19V16.7105C9.76875 16.628 10.0387 16.4705 10.563 16.1555L14.463 13.8155C15.132 13.4143 15.3577 13.2718 15.5175 13.0895C15.6713 12.9148 15.7867 12.71 15.8573 12.4888C15.9315 12.2578 15.9375 11.9915 15.9375 11.2108V7.78855C15.9375 7.00855 15.9315 6.74155 15.8573 6.51055C15.8427 6.46436 15.8262 6.41882 15.8077 6.37405V6.3733ZM8.4375 16.7113V10.1908L2.193 6.37405C2.17425 6.41905 2.157 6.46405 2.14275 6.51055C2.0685 6.74155 2.0625 7.0078 2.0625 7.78855V11.2115C2.0625 11.9915 2.0685 12.2585 2.14275 12.4895C2.21325 12.7108 2.3295 12.9155 2.4825 13.0903C2.643 13.2725 2.868 13.415 3.537 13.8163L7.437 16.1563C7.96125 16.4713 8.232 16.6288 8.4375 16.7113Z" fill="#0D6992"/>
</svg>
