<svg width="24" height="24" viewBox="0 0 24 24" fill="none" xmlns="http://www.w3.org/2000/svg">
<path opacity="0.12" d="M20 11C20 13.3869 19.0518 15.6761 17.364 17.364C15.6761 19.0518 13.3869 20 11 20C8.61305 20 6.32387 19.0518 4.63604 17.364C2.94821 15.6761 2 13.3869 2 11C2 8.61305 2.94821 6.32387 4.63604 4.63604C6.32387 2.94821 8.61305 2 11 2C13.3869 2 15.6761 2.94821 17.364 4.63604C19.0518 6.32387 20 8.61305 20 11Z" fill="#899499"/>
<path fill-rule="evenodd" clip-rule="evenodd" d="M2.75 11C2.75 8.81196 3.61919 6.71354 5.16637 5.16637C6.71354 3.61919 8.81196 2.75 11 2.75C13.188 2.75 15.2865 3.61919 16.8336 5.16637C18.3808 6.71354 19.25 8.81196 19.25 11C19.25 13.188 18.3808 15.2865 16.8336 16.8336C15.2865 18.3808 13.188 19.25 11 19.25C8.81196 19.25 6.71354 18.3808 5.16637 16.8336C3.61919 15.2865 2.75 13.188 2.75 11ZM11 1.25C5.615 1.25 1.25 5.615 1.25 11C1.25 16.385 5.615 20.75 11 20.75C13.3275 20.7534 15.5788 19.9209 17.344 18.404L20.47 21.53C20.5387 21.6037 20.6215 21.6628 20.7135 21.7038C20.8055 21.7448 20.9048 21.7668 21.0055 21.7686C21.1062 21.7704 21.2062 21.7518 21.2996 21.7141C21.393 21.6764 21.4778 21.6203 21.549 21.549C21.6203 21.4778 21.6764 21.393 21.7141 21.2996C21.7518 21.2062 21.7704 21.1062 21.7686 21.0055C21.7668 20.9048 21.7448 20.8055 21.7038 20.7135C21.6628 20.6215 21.6037 20.5387 21.53 20.47L18.404 17.344C19.9209 15.5788 20.7534 13.3275 20.75 11C20.75 5.615 16.385 1.25 11 1.25Z" fill="#899499"/>
</svg>
