<svg width="25" height="25" viewBox="0 0 25 25" fill="none" xmlns="http://www.w3.org/2000/svg">
<g clip-path="url(#clip0_603_1064)">
<path d="M12.5 35C24.9264 35 35 24.9264 35 12.5C35 0.0735931 24.9264 -10 12.5 -10C0.0735931 -10 -10 0.0735931 -10 12.5C-10 24.9264 0.0735931 35 12.5 35Z" fill="url(#paint0_linear_603_1064)"/>
<path d="M10.2082 18.2293C9.80321 18.2293 9.87202 18.0764 9.73236 17.6908L8.5415 13.7716L17.7082 8.3335" fill="#C8DAEA"/>
<path d="M10.2085 18.2293C10.521 18.2293 10.6591 18.0863 10.8335 17.9168L12.5002 16.2961L10.4212 15.0425" fill="#A9C9DD"/>
<path d="M10.4208 15.0425L15.4583 18.7643C16.0332 19.0814 16.4481 18.9172 16.5912 18.2306L18.6418 8.56775C18.8517 7.72606 18.3209 7.34431 17.771 7.59398L5.73037 12.2368C4.90849 12.5664 4.91328 13.025 5.58056 13.2293L8.67046 14.1937L15.8239 9.68067C16.1616 9.47589 16.4715 9.58599 16.2171 9.81176" fill="url(#paint1_linear_603_1064)"/>
</g>
<defs>
<linearGradient id="paint0_linear_603_1064" x1="20.0015" y1="-2.4985" x2="8.7515" y2="23.75" gradientUnits="userSpaceOnUse">
<stop stop-color="#37AEE2"/>
<stop offset="1" stop-color="#1E96C8"/>
</linearGradient>
<linearGradient id="paint1_linear_603_1064" x1="14.063" y1="12.4997" x2="16.0191" y2="16.951" gradientUnits="userSpaceOnUse">
<stop stop-color="#EFF7FC"/>
<stop offset="1" stop-color="white"/>
</linearGradient>
<clipPath id="clip0_603_1064">
<path d="M0 5C0 2.23858 2.23858 0 5 0H20C22.7614 0 25 2.23858 25 5V20C25 22.7614 22.7614 25 20 25H5C2.23858 25 0 22.7614 0 20V5Z" fill="white"/>
</clipPath>
</defs>
</svg>
