<svg width="24" height="20" viewBox="0 0 24 20" fill="none" xmlns="http://www.w3.org/2000/svg">
<path d="M11.7764 2.87278L11.2455 3.53652L11.7764 3.96131L12.3074 3.53652L11.7764 2.87278ZM12.4036 2.37108L12.9346 3.03482L12.4036 2.37108ZM21.0042 11.1625L21.6303 11.7373L21.0042 11.1625ZM2.54872 11.1625L1.92255 11.7373V11.7373L2.54872 11.1625ZM11.1493 2.37108L11.6803 1.70734V1.70734L11.1493 2.37108ZM20.7362 2.83259L21.3373 2.23155L21.3373 2.23154L20.7362 2.83259ZM12.3074 3.53652L12.9346 3.03482L11.8726 1.70734L11.2455 2.20905L12.3074 3.53652ZM20.378 10.5877C18.8036 12.3027 16.9668 14.2053 15.3112 15.6735C14.4819 16.4089 13.7171 17.0182 13.0667 17.4386C12.373 17.887 11.9544 18.0228 11.7764 18.0228V19.7228C12.4928 19.7228 13.2795 19.3253 13.9896 18.8663C14.743 18.3793 15.5804 17.7069 16.4391 16.9454C18.1597 15.4196 20.0424 13.4671 21.6303 11.7373L20.378 10.5877ZM11.7764 18.0228C11.5985 18.0228 11.1798 17.887 10.4862 17.4386C9.83578 17.0182 9.07103 16.4089 8.24168 15.6735C6.58607 14.2053 4.74925 12.3027 3.17488 10.5877L1.92255 11.7373C3.51048 13.4671 5.39322 15.4196 7.11375 16.9454C7.97247 17.7069 8.80993 18.3793 9.56329 18.8663C10.2734 19.3253 11.0601 19.7228 11.7764 19.7228V18.0228ZM10.6183 3.03482L11.2455 3.53652L12.3074 2.20905L11.6803 1.70734L10.6183 3.03482ZM3.41768 3.43363C5.36574 1.48557 8.46705 1.3138 10.6183 3.03482L11.6803 1.70734C8.85262 -0.554808 4.77618 -0.329037 2.2156 2.23155L3.41768 3.43363ZM3.17488 10.5877C1.31023 8.55645 1.43469 5.41662 3.41768 3.43363L2.2156 2.23155C-0.377777 4.82492 -0.5895 9.00085 1.92255 11.7373L3.17488 10.5877ZM20.1352 3.43363C22.1182 5.41662 22.2427 8.55645 20.378 10.5877L21.6303 11.7373C24.1424 9.00085 23.9307 4.82492 21.3373 2.23155L20.1352 3.43363ZM12.9346 3.03482C15.0858 1.3138 18.1871 1.48556 20.1352 3.43363L21.3373 2.23154C18.7767 -0.329037 14.7003 -0.554809 11.8726 1.70734L12.9346 3.03482Z" fill="#353535"/>
</svg>
