<svg width="33" height="34" viewBox="0 0 33 34" fill="none" xmlns="http://www.w3.org/2000/svg">
<g clip-path="url(#clip0_873_2670)">
<path d="M16.3183 16.5085C18.3946 16.5085 20.1922 15.7101 21.6614 14.1348C23.1301 12.5598 23.875 10.6327 23.875 8.40632C23.875 6.18073 23.1303 4.25336 21.6611 2.67784C20.1919 1.1031 18.3943 0.304688 16.3183 0.304688C14.2419 0.304688 12.4445 1.1031 10.9756 2.6781C9.50661 4.25311 8.76172 6.18048 8.76172 8.40632C8.76172 10.6327 9.50661 12.5601 10.9756 14.1351C12.445 15.7098 14.2426 16.5085 16.3183 16.5085ZM12.2758 4.07192C13.4029 2.8634 14.7252 2.27595 16.3183 2.27595C17.9113 2.27595 19.2338 2.8634 20.3611 4.07192C21.4883 5.28069 22.0364 6.69864 22.0364 8.40632C22.0364 10.1145 21.4883 11.5322 20.3611 12.741C19.2338 13.9498 17.9113 14.5372 16.3183 14.5372C14.7256 14.5372 13.4034 13.9495 12.2758 12.741C11.1484 11.5325 10.6002 10.1145 10.6002 8.40632C10.6002 6.69864 11.1484 5.28069 12.2758 4.07192Z" fill="black"/>
<path d="M29.5413 26.1703C29.499 25.5149 29.4133 24.7999 29.2871 24.0448C29.1598 23.2842 28.9958 22.5651 28.7995 21.9078C28.5966 21.2285 28.3211 20.5576 27.98 19.9147C27.6264 19.2475 27.2109 18.6664 26.7446 18.1883C26.2571 17.6881 25.6601 17.286 24.9698 16.9926C24.2818 16.7008 23.5195 16.553 22.704 16.553C22.3837 16.553 22.074 16.6939 21.4758 17.1114C21.1077 17.3689 20.6771 17.6666 20.1964 17.9958C19.7855 18.2766 19.2287 18.5396 18.541 18.7778C17.8701 19.0106 17.1889 19.1286 16.5163 19.1286C15.8441 19.1286 15.1629 19.0106 14.4915 18.7778C13.8045 18.5399 13.2476 18.2768 12.8373 17.9961C12.3612 17.6699 11.9303 17.3722 11.5567 17.1112C10.959 16.6936 10.6493 16.5527 10.329 16.5527C9.51328 16.5527 8.75116 16.7008 8.06347 16.9929C7.37364 17.2857 6.77643 17.6879 6.28837 18.1886C5.8221 18.6669 5.40657 19.2477 5.05327 19.9147C4.71266 20.5576 4.43692 21.2282 4.23394 21.9081C4.0379 22.5653 3.87394 23.2842 3.7466 24.0448C3.62022 24.7989 3.53477 25.5141 3.4924 26.1711C3.45075 26.8135 3.42969 27.482 3.42969 28.1575C3.42969 29.9134 3.9503 31.335 4.97692 32.3834C5.99085 33.4179 7.33223 33.9424 8.96395 33.9424H24.0705C25.7017 33.9424 27.0431 33.4179 28.0573 32.3834C29.0841 31.3357 29.6048 29.9137 29.6048 28.1573C29.6045 27.4795 29.5832 26.8109 29.5413 26.1703ZM26.7896 30.9551C26.1197 31.6388 25.2302 31.9712 24.0703 31.9712H8.96395C7.80377 31.9712 6.9143 31.6388 6.24457 30.9554C5.58753 30.2848 5.26822 29.3694 5.26822 28.1575C5.26822 27.5272 5.28761 26.9048 5.32638 26.3074C5.3642 25.7212 5.44152 25.0773 5.55617 24.3931C5.66939 23.7174 5.81348 23.0832 5.98486 22.5091C6.14931 21.9586 6.37359 21.4135 6.65172 20.8884C6.91718 20.388 7.2226 19.9586 7.55962 19.6127C7.87486 19.289 8.2722 19.0242 8.74039 18.8255C9.17339 18.6418 9.66001 18.5412 10.1883 18.526C10.2527 18.5627 10.3673 18.6328 10.5531 18.7627C10.931 19.0267 11.3667 19.328 11.8482 19.6578C12.3911 20.0289 13.0905 20.3641 13.9261 20.6533C14.7804 20.9495 15.6517 21.0999 16.5165 21.0999C17.3813 21.0999 18.2528 20.9495 19.1066 20.6536C19.943 20.3638 20.6421 20.0289 21.1857 19.6573C21.6786 19.3196 22.102 19.027 22.4799 18.7627C22.6657 18.6331 22.7803 18.5627 22.8447 18.526C23.3732 18.5412 23.8599 18.6418 24.2931 18.8255C24.761 19.0242 25.1584 19.2893 25.4736 19.6127C25.8106 19.9584 26.1161 20.3877 26.3815 20.8887C26.6599 21.4135 26.8844 21.9589 27.0486 22.5088C27.2202 23.0837 27.3646 23.7176 27.4776 24.3928C27.592 25.0783 27.6695 25.7225 27.7073 26.3076V26.3082C27.7464 26.9033 27.766 27.5254 27.7662 28.1575C27.766 29.3696 27.4467 30.2848 26.7896 30.9551Z" fill="black"/>
</g>
<defs>
<clipPath id="clip0_873_2670">
<rect width="31.3735" height="33.6385" fill="white" transform="translate(0.855469 0.304688)"/>
</clipPath>
</defs>
</svg>
