<svg width="484" height="200" viewBox="0 0 484 200" fill="none" xmlns="http://www.w3.org/2000/svg">
<rect width="484" height="200" rx="20" fill="#F2F3F5"/>
<path opacity="0.12" fill-rule="evenodd" clip-rule="evenodd" d="M265 88.5C268.05 88.5 270.975 87.2884 273.132 85.1317C275.288 82.9751 276.5 80.05 276.5 77C276.5 73.95 275.288 71.0249 273.132 68.8683C270.975 66.7116 268.05 65.5 265 65.5C261.95 65.5 259.025 66.7116 256.868 68.8683C254.712 71.0249 253.5 73.95 253.5 77C253.5 80.05 254.712 82.9751 256.868 85.1317C259.025 87.2884 261.95 88.5 265 88.5ZM262.413 124.512L256.295 130.625L237.757 112.627C233.197 108.2 230.914 105.986 228.309 105.169C226.013 104.451 223.55 104.471 221.266 105.227C218.672 106.078 216.424 108.326 211.928 112.817L187.571 137.179C187.783 137.686 188.013 138.18 188.261 138.663C191.568 145.154 196.846 150.432 203.337 153.74C210.72 157.5 220.38 157.5 239.7 157.5H244.3C262.896 157.5 272.538 157.5 279.818 154.148C286.687 150.882 292.284 145.438 295.74 138.663C296.522 137.134 297.137 135.5 297.631 133.706L288.431 124.506C283.877 119.958 281.6 117.681 278.973 116.824C276.665 116.075 274.179 116.075 271.871 116.824C269.244 117.681 266.967 119.958 262.407 124.512H262.413Z" fill="white"/>
<path fill-rule="evenodd" clip-rule="evenodd" d="M239.505 38.1875H244.495C253.989 38.1875 261.383 38.1875 267.312 38.6705C273.332 39.165 278.219 40.177 282.618 42.4195C289.921 46.1407 295.859 52.0785 299.58 59.382C301.823 63.7807 302.835 68.6682 303.329 74.6885C303.812 80.6167 303.812 88.0112 303.812 97.5045V102.495C303.812 111.989 303.812 119.383 303.329 125.312C302.835 131.332 301.823 136.219 299.58 140.618C295.859 147.921 289.921 153.859 282.618 157.58C278.219 159.823 273.332 160.835 267.312 161.329C261.383 161.812 253.989 161.812 244.495 161.812H239.505C230.011 161.812 222.617 161.812 216.688 161.329C210.668 160.835 205.781 159.823 201.382 157.58C194.079 153.859 188.141 147.921 184.419 140.618C182.177 136.219 181.165 131.332 180.67 125.312C180.187 119.383 180.188 111.989 180.188 102.495V97.5045C180.188 88.0112 180.187 80.6167 180.67 74.6885C181.165 68.6682 182.177 63.7807 184.419 59.382C188.141 52.0785 194.079 46.1407 201.382 42.4195C205.781 40.177 210.668 39.165 216.688 38.6705C222.617 38.1875 230.011 38.1875 239.505 38.1875ZM217.39 47.2725C211.904 47.7153 208.276 48.5835 205.298 50.1015C199.616 52.996 194.996 57.6156 192.102 63.2978C190.583 66.2763 189.715 69.9102 189.267 75.39C188.818 80.9272 188.812 87.9653 188.812 97.7V102.3C188.812 112.029 188.812 119.073 189.272 124.61C189.399 126.18 189.56 127.6 189.761 128.888L208.88 109.775L209.001 109.654C211.146 107.509 212.934 105.721 214.521 104.376C216.171 102.973 217.873 101.805 219.914 101.133C223.055 100.098 226.442 100.074 229.597 101.064C231.656 101.708 233.375 102.846 235.048 104.226C236.647 105.549 238.464 107.308 240.637 109.418L240.764 109.539L256.248 124.576L259.354 121.471L259.48 121.344C261.654 119.176 263.47 117.359 265.069 115.996C266.742 114.582 268.462 113.403 270.532 112.73C273.708 111.698 277.13 111.698 280.307 112.73C282.377 113.403 284.101 114.582 285.769 115.996C287.379 117.359 289.185 119.171 291.358 121.344L291.485 121.465L294.722 124.708L294.733 124.616C295.182 119.078 295.188 112.035 295.188 102.306V97.7057C295.188 87.971 295.188 80.933 294.728 75.3958C294.285 69.9103 293.416 66.282 291.898 63.3035C289.004 57.6214 284.384 53.0018 278.702 50.1073C275.724 48.5892 272.09 47.721 266.61 47.2725C261.073 46.824 254.029 46.8182 244.3 46.8182H239.7C229.965 46.8182 222.927 46.8183 217.39 47.2783V47.2725ZM205.298 149.893C200.058 147.224 195.711 143.083 192.791 137.979C192.971 137.846 193.14 137.7 193.297 137.542L214.975 115.864C217.275 113.564 218.822 112.029 220.104 110.937C221.346 109.879 222.065 109.499 222.617 109.315C224.045 108.843 225.586 108.831 227.021 109.281C227.573 109.453 228.298 109.827 229.557 110.868C230.857 111.943 232.42 113.455 234.755 115.721L253.27 133.695L271.676 152.101C269.998 152.388 268.307 152.597 266.61 152.728C261.073 153.176 254.029 153.182 244.3 153.182H239.7C229.965 153.182 222.927 153.182 217.39 152.722C211.904 152.279 208.276 151.411 205.298 149.893ZM291.893 136.697C289.336 141.714 285.426 145.917 280.606 148.829L262.395 130.619L265.46 127.56C267.789 125.231 269.353 123.667 270.652 122.563C271.917 121.488 272.648 121.103 273.2 120.924C274.644 120.455 276.2 120.455 277.644 120.924C278.196 121.103 278.926 121.488 280.191 122.563C281.491 123.667 283.055 125.225 285.384 127.554L292.709 134.88C292.47 135.498 292.199 136.105 291.898 136.697H291.893ZM257.812 77C257.812 75.0938 258.57 73.2656 259.918 71.9177C261.266 70.5698 263.094 69.8125 265 69.8125C266.906 69.8125 268.734 70.5698 270.082 71.9177C271.43 73.2656 272.188 75.0938 272.188 77C272.188 78.9062 271.43 80.7344 270.082 82.0823C268.734 83.4302 266.906 84.1875 265 84.1875C263.094 84.1875 261.266 83.4302 259.918 82.0823C258.57 80.7344 257.812 78.9062 257.812 77ZM265 61.1875C260.806 61.1875 256.784 62.8535 253.819 65.8189C250.853 68.7843 249.188 72.8063 249.188 77C249.188 81.1937 250.853 85.2157 253.819 88.1811C256.784 91.1465 260.806 92.8125 265 92.8125C269.194 92.8125 273.216 91.1465 276.181 88.1811C279.147 85.2157 280.812 81.1937 280.812 77C280.812 72.8063 279.147 68.7843 276.181 65.8189C273.216 62.8535 269.194 61.1875 265 61.1875Z" fill="white"/>
</svg>
