<svg width="539" height="373" viewBox="0 0 539 373" fill="none" xmlns="http://www.w3.org/2000/svg">
<rect width="539" height="373" rx="20" fill="white"/>
<path d="M253.143 153V140.203H257.625C259.178 140.203 260.355 140.502 261.158 141.1C261.961 141.691 262.362 142.562 262.362 143.71C262.362 144.337 262.201 144.891 261.879 145.371C261.557 145.846 261.108 146.194 260.534 146.417C261.19 146.581 261.706 146.912 262.081 147.41C262.462 147.908 262.652 148.518 262.652 149.238C262.652 150.469 262.26 151.4 261.475 152.033C260.689 152.666 259.57 152.988 258.117 153H253.143ZM255.779 147.428V150.882H258.038C258.659 150.882 259.143 150.735 259.488 150.442C259.84 150.144 260.016 149.733 260.016 149.212C260.016 148.04 259.409 147.445 258.196 147.428H255.779ZM255.779 145.564H257.73C259.061 145.541 259.726 145.011 259.726 143.974C259.726 143.394 259.556 142.978 259.216 142.726C258.882 142.468 258.352 142.339 257.625 142.339H255.779V145.564ZM269.982 153C269.865 152.771 269.78 152.487 269.728 152.147C269.112 152.833 268.312 153.176 267.328 153.176C266.396 153.176 265.623 152.906 265.008 152.367C264.398 151.828 264.094 151.148 264.094 150.328C264.094 149.32 264.466 148.547 265.21 148.008C265.96 147.469 267.041 147.196 268.453 147.19H269.622V146.646C269.622 146.206 269.508 145.854 269.279 145.591C269.057 145.327 268.702 145.195 268.216 145.195C267.788 145.195 267.451 145.298 267.205 145.503C266.965 145.708 266.845 145.989 266.845 146.347H264.305C264.305 145.796 264.475 145.286 264.814 144.817C265.154 144.349 265.635 143.982 266.256 143.719C266.877 143.449 267.574 143.314 268.348 143.314C269.52 143.314 270.448 143.61 271.134 144.202C271.825 144.788 272.171 145.614 272.171 146.681V150.803C272.177 151.705 272.303 152.388 272.549 152.851V153H269.982ZM267.882 151.233C268.257 151.233 268.603 151.151 268.919 150.987C269.235 150.817 269.47 150.592 269.622 150.311V148.676H268.673C267.401 148.676 266.725 149.115 266.643 149.994L266.634 150.144C266.634 150.46 266.745 150.721 266.968 150.926C267.19 151.131 267.495 151.233 267.882 151.233ZM276.662 143.49V150.952H279.272V143.49H281.821V150.952H284.432V143.49H286.972V153H274.122V143.49H276.662ZM298.485 146.294C298.485 145.96 298.374 145.702 298.151 145.521C297.935 145.333 297.624 145.239 297.22 145.239C296.804 145.239 296.464 145.327 296.2 145.503C295.942 145.673 295.813 145.916 295.813 146.232H293.273C293.273 145.371 293.631 144.671 294.346 144.132C295.061 143.593 295.975 143.323 297.088 143.323C298.312 143.323 299.273 143.563 299.971 144.044C300.674 144.524 301.025 145.207 301.025 146.092C301.025 146.514 300.896 146.903 300.639 147.261C300.387 147.612 300.029 147.894 299.566 148.104C300.65 148.485 301.192 149.221 301.192 150.311C301.192 151.184 300.817 151.881 300.067 152.402C299.323 152.918 298.33 153.176 297.088 153.176C295.934 153.176 294.984 152.906 294.24 152.367C293.496 151.828 293.124 151.102 293.124 150.188H295.664C295.664 150.51 295.808 150.771 296.095 150.97C296.382 151.169 296.757 151.269 297.22 151.269C297.671 151.269 298.022 151.163 298.274 150.952C298.526 150.741 298.652 150.466 298.652 150.126C298.652 149.71 298.532 149.414 298.292 149.238C298.052 149.057 297.691 148.966 297.211 148.966H295.831V147.313H297.299C298.09 147.29 298.485 146.95 298.485 146.294ZM308.25 153C308.133 152.771 308.048 152.487 307.995 152.147C307.38 152.833 306.58 153.176 305.596 153.176C304.664 153.176 303.891 152.906 303.275 152.367C302.666 151.828 302.361 151.148 302.361 150.328C302.361 149.32 302.733 148.547 303.478 148.008C304.228 147.469 305.309 147.196 306.721 147.19H307.89V146.646C307.89 146.206 307.775 145.854 307.547 145.591C307.324 145.327 306.97 145.195 306.483 145.195C306.056 145.195 305.719 145.298 305.473 145.503C305.232 145.708 305.112 145.989 305.112 146.347H302.572C302.572 145.796 302.742 145.286 303.082 144.817C303.422 144.349 303.902 143.982 304.523 143.719C305.145 143.449 305.842 143.314 306.615 143.314C307.787 143.314 308.716 143.61 309.401 144.202C310.093 144.788 310.438 145.614 310.438 146.681V150.803C310.444 151.705 310.57 152.388 310.816 152.851V153H308.25ZM306.149 151.233C306.524 151.233 306.87 151.151 307.187 150.987C307.503 150.817 307.737 150.592 307.89 150.311V148.676H306.94C305.669 148.676 304.992 149.115 304.91 149.994L304.901 150.144C304.901 150.46 305.013 150.721 305.235 150.926C305.458 151.131 305.763 151.233 306.149 151.233ZM316.116 149.493H315.097V153H312.557V143.49H315.097V147.067H316.002L318.076 143.49H321.284L318.173 148.017L321.574 153H318.19L316.116 149.493ZM328.043 153C327.926 152.771 327.841 152.487 327.788 152.147C327.173 152.833 326.373 153.176 325.389 153.176C324.457 153.176 323.684 152.906 323.068 152.367C322.459 151.828 322.154 151.148 322.154 150.328C322.154 149.32 322.526 148.547 323.271 148.008C324.021 147.469 325.102 147.196 326.514 147.19H327.683V146.646C327.683 146.206 327.568 145.854 327.34 145.591C327.117 145.327 326.763 145.195 326.276 145.195C325.849 145.195 325.512 145.298 325.266 145.503C325.025 145.708 324.905 145.989 324.905 146.347H322.365C322.365 145.796 322.535 145.286 322.875 144.817C323.215 144.349 323.695 143.982 324.316 143.719C324.938 143.449 325.635 143.314 326.408 143.314C327.58 143.314 328.509 143.61 329.194 144.202C329.886 144.788 330.231 145.614 330.231 146.681V150.803C330.237 151.705 330.363 152.388 330.609 152.851V153H328.043ZM325.942 151.233C326.317 151.233 326.663 151.151 326.979 150.987C327.296 150.817 327.53 150.592 327.683 150.311V148.676H326.733C325.462 148.676 324.785 149.115 324.703 149.994L324.694 150.144C324.694 150.46 324.806 150.721 325.028 150.926C325.251 151.131 325.556 151.233 325.942 151.233ZM337.175 146.294C337.175 145.96 337.063 145.702 336.841 145.521C336.624 145.333 336.313 145.239 335.909 145.239C335.493 145.239 335.153 145.327 334.89 145.503C334.632 145.673 334.503 145.916 334.503 146.232H331.963C331.963 145.371 332.32 144.671 333.035 144.132C333.75 143.593 334.664 143.323 335.777 143.323C337.002 143.323 337.963 143.563 338.66 144.044C339.363 144.524 339.715 145.207 339.715 146.092C339.715 146.514 339.586 146.903 339.328 147.261C339.076 147.612 338.719 147.894 338.256 148.104C339.34 148.485 339.882 149.221 339.882 150.311C339.882 151.184 339.507 151.881 338.757 152.402C338.013 152.918 337.02 153.176 335.777 153.176C334.623 153.176 333.674 152.906 332.93 152.367C332.186 151.828 331.813 151.102 331.813 150.188H334.354C334.354 150.51 334.497 150.771 334.784 150.97C335.071 151.169 335.446 151.269 335.909 151.269C336.36 151.269 336.712 151.163 336.964 150.952C337.216 150.741 337.342 150.466 337.342 150.126C337.342 149.71 337.222 149.414 336.981 149.238C336.741 149.057 336.381 148.966 335.9 148.966H334.521V147.313H335.988C336.779 147.29 337.175 146.95 337.175 146.294ZM346.078 153V143.49H350.051C351.346 143.49 352.339 143.719 353.03 144.176C353.722 144.633 354.067 145.289 354.067 146.145C354.067 146.584 353.921 146.979 353.628 147.331C353.341 147.677 352.919 147.943 352.362 148.131C353.042 148.26 353.575 148.515 353.962 148.896C354.354 149.271 354.551 149.733 354.551 150.284C354.551 151.169 354.217 151.843 353.549 152.306C352.887 152.769 351.923 153 350.657 153H346.078ZM348.618 149.054V150.97H350.666C351.562 150.97 352.011 150.656 352.011 150.029C352.011 149.391 351.583 149.065 350.728 149.054H348.618ZM348.618 147.349H350.191C351.082 147.337 351.527 147.05 351.527 146.487C351.527 146.142 351.404 145.896 351.158 145.749C350.918 145.603 350.549 145.529 350.051 145.529H348.618V147.349ZM360.193 148.157C360.193 147.214 360.375 146.373 360.738 145.635C361.102 144.896 361.623 144.325 362.303 143.921C362.988 143.517 363.782 143.314 364.685 143.314C365.968 143.314 367.014 143.707 367.822 144.492C368.637 145.277 369.091 146.344 369.185 147.691L369.202 148.342C369.202 149.801 368.795 150.973 367.98 151.857C367.166 152.736 366.073 153.176 364.702 153.176C363.331 153.176 362.235 152.736 361.415 151.857C360.601 150.979 360.193 149.783 360.193 148.271V148.157ZM362.733 148.342C362.733 149.244 362.903 149.936 363.243 150.416C363.583 150.891 364.069 151.128 364.702 151.128C365.317 151.128 365.798 150.894 366.144 150.425C366.489 149.95 366.662 149.194 366.662 148.157C366.662 147.272 366.489 146.587 366.144 146.101C365.798 145.614 365.312 145.371 364.685 145.371C364.063 145.371 363.583 145.614 363.243 146.101C362.903 146.581 362.733 147.328 362.733 148.342ZM375.486 144.018C376.705 144.018 377.678 144.422 378.404 145.23C379.131 146.039 379.494 147.138 379.494 148.526V148.649C379.494 150.021 379.09 151.119 378.281 151.945C377.473 152.771 376.386 153.185 375.021 153.185C373.649 153.185 372.557 152.739 371.742 151.849C370.934 150.952 370.529 149.736 370.529 148.201V147.779C370.541 145.641 370.901 143.968 371.61 142.761C372.325 141.548 373.397 140.783 374.827 140.467C375.577 140.303 376.061 140.142 376.277 139.983C376.494 139.819 376.603 139.594 376.603 139.307H378.659C378.659 140.227 378.41 140.918 377.912 141.381C377.42 141.844 376.541 142.201 375.275 142.453C374.525 142.605 373.934 142.901 373.5 143.341C373.066 143.78 372.773 144.398 372.621 145.195C373.43 144.41 374.385 144.018 375.486 144.018ZM375.003 146.074C374.399 146.074 373.925 146.276 373.579 146.681C373.239 147.085 373.069 147.741 373.069 148.649C373.069 149.458 373.236 150.076 373.57 150.504C373.904 150.926 374.388 151.137 375.021 151.137C375.636 151.137 376.11 150.929 376.444 150.513C376.778 150.097 376.948 149.484 376.954 148.676V148.465C376.954 147.686 376.781 147.094 376.436 146.689C376.096 146.279 375.618 146.074 375.003 146.074ZM389.417 148.333C389.417 149.798 389.083 150.973 388.415 151.857C387.753 152.736 386.856 153.176 385.726 153.176C384.765 153.176 383.988 152.842 383.396 152.174V156.656H380.856V143.49H383.212L383.3 144.422C383.915 143.684 384.718 143.314 385.708 143.314C386.88 143.314 387.791 143.748 388.441 144.615C389.092 145.482 389.417 146.678 389.417 148.201V148.333ZM386.877 148.148C386.877 147.264 386.719 146.581 386.402 146.101C386.092 145.62 385.638 145.38 385.04 145.38C384.243 145.38 383.695 145.685 383.396 146.294V150.188C383.707 150.814 384.261 151.128 385.058 151.128C386.271 151.128 386.877 150.135 386.877 148.148ZM396.51 153C396.393 152.771 396.308 152.487 396.255 152.147C395.64 152.833 394.84 153.176 393.855 153.176C392.924 153.176 392.15 152.906 391.535 152.367C390.926 151.828 390.621 151.148 390.621 150.328C390.621 149.32 390.993 148.547 391.737 148.008C392.487 147.469 393.568 147.196 394.98 147.19H396.149V146.646C396.149 146.206 396.035 145.854 395.807 145.591C395.584 145.327 395.229 145.195 394.743 145.195C394.315 145.195 393.979 145.298 393.732 145.503C393.492 145.708 393.372 145.989 393.372 146.347H390.832C390.832 145.796 391.002 145.286 391.342 144.817C391.682 144.349 392.162 143.982 392.783 143.719C393.404 143.449 394.102 143.314 394.875 143.314C396.047 143.314 396.976 143.61 397.661 144.202C398.353 144.788 398.698 145.614 398.698 146.681V150.803C398.704 151.705 398.83 152.388 399.076 152.851V153H396.51ZM394.409 151.233C394.784 151.233 395.13 151.151 395.446 150.987C395.763 150.817 395.997 150.592 396.149 150.311V148.676H395.2C393.929 148.676 393.252 149.115 393.17 149.994L393.161 150.144C393.161 150.46 393.272 150.721 393.495 150.926C393.718 151.131 394.022 151.233 394.409 151.233ZM405.369 144.018C406.588 144.018 407.561 144.422 408.287 145.23C409.014 146.039 409.377 147.138 409.377 148.526V148.649C409.377 150.021 408.973 151.119 408.164 151.945C407.355 152.771 406.269 153.185 404.903 153.185C403.532 153.185 402.439 152.739 401.625 151.849C400.816 150.952 400.412 149.736 400.412 148.201V147.779C400.424 145.641 400.784 143.968 401.493 142.761C402.208 141.548 403.28 140.783 404.71 140.467C405.46 140.303 405.943 140.142 406.16 139.983C406.377 139.819 406.485 139.594 406.485 139.307H408.542C408.542 140.227 408.293 140.918 407.795 141.381C407.303 141.844 406.424 142.201 405.158 142.453C404.408 142.605 403.816 142.901 403.383 143.341C402.949 143.78 402.656 144.398 402.504 145.195C403.312 144.41 404.268 144.018 405.369 144.018ZM404.886 146.074C404.282 146.074 403.808 146.276 403.462 146.681C403.122 147.085 402.952 147.741 402.952 148.649C402.952 149.458 403.119 150.076 403.453 150.504C403.787 150.926 404.271 151.137 404.903 151.137C405.519 151.137 405.993 150.929 406.327 150.513C406.661 150.097 406.831 149.484 406.837 148.676V148.465C406.837 147.686 406.664 147.094 406.318 146.689C405.979 146.279 405.501 146.074 404.886 146.074ZM410.502 148.157C410.502 147.214 410.684 146.373 411.047 145.635C411.41 144.896 411.932 144.325 412.611 143.921C413.297 143.517 414.091 143.314 414.993 143.314C416.276 143.314 417.322 143.707 418.131 144.492C418.945 145.277 419.399 146.344 419.493 147.691L419.511 148.342C419.511 149.801 419.104 150.973 418.289 151.857C417.475 152.736 416.382 153.176 415.011 153.176C413.64 153.176 412.544 152.736 411.724 151.857C410.909 150.979 410.502 149.783 410.502 148.271V148.157ZM413.042 148.342C413.042 149.244 413.212 149.936 413.552 150.416C413.892 150.891 414.378 151.128 415.011 151.128C415.626 151.128 416.106 150.894 416.452 150.425C416.798 149.95 416.971 149.194 416.971 148.157C416.971 147.272 416.798 146.587 416.452 146.101C416.106 145.614 415.62 145.371 414.993 145.371C414.372 145.371 413.892 145.614 413.552 146.101C413.212 146.581 413.042 147.328 413.042 148.342ZM428.704 145.529H425.654V153H423.105V145.529H420.108V143.49H428.704V145.529ZM433.714 149.493H432.694V153H430.154V143.49H432.694V147.067H433.6L435.674 143.49H438.882L435.771 148.017L439.172 153H435.788L433.714 149.493ZM444.366 153.176C442.972 153.176 441.835 152.748 440.956 151.893C440.083 151.037 439.646 149.897 439.646 148.474V148.228C439.646 147.272 439.831 146.42 440.2 145.67C440.569 144.914 441.091 144.334 441.765 143.93C442.444 143.52 443.218 143.314 444.085 143.314C445.386 143.314 446.408 143.725 447.152 144.545C447.902 145.365 448.277 146.528 448.277 148.034V149.071H442.222C442.304 149.692 442.55 150.19 442.96 150.565C443.376 150.94 443.9 151.128 444.533 151.128C445.512 151.128 446.276 150.773 446.827 150.064L448.075 151.462C447.694 152.001 447.179 152.423 446.528 152.728C445.878 153.026 445.157 153.176 444.366 153.176ZM444.076 145.371C443.572 145.371 443.162 145.541 442.846 145.881C442.535 146.221 442.336 146.707 442.248 147.34H445.781V147.138C445.77 146.575 445.617 146.142 445.324 145.837C445.031 145.526 444.615 145.371 444.076 145.371ZM253.485 182V169.203H257.669C259.058 169.203 260.101 169.49 260.798 170.064C261.501 170.639 261.853 171.488 261.853 172.613C261.853 173.211 261.683 173.741 261.343 174.204C261.003 174.661 260.54 175.016 259.954 175.268C260.646 175.461 261.19 175.83 261.589 176.375C261.993 176.914 262.195 177.559 262.195 178.309C262.195 179.457 261.823 180.359 261.079 181.016C260.335 181.672 259.283 182 257.924 182H253.485ZM255.173 176.015V180.62H257.959C258.744 180.62 259.362 180.418 259.813 180.014C260.271 179.604 260.499 179.041 260.499 178.326C260.499 176.785 259.661 176.015 257.985 176.015H255.173ZM255.173 174.661H257.722C258.46 174.661 259.049 174.477 259.488 174.107C259.934 173.738 260.156 173.237 260.156 172.604C260.156 171.901 259.951 171.392 259.541 171.075C259.131 170.753 258.507 170.592 257.669 170.592H255.173V174.661ZM266.221 175.769H268.69C269.769 175.78 270.621 176.062 271.248 176.612C271.875 177.163 272.188 177.91 272.188 178.854C272.188 179.803 271.866 180.564 271.222 181.139C270.577 181.713 269.71 182 268.62 182H264.595V172.49H266.221V175.769ZM275.581 182H273.946V172.49H275.581V182ZM266.221 177.096V180.673H268.638C269.247 180.673 269.719 180.518 270.053 180.207C270.387 179.891 270.554 179.46 270.554 178.915C270.554 178.388 270.39 177.957 270.062 177.623C269.739 177.283 269.285 177.107 268.699 177.096H266.221ZM288.36 179.847L291.595 172.49H293.625V182H291.999V175.083L288.923 182H287.798L284.66 174.934V182H283.034V172.49H285.144L288.36 179.847ZM295.813 177.157C295.813 176.226 295.995 175.388 296.358 174.644C296.728 173.899 297.237 173.325 297.888 172.921C298.544 172.517 299.291 172.314 300.129 172.314C301.424 172.314 302.47 172.763 303.267 173.659C304.069 174.556 304.471 175.748 304.471 177.236V177.351C304.471 178.276 304.292 179.108 303.935 179.847C303.583 180.579 303.076 181.15 302.414 181.561C301.758 181.971 301.002 182.176 300.146 182.176C298.857 182.176 297.812 181.728 297.009 180.831C296.212 179.935 295.813 178.748 295.813 177.271V177.157ZM297.448 177.351C297.448 178.405 297.691 179.252 298.178 179.891C298.67 180.529 299.326 180.849 300.146 180.849C300.973 180.849 301.629 180.526 302.115 179.882C302.602 179.231 302.845 178.323 302.845 177.157C302.845 176.114 302.596 175.271 302.098 174.626C301.605 173.976 300.949 173.65 300.129 173.65C299.326 173.65 298.679 173.97 298.187 174.608C297.694 175.247 297.448 176.161 297.448 177.351ZM313.901 177.869H312.759V182H311.133V177.869H309.99L307.327 182H305.271L308.672 177.078L305.596 172.49H307.564L310.017 176.428H311.133V172.49H312.759V176.428H313.866L316.336 172.49H318.305L315.22 177.087L318.621 182H316.564L313.901 177.869ZM323.868 182.176C322.579 182.176 321.53 181.754 320.722 180.91C319.913 180.061 319.509 178.927 319.509 177.509V177.21C319.509 176.267 319.688 175.426 320.045 174.688C320.408 173.943 320.912 173.363 321.557 172.947C322.207 172.525 322.91 172.314 323.666 172.314C324.902 172.314 325.863 172.722 326.549 173.536C327.234 174.351 327.577 175.517 327.577 177.034V177.711H321.135C321.158 178.648 321.431 179.407 321.952 179.987C322.479 180.562 323.147 180.849 323.956 180.849C324.53 180.849 325.017 180.731 325.415 180.497C325.813 180.263 326.162 179.952 326.461 179.565L327.454 180.339C326.657 181.563 325.462 182.176 323.868 182.176ZM323.666 173.65C323.01 173.65 322.459 173.891 322.014 174.371C321.568 174.846 321.293 175.514 321.188 176.375H325.951V176.252C325.904 175.426 325.682 174.787 325.283 174.336C324.885 173.879 324.346 173.65 323.666 173.65ZM336.428 173.809H333.237V182H331.611V173.809H328.482V172.49H336.428V173.809ZM341.253 182.176C339.964 182.176 338.915 181.754 338.106 180.91C337.298 180.061 336.894 178.927 336.894 177.509V177.21C336.894 176.267 337.072 175.426 337.43 174.688C337.793 173.943 338.297 173.363 338.941 172.947C339.592 172.525 340.295 172.314 341.051 172.314C342.287 172.314 343.248 172.722 343.934 173.536C344.619 174.351 344.962 175.517 344.962 177.034V177.711H338.52C338.543 178.648 338.815 179.407 339.337 179.987C339.864 180.562 340.532 180.849 341.341 180.849C341.915 180.849 342.401 180.731 342.8 180.497C343.198 180.263 343.547 179.952 343.846 179.565L344.839 180.339C344.042 181.563 342.847 182.176 341.253 182.176ZM341.051 173.65C340.395 173.65 339.844 173.891 339.398 174.371C338.953 174.846 338.678 175.514 338.572 176.375H343.336V176.252C343.289 175.426 343.066 174.787 342.668 174.336C342.27 173.879 341.73 173.65 341.051 173.65ZM350.886 177.157C350.886 176.226 351.067 175.388 351.431 174.644C351.8 173.899 352.31 173.325 352.96 172.921C353.616 172.517 354.363 172.314 355.201 172.314C356.496 172.314 357.542 172.763 358.339 173.659C359.142 174.556 359.543 175.748 359.543 177.236V177.351C359.543 178.276 359.364 179.108 359.007 179.847C358.655 180.579 358.148 181.15 357.486 181.561C356.83 181.971 356.074 182.176 355.219 182.176C353.93 182.176 352.884 181.728 352.081 180.831C351.284 179.935 350.886 178.748 350.886 177.271V177.157ZM352.521 177.351C352.521 178.405 352.764 179.252 353.25 179.891C353.742 180.529 354.398 180.849 355.219 180.849C356.045 180.849 356.701 180.526 357.188 179.882C357.674 179.231 357.917 178.323 357.917 177.157C357.917 176.114 357.668 175.271 357.17 174.626C356.678 173.976 356.021 173.65 355.201 173.65C354.398 173.65 353.751 173.97 353.259 174.608C352.767 175.247 352.521 176.161 352.521 177.351ZM368.455 173.809H365.265V182H363.639V173.809H360.51V172.49H368.455V173.809ZM373.148 180.849C373.729 180.849 374.235 180.673 374.669 180.321C375.103 179.97 375.343 179.53 375.39 179.003H376.928C376.898 179.548 376.711 180.066 376.365 180.559C376.02 181.051 375.557 181.443 374.977 181.736C374.402 182.029 373.793 182.176 373.148 182.176C371.854 182.176 370.822 181.745 370.055 180.884C369.293 180.017 368.912 178.833 368.912 177.333V177.061C368.912 176.135 369.082 175.312 369.422 174.591C369.762 173.87 370.248 173.311 370.881 172.912C371.52 172.514 372.272 172.314 373.14 172.314C374.206 172.314 375.091 172.634 375.794 173.272C376.503 173.911 376.881 174.74 376.928 175.76H375.39C375.343 175.145 375.108 174.641 374.687 174.248C374.271 173.85 373.755 173.65 373.14 173.65C372.313 173.65 371.672 173.949 371.215 174.547C370.764 175.139 370.538 175.997 370.538 177.122V177.43C370.538 178.525 370.764 179.369 371.215 179.961C371.666 180.553 372.311 180.849 373.148 180.849ZM386.552 172.49V182H384.917V173.835H381.683L381.489 177.395C381.384 179.029 381.108 180.198 380.663 180.901C380.224 181.604 379.523 181.971 378.562 182H377.912V180.567L378.378 180.532C378.905 180.474 379.283 180.169 379.512 179.618C379.74 179.067 379.887 178.048 379.951 176.56L380.127 172.49H386.552ZM393.108 182.176C391.819 182.176 390.771 181.754 389.962 180.91C389.153 180.061 388.749 178.927 388.749 177.509V177.21C388.749 176.267 388.928 175.426 389.285 174.688C389.648 173.943 390.152 173.363 390.797 172.947C391.447 172.525 392.15 172.314 392.906 172.314C394.143 172.314 395.104 172.722 395.789 173.536C396.475 174.351 396.817 175.517 396.817 177.034V177.711H390.375C390.398 178.648 390.671 179.407 391.192 179.987C391.72 180.562 392.388 180.849 393.196 180.849C393.771 180.849 394.257 180.731 394.655 180.497C395.054 180.263 395.402 179.952 395.701 179.565L396.694 180.339C395.897 181.563 394.702 182.176 393.108 182.176ZM392.906 173.65C392.25 173.65 391.699 173.891 391.254 174.371C390.809 174.846 390.533 175.514 390.428 176.375H395.191V176.252C395.145 175.426 394.922 174.787 394.523 174.336C394.125 173.879 393.586 173.65 392.906 173.65ZM398.628 180.673L399.19 179.979C399.823 179.158 400.184 177.928 400.271 176.287L400.421 172.49H406.547V180.673H407.769V184.795H406.143V182H399.507V184.795H397.881L397.89 180.673H398.628ZM400.553 180.673H404.921V173.993H401.994L401.897 176.261C401.798 178.153 401.35 179.624 400.553 180.673ZM415.723 172.49H417.349V182H415.723V175.065L411.337 182H409.711V172.49H411.337V179.434L415.723 172.49ZM427.025 173.809H423.835V182H422.209V173.809H419.08V172.49H427.025V173.809ZM430.383 175.769H432.853C433.931 175.78 434.783 176.062 435.41 176.612C436.037 177.163 436.351 177.91 436.351 178.854C436.351 179.803 436.028 180.564 435.384 181.139C434.739 181.713 433.872 182 432.782 182H428.757V172.49H430.383V175.769ZM430.383 177.096V180.673H432.8C433.409 180.673 433.881 180.518 434.215 180.207C434.549 179.891 434.716 179.46 434.716 178.915C434.716 178.388 434.552 177.957 434.224 177.623C433.901 177.283 433.447 177.107 432.861 177.096H430.383ZM448.075 175.092C448.075 174.646 447.905 174.295 447.565 174.037C447.226 173.773 446.76 173.642 446.168 173.642C445.594 173.642 445.113 173.791 444.727 174.09C444.346 174.389 444.155 174.74 444.155 175.145H442.538C442.538 174.318 442.884 173.642 443.575 173.114C444.267 172.587 445.131 172.323 446.168 172.323C447.281 172.323 448.148 172.563 448.77 173.044C449.391 173.519 449.701 174.198 449.701 175.083C449.701 175.511 449.572 175.903 449.314 176.261C449.057 176.618 448.69 176.902 448.216 177.113C449.323 177.488 449.877 178.227 449.877 179.328C449.877 180.201 449.54 180.893 448.866 181.402C448.192 181.912 447.293 182.167 446.168 182.167C445.072 182.167 444.167 181.9 443.452 181.367C442.743 180.828 442.389 180.102 442.389 179.188H444.006C444.006 179.65 444.211 180.049 444.621 180.383C445.037 180.711 445.553 180.875 446.168 180.875C446.789 180.875 447.29 180.731 447.671 180.444C448.052 180.157 448.242 179.785 448.242 179.328C448.242 178.795 448.081 178.414 447.759 178.186C447.442 177.951 446.947 177.834 446.273 177.834H444.647V176.463H446.414C447.521 176.434 448.075 175.977 448.075 175.092ZM457.857 182C457.764 181.812 457.688 181.479 457.629 180.998C456.873 181.783 455.971 182.176 454.922 182.176C453.984 182.176 453.214 181.912 452.61 181.385C452.013 180.852 451.714 180.178 451.714 179.363C451.714 178.373 452.089 177.605 452.839 177.061C453.595 176.51 454.655 176.234 456.021 176.234H457.603V175.487C457.603 174.919 457.433 174.468 457.093 174.134C456.753 173.794 456.252 173.624 455.59 173.624C455.01 173.624 454.523 173.771 454.131 174.063C453.738 174.356 453.542 174.711 453.542 175.127H451.907C451.907 174.652 452.074 174.195 452.408 173.756C452.748 173.311 453.205 172.959 453.779 172.701C454.359 172.443 454.995 172.314 455.687 172.314C456.782 172.314 457.641 172.59 458.262 173.141C458.883 173.686 459.205 174.438 459.229 175.399V179.776C459.229 180.649 459.34 181.344 459.562 181.859V182H457.857ZM455.159 180.761C455.669 180.761 456.152 180.629 456.609 180.365C457.066 180.102 457.397 179.759 457.603 179.337V177.386H456.328C454.336 177.386 453.34 177.969 453.34 179.135C453.34 179.645 453.51 180.043 453.85 180.33C454.189 180.617 454.626 180.761 455.159 180.761ZM464.739 177.948H463.553V182H461.918V172.49H463.553V176.516H464.616L467.815 172.49H469.784L466.022 177.061L470.101 182H468.035L464.739 177.948ZM477.369 182C477.275 181.812 477.199 181.479 477.141 180.998C476.385 181.783 475.482 182.176 474.434 182.176C473.496 182.176 472.726 181.912 472.122 181.385C471.524 180.852 471.226 180.178 471.226 179.363C471.226 178.373 471.601 177.605 472.351 177.061C473.106 176.51 474.167 176.234 475.532 176.234H477.114V175.487C477.114 174.919 476.944 174.468 476.604 174.134C476.265 173.794 475.764 173.624 475.102 173.624C474.521 173.624 474.035 173.771 473.643 174.063C473.25 174.356 473.054 174.711 473.054 175.127H471.419C471.419 174.652 471.586 174.195 471.92 173.756C472.26 173.311 472.717 172.959 473.291 172.701C473.871 172.443 474.507 172.314 475.198 172.314C476.294 172.314 477.152 172.59 477.773 173.141C478.395 173.686 478.717 174.438 478.74 175.399V179.776C478.74 180.649 478.852 181.344 479.074 181.859V182H477.369ZM474.671 180.761C475.181 180.761 475.664 180.629 476.121 180.365C476.578 180.102 476.909 179.759 477.114 179.337V177.386H475.84C473.848 177.386 472.852 177.969 472.852 179.135C472.852 179.645 473.021 180.043 473.361 180.33C473.701 180.617 474.138 180.761 474.671 180.761ZM486.519 175.092C486.519 174.646 486.349 174.295 486.009 174.037C485.669 173.773 485.203 173.642 484.611 173.642C484.037 173.642 483.557 173.791 483.17 174.09C482.789 174.389 482.599 174.74 482.599 175.145H480.981C480.981 174.318 481.327 173.642 482.019 173.114C482.71 172.587 483.574 172.323 484.611 172.323C485.725 172.323 486.592 172.563 487.213 173.044C487.834 173.519 488.145 174.198 488.145 175.083C488.145 175.511 488.016 175.903 487.758 176.261C487.5 176.618 487.134 176.902 486.659 177.113C487.767 177.488 488.32 178.227 488.32 179.328C488.32 180.201 487.983 180.893 487.31 181.402C486.636 181.912 485.736 182.167 484.611 182.167C483.516 182.167 482.61 181.9 481.896 181.367C481.187 180.828 480.832 180.102 480.832 179.188H482.449C482.449 179.65 482.654 180.049 483.064 180.383C483.48 180.711 483.996 180.875 484.611 180.875C485.232 180.875 485.733 180.731 486.114 180.444C486.495 180.157 486.686 179.785 486.686 179.328C486.686 178.795 486.524 178.414 486.202 178.186C485.886 177.951 485.391 177.834 484.717 177.834H483.091V176.463H484.857C485.965 176.434 486.519 175.977 486.519 175.092ZM495.044 182V172.49H498.753C500.019 172.49 500.988 172.713 501.662 173.158C502.342 173.598 502.682 174.245 502.682 175.101C502.682 175.54 502.55 175.938 502.286 176.296C502.022 176.647 501.633 176.917 501.117 177.104C501.691 177.239 502.151 177.503 502.497 177.896C502.849 178.288 503.024 178.757 503.024 179.302C503.024 180.175 502.702 180.843 502.058 181.306C501.419 181.769 500.514 182 499.342 182H495.044ZM496.67 177.825V180.69H499.359C500.039 180.69 500.546 180.564 500.88 180.312C501.22 180.061 501.39 179.706 501.39 179.249C501.39 178.3 500.692 177.825 499.298 177.825H496.67ZM496.67 176.524H498.771C500.294 176.524 501.056 176.079 501.056 175.188C501.056 174.298 500.335 173.838 498.894 173.809H496.67V176.524ZM261.264 206.351C261.264 207.798 260.933 208.964 260.271 209.849C259.608 210.733 258.712 211.176 257.581 211.176C256.427 211.176 255.519 210.81 254.856 210.077V214.656H253.23V201.49H254.716L254.795 202.545C255.457 201.725 256.377 201.314 257.555 201.314C258.697 201.314 259.6 201.745 260.262 202.606C260.93 203.468 261.264 204.666 261.264 206.201V206.351ZM259.638 206.166C259.638 205.094 259.409 204.247 258.952 203.626C258.495 203.005 257.868 202.694 257.071 202.694C256.087 202.694 255.349 203.131 254.856 204.004V208.548C255.343 209.415 256.087 209.849 257.089 209.849C257.868 209.849 258.486 209.541 258.943 208.926C259.406 208.305 259.638 207.385 259.638 206.166ZM267.284 211.176C265.995 211.176 264.946 210.754 264.138 209.91C263.329 209.061 262.925 207.927 262.925 206.509V206.21C262.925 205.267 263.104 204.426 263.461 203.688C263.824 202.943 264.328 202.363 264.973 201.947C265.623 201.525 266.326 201.314 267.082 201.314C268.318 201.314 269.279 201.722 269.965 202.536C270.65 203.351 270.993 204.517 270.993 206.034V206.711H264.551C264.574 207.648 264.847 208.407 265.368 208.987C265.896 209.562 266.563 209.849 267.372 209.849C267.946 209.849 268.433 209.731 268.831 209.497C269.229 209.263 269.578 208.952 269.877 208.565L270.87 209.339C270.073 210.563 268.878 211.176 267.284 211.176ZM267.082 202.65C266.426 202.65 265.875 202.891 265.43 203.371C264.984 203.846 264.709 204.514 264.604 205.375H269.367V205.252C269.32 204.426 269.098 203.787 268.699 203.336C268.301 202.879 267.762 202.65 267.082 202.65ZM278.754 211C278.66 210.812 278.584 210.479 278.525 209.998C277.77 210.783 276.867 211.176 275.818 211.176C274.881 211.176 274.11 210.912 273.507 210.385C272.909 209.852 272.61 209.178 272.61 208.363C272.61 207.373 272.985 206.605 273.735 206.061C274.491 205.51 275.552 205.234 276.917 205.234H278.499V204.487C278.499 203.919 278.329 203.468 277.989 203.134C277.649 202.794 277.148 202.624 276.486 202.624C275.906 202.624 275.42 202.771 275.027 203.063C274.635 203.356 274.438 203.711 274.438 204.127H272.804C272.804 203.652 272.971 203.195 273.305 202.756C273.645 202.311 274.102 201.959 274.676 201.701C275.256 201.443 275.892 201.314 276.583 201.314C277.679 201.314 278.537 201.59 279.158 202.141C279.779 202.686 280.102 203.438 280.125 204.399V208.776C280.125 209.649 280.236 210.344 280.459 210.859V211H278.754ZM276.056 209.761C276.565 209.761 277.049 209.629 277.506 209.365C277.963 209.102 278.294 208.759 278.499 208.337V206.386H277.225C275.232 206.386 274.236 206.969 274.236 208.135C274.236 208.645 274.406 209.043 274.746 209.33C275.086 209.617 275.522 209.761 276.056 209.761ZM290.47 201.49V211H288.835V202.835H285.601L285.407 206.395C285.302 208.029 285.026 209.198 284.581 209.901C284.142 210.604 283.441 210.971 282.48 211H281.83V209.567L282.296 209.532C282.823 209.474 283.201 209.169 283.43 208.618C283.658 208.067 283.805 207.048 283.869 205.56L284.045 201.49H290.47ZM294.855 204.769H297.325C298.403 204.78 299.256 205.062 299.883 205.612C300.51 206.163 300.823 206.91 300.823 207.854C300.823 208.803 300.501 209.564 299.856 210.139C299.212 210.713 298.345 211 297.255 211H293.229V201.49H294.855V204.769ZM294.855 206.096V209.673H297.272C297.882 209.673 298.354 209.518 298.688 209.207C299.021 208.891 299.188 208.46 299.188 207.915C299.188 207.388 299.024 206.957 298.696 206.623C298.374 206.283 297.92 206.107 297.334 206.096H294.855ZM310.623 211H308.997V206.939H304.629V211H302.994V201.49H304.629V205.612H308.997V201.49H310.623V211ZM312.812 206.157C312.812 205.226 312.993 204.388 313.356 203.644C313.726 202.899 314.235 202.325 314.886 201.921C315.542 201.517 316.289 201.314 317.127 201.314C318.422 201.314 319.468 201.763 320.265 202.659C321.067 203.556 321.469 204.748 321.469 206.236V206.351C321.469 207.276 321.29 208.108 320.933 208.847C320.581 209.579 320.074 210.15 319.412 210.561C318.756 210.971 318 211.176 317.145 211.176C315.855 211.176 314.81 210.728 314.007 209.831C313.21 208.935 312.812 207.748 312.812 206.271V206.157ZM314.446 206.351C314.446 207.405 314.689 208.252 315.176 208.891C315.668 209.529 316.324 209.849 317.145 209.849C317.971 209.849 318.627 209.526 319.113 208.882C319.6 208.231 319.843 207.323 319.843 206.157C319.843 205.114 319.594 204.271 319.096 203.626C318.604 202.976 317.947 202.65 317.127 202.65C316.324 202.65 315.677 202.97 315.185 203.608C314.692 204.247 314.446 205.161 314.446 206.351ZM328.983 208.847L332.218 201.49H334.248V211H332.622V204.083L329.546 211H328.421L325.283 203.934V211H323.657V201.49H325.767L328.983 208.847ZM341.481 211V201.49H345.19C346.456 201.49 347.426 201.713 348.1 202.158C348.779 202.598 349.119 203.245 349.119 204.101C349.119 204.54 348.987 204.938 348.724 205.296C348.46 205.647 348.07 205.917 347.555 206.104C348.129 206.239 348.589 206.503 348.935 206.896C349.286 207.288 349.462 207.757 349.462 208.302C349.462 209.175 349.14 209.843 348.495 210.306C347.856 210.769 346.951 211 345.779 211H341.481ZM343.107 206.825V209.69H345.797C346.477 209.69 346.983 209.564 347.317 209.312C347.657 209.061 347.827 208.706 347.827 208.249C347.827 207.3 347.13 206.825 345.735 206.825H343.107ZM343.107 205.524H345.208C346.731 205.524 347.493 205.079 347.493 204.188C347.493 203.298 346.772 202.838 345.331 202.809H343.107V205.524ZM359.648 206.351C359.648 207.798 359.317 208.964 358.655 209.849C357.993 210.733 357.097 211.176 355.966 211.176C354.812 211.176 353.903 210.81 353.241 210.077V214.656H351.615V201.49H353.101L353.18 202.545C353.842 201.725 354.762 201.314 355.939 201.314C357.082 201.314 357.984 201.745 358.646 202.606C359.314 203.468 359.648 204.666 359.648 206.201V206.351ZM358.022 206.166C358.022 205.094 357.794 204.247 357.337 203.626C356.88 203.005 356.253 202.694 355.456 202.694C354.472 202.694 353.733 203.131 353.241 204.004V208.548C353.728 209.415 354.472 209.849 355.474 209.849C356.253 209.849 356.871 209.541 357.328 208.926C357.791 208.305 358.022 207.385 358.022 206.166ZM365.669 211.176C364.38 211.176 363.331 210.754 362.522 209.91C361.714 209.061 361.31 207.927 361.31 206.509V206.21C361.31 205.267 361.488 204.426 361.846 203.688C362.209 202.943 362.713 202.363 363.357 201.947C364.008 201.525 364.711 201.314 365.467 201.314C366.703 201.314 367.664 201.722 368.35 202.536C369.035 203.351 369.378 204.517 369.378 206.034V206.711H362.936C362.959 207.648 363.231 208.407 363.753 208.987C364.28 209.562 364.948 209.849 365.757 209.849C366.331 209.849 366.817 209.731 367.216 209.497C367.614 209.263 367.963 208.952 368.262 208.565L369.255 209.339C368.458 210.563 367.263 211.176 365.669 211.176ZM365.467 202.65C364.811 202.65 364.26 202.891 363.814 203.371C363.369 203.846 363.094 204.514 362.988 205.375H367.752V205.252C367.705 204.426 367.482 203.787 367.084 203.336C366.686 202.879 366.146 202.65 365.467 202.65ZM376.743 208.847L379.978 201.49H382.008V211H380.382V204.083L377.306 211H376.181L373.043 203.934V211H371.417V201.49H373.526L376.743 208.847ZM388.573 211.176C387.284 211.176 386.235 210.754 385.427 209.91C384.618 209.061 384.214 207.927 384.214 206.509V206.21C384.214 205.267 384.393 204.426 384.75 203.688C385.113 202.943 385.617 202.363 386.262 201.947C386.912 201.525 387.615 201.314 388.371 201.314C389.607 201.314 390.568 201.722 391.254 202.536C391.939 203.351 392.282 204.517 392.282 206.034V206.711H385.84C385.863 207.648 386.136 208.407 386.657 208.987C387.185 209.562 387.853 209.849 388.661 209.849C389.235 209.849 389.722 209.731 390.12 209.497C390.519 209.263 390.867 208.952 391.166 208.565L392.159 209.339C391.362 210.563 390.167 211.176 388.573 211.176ZM388.371 202.65C387.715 202.65 387.164 202.891 386.719 203.371C386.273 203.846 385.998 204.514 385.893 205.375H390.656V205.252C390.609 204.426 390.387 203.787 389.988 203.336C389.59 202.879 389.051 202.65 388.371 202.65ZM401.941 211H400.315V206.939H395.947V211H394.312V201.49H395.947V205.612H400.315V201.49H401.941V211ZM410.713 201.49H412.339V211H410.713V204.065L406.327 211H404.701V201.49H406.327V208.434L410.713 201.49ZM414.896 213.549L413.974 212.916C414.524 212.148 414.812 211.357 414.835 210.543V209.075H416.426V210.35C416.426 210.941 416.279 211.533 415.986 212.125C415.699 212.717 415.336 213.191 414.896 213.549ZM430.726 211H429.1V202.835H424.723V211H423.088V201.49H430.726V211ZM441.369 206.351C441.369 207.798 441.038 208.964 440.376 209.849C439.714 210.733 438.817 211.176 437.687 211.176C436.532 211.176 435.624 210.81 434.962 210.077V214.656H433.336V201.49H434.821L434.9 202.545C435.562 201.725 436.482 201.314 437.66 201.314C438.803 201.314 439.705 201.745 440.367 202.606C441.035 203.468 441.369 204.666 441.369 206.201V206.351ZM439.743 206.166C439.743 205.094 439.515 204.247 439.058 203.626C438.601 203.005 437.974 202.694 437.177 202.694C436.192 202.694 435.454 203.131 434.962 204.004V208.548C435.448 209.415 436.192 209.849 437.194 209.849C437.974 209.849 438.592 209.541 439.049 208.926C439.512 208.305 439.743 207.385 439.743 206.166ZM449.596 201.49H451.222V211H449.596V204.065L445.21 211H443.584V201.49H445.21V208.434L449.596 201.49ZM253.38 240V230.49H257.089C258.354 230.49 259.324 230.713 259.998 231.158C260.678 231.598 261.018 232.245 261.018 233.101C261.018 233.54 260.886 233.938 260.622 234.296C260.358 234.647 259.969 234.917 259.453 235.104C260.027 235.239 260.487 235.503 260.833 235.896C261.185 236.288 261.36 236.757 261.36 237.302C261.36 238.175 261.038 238.843 260.394 239.306C259.755 239.769 258.85 240 257.678 240H253.38ZM255.006 235.825V238.69H257.695C258.375 238.69 258.882 238.564 259.216 238.312C259.556 238.061 259.726 237.706 259.726 237.249C259.726 236.3 259.028 235.825 257.634 235.825H255.006ZM255.006 234.524H257.106C258.63 234.524 259.392 234.079 259.392 233.188C259.392 232.298 258.671 231.838 257.229 231.809H255.006V234.524ZM265.289 233.769H267.759C268.837 233.78 269.689 234.062 270.316 234.612C270.943 235.163 271.257 235.91 271.257 236.854C271.257 237.803 270.935 238.564 270.29 239.139C269.646 239.713 268.778 240 267.688 240H263.663V230.49H265.289V233.769ZM274.649 240H273.015V230.49H274.649V240ZM265.289 235.096V238.673H267.706C268.315 238.673 268.787 238.518 269.121 238.207C269.455 237.891 269.622 237.46 269.622 236.915C269.622 236.388 269.458 235.957 269.13 235.623C268.808 235.283 268.354 235.107 267.768 235.096H265.289ZM281.435 240.176C280.146 240.176 279.097 239.754 278.288 238.91C277.479 238.061 277.075 236.927 277.075 235.509V235.21C277.075 234.267 277.254 233.426 277.611 232.688C277.975 231.943 278.479 231.363 279.123 230.947C279.773 230.525 280.477 230.314 281.232 230.314C282.469 230.314 283.43 230.722 284.115 231.536C284.801 232.351 285.144 233.517 285.144 235.034V235.711H278.701C278.725 236.648 278.997 237.407 279.519 237.987C280.046 238.562 280.714 238.849 281.522 238.849C282.097 238.849 282.583 238.731 282.981 238.497C283.38 238.263 283.729 237.952 284.027 237.565L285.021 238.339C284.224 239.563 283.028 240.176 281.435 240.176ZM281.232 231.65C280.576 231.65 280.025 231.891 279.58 232.371C279.135 232.846 278.859 233.514 278.754 234.375H283.518V234.252C283.471 233.426 283.248 232.787 282.85 232.336C282.451 231.879 281.912 231.65 281.232 231.65ZM292.263 233.092C292.263 232.646 292.093 232.295 291.753 232.037C291.413 231.773 290.947 231.642 290.355 231.642C289.781 231.642 289.301 231.791 288.914 232.09C288.533 232.389 288.343 232.74 288.343 233.145H286.726C286.726 232.318 287.071 231.642 287.763 231.114C288.454 230.587 289.318 230.323 290.355 230.323C291.469 230.323 292.336 230.563 292.957 231.044C293.578 231.519 293.889 232.198 293.889 233.083C293.889 233.511 293.76 233.903 293.502 234.261C293.244 234.618 292.878 234.902 292.403 235.113C293.511 235.488 294.064 236.227 294.064 237.328C294.064 238.201 293.728 238.893 293.054 239.402C292.38 239.912 291.48 240.167 290.355 240.167C289.26 240.167 288.354 239.9 287.64 239.367C286.931 238.828 286.576 238.102 286.576 237.188H288.193C288.193 237.65 288.398 238.049 288.809 238.383C289.225 238.711 289.74 238.875 290.355 238.875C290.977 238.875 291.478 238.731 291.858 238.444C292.239 238.157 292.43 237.785 292.43 237.328C292.43 236.795 292.269 236.414 291.946 236.186C291.63 235.951 291.135 235.834 290.461 235.834H288.835V234.463H290.602C291.709 234.434 292.263 233.977 292.263 233.092ZM296.095 238.673L296.657 237.979C297.29 237.158 297.65 235.928 297.738 234.287L297.888 230.49H304.014V238.673H305.235V242.795H303.609V240H296.974V242.795H295.348L295.356 238.673H296.095ZM298.02 238.673H302.388V231.993H299.461L299.364 234.261C299.265 236.153 298.816 237.624 298.02 238.673ZM310.983 240.176C309.694 240.176 308.646 239.754 307.837 238.91C307.028 238.061 306.624 236.927 306.624 235.509V235.21C306.624 234.267 306.803 233.426 307.16 232.688C307.523 231.943 308.027 231.363 308.672 230.947C309.322 230.525 310.025 230.314 310.781 230.314C312.018 230.314 312.979 230.722 313.664 231.536C314.35 232.351 314.692 233.517 314.692 235.034V235.711H308.25C308.273 236.648 308.546 237.407 309.067 237.987C309.595 238.562 310.263 238.849 311.071 238.849C311.646 238.849 312.132 238.731 312.53 238.497C312.929 238.263 313.277 237.952 313.576 237.565L314.569 238.339C313.772 239.563 312.577 240.176 310.983 240.176ZM310.781 231.65C310.125 231.65 309.574 231.891 309.129 232.371C308.684 232.846 308.408 233.514 308.303 234.375H313.066V234.252C313.02 233.426 312.797 232.787 312.398 232.336C312 231.879 311.461 231.65 310.781 231.65ZM324.009 235.948H322.822V240H321.188V230.49H322.822V234.516H323.886L327.085 230.49H329.054L325.292 235.061L329.37 240H327.305L324.009 235.948ZM333.879 237.618L336.094 230.49H337.834L334.011 241.468C333.419 243.05 332.479 243.841 331.189 243.841L330.882 243.814L330.275 243.7V242.382L330.715 242.417C331.266 242.417 331.693 242.306 331.998 242.083C332.309 241.86 332.563 241.453 332.763 240.861L333.123 239.895L329.73 230.49H331.506L333.879 237.618ZM347.326 235.351C347.326 236.798 346.995 237.964 346.333 238.849C345.671 239.733 344.774 240.176 343.644 240.176C342.489 240.176 341.581 239.81 340.919 239.077V243.656H339.293V230.49H340.778L340.857 231.545C341.52 230.725 342.439 230.314 343.617 230.314C344.76 230.314 345.662 230.745 346.324 231.606C346.992 232.468 347.326 233.666 347.326 235.201V235.351ZM345.7 235.166C345.7 234.094 345.472 233.247 345.015 232.626C344.558 232.005 343.931 231.694 343.134 231.694C342.149 231.694 341.411 232.131 340.919 233.004V237.548C341.405 238.415 342.149 238.849 343.151 238.849C343.931 238.849 344.549 238.541 345.006 237.926C345.469 237.305 345.7 236.385 345.7 235.166ZM351.176 233.769H353.646C354.724 233.78 355.576 234.062 356.203 234.612C356.83 235.163 357.144 235.91 357.144 236.854C357.144 237.803 356.821 238.564 356.177 239.139C355.532 239.713 354.665 240 353.575 240H349.55V230.49H351.176V233.769ZM351.176 235.096V238.673H353.593C354.202 238.673 354.674 238.518 355.008 238.207C355.342 237.891 355.509 237.46 355.509 236.915C355.509 236.388 355.345 235.957 355.017 235.623C354.694 235.283 354.24 235.107 353.654 235.096H351.176ZM363.12 240.176C361.831 240.176 360.782 239.754 359.974 238.91C359.165 238.061 358.761 236.927 358.761 235.509V235.21C358.761 234.267 358.939 233.426 359.297 232.688C359.66 231.943 360.164 231.363 360.809 230.947C361.459 230.525 362.162 230.314 362.918 230.314C364.154 230.314 365.115 230.722 365.801 231.536C366.486 232.351 366.829 233.517 366.829 235.034V235.711H360.387C360.41 236.648 360.683 237.407 361.204 237.987C361.731 238.562 362.399 238.849 363.208 238.849C363.782 238.849 364.269 238.731 364.667 238.497C365.065 238.263 365.414 237.952 365.713 237.565L366.706 238.339C365.909 239.563 364.714 240.176 363.12 240.176ZM362.918 231.65C362.262 231.65 361.711 231.891 361.266 232.371C360.82 232.846 360.545 233.514 360.439 234.375H365.203V234.252C365.156 233.426 364.934 232.787 364.535 232.336C364.137 231.879 363.598 231.65 362.918 231.65ZM376.752 235.351C376.752 236.798 376.421 237.964 375.759 238.849C375.097 239.733 374.2 240.176 373.069 240.176C371.915 240.176 371.007 239.81 370.345 239.077V243.656H368.719V230.49H370.204L370.283 231.545C370.945 230.725 371.865 230.314 373.043 230.314C374.186 230.314 375.088 230.745 375.75 231.606C376.418 232.468 376.752 233.666 376.752 235.201V235.351ZM375.126 235.166C375.126 234.094 374.897 233.247 374.44 232.626C373.983 232.005 373.356 231.694 372.56 231.694C371.575 231.694 370.837 232.131 370.345 233.004V237.548C370.831 238.415 371.575 238.849 372.577 238.849C373.356 238.849 373.975 238.541 374.432 237.926C374.895 237.305 375.126 236.385 375.126 235.166ZM384.697 240C384.604 239.812 384.527 239.479 384.469 238.998C383.713 239.783 382.811 240.176 381.762 240.176C380.824 240.176 380.054 239.912 379.45 239.385C378.853 238.852 378.554 238.178 378.554 237.363C378.554 236.373 378.929 235.605 379.679 235.061C380.435 234.51 381.495 234.234 382.86 234.234H384.442V233.487C384.442 232.919 384.272 232.468 383.933 232.134C383.593 231.794 383.092 231.624 382.43 231.624C381.85 231.624 381.363 231.771 380.971 232.063C380.578 232.356 380.382 232.711 380.382 233.127H378.747C378.747 232.652 378.914 232.195 379.248 231.756C379.588 231.311 380.045 230.959 380.619 230.701C381.199 230.443 381.835 230.314 382.526 230.314C383.622 230.314 384.48 230.59 385.102 231.141C385.723 231.686 386.045 232.438 386.068 233.399V237.776C386.068 238.649 386.18 239.344 386.402 239.859V240H384.697ZM381.999 238.761C382.509 238.761 382.992 238.629 383.449 238.365C383.906 238.102 384.237 237.759 384.442 237.337V235.386H383.168C381.176 235.386 380.18 235.969 380.18 237.135C380.18 237.645 380.35 238.043 380.689 238.33C381.029 238.617 381.466 238.761 381.999 238.761ZM397.819 233.294C397.819 232.96 397.708 232.702 397.485 232.521C397.269 232.333 396.958 232.239 396.554 232.239C396.138 232.239 395.798 232.327 395.534 232.503C395.276 232.673 395.147 232.916 395.147 233.232H392.607C392.607 232.371 392.965 231.671 393.68 231.132C394.395 230.593 395.309 230.323 396.422 230.323C397.646 230.323 398.607 230.563 399.305 231.044C400.008 231.524 400.359 232.207 400.359 233.092C400.359 233.514 400.23 233.903 399.973 234.261C399.721 234.612 399.363 234.894 398.9 235.104C399.984 235.485 400.526 236.221 400.526 237.311C400.526 238.184 400.151 238.881 399.401 239.402C398.657 239.918 397.664 240.176 396.422 240.176C395.268 240.176 394.318 239.906 393.574 239.367C392.83 238.828 392.458 238.102 392.458 237.188H394.998C394.998 237.51 395.142 237.771 395.429 237.97C395.716 238.169 396.091 238.269 396.554 238.269C397.005 238.269 397.356 238.163 397.608 237.952C397.86 237.741 397.986 237.466 397.986 237.126C397.986 236.71 397.866 236.414 397.626 236.238C397.386 236.057 397.025 235.966 396.545 235.966H395.165V234.313H396.633C397.424 234.29 397.819 233.95 397.819 233.294ZM402.205 237.952C402.779 237.343 403.169 236.739 403.374 236.142C403.579 235.544 403.693 234.697 403.717 233.602L403.787 230.49H410.783V237.952H412.154V242.856H409.614V240H403.98V242.856H401.388V237.952H402.205ZM405.202 237.952H408.252V232.591H406.274L406.257 233.733C406.204 235.479 405.853 236.886 405.202 237.952ZM417.823 240.176C416.429 240.176 415.292 239.748 414.413 238.893C413.54 238.037 413.104 236.897 413.104 235.474V235.228C413.104 234.272 413.288 233.42 413.657 232.67C414.026 231.914 414.548 231.334 415.222 230.93C415.901 230.52 416.675 230.314 417.542 230.314C418.843 230.314 419.865 230.725 420.609 231.545C421.359 232.365 421.734 233.528 421.734 235.034V236.071H415.679C415.761 236.692 416.007 237.19 416.417 237.565C416.833 237.94 417.357 238.128 417.99 238.128C418.969 238.128 419.733 237.773 420.284 237.064L421.532 238.462C421.151 239.001 420.636 239.423 419.985 239.728C419.335 240.026 418.614 240.176 417.823 240.176ZM417.533 232.371C417.029 232.371 416.619 232.541 416.303 232.881C415.992 233.221 415.793 233.707 415.705 234.34H419.238V234.138C419.227 233.575 419.074 233.142 418.781 232.837C418.488 232.526 418.072 232.371 417.533 232.371ZM427.14 238.128C427.608 238.128 427.989 237.999 428.282 237.741C428.575 237.483 428.728 237.141 428.739 236.713H431.121C431.115 237.357 430.939 237.949 430.594 238.488C430.248 239.021 429.773 239.438 429.17 239.736C428.572 240.029 427.91 240.176 427.184 240.176C425.824 240.176 424.752 239.745 423.967 238.884C423.182 238.017 422.789 236.821 422.789 235.298V235.131C422.789 233.666 423.179 232.497 423.958 231.624C424.737 230.751 425.807 230.314 427.166 230.314C428.355 230.314 429.308 230.654 430.022 231.334C430.743 232.008 431.109 232.907 431.121 234.032H428.739C428.728 233.54 428.575 233.142 428.282 232.837C427.989 232.526 427.603 232.371 427.122 232.371C426.53 232.371 426.082 232.588 425.777 233.021C425.479 233.449 425.329 234.146 425.329 235.113V235.377C425.329 236.355 425.479 237.059 425.777 237.486C426.076 237.914 426.53 238.128 427.14 238.128ZM435.287 233.276H437.106C437.927 233.276 438.647 233.414 439.269 233.689C439.89 233.965 440.364 234.36 440.692 234.876C441.026 235.386 441.193 235.98 441.193 236.66C441.193 237.662 440.821 238.471 440.077 239.086C439.339 239.695 438.331 240 437.054 240H432.738V230.49H435.287V233.276ZM435.287 235.315V237.97H437.089C437.593 237.97 437.979 237.853 438.249 237.618C438.519 237.384 438.653 237.064 438.653 236.66C438.653 236.25 438.521 235.925 438.258 235.685C437.994 235.438 437.604 235.315 437.089 235.315H435.287ZM442.916 239.147C442.916 238.866 442.998 238.632 443.162 238.444C443.332 238.257 443.584 238.163 443.918 238.163C444.252 238.163 444.504 238.257 444.674 238.444C444.85 238.632 444.938 238.866 444.938 239.147C444.938 239.417 444.85 239.643 444.674 239.824C444.504 240.006 444.252 240.097 443.918 240.097C443.584 240.097 443.332 240.006 443.162 239.824C442.998 239.643 442.916 239.417 442.916 239.147Z" fill="#292929"/>
<path d="M182.923 129.888V122.599C182.923 121.307 181.876 120.26 180.584 120.26C179.292 120.26 178.245 121.307 178.245 122.599V131.955C178.245 133.247 179.292 134.294 180.584 134.294C183.594 134.294 186.042 136.743 186.042 139.752C186.042 142.762 183.594 145.21 180.584 145.21C177.575 145.21 175.126 142.762 175.126 139.752H170.448C170.448 145.342 174.995 149.889 180.584 149.889C186.173 149.889 190.721 145.342 190.721 139.752C190.72 134.968 187.389 130.947 182.923 129.888Z" fill="#D9DADE"/>
<path d="M187.601 124.938H172.007V118.7L168.888 112.462H190.72L187.601 118.7V124.938Z" fill="#F38F6D"/>
<path d="M173.567 112.462H168.888L172.007 118.7V124.938H176.685V118.7L173.567 112.462Z" fill="#F1825A"/>
<path d="M206.314 156.126H153.293V209.147H206.314V156.126Z" fill="#FFF8BB"/>
<path d="M157.972 156.126H153.293V209.147H157.972V156.126Z" fill="#FFD653"/>
<path d="M175.126 167.043L179.804 165.483L184.482 167.043V156.127H175.126V167.043Z" fill="#EBB645"/>
<path d="M178.244 181.077H153.293V187.315H178.244V181.077Z" fill="#F6F6F7"/>
<path d="M157.972 181.077H153.293V187.315H157.972V181.077Z" fill="#D9DADE"/>
<path d="M179.804 120.162C180.611 120.162 181.266 119.508 181.266 118.7C181.266 117.893 180.611 117.238 179.804 117.238C178.996 117.238 178.342 117.893 178.342 118.7C178.342 119.508 178.996 120.162 179.804 120.162Z" fill="black"/>
<path d="M206.315 168.7C207.122 168.7 207.777 168.045 207.777 167.238V156.127C207.777 155.616 207.496 155.126 207.056 154.867L190.774 145.289C191.672 143.643 192.183 141.756 192.183 139.753C192.183 134.747 189.03 130.394 184.385 128.793V126.4H187.602C188.409 126.4 189.064 125.745 189.064 124.938V119.045L192.028 113.116C192.39 112.394 192.097 111.516 191.374 111.155C190.652 110.793 189.774 111.086 189.413 111.809L186.294 118.046C186.193 118.249 186.14 118.473 186.14 118.7V123.476H173.469V118.7C173.469 118.473 173.416 118.249 173.315 118.046L170.196 111.809C169.835 111.086 168.957 110.794 168.234 111.155C167.512 111.516 167.22 112.394 167.581 113.116L170.545 119.045V124.938C170.545 125.745 171.2 126.4 172.007 126.4H176.783V131.955C176.783 134.051 178.488 135.756 180.584 135.756C182.788 135.756 184.58 137.549 184.58 139.753C184.58 140.351 184.444 140.917 184.208 141.426L180.546 139.272C180.088 139.003 179.52 139.003 179.063 139.272L176.697 140.664C176.628 140.371 176.588 140.067 176.588 139.753C176.588 138.945 175.933 138.29 175.126 138.29H170.448C169.64 138.29 168.986 138.945 168.986 139.753C168.986 141.474 169.366 143.108 170.042 144.579L152.553 154.866C152.112 155.125 151.832 155.615 151.832 156.126V209.147C151.832 209.954 152.487 210.609 153.294 210.609H206.315C207.122 210.609 207.777 209.954 207.777 209.147V174.06C207.777 173.253 207.122 172.598 206.315 172.598C205.507 172.598 204.853 173.253 204.853 174.06V207.685H195.301V201.761L197.484 203.943C198.079 204.538 199.082 204.498 199.629 203.859C200.119 203.287 200.084 202.408 199.551 201.876L194.873 197.197C194.302 196.626 193.376 196.626 192.805 197.197L188.127 201.876C187.556 202.447 187.556 203.372 188.127 203.943C188.698 204.514 189.624 204.514 190.194 203.943L192.377 201.761V207.685H181.266V201.761L183.449 203.943C184.044 204.538 185.047 204.498 185.594 203.859C186.084 203.287 186.049 202.408 185.516 201.876L180.838 197.197C180.267 196.626 179.341 196.626 178.77 197.197L174.092 201.876C173.521 202.447 173.521 203.372 174.092 203.943C174.663 204.514 175.589 204.514 176.16 203.943L178.342 201.761V207.685H167.231V201.761L169.414 203.943C170.009 204.538 171.012 204.498 171.559 203.859C172.049 203.287 172.014 202.408 171.482 201.876L166.803 197.197C166.232 196.626 165.307 196.626 164.736 197.197L160.057 201.876C159.486 202.447 159.486 203.372 160.057 203.943C160.628 204.514 161.554 204.514 162.125 203.943L164.308 201.761V207.685H154.756V188.777H178.245C179.052 188.777 179.707 188.122 179.707 187.315V181.077C179.707 180.27 179.052 179.615 178.245 179.615H154.756V176.301H170.448C171.255 176.301 171.91 175.647 171.91 174.839C171.91 174.032 171.255 173.377 170.448 173.377H154.756V157.588H173.664V167.042C173.664 168.023 174.656 168.739 175.588 168.429L179.804 167.024L184.02 168.429C184.952 168.74 185.944 168.022 185.944 167.042V157.588H204.853V167.237C204.853 168.045 205.507 168.7 206.315 168.7ZM180.584 132.833C180.1 132.833 179.707 132.439 179.707 131.955V126.4H181.461V129.889C181.461 130.566 181.927 131.155 182.586 131.311C186.514 132.243 189.258 135.714 189.258 139.753C189.258 141.216 188.893 142.594 188.25 143.805L186.737 142.914C187.226 141.966 187.504 140.892 187.504 139.753C187.504 135.937 184.4 132.833 180.584 132.833ZM179.804 142.229L181.963 143.498C181.532 143.658 181.069 143.749 180.584 143.749C179.764 143.749 179.001 143.5 178.366 143.074L179.804 142.229ZM173.819 141.215C174.492 144.33 177.27 146.673 180.584 146.673C182.192 146.673 183.673 146.12 184.849 145.196L186.449 146.137C184.903 147.558 182.844 148.427 180.584 148.427C176.299 148.427 172.73 145.304 172.033 141.215H173.819V141.215ZM180.584 151.351C183.922 151.351 186.933 149.932 189.051 147.668L200.946 154.665H158.662L171.587 147.062C173.716 149.677 176.957 151.351 180.584 151.351ZM176.783 182.54V185.853H154.756V182.54H176.783ZM183.021 165.014L180.267 164.096C180.116 164.046 179.96 164.021 179.804 164.021C179.648 164.021 179.492 164.046 179.342 164.096L176.588 165.014V157.589H183.02L183.021 165.014Z" fill="black"/>
<path d="M169 112.5H190" stroke="black" stroke-width="3" stroke-linecap="round"/>
<path d="M174.5 112V52" stroke="black" stroke-width="3" stroke-linecap="round"/>
<path d="M184.5 112V52" stroke="black" stroke-width="3" stroke-linecap="round"/>
<path d="M175.126 173.378C174.319 173.378 173.664 174.033 173.664 174.84C173.664 175.647 174.319 176.302 175.126 176.302H178.245C179.052 176.302 179.707 175.647 179.707 174.84C179.707 174.033 179.052 173.378 178.245 173.378H175.126Z" fill="black"/>
<path d="M102.371 223.719H35.835V290.255H102.371V223.719Z" fill="#FFF8BB"/>
<path d="M41.7058 223.719H35.835V290.255H41.7058V223.719Z" fill="#FFD653"/>
<path d="M63.2319 237.417L69.1028 235.46L74.9736 237.417V223.719H63.2319V237.417Z" fill="#EBB645"/>
<path d="M67.146 255.03H35.835V262.858H67.146V255.03Z" fill="#F6F6F7"/>
<path d="M41.7058 255.03H35.835V262.858H41.7058V255.03Z" fill="#D9DADE"/>
<path d="M86.7153 184.58H43.6626V223.719H86.7153V184.58Z" fill="#FFF8BB"/>
<path d="M49.5334 184.58H43.6626V223.719H49.5334V184.58Z" fill="#FFD653"/>
<path d="M69.1028 184.58H61.2749V194.364H69.1028V184.58Z" fill="#F0C874"/>
<path d="M69.103 208.063H43.6626V215.891H69.103V208.063Z" fill="#F6F6F7"/>
<path d="M49.5334 208.063H43.6626V215.891H49.5334V208.063Z" fill="#D9DADE"/>
<path d="M145.424 211.977H102.371V251.116H145.424V211.977Z" fill="#FFF8BB"/>
<path d="M108.242 211.977H102.371V251.116H108.242V211.977Z" fill="#FFD653"/>
<path d="M127.811 211.977H119.983V221.762H127.811V211.977Z" fill="#F0C874"/>
<path d="M127.812 235.46H102.371V243.288H127.812V235.46Z" fill="#F6F6F7"/>
<path d="M108.242 235.46H102.371V243.288H108.242V235.46Z" fill="#D9DADE"/>
<path d="M157.165 251.116H114.112V290.255H157.165V251.116Z" fill="#FFF8BB"/>
<path d="M119.983 251.116H114.112V290.255H119.983V251.116Z" fill="#FFD653"/>
<path d="M139.553 251.116H131.725V260.901H139.553V251.116Z" fill="#F0C874"/>
<path d="M139.553 274.599H114.112V282.427H139.553V274.599Z" fill="#F6F6F7"/>
<path d="M119.983 274.599H114.112V282.427H119.983V274.599Z" fill="#D9DADE"/>
<path d="M63.2322 245.368C62.2187 245.368 61.3975 246.189 61.3975 247.202C61.3975 248.216 62.2187 249.037 63.2322 249.037H67.146C68.1594 249.037 68.9807 248.216 68.9807 247.202C68.9807 246.189 68.1594 245.368 67.146 245.368H63.2322Z" fill="black"/>
<path d="M57.3608 200.358H49.533C48.5195 200.358 47.6982 201.179 47.6982 202.193C47.6982 203.206 48.5195 204.027 49.533 204.027H57.3608C58.3743 204.027 59.1956 203.206 59.1956 202.193C59.1956 201.179 58.3743 200.358 57.3608 200.358Z" fill="black"/>
<path d="M69.103 200.358H65.1892C64.1758 200.358 63.3545 201.179 63.3545 202.193C63.3545 203.206 64.1758 204.027 65.1892 204.027H69.103C70.1165 204.027 70.9377 203.206 70.9377 202.193C70.9377 201.179 70.1165 200.358 69.103 200.358Z" fill="black"/>
<path d="M116.07 227.755H108.242C107.229 227.755 106.407 228.576 106.407 229.59C106.407 230.603 107.229 231.425 108.242 231.425H116.07C117.083 231.425 117.905 230.603 117.905 229.59C117.905 228.576 117.083 227.755 116.07 227.755Z" fill="black"/>
<path d="M127.811 227.755H123.897C122.884 227.755 122.062 228.576 122.062 229.59C122.062 230.603 122.884 231.425 123.897 231.425H127.811C128.824 231.425 129.646 230.603 129.646 229.59C129.646 228.576 128.825 227.755 127.811 227.755Z" fill="black"/>
<path d="M157.165 249.281H147.258V211.977C147.258 210.964 146.437 210.142 145.424 210.142H102.371C101.357 210.142 100.536 210.964 100.536 211.977V221.884H88.5498V184.58C88.5498 183.566 87.7285 182.745 86.7151 182.745H43.6624C42.6489 182.745 41.8276 183.566 41.8276 184.58V221.884H35.8347C34.8213 221.884 34 222.705 34 223.719V290.255C34 291.268 34.8213 292.09 35.8347 292.09H102.371C103.384 292.09 104.206 291.268 104.206 290.255V269.829C104.206 268.816 103.384 267.995 102.371 267.995C101.357 267.995 100.536 268.816 100.536 269.829V288.42H88.5498V280.986L91.2886 283.725C92.0349 284.471 93.2947 284.421 93.981 283.619C94.5957 282.901 94.5515 281.798 93.8835 281.13L88.0127 275.259C87.2959 274.543 86.1345 274.543 85.418 275.259L79.5471 281.13C78.8306 281.847 78.8306 283.008 79.5471 283.725C80.2639 284.441 81.4253 284.441 82.1418 283.725L84.8806 280.986V288.42H70.9373V280.986L73.676 283.725C74.4224 284.471 75.6821 284.421 76.3684 283.619C76.9832 282.901 76.939 281.798 76.271 281.13L70.4001 275.259C69.6833 274.543 68.522 274.543 67.8054 275.259L61.9346 281.13C61.218 281.847 61.218 283.008 61.9346 283.725C62.6514 284.441 63.8127 284.441 64.5293 283.725L67.2681 280.986V288.42H53.325V280.986L56.0637 283.725C56.8101 284.471 58.0698 284.421 58.7561 283.619C59.3708 282.901 59.3267 281.798 58.6587 281.13L52.7878 275.259C52.071 274.543 50.9097 274.543 50.1931 275.259L44.3223 281.13C43.6057 281.847 43.6057 283.008 44.3223 283.725C45.0391 284.441 46.2004 284.441 46.917 283.725L49.6558 280.986V288.42H37.6692V264.692H67.1458C68.1592 264.692 68.9805 263.871 68.9805 262.858V255.03C68.9805 254.016 68.1592 253.195 67.1458 253.195H37.6692V249.037H57.3611C58.3745 249.037 59.1958 248.215 59.1958 247.202C59.1958 246.188 58.3745 245.367 57.3611 245.367H37.6692V225.553H61.3972V237.417C61.3972 238.648 62.6426 239.547 63.812 239.158L69.1025 237.394L74.3931 239.158C75.563 239.547 76.8079 238.648 76.8079 237.417V225.553H100.536V261.146C100.536 262.159 101.357 262.98 102.371 262.98C103.384 262.98 104.205 262.159 104.205 261.146V252.951H112.278V290.255C112.278 291.268 113.099 292.09 114.113 292.09H157.165C158.179 292.09 159 291.268 159 290.255V251.116C159 250.103 158.179 249.281 157.165 249.281ZM65.311 256.865V261.023H37.6692V256.865H65.311ZM67.2681 186.415V192.53H63.1096V186.415H67.2681ZM45.4971 209.898H67.2681V214.056H45.4971V209.898ZM73.1389 234.872L69.6829 233.72C69.3083 233.595 68.897 233.595 68.5225 233.72L65.0664 234.872V225.553H73.1389V234.872ZM45.4971 221.884V217.726H69.1028C70.1162 217.726 70.9375 216.905 70.9375 215.891V208.063C70.9375 207.05 70.1162 206.229 69.1028 206.229H45.4971V186.415H59.4404V194.365C59.4404 195.378 60.2617 196.199 61.2751 196.199H69.103C70.1165 196.199 70.9377 195.378 70.9377 194.365V186.415H84.8811V221.884H45.4971ZM125.977 213.812V219.927H121.818V213.812H125.977ZM104.206 237.295H125.977V241.454H104.206V237.295ZM104.206 245.123H127.811C128.825 245.123 129.646 244.302 129.646 243.288V235.46C129.646 234.447 128.825 233.626 127.811 233.626H104.206V213.812H118.149V221.762C118.149 222.775 118.97 223.596 119.984 223.596H127.812C128.825 223.596 129.646 222.775 129.646 221.762V213.812H143.59V249.281H104.206V245.123ZM133.56 252.951H137.718V259.066H133.56V252.951ZM115.947 276.434H137.718V280.593H115.947V276.434ZM155.331 288.42H115.947V284.262H139.553C140.566 284.262 141.388 283.441 141.388 282.427V274.599C141.388 273.586 140.566 272.765 139.553 272.765H115.947V252.95H129.891V260.901C129.891 261.914 130.712 262.735 131.725 262.735H139.553C140.567 262.735 141.388 261.914 141.388 260.901V252.95H155.331V288.42H155.331Z" fill="black"/>
<path d="M127.811 266.894H119.983C118.97 266.894 118.148 267.716 118.148 268.729C118.148 269.742 118.97 270.564 119.983 270.564H127.811C128.824 270.564 129.646 269.742 129.646 268.729C129.646 267.716 128.825 266.894 127.811 266.894Z" fill="black"/>
<path d="M139.553 266.894H135.639C134.625 266.894 133.804 267.716 133.804 268.729C133.804 269.742 134.625 270.564 135.639 270.564H139.553C140.566 270.564 141.387 269.742 141.387 268.729C141.387 267.716 140.566 266.894 139.553 266.894Z" fill="black"/>
</svg>
