<svg width="18" height="17" viewBox="0 0 18 17" fill="none" xmlns="http://www.w3.org/2000/svg">
<path d="M8.92319 13.5385C8.92319 12.179 7.82112 11.0769 6.46165 11.0769C5.10218 11.0769 4.00011 12.179 4.00011 13.5385M8.92319 13.5385C8.92319 14.8979 7.82112 16 6.46165 16C5.10218 16 4.00011 14.8979 4.00011 13.5385M8.92319 13.5385L16.3078 13.5385M4.00011 13.5385L1.53857 13.5385M13.8463 3.69231C13.8463 2.33284 12.7442 1.23077 11.3847 1.23077C10.0253 1.23077 8.92319 2.33284 8.92319 3.69231M13.8463 3.69231C13.8463 5.05178 12.7442 6.15385 11.3847 6.15385C10.0253 6.15385 8.92319 5.05178 8.92319 3.69231M13.8463 3.69231L16.3078 3.69231M8.92319 3.69231L1.53857 3.69231" stroke="#293644" stroke-width="1.84615" stroke-linecap="round"/>
</svg>
