<svg width="30" height="30" viewBox="0 0 30 30" fill="none" xmlns="http://www.w3.org/2000/svg">
<path fill-rule="evenodd" clip-rule="evenodd" d="M3.75 3.88889C3.75 3.19853 4.30964 2.63889 5 2.63889H5.45049C7.23804 2.63889 8.7771 3.90061 9.12767 5.65345L9.27475 6.38889L24.3695 8.61111C25.5763 8.61111 26.4689 9.73457 26.196 10.9101L24.5672 16.8153C24.3042 17.9481 23.2949 18.75 22.1319 18.75L11.0248 19.8611C9.83305 19.8611 8.80701 19.02 8.5733 17.8514L6.67622 6.14374C6.55936 5.55946 6.04634 5.13889 5.45049 5.13889H5C4.30964 5.13889 3.75 4.57924 3.75 3.88889ZM11.25 26.25C12.6307 26.25 13.75 25.1307 13.75 23.75C13.75 22.3693 12.6307 21.25 11.25 21.25C9.86929 21.25 8.75 22.3693 8.75 23.75C8.75 25.1307 9.86929 26.25 11.25 26.25ZM21.25 26.25C22.6307 26.25 23.75 25.1307 23.75 23.75C23.75 22.3693 22.6307 21.25 21.25 21.25C19.8693 21.25 18.75 22.3693 18.75 23.75C18.75 25.1307 19.8693 26.25 21.25 26.25Z" fill="#1890FF"/>
</svg>
