<svg width="320" height="145" viewBox="0 0 320 145" fill="none" xmlns="http://www.w3.org/2000/svg">
<path d="M144.488 109.308V86.5944H153.871C155.571 86.5944 157.039 86.9012 158.274 87.5149C159.516 88.1212 160.473 88.9936 161.146 90.1323C161.819 91.2635 162.155 92.6054 162.155 94.1581C162.155 95.7329 161.811 97.0712 161.124 98.1728C160.436 99.2671 159.46 100.103 158.196 100.679C156.932 101.249 155.434 101.533 153.704 101.533H147.771V97.208H152.684C153.512 97.208 154.203 97.1008 154.758 96.8863C155.32 96.6645 155.745 96.3318 156.033 95.8882C156.322 95.4372 156.466 94.8605 156.466 94.1581C156.466 93.4557 156.322 92.8753 156.033 92.4169C155.745 91.9511 155.32 91.6036 154.758 91.3744C154.196 91.1378 153.505 91.0195 152.684 91.0195H149.978V109.308H144.488ZM157.275 98.927L162.932 109.308H156.943L151.397 98.927H157.275ZM165.166 109.308V86.5944H181.003V91.0528H170.656V95.7108H180.194V100.18H170.656V104.849H181.003V109.308H165.166ZM183.698 91.0528V86.5944H202.896V91.0528H196.009V109.308H190.597V91.0528H183.698ZM207.654 109.308H201.754L209.417 86.5944H216.726L224.389 109.308H218.489L213.155 92.3171H212.977L207.654 109.308ZM206.866 100.369H219.199V104.539H206.866V100.369ZM232.325 86.5944V109.308H226.835V86.5944H232.325ZM235.771 109.308V86.5944H241.261V104.849H250.71V109.308H235.771Z" fill="white"/>
<path d="M253.552 109.308V86.5944H263.023C264.724 86.5944 266.147 86.8347 267.293 87.3153C268.446 87.7959 269.311 88.4687 269.888 89.3337C270.472 90.1988 270.764 91.2006 270.764 92.3393C270.764 93.2043 270.583 93.9769 270.221 94.6572C269.858 95.33 269.359 95.8882 268.724 96.3318C268.088 96.7754 267.352 97.086 266.517 97.2634V97.4852C267.433 97.5296 268.28 97.7773 269.056 98.2283C269.84 98.6793 270.468 99.3078 270.942 100.114C271.415 100.912 271.651 101.859 271.651 102.953C271.651 104.173 271.341 105.263 270.72 106.225C270.099 107.178 269.2 107.932 268.025 108.487C266.849 109.034 265.422 109.308 263.744 109.308H253.552ZM259.042 104.883H262.435C263.626 104.883 264.502 104.657 265.064 104.206C265.633 103.755 265.918 103.127 265.918 102.321C265.918 101.737 265.781 101.234 265.507 100.812C265.234 100.384 264.846 100.055 264.343 99.8253C263.84 99.5887 263.237 99.4704 262.535 99.4704H259.042V104.883ZM259.042 95.9326H262.08C262.679 95.9326 263.212 95.8328 263.677 95.6331C264.143 95.4335 264.505 95.1451 264.764 94.7681C265.03 94.391 265.163 93.9363 265.163 93.4039C265.163 92.6424 264.894 92.0435 264.354 91.6073C263.814 91.1711 263.086 90.9529 262.169 90.9529H259.042V95.9326ZM295.729 97.951C295.729 100.45 295.248 102.568 294.287 104.306C293.326 106.043 292.025 107.363 290.383 108.265C288.749 109.167 286.916 109.618 284.882 109.618C282.842 109.618 281.004 109.164 279.37 108.254C277.736 107.345 276.439 106.025 275.478 104.295C274.524 102.557 274.047 100.443 274.047 97.951C274.047 95.452 274.524 93.3337 275.478 91.5962C276.439 89.8587 277.736 88.5389 279.37 87.6369C281.004 86.7349 282.842 86.2839 284.882 86.2839C286.916 86.2839 288.749 86.7349 290.383 87.6369C292.025 88.5389 293.326 89.8587 294.287 91.5962C295.248 93.3337 295.729 95.452 295.729 97.951ZM290.117 97.951C290.117 96.4723 289.906 95.2228 289.485 94.2025C289.071 93.1821 288.472 92.4095 287.688 91.8845C286.912 91.3596 285.977 91.0971 284.882 91.0971C283.795 91.0971 282.86 91.3596 282.076 91.8845C281.293 92.4095 280.69 93.1821 280.269 94.2025C279.855 95.2228 279.648 96.4723 279.648 97.951C279.648 99.4298 279.855 100.679 280.269 101.7C280.69 102.72 281.293 103.493 282.076 104.018C282.86 104.542 283.795 104.805 284.882 104.805C285.977 104.805 286.912 104.542 287.688 104.018C288.472 103.493 289.071 102.72 289.485 101.7C289.906 100.679 290.117 99.4298 290.117 97.951ZM303.209 86.5944L307.357 93.7699H307.535L311.727 86.5944H317.871L311.017 97.951L318.093 109.308H311.793L307.535 102.055H307.357L303.098 109.308H296.843L303.886 97.951L297.021 86.5944H303.209Z" fill="#020202"/>
<rect x="142.769" y="26.7692" width="82.5385" height="44.6154" rx="6.69231" fill="white"/>
<path d="M155.642 60.2308V37.5175H165.113C166.814 37.5175 168.237 37.7578 169.383 38.2384C170.536 38.719 171.401 39.3918 171.978 40.2568C172.562 41.1219 172.854 42.1237 172.854 43.2624C172.854 44.1274 172.673 44.9 172.311 45.5803C171.949 46.2531 171.449 46.8113 170.814 47.2549C170.178 47.6985 169.442 48.0091 168.607 48.1865V48.4083C169.523 48.4527 170.37 48.7004 171.146 49.1514C171.93 49.6024 172.559 50.2309 173.032 51.0368C173.505 51.8353 173.742 52.7817 173.742 53.8759C173.742 55.0959 173.431 56.1864 172.81 57.1476C172.189 58.1014 171.291 58.8556 170.115 59.4101C168.939 59.9572 167.512 60.2308 165.834 60.2308H155.642ZM161.132 55.8057H164.525C165.716 55.8057 166.592 55.5802 167.154 55.1292C167.723 54.6781 168.008 54.0497 168.008 53.2438C168.008 52.6597 167.871 52.1569 167.597 51.7355C167.324 51.3066 166.936 50.9776 166.433 50.7484C165.93 50.5118 165.328 50.3935 164.625 50.3935H161.132V55.8057ZM161.132 46.8557H164.17C164.769 46.8557 165.302 46.7559 165.767 46.5562C166.233 46.3566 166.596 46.0682 166.854 45.6912C167.121 45.3141 167.254 44.8594 167.254 44.327C167.254 43.5655 166.984 42.9666 166.444 42.5304C165.904 42.0942 165.176 41.876 164.259 41.876H161.132V46.8557ZM176.337 60.2308V56.2826L184.621 49.0294C185.242 48.4675 185.771 47.9536 186.207 47.4878C186.643 47.0146 186.976 46.5414 187.205 46.0682C187.435 45.5877 187.549 45.0664 187.549 44.5045C187.549 43.876 187.412 43.34 187.139 42.8964C186.865 42.4454 186.488 42.0979 186.008 41.8539C185.527 41.6099 184.976 41.4879 184.355 41.4879C183.727 41.4879 183.176 41.6173 182.703 41.876C182.229 42.1274 181.86 42.4934 181.594 42.974C181.335 43.4546 181.205 44.0387 181.205 44.7263H176.004C176.004 43.181 176.351 41.8465 177.046 40.7226C177.741 39.5988 178.717 38.7337 179.974 38.1275C181.239 37.5138 182.706 37.207 184.377 37.207C186.1 37.207 187.597 37.4953 188.869 38.072C190.141 38.6487 191.124 39.4546 191.819 40.4897C192.521 41.5175 192.873 42.7115 192.873 44.072C192.873 44.937 192.699 45.7947 192.351 46.6449C192.004 47.4952 191.379 48.4342 190.477 49.4619C189.582 50.4896 188.311 51.7207 186.662 53.1551L183.945 55.6615V55.8057H193.15V60.2308H176.337ZM196.297 60.2308V37.5175H205.768C207.469 37.5175 208.892 37.7578 210.038 38.2384C211.191 38.719 212.056 39.3918 212.633 40.2568C213.217 41.1219 213.509 42.1237 213.509 43.2624C213.509 44.1274 213.328 44.9 212.966 45.5803C212.603 46.2531 212.104 46.8113 211.469 47.2549C210.833 47.6985 210.097 48.0091 209.262 48.1865V48.4083C210.178 48.4527 211.025 48.7004 211.801 49.1514C212.585 49.6024 213.213 50.2309 213.687 51.0368C214.16 51.8353 214.396 52.7817 214.396 53.8759C214.396 55.0959 214.086 56.1864 213.465 57.1476C212.844 58.1014 211.945 58.8556 210.77 59.4101C209.594 59.9572 208.167 60.2308 206.489 60.2308H196.297ZM201.787 55.8057H205.18C206.371 55.8057 207.247 55.5802 207.809 55.1292C208.378 54.6781 208.663 54.0497 208.663 53.2438C208.663 52.6597 208.526 52.1569 208.252 51.7355C207.979 51.3066 207.591 50.9776 207.088 50.7484C206.585 50.5118 205.982 50.3935 205.28 50.3935H201.787V55.8057ZM201.787 46.8557H204.825C205.424 46.8557 205.957 46.7559 206.422 46.5562C206.888 46.3566 207.25 46.0682 207.509 45.6912C207.775 45.3141 207.908 44.8594 207.908 44.327C207.908 43.5655 207.639 42.9666 207.099 42.5304C206.559 42.0942 205.831 41.876 204.914 41.876H201.787V46.8557Z" fill="#1890FF"/>
<path d="M0 53.589C0 48.5251 5.40651 45.2958 9.86513 47.6966L54.4805 71.7203C56.6482 72.8875 58 75.1507 58 77.6127V133.413C58 138.564 52.4249 141.784 47.9634 139.21L3.34801 113.47C1.27636 112.275 0 110.065 0 107.673V53.589Z" fill="white"/>
<path opacity="0.5" d="M124.923 53.589C124.923 48.5251 119.516 45.2958 115.058 47.6966L70.4423 71.7203C68.2746 72.8875 66.9229 75.1507 66.9229 77.6127V133.413C66.9229 138.564 72.4979 141.784 76.9595 139.21L121.575 113.47C123.646 112.275 124.923 110.065 124.923 107.673V53.589Z" fill="white"/>
<path opacity="0.5" d="M65.7117 1.80559C63.6905 0.682689 61.2328 0.682691 59.2115 1.8056L12.7611 27.6114C8.17143 30.1612 8.17143 36.7619 12.7611 39.3117L59.2115 65.1175C61.2328 66.2404 63.6905 66.2404 65.7117 65.1175L112.162 39.3117C116.752 36.7619 116.752 30.1612 112.162 27.6114L65.7117 1.80559Z" fill="white"/>
</svg>
