<svg width="24" height="24" viewBox="0 0 24 24" fill="none" xmlns="http://www.w3.org/2000/svg">
<path d="M5.45455 8.29763V18.506C5.45455 19.4316 6.18717 20.182 7.09091 20.182H9.54545M5.45455 8.29763L3 10.126M5.45455 8.29763L11.0375 4.13892C11.6113 3.71151 12.3887 3.71151 12.9625 4.13892L18.5455 8.29763M18.5455 8.29763V18.506C18.5455 19.4316 17.8128 20.182 16.9091 20.182H14.4545M18.5455 8.29763L21 10.126M9.54545 20.182V14.316C9.54545 13.3904 10.2781 12.64 11.1818 12.64H12.8182C13.7219 12.64 14.4545 13.3904 14.4545 14.316V20.182M9.54545 20.182H14.4545" stroke="#FAA500" stroke-width="1.22727" stroke-linecap="round"/>
</svg>
