<svg width="37" height="35" viewBox="0 0 37 35" fill="none" xmlns="http://www.w3.org/2000/svg">
<g clip-path="url(#clip0_873_2663)">
<path d="M11.9935 22.1098H11.9952C11.9965 22.1098 11.9979 22.1096 11.9992 22.1096H30.8188C31.2822 22.1096 31.6895 21.8147 31.8168 21.3873L35.9689 7.446C36.0584 7.14544 35.9957 6.82232 35.7997 6.57285C35.6034 6.32338 35.2966 6.1766 34.9709 6.1766H9.59963L8.85761 2.97315C8.75192 2.51752 8.33077 2.19336 7.8442 2.19336H1.61614C1.0428 2.19336 0.578125 2.63914 0.578125 3.18917C0.578125 3.7392 1.0428 4.18498 1.61614 4.18498H7.01163C7.143 4.75264 10.5625 19.515 10.7593 20.3643C9.65612 20.8243 8.88221 21.8795 8.88221 23.1054C8.88221 24.7526 10.2792 26.0928 11.9962 26.0928H30.8188C31.3922 26.0928 31.8569 25.647 31.8569 25.097C31.8569 24.547 31.3922 24.1012 30.8188 24.1012H11.9962C11.424 24.1012 10.9582 23.6544 10.9582 23.1054C10.9582 22.5572 11.4224 22.1111 11.9935 22.1098V22.1098ZM33.5947 8.16822L30.0357 20.1179H12.8288L10.0608 8.16822H33.5947Z" fill="#FF3139"/>
<path d="M10.959 29.0792C10.959 30.7265 12.356 32.0667 14.073 32.0667C15.7901 32.0667 17.187 30.7265 17.187 29.0792C17.187 27.432 15.7901 26.0918 14.073 26.0918C12.356 26.0918 10.959 27.432 10.959 29.0792ZM14.073 28.0834C14.6453 28.0834 15.111 28.5302 15.111 29.0792C15.111 29.6282 14.6453 30.075 14.073 30.075C13.5008 30.075 13.035 29.6282 13.035 29.0792C13.035 28.5302 13.5008 28.0834 14.073 28.0834Z" fill="#FF3139"/>
<path d="M25.6289 29.0792C25.6289 30.7265 27.0259 32.0667 28.7429 32.0667C30.46 32.0667 31.857 30.7265 31.857 29.0792C31.857 27.432 30.46 26.0918 28.7429 26.0918C27.0259 26.0918 25.6289 27.432 25.6289 29.0792ZM28.7429 28.0834C29.3152 28.0834 29.7809 28.5302 29.7809 29.0792C29.7809 29.6282 29.3152 30.075 28.7429 30.075C28.1707 30.075 27.7049 29.6282 27.7049 29.0792C27.7049 28.5302 28.1707 28.0834 28.7429 28.0834Z" fill="#FF3139"/>
</g>
<defs>
<clipPath id="clip0_873_2663">
<rect width="35.4308" height="33.9903" fill="white" transform="translate(0.578125 0.134766)"/>
</clipPath>
</defs>
</svg>
