<svg width="30" height="23" viewBox="0 0 30 23" fill="none" xmlns="http://www.w3.org/2000/svg">
<path fill-rule="evenodd" clip-rule="evenodd" d="M0.753906 1.93655C0.753906 1.32115 1.25279 0.822266 1.86819 0.822266L28.1882 0.822268C28.8036 0.822268 29.3025 1.32115 29.3025 1.93655C29.3025 2.55196 28.8036 3.05084 28.1882 3.05084L1.86819 3.05084C1.25279 3.05084 0.753906 2.55195 0.753906 1.93655ZM0.753906 11.6475C0.753906 11.0321 1.25279 10.5332 1.86819 10.5332L28.1882 10.5332C28.8036 10.5332 29.3025 11.0321 29.3025 11.6475C29.3025 12.2629 28.8036 12.7618 28.1882 12.7618L1.86819 12.7618C1.25279 12.7618 0.753906 12.2629 0.753906 11.6475ZM1.86819 20.2441C1.25279 20.2441 0.753906 20.743 0.753906 21.3584C0.753906 21.9738 1.25279 22.4727 1.86819 22.4727L28.1882 22.4727C28.8036 22.4727 29.3025 21.9738 29.3025 21.3584C29.3025 20.743 28.8036 20.2441 28.1882 20.2441L1.86819 20.2441Z" fill="#171717"/>
</svg>
