<svg width="16" height="16" viewBox="0 0 16 16" fill="none" xmlns="http://www.w3.org/2000/svg">
<g clip-path="url(#clip0_7894_10110)">
<path d="M8.54852 0.666748C8.54852 0.307763 8.2575 0.0167481 7.89852 0.0167481C7.53953 0.0167481 7.24852 0.307763 7.24852 0.666748H8.54852ZM7.24852 2.00008C7.24852 2.35907 7.53953 2.65008 7.89852 2.65008C8.2575 2.65008 8.54852 2.35907 8.54852 2.00008H7.24852ZM7.24852 15.3334C7.24852 15.6924 7.53953 15.9834 7.89852 15.9834C8.2575 15.9834 8.54852 15.6924 8.54852 15.3334H7.24852ZM8.54852 14.0001C8.54852 13.6411 8.2575 13.3501 7.89852 13.3501C7.53953 13.3501 7.24852 13.6411 7.24852 14.0001H8.54852ZM0.565186 7.35008C0.2062 7.35008 -0.0848144 7.6411 -0.0848144 8.00008C-0.0848144 8.35907 0.2062 8.65008 0.565186 8.65008V7.35008ZM1.89852 8.65008C2.2575 8.65008 2.54852 8.35907 2.54852 8.00008C2.54852 7.6411 2.2575 7.35008 1.89852 7.35008V8.65008ZM15.2319 8.65008C15.5908 8.65008 15.8819 8.35907 15.8819 8.00008C15.8819 7.6411 15.5908 7.35008 15.2319 7.35008V8.65008ZM13.8985 7.35008C13.5395 7.35008 13.2485 7.6411 13.2485 8.00008C13.2485 8.35907 13.5395 8.65008 13.8985 8.65008V7.35008ZM2.25345 12.7259C1.99961 12.9798 1.99961 13.3913 2.25345 13.6452C2.50729 13.899 2.91885 13.899 3.17269 13.6452L2.25345 12.7259ZM4.1155 12.7023C4.36934 12.4485 4.36934 12.0369 4.1155 11.7831C3.86166 11.5293 3.4501 11.5293 3.19626 11.7831L4.1155 12.7023ZM13.5436 3.27425C13.7974 3.02041 13.7974 2.60885 13.5436 2.35501C13.2897 2.10117 12.8782 2.10117 12.6244 2.35501L13.5436 3.27425ZM11.6815 3.29782C11.4277 3.55166 11.4277 3.96322 11.6815 4.21706C11.9354 4.4709 12.3469 4.4709 12.6008 4.21706L11.6815 3.29782ZM12.772 13.4973C13.0259 13.7511 13.4374 13.7511 13.6913 13.4973C13.9451 13.2435 13.9451 12.8319 13.6913 12.5781L12.772 13.4973ZM12.7485 11.6353C12.4946 11.3814 12.0831 11.3814 11.8292 11.6353C11.5754 11.8891 11.5754 12.3006 11.8292 12.5545L12.7485 11.6353ZM3.32038 2.20716C3.06654 1.95332 2.65498 1.95332 2.40114 2.20716C2.1473 2.461 2.1473 2.87256 2.40114 3.1264L3.32038 2.20716ZM3.34395 4.06921C3.59779 4.32305 4.00935 4.32305 4.26319 4.06921C4.51703 3.81537 4.51703 3.40381 4.26319 3.14997L3.34395 4.06921ZM10.5819 8.00008C10.5819 9.48205 9.38048 10.6834 7.89852 10.6834V11.9834C10.0985 11.9834 11.8819 10.2 11.8819 8.00008H10.5819ZM7.89852 10.6834C6.41655 10.6834 5.21519 9.48205 5.21519 8.00008H3.91519C3.91519 10.2 5.69858 11.9834 7.89852 11.9834V10.6834ZM5.21519 8.00008C5.21519 6.51812 6.41655 5.31675 7.89852 5.31675V4.01675C5.69858 4.01675 3.91519 5.80015 3.91519 8.00008H5.21519ZM7.89852 5.31675C9.38048 5.31675 10.5819 6.51812 10.5819 8.00008H11.8819C11.8819 5.80015 10.0985 4.01675 7.89852 4.01675V5.31675ZM7.24852 0.666748V2.00008H8.54852V0.666748H7.24852ZM8.54852 15.3334V14.0001H7.24852V15.3334H8.54852ZM0.565186 8.65008H1.89852V7.35008H0.565186V8.65008ZM15.2319 7.35008H13.8985V8.65008H15.2319V7.35008ZM3.17269 13.6452L4.1155 12.7023L3.19626 11.7831L2.25345 12.7259L3.17269 13.6452ZM12.6244 2.35501L11.6815 3.29782L12.6008 4.21706L13.5436 3.27425L12.6244 2.35501ZM13.6913 12.5781L12.7485 11.6353L11.8292 12.5545L12.772 13.4973L13.6913 12.5781ZM2.40114 3.1264L3.34395 4.06921L4.26319 3.14997L3.32038 2.20716L2.40114 3.1264Z" fill="#49565E"/>
</g>
<defs>
<clipPath id="clip0_7894_10110">
<rect width="16" height="16" fill="white"/>
</clipPath>
</defs>
</svg>
