<svg width="19" height="19" viewBox="0 0 19 19" fill="none" xmlns="http://www.w3.org/2000/svg">
<g clip-path="url(#clip0_3542_52450)">
<path d="M9.025 4.27499C5.985 -0.665007 2.37496 2.21666 0.949939 4.27499C-0.95006 7.69499 5.85827 14.5667 9.49994 17.575C18.2399 11.115 18.525 6.01657 17.575 4.2749C14.535 -0.285098 11.2417 2.37496 9.975 4.27499C9.595 5.03506 9.18333 4.59169 9.025 4.27499Z" fill="#F43249"/>
<path d="M13.8541 0.725952C12.9626 0.739818 12.0906 0.98867 11.3261 1.44738C10.5616 1.90608 9.93166 2.5584 9.49992 3.33845C9.06818 2.5584 8.43824 1.90608 7.67373 1.44738C6.90922 0.98867 6.03721 0.739818 5.14576 0.725952C3.72467 0.787695 2.38578 1.40936 1.42159 2.45514C0.457398 3.50091 -0.0537095 4.88579 -7.37126e-05 6.30721C-7.37126e-05 11.6707 8.67342 17.8655 9.04234 18.1284L9.49992 18.4522L9.9575 18.1284C10.3264 17.8671 18.9999 11.6707 18.9999 6.30721C19.0535 4.88579 18.5424 3.50091 17.5783 2.45514C16.6141 1.40936 15.2752 0.787695 13.8541 0.725952ZM9.49992 17.0208C6.92463 15.0971 1.18744 9.87921 1.18744 6.33333C1.13332 5.33165 1.70756 4.08739 2.37494 3.33845C3.04231 2.58951 4.14448 2.0404 5.14576 1.97917C6.14703 2.0404 7.24923 2.81356 7.9166 3.5625C8.58397 4.31144 9.1041 6.33333 9.49994 6.33333C9.89577 6.33333 10.4159 4.31144 11.0833 3.5625C11.7506 2.81356 12.8528 2.0404 13.8541 1.97917C14.8554 2.0404 15.9576 2.58951 16.6249 3.33845C17.2923 4.08739 17.8666 5.33165 17.8124 6.33333C17.8124 9.88079 12.0752 15.0971 9.49992 17.0208Z" fill="#F43249"/>
</g>
<defs>
<clipPath id="clip0_3542_52450">
<rect width="19" height="19" fill="white"/>
</clipPath>
</defs>
</svg>
