<svg width="29" height="28" viewBox="0 0 29 28" fill="none" xmlns="http://www.w3.org/2000/svg">
<path d="M21.2541 24.5818C20.2861 24.8678 19.1421 24.9998 17.8001 24.9998H11.2001C9.85809 24.9998 8.71409 24.8678 7.74609 24.5818C7.98809 21.7218 10.9251 19.4668 14.5001 19.4668C18.0751 19.4668 21.0121 21.7218 21.2541 24.5818Z" fill="white" stroke="#1A1A18" stroke-linecap="round" stroke-linejoin="round"/>
<path d="M17.8 3H11.2C5.7 3 3.5 5.2 3.5 10.7V17.3C3.5 21.458 4.754 23.735 7.746 24.582C7.988 21.722 10.925 19.467 14.5 19.467C18.075 19.467 21.012 21.722 21.254 24.582C24.246 23.735 25.5 21.458 25.5 17.3V10.7C25.5 5.2 23.3 3 17.8 3ZM14.5 16.387C12.322 16.387 10.562 14.616 10.562 12.438C10.562 10.26 12.322 8.5 14.5 8.5C16.678 8.5 18.438 10.26 18.438 12.438C18.438 14.616 16.678 16.387 14.5 16.387Z" fill="#FFEC00" stroke="#1A1A18" stroke-linecap="round" stroke-linejoin="round"/>
<path d="M18.438 12.438C18.438 14.616 16.678 16.387 14.5 16.387C12.322 16.387 10.562 14.616 10.562 12.438C10.562 10.26 12.322 8.5 14.5 8.5C16.678 8.5 18.438 10.26 18.438 12.438Z" fill="white" stroke="#1A1A18" stroke-linecap="round" stroke-linejoin="round"/>
</svg>
