<svg width="20" height="20" viewBox="0 0 20 20" fill="none" xmlns="http://www.w3.org/2000/svg">
<path d="M17.5 6.4585H2.5C2.15833 6.4585 1.875 6.17516 1.875 5.8335C1.875 5.49183 2.15833 5.2085 2.5 5.2085H17.5C17.8417 5.2085 18.125 5.49183 18.125 5.8335C18.125 6.17516 17.8417 6.4585 17.5 6.4585Z" fill="#1A1A18"/>
<path d="M15 10.625H5C4.65833 10.625 4.375 10.3417 4.375 10C4.375 9.65833 4.65833 9.375 5 9.375H15C15.3417 9.375 15.625 9.65833 15.625 10C15.625 10.3417 15.3417 10.625 15 10.625Z" fill="#1A1A18"/>
<path d="M11.6668 14.7915H8.3335C7.99183 14.7915 7.7085 14.5082 7.7085 14.1665C7.7085 13.8248 7.99183 13.5415 8.3335 13.5415H11.6668C12.0085 13.5415 12.2918 13.8248 12.2918 14.1665C12.2918 14.5082 12.0085 14.7915 11.6668 14.7915Z" fill="#1A1A18"/>
</svg>
