<svg width="40" height="40" viewBox="0 0 40 40" fill="none" xmlns="http://www.w3.org/2000/svg">
<path fill-rule="evenodd" clip-rule="evenodd" d="M7.11637 3.99237C6.22915 3.99237 5.50991 4.71161 5.50991 5.59883C5.50991 6.48605 6.22915 7.20529 7.11637 7.20529H7.69533C8.46109 7.20529 9.12041 7.7458 9.27059 8.4967L11.7087 23.543C12.009 25.0448 13.3277 26.1258 14.8592 26.1258L29.1338 24.6979C30.6283 24.6979 31.9255 23.6673 32.2635 22.2115L34.3568 14.6223C34.7075 13.1115 33.5604 11.6677 32.0095 11.6677L12.6101 8.81175L12.4211 7.86659C11.9706 5.6139 9.99263 3.99237 7.69533 3.99237H7.11637ZM18.3616 31.1236C18.3616 32.8981 16.9231 34.3366 15.1486 34.3366C13.3742 34.3366 11.9357 32.8981 11.9357 31.1236C11.9357 29.3492 13.3742 27.9107 15.1486 27.9107C16.9231 27.9107 18.3616 29.3492 18.3616 31.1236ZM31.2132 31.1236C31.2132 32.8981 29.7748 34.3366 28.0003 34.3366C26.2259 34.3366 24.7874 32.8981 24.7874 31.1236C24.7874 29.3492 26.2259 27.9107 28.0003 27.9107C29.7748 27.9107 31.2132 29.3492 31.2132 31.1236ZM20.932 14.3362C21.3313 14.3362 21.655 14.6599 21.655 15.0591V17.2278H23.8236C24.2228 17.2278 24.5465 17.5515 24.5465 17.9507C24.5465 18.35 24.2228 18.6736 23.8236 18.6736H21.655V20.8423C21.655 21.2416 21.3313 21.5652 20.932 21.5652C20.5328 21.5652 20.2091 21.2416 20.2091 20.8423V18.6736H18.0404C17.6411 18.6736 17.3175 18.35 17.3175 17.9507C17.3175 17.5515 17.6411 17.2278 18.0404 17.2278H20.2091V15.0591C20.2091 14.6599 20.5328 14.3362 20.932 14.3362Z" fill="#04A0E6"/>
</svg>
