<svg width="29" height="28" viewBox="0 0 29 28" fill="none" xmlns="http://www.w3.org/2000/svg">
<path d="M11.1174 3.65771L7.79199 6.99862" stroke="#8E8E93" stroke-miterlimit="10" stroke-linecap="round" stroke-linejoin="round"/>
<path d="M17.7686 3.65771L21.0939 6.99862" stroke="#8E8E93" stroke-miterlimit="10" stroke-linecap="round" stroke-linejoin="round"/>
<path d="M2.36377 9.62352C2.36377 7.19676 3.57088 7 5.07062 7H24.043C25.5427 7 26.7498 7.19676 26.7498 9.62352C26.7498 12.4438 25.5427 12.247 24.043 12.247H5.07062C3.57088 12.247 2.36377 12.4438 2.36377 9.62352Z" stroke="#8E8E93"/>
<path d="M12.2266 16.2271V19.568" stroke="#8E8E93" stroke-linecap="round"/>
<path d="M16.6611 16.2271V19.568" stroke="#8E8E93" stroke-linecap="round"/>
<path d="M4.10596 12.25L5.83962 20.58C6.23307 22.8433 7.17983 24.5 10.6963 24.5H18.1105C21.9344 24.5 22.5 22.9133 22.9426 20.72L25.0083 12.25" stroke="#8E8E93" stroke-linecap="round"/>
</svg>
