<svg width="30" height="25" viewBox="0 0 30 25" fill="none" xmlns="http://www.w3.org/2000/svg">
<path d="M1 0C0.447715 0 0 0.447715 0 1C0 1.55228 0.447715 2 1 2V0ZM7.91014 2.85349L6.94852 3.12791V3.12791L7.91014 2.85349ZM8.83977 6.11111L7.87815 6.38553L8.83977 6.11111ZM11.9572 17.0354L12.9188 16.761V16.761L11.9572 17.0354ZM27.0082 16.9531L27.9784 17.1954L27.0082 16.9531ZM28.9225 9.28648L29.8927 9.52874V9.52874L28.9225 9.28648ZM13.7624 23C13.2101 23 12.7624 23.4477 12.7624 24C12.7624 24.5523 13.2101 25 13.7624 25V23ZM15.0386 25C15.5909 25 16.0386 24.5523 16.0386 24C16.0386 23.4477 15.5909 23 15.0386 23V25ZM23.9723 23C23.42 23 22.9723 23.4477 22.9723 24C22.9723 24.5523 23.42 25 23.9723 25V23ZM25.2486 25C25.8009 25 26.2486 24.5523 26.2486 24C26.2486 23.4477 25.8009 23 25.2486 23V25ZM1 2H5.45586V0H1V2ZM6.94852 3.12791L7.87815 6.38553L9.80138 5.8367L8.87175 2.57907L6.94852 3.12791ZM7.87815 6.38553L10.9956 17.3098L12.9188 16.761L9.80138 5.8367L7.87815 6.38553ZM14.4115 19.8889H24.5319V17.8889H14.4115V19.8889ZM27.9784 17.1954L29.8927 9.52874L27.9523 9.04422L26.038 16.7109L27.9784 17.1954ZM26.4463 5.11111H8.83977V7.11111H26.4463V5.11111ZM13.7624 25H15.0386V23H13.7624V25ZM23.9723 25H25.2486V23H23.9723V25ZM29.8927 9.52874C30.4527 7.28626 28.7589 5.11111 26.4463 5.11111V7.11111C27.4548 7.11111 28.1979 8.06084 27.9523 9.04422L29.8927 9.52874ZM24.5319 19.8889C26.1629 19.8889 27.5833 18.7776 27.9784 17.1954L26.038 16.7109C25.8649 17.404 25.2434 17.8889 24.5319 17.8889V19.8889ZM10.9956 17.3098C11.4311 18.8357 12.8246 19.8889 14.4115 19.8889V17.8889C13.7192 17.8889 13.1096 17.4293 12.9188 16.761L10.9956 17.3098ZM5.45586 2C6.1482 2 6.7578 2.45958 6.94852 3.12791L8.87175 2.57907C8.4363 1.05319 7.0428 0 5.45586 0V2Z" fill="white"/>
</svg>
