<svg width="21" height="21" viewBox="0 0 21 21" fill="none" xmlns="http://www.w3.org/2000/svg">
<path d="M10.9361 2.79736C10.2651 2.79736 9.62151 3.06394 9.14701 3.53843L3.1445 9.54094C2.48577 10.1997 2.48577 11.2677 3.1445 11.9264L8.6989 17.4808C9.35763 18.1395 10.4256 18.1395 11.0844 17.4808L17.0869 11.4783C17.5614 11.0038 17.8279 10.3602 17.8279 9.6892V4.48415C17.8279 3.55256 17.0727 2.79736 16.1412 2.79736H10.9361Z" fill="#DBE0E9"/>
<path d="M13.117 15.4483L5.17717 7.50842L3.98444 8.70116L11.9243 16.641L13.117 15.4483Z" fill="#758399"/>
<path d="M14.4544 7.01429C14.4544 7.48008 14.0768 7.85768 13.611 7.85768C13.1452 7.85768 12.7676 7.48008 12.7676 7.01429C12.7676 6.5485 13.1452 6.1709 13.611 6.1709C14.0768 6.1709 14.4544 6.5485 14.4544 7.01429Z" fill="#758399"/>
</svg>
