<svg width="24" height="24" viewBox="0 0 24 24" fill="none" xmlns="http://www.w3.org/2000/svg">
<path d="M13.3459 5.36669L13.3463 5.36637C15.2814 3.39562 18.3708 3.11644 20.4138 4.8347C22.7965 6.8421 22.9232 10.4491 20.7862 12.6258L20.786 12.6259L12.4719 21.0993C12.2092 21.3669 11.7872 21.3669 11.5245 21.0993L3.21059 12.6262C3.21052 12.6261 3.21045 12.6261 3.21037 12.626C3.21035 12.626 3.21032 12.6259 3.2103 12.6259C1.07737 10.4492 1.2042 6.84206 3.5868 4.8347C5.63009 3.11621 8.7235 3.39602 10.6539 5.36587L10.6547 5.36669L11.5012 6.22762L12.0003 6.73529L12.4995 6.22762L13.3459 5.36669Z" stroke="#1890FF" stroke-width="1.4"/>
</svg>
