<svg width="18" height="18" viewBox="0 0 18 18" fill="none" xmlns="http://www.w3.org/2000/svg">
<path d="M9.00007 14.2501C8.36857 14.2501 7.73632 14.1166 7.12207 13.8788" stroke="#23262F" stroke-linecap="round" stroke-linejoin="round"/>
<path d="M15.6615 9.35059C14.2425 11.9748 11.6213 14.2496 9 14.2496" stroke="#23262F" stroke-linecap="round" stroke-linejoin="round"/>
<path d="M14.3091 6.69043C14.8273 7.29718 15.2878 7.95868 15.6613 8.64943C15.7791 8.86768 15.7791 9.13243 15.6613 9.35068" stroke="#23262F" stroke-linecap="round" stroke-linejoin="round"/>
<path d="M3.75 14.25L14.25 3.75" stroke="#23262F" stroke-linecap="round" stroke-linejoin="round"/>
<path d="M7.33006 10.6708C6.40756 9.74832 6.40756 8.25207 7.33006 7.32957C8.25256 6.40707 9.74881 6.40707 10.6713 7.32957" stroke="#23262F" stroke-linecap="round" stroke-linejoin="round"/>
<path d="M12.7833 5.217C11.6231 4.31925 10.3113 3.75 9.0003 3.75C6.37905 3.75 3.7578 6.02475 2.3388 8.64975C2.22105 8.868 2.22105 9.13275 2.3388 9.351C3.0483 10.6628 4.0578 11.8868 5.2173 12.7838" stroke="#23262F" stroke-linecap="round" stroke-linejoin="round"/>
</svg>
