<svg width="24" height="24" viewBox="0 0 24 24" fill="none" xmlns="http://www.w3.org/2000/svg">
<path fill-rule="evenodd" clip-rule="evenodd" d="M3.15565 5C2.81834 5 2.5449 5.27344 2.5449 5.61075C2.5449 5.94806 2.81834 6.2215 3.15565 6.2215H21.7245C22.0618 6.2215 22.3352 5.94806 22.3352 5.61075C22.3352 5.27344 22.0618 5 21.7245 5H3.15565ZM2.45288 11.9679C2.45288 11.6306 2.72632 11.3572 3.06363 11.3572H17.0236C17.3609 11.3572 17.6344 11.6306 17.6344 11.9679C17.6344 12.3052 17.3609 12.5787 17.0236 12.5787H3.06363C2.72632 12.5787 2.45288 12.3052 2.45288 11.9679ZM2.45117 18.0754C2.45117 17.7381 2.72461 17.4647 3.06192 17.4647H20.5119C20.8492 17.4647 21.1227 17.7381 21.1227 18.0754C21.1227 18.4127 20.8492 18.6862 20.5119 18.6862H3.06192C2.72461 18.6862 2.45117 18.4127 2.45117 18.0754Z" fill="#FAA500"/>
</svg>
