<svg width="24" height="24" viewBox="0 0 24 24" fill="none" xmlns="http://www.w3.org/2000/svg">
<path fill-rule="evenodd" clip-rule="evenodd" d="M10.1517 5.88653C10.4367 5.56934 10.4367 5.05508 10.1517 4.73789C9.86673 4.4207 9.40469 4.4207 9.11971 4.73789L3.21373 11.3114C3.07688 11.4637 3 11.6703 3 11.8857C3 12.1011 3.07688 12.3077 3.21373 12.46L9.11971 19.0335C9.40469 19.3507 9.86673 19.3507 10.1517 19.0335C10.4367 18.7163 10.4367 18.2021 10.1517 17.8849L5.49138 12.6978H20.2705C20.6735 12.6978 21.0002 12.3342 21.0002 11.8856C21.0002 11.437 20.6735 11.0734 20.2705 11.0734H5.49155L10.1517 5.88653Z" fill="#1A1A18"/>
</svg>
