<svg width="24" height="24" viewBox="0 0 24 24" fill="none" xmlns="http://www.w3.org/2000/svg">
<path fill-rule="evenodd" clip-rule="evenodd" d="M3 3.11108C3 2.5588 3.44772 2.11108 4 2.11108H4.36039C5.79044 2.11108 7.02168 3.12047 7.30213 4.52274L7.4198 5.11108L19.4956 6.88886C20.4611 6.88886 21.1751 7.78763 20.9568 8.72806L19.6537 13.4522C19.4434 14.3585 18.6359 15 17.7055 15L8.8198 15.8889C7.86644 15.8889 7.04561 15.2159 6.85864 14.2811L5.34097 4.91497C5.24749 4.44754 4.83707 4.11108 4.36039 4.11108H4C3.44772 4.11108 3 3.66337 3 3.11108ZM9 21C10.1046 21 11 20.1045 11 19C11 17.8954 10.1046 17 9 17C7.89543 17 7 17.8954 7 19C7 20.1045 7.89543 21 9 21ZM17 21C18.1046 21 19 20.1045 19 19C19 17.8954 18.1046 17 17 17C15.8954 17 15 17.8954 15 19C15 20.1045 15.8954 21 17 21Z" fill="#3D5172"/>
</svg>
