<svg width="30" height="30" viewBox="0 0 30 30" fill="none" xmlns="http://www.w3.org/2000/svg">
<path fill-rule="evenodd" clip-rule="evenodd" d="M6.81818 10.372V23.1325C6.81818 24.2895 7.73396 25.2275 8.86364 25.2275H11.9318H18.0682H21.1364C22.266 25.2275 23.1818 24.2895 23.1818 23.1325V10.372L16.2031 5.17365C15.4858 4.63938 14.5142 4.63938 13.7969 5.17365L6.81818 10.372ZM18.75 25V17.2222C18.75 15.9949 17.6307 15 16.25 15H13.75C12.3693 15 11.25 15.9949 11.25 17.2222V25H18.75Z" fill="#1890FF"/>
<path d="M6.81818 10.372L6.44482 9.87081C6.28648 9.98876 6.19318 10.1746 6.19318 10.372H6.81818ZM23.1818 10.372H23.8068C23.8068 10.1746 23.7135 9.98876 23.5552 9.87081L23.1818 10.372ZM16.2031 5.17365L15.8297 5.67487V5.67487L16.2031 5.17365ZM13.7969 5.17365L13.4236 4.67242V4.67242L13.7969 5.17365ZM18.75 25V25.625C19.0952 25.625 19.375 25.3452 19.375 25H18.75ZM11.25 25H10.625C10.625 25.3452 10.9048 25.625 11.25 25.625V25ZM7.44318 23.1325V10.372H6.19318V23.1325H7.44318ZM8.86364 24.6025C8.09316 24.6025 7.44318 23.9585 7.44318 23.1325H6.19318C6.19318 24.6205 7.37477 25.8525 8.86364 25.8525V24.6025ZM11.9318 24.6025H8.86364V25.8525H11.9318V24.6025ZM18.0682 24.6025H11.9318V25.8525H18.0682V24.6025ZM21.1364 24.6025H18.0682V25.8525H21.1364V24.6025ZM22.5568 23.1325C22.5568 23.9585 21.9068 24.6025 21.1364 24.6025V25.8525C22.6252 25.8525 23.8068 24.6205 23.8068 23.1325H22.5568ZM22.5568 10.372V23.1325H23.8068V10.372H22.5568ZM15.8297 5.67487L22.8085 10.8733L23.5552 9.87081L16.5764 4.67242L15.8297 5.67487ZM14.1703 5.67487C14.666 5.30564 15.334 5.30564 15.8297 5.67487L16.5764 4.67242C15.6376 3.97313 14.3624 3.97313 13.4236 4.67242L14.1703 5.67487ZM7.19154 10.8733L14.1703 5.67487L13.4236 4.67242L6.44482 9.87081L7.19154 10.8733ZM18.125 17.2222V25H19.375V17.2222H18.125ZM16.25 15.625C17.3568 15.625 18.125 16.4073 18.125 17.2222H19.375C19.375 15.5826 17.9047 14.375 16.25 14.375V15.625ZM13.75 15.625H16.25V14.375H13.75V15.625ZM11.875 17.2222C11.875 16.4073 12.6432 15.625 13.75 15.625V14.375C12.0953 14.375 10.625 15.5826 10.625 17.2222H11.875ZM11.875 25V17.2222H10.625V25H11.875ZM18.75 24.375H11.25V25.625H18.75V24.375ZM4.12336 13.1587L7.19154 10.8733L6.44482 9.87081L3.37664 12.1563L4.12336 13.1587ZM22.8085 10.8733L25.8766 13.1587L26.6234 12.1563L23.5552 9.87081L22.8085 10.8733Z" fill="#1890FF"/>
</svg>
