<svg width="18" height="18" viewBox="0 0 18 18" fill="none" xmlns="http://www.w3.org/2000/svg">
<path fill-rule="evenodd" clip-rule="evenodd" d="M1.58242 1.28571H16.4176C16.5814 1.28571 16.7143 1.41855 16.7143 1.58242V6.72528C16.7143 6.88914 16.5814 7.02198 16.4176 7.02198H1.58242C1.41855 7.02198 1.28571 6.88914 1.28571 6.72528V1.58242C1.28571 1.41855 1.41855 1.28571 1.58242 1.28571ZM0 1.58242C0 0.708472 0.708472 0 1.58242 0H16.4176C17.2915 0 18 0.708472 18 1.58242V6.72528C18 7.59922 17.2915 8.30769 16.4176 8.30769H1.58242C0.708471 8.30769 0 7.59922 0 6.72528V1.58242ZM1.58242 10.978H16.4176C16.5814 10.978 16.7143 11.1108 16.7143 11.2747V16.4176C16.7143 16.5814 16.5814 16.7143 16.4176 16.7143H1.58242C1.41855 16.7143 1.28571 16.5814 1.28571 16.4176V11.2747C1.28571 11.1108 1.41855 10.978 1.58242 10.978ZM0 11.2747C0 10.4008 0.708472 9.6923 1.58242 9.6923H16.4176C17.2915 9.6923 18 10.4008 18 11.2747V16.4176C18 17.2915 17.2915 18 16.4176 18H1.58242C0.708471 18 0 17.2915 0 16.4176V11.2747Z" fill="#293644"/>
</svg>
