<svg width="24" height="20" viewBox="0 0 24 20" fill="none" xmlns="http://www.w3.org/2000/svg">
<path fill-rule="evenodd" clip-rule="evenodd" d="M14.4568 2.04112C13.9465 1.89532 13.4071 2.14932 13.1944 2.63551L11.4182 6.6953C11.1189 7.37937 10.6332 8.06658 10.0591 8.6315C9.73613 8.94938 9.36405 9.24917 8.95658 9.48948C8.98513 9.6556 9 9.8262 9 10V16.7208C10.9662 17.2191 12.4652 17.4974 13.8747 17.5744C15.4555 17.6609 16.9683 17.4962 18.9391 17.0527C19.666 16.8891 20.238 16.2957 20.3907 15.5321L21.541 9.78099C21.6647 9.1622 21.1914 8.58487 20.5604 8.58487H16.6805C15.4446 8.58487 14.5045 7.47514 14.7077 6.25607L15.2112 3.23469C15.2999 2.70287 14.9752 2.18923 14.4568 2.04112ZM8.50064 18.6575C10.5273 19.1716 12.1718 19.4844 13.7655 19.5715C15.5816 19.6707 17.2858 19.4748 19.3783 19.0039C20.9084 18.6595 22.0509 17.4293 22.3519 15.9244L23.5021 10.1732C23.8734 8.31684 22.4535 6.58487 20.5604 6.58487L16.6805 6.58487L17.184 3.56349C17.4399 2.02832 16.5027 0.54563 15.0062 0.118067C13.5333 -0.302781 11.9761 0.430404 11.362 1.83387L9.58589 5.89366C9.39928 6.3202 9.0685 6.80035 8.65628 7.20602C8.43074 7.42798 8.20006 7.6089 7.97781 7.74442C7.45036 7.28166 6.75828 7 6 7H3C1.34315 7 0 8.34315 0 10V17C0 18.6569 1.34315 20 3 20H6C7.04478 20 7.96357 19.4664 8.50064 18.6575ZM3 9C2.44772 9 2 9.44772 2 10V17C2 17.5523 2.44772 18 3 18H6C6.46838 18 6.86381 17.677 6.97116 17.2404C6.98984 17.1644 7 17.0841 7 17V10C7 9.80645 6.946 9.62856 6.85273 9.47711C6.67511 9.18868 6.35916 9 6 9H3Z" fill="#ffffff55"/>
</svg>
