<svg width="20" height="16" viewBox="0 0 20 16" fill="none" xmlns="http://www.w3.org/2000/svg">
<path d="M18.0849 8.63892C18.6372 8.63892 19.0849 8.1912 19.0849 7.63892C19.0849 7.08663 18.6372 6.63892 18.0849 6.63892V8.63892ZM0.485764 6.93181C0.09524 7.32233 0.09524 7.9555 0.485764 8.34602L6.84973 14.71C7.24025 15.1005 7.87341 15.1005 8.26394 14.71C8.65446 14.3195 8.65446 13.6863 8.26394 13.2958L2.60708 7.63892L8.26394 1.98206C8.65446 1.59154 8.65446 0.958373 8.26394 0.567848C7.87341 0.177324 7.24025 0.177324 6.84973 0.567848L0.485764 6.93181ZM18.0849 6.63892L1.19287 6.63892V8.63892L18.0849 8.63892V6.63892Z" fill="black"/>
</svg>
