<svg width="24" height="24" viewBox="0 0 24 24" fill="none" xmlns="http://www.w3.org/2000/svg">
<path d="M5.0297 20.5101L4.55413 21.0901L5.0297 20.5101ZM15.268 10C15.268 11.7918 13.808 13.25 12 13.25V14.75C14.6301 14.75 16.768 12.6265 16.768 10H15.268ZM12 13.25C10.192 13.25 8.73201 11.7918 8.73201 10H7.23201C7.23201 12.6265 9.36989 14.75 12 14.75V13.25ZM8.73201 10C8.73201 8.20824 10.192 6.75 12 6.75V5.25C9.36989 5.25 7.23201 7.37348 7.23201 10H8.73201ZM12 6.75C13.808 6.75 15.268 8.20824 15.268 10H16.768C16.768 7.37348 14.6301 5.25 12 5.25V6.75ZM1.75 12C1.75 6.33908 6.33908 1.75 12 1.75V0.25C5.51065 0.25 0.25 5.51065 0.25 12H1.75ZM12 1.75C17.6609 1.75 22.25 6.33908 22.25 12H23.75C23.75 5.51065 18.4893 0.25 12 0.25V1.75ZM9 17.75H15V16.25H9V17.75ZM15 17.75C16.6596 17.75 18.0297 18.9946 18.2258 20.601L19.7148 20.4192C19.4278 18.0695 17.427 16.25 15 16.25V17.75ZM22.25 12C22.25 15.1956 20.7885 18.0492 18.4947 19.9302L19.4459 21.0901C22.0722 18.9364 23.75 15.6638 23.75 12H22.25ZM18.4947 19.9302C16.7264 21.3803 14.4657 22.25 12 22.25V23.75C14.8251 23.75 17.4192 22.752 19.4459 21.0901L18.4947 19.9302ZM5.77417 20.601C5.97033 18.9946 7.34038 17.75 9 17.75V16.25C6.57303 16.25 4.57216 18.0695 4.28523 20.4192L5.77417 20.601ZM12 22.25C9.53425 22.25 7.27364 21.3803 5.50527 19.9302L4.55413 21.0901C6.58083 22.752 9.17487 23.75 12 23.75V22.25ZM5.50527 19.9302C3.21145 18.0492 1.75 15.1956 1.75 12H0.25C0.25 15.6638 1.92779 18.9364 4.55413 21.0901L5.50527 19.9302Z" fill="#293644"/>
</svg>
