<svg width="16" height="16" viewBox="0 0 16 16" fill="none" xmlns="http://www.w3.org/2000/svg">
<path fill-rule="evenodd" clip-rule="evenodd" d="M2.16656 1.1057C1.87367 0.812809 1.39879 0.812809 1.1059 1.1057C0.813007 1.3986 0.813007 1.87347 1.1059 2.16636L6.9396 8.00006L1.10601 13.8336C0.81312 14.1265 0.81312 14.6014 1.10601 14.8943C1.39891 15.1872 1.87378 15.1872 2.16667 14.8943L8.00026 9.06072L13.8338 14.8943C14.1267 15.1872 14.6016 15.1872 14.8945 14.8943C15.1874 14.6014 15.1874 14.1265 14.8945 13.8336L9.06092 8.00006L14.8946 2.16638C15.1875 1.87349 15.1875 1.39862 14.8946 1.10572C14.6017 0.812831 14.1268 0.81283 13.8339 1.10572L8.00026 6.9394L2.16656 1.1057Z" fill="#0D6992"/>
</svg>
