<svg width="25" height="25" viewBox="0 0 25 25" fill="none" xmlns="http://www.w3.org/2000/svg">
<g clip-path="url(#clip0_603_1076)">
<path d="M34.0937 1.85059C33.5863 -0.0458822 32.1003 -1.54118 30.2156 -2.05176C26.7725 -3 12.9999 -3 12.9999 -3C12.9999 -3 -0.772687 -3 -4.21584 -2.08824C-6.06426 -1.57765 -7.5865 -0.0458822 -8.09391 1.85059C-9 5.31529 -9 12.5 -9 12.5C-9 12.5 -9 19.7212 -8.09391 23.1494C-7.5865 25.0459 -6.10051 26.5412 -4.21584 27.0518C-0.736444 28 12.9999 28 12.9999 28C12.9999 28 26.7725 28 30.2156 27.0882C32.1003 26.5776 33.5863 25.0824 34.0937 23.1859C34.9998 19.7212 34.9998 12.5365 34.9998 12.5365C34.9998 12.5365 35.0361 5.31529 34.0937 1.85059Z" fill="#FF0000"/>
<path d="M9 18L19 12.5L9 7V18Z" fill="white"/>
</g>
<defs>
<clipPath id="clip0_603_1076">
<path d="M0 5C0 2.23858 2.23858 0 5 0H20C22.7614 0 25 2.23858 25 5V20C25 22.7614 22.7614 25 20 25H5C2.23858 25 0 22.7614 0 20V5Z" fill="white"/>
</clipPath>
</defs>
</svg>
